<svg width="31" height="31" viewBox="0 0 31 31" fill="none" xmlns="http://www.w3.org/2000/svg">
<g clip-path="url(#clip0)">
<path d="M9.88901 19.5108H28.1285L31 2.98501L29.1554 2.66477L26.5538 17.6388H9.88901L7.18545 2.07822L3.55737 1.08984H0V2.96183H3.3069L5.54477 3.57156L8.1516 18.5746L7.29708 23.4922H30.0778V21.6202H9.52242L9.88901 19.5108Z" fill="#40404C"/>
<path d="M12.3657 24.8027C10.9722 24.8027 9.83838 25.9363 9.83838 27.3299C9.83838 28.7234 10.9722 29.8572 12.3657 29.8572C13.7593 29.8572 14.8931 28.7234 14.8931 27.3299C14.8931 25.9363 13.7593 24.8027 12.3657 24.8027ZM12.3657 27.9852C12.0043 27.9852 11.7106 27.6912 11.7106 27.3299C11.7106 26.9687 12.0043 26.6747 12.3657 26.6747C12.7271 26.6747 13.0209 26.9687 13.0209 27.3299C13.0209 27.6912 12.7269 27.9852 12.3657 27.9852Z" fill="#40404C"/>
<path d="M24.0772 24.8027C22.6834 24.8027 21.5498 25.9363 21.5498 27.3299C21.5498 28.7234 22.6834 29.8572 24.0772 29.8572C25.4707 29.8572 26.6043 28.7234 26.6043 27.3299C26.6043 25.9363 25.4707 24.8027 24.0772 24.8027ZM24.0772 27.9852C23.7158 27.9852 23.4218 27.6912 23.4218 27.3299C23.4218 26.9687 23.7158 26.6747 24.0772 26.6747C24.4383 26.6747 24.7323 26.9687 24.7323 27.3299C24.7323 27.6912 24.4383 27.9852 24.0772 27.9852Z" fill="#40404C"/>
<path d="M23.3895 8.50367L22.0657 7.17992L19.1573 10.0883V2.02539H17.2854V10.0883L14.3767 7.17992L13.0532 8.50367L18.2212 13.6719L23.3895 8.50367Z" fill="#40404C"/>
</g>
<defs>
<clipPath id="clip0">
<rect width="31" height="31" fill="white"/>
</clipPath>
</defs>
</svg>
