<svg width="11" height="15" viewBox="0 0 11 15" fill="none" xmlns="http://www.w3.org/2000/svg">
<path d="M5.99214 14.7957L10.4559 10.332C10.7282 10.0596 10.7282 9.61794 10.4559 9.34559C10.1835 9.07319 9.74192 9.07319 9.46952 9.34559L6.19642 12.6187L6.19642 0.697461C6.19642 0.312295 5.88412 -2.08767e-07 5.49895 -2.25603e-07C5.11384 -2.42437e-07 4.80149 0.312295 4.80149 0.697461L4.80149 12.6187L1.52839 9.34571C1.25599 9.0733 0.814411 9.0733 0.542011 9.34571C0.405922 9.48185 0.337739 9.6604 0.337739 9.83889C0.337739 10.0174 0.405921 10.1959 0.542011 10.3321L5.00576 14.7957C5.27817 15.0681 5.71974 15.0681 5.99214 14.7957Z" fill="#40404C"/>
</svg>
