<svg width="9" height="15" viewBox="0 0 9 15" fill="none" xmlns="http://www.w3.org/2000/svg">
<path d="M2.70668 5.89356H3.20668V5.39356V3.69152C3.20668 2.67615 3.52456 1.88679 4.04404 1.35376C4.56219 0.822096 5.32491 0.500084 6.30384 0.5C6.30396 0.5 6.30409 0.5 6.30422 0.5L8.05475 0.502809V2.40479L6.93871 2.40518C6.93865 2.40518 6.93859 2.40518 6.93853 2.40518C6.44768 2.40521 5.99203 2.4958 5.69082 2.83698C5.40271 3.1633 5.37009 3.59862 5.37009 3.95072V5.39356V5.89356H5.87009H7.96354L7.96276 7.97149H5.87009H5.37009V8.47149V14.5H3.20668V8.47149V7.97149H2.70668H0.945068V5.89356H2.70668ZM8.24905 2.40472H8.24887H8.24905Z" stroke="#40404C"/>
</svg>
