<svg width="15" height="15" viewBox="0 0 15 15" fill="none" xmlns="http://www.w3.org/2000/svg">
<path d="M14.8881 0.600323C14.7583 0.455012 14.5536 0.416048 14.3839 0.490168L0.262949 6.67176C0.106505 6.74031 0.00367393 6.89354 -0.00013463 7.06463C-0.00394319 7.23543 0.0918568 7.39304 0.245371 7.46863L3.61712 9.12682L4.45735 14.1676C4.4846 14.3589 4.63489 14.5127 4.83059 14.5405C4.97121 14.5608 5.11096 14.5112 5.20764 14.4116L7.86953 11.7497L11.6681 14.4632C11.79 14.5499 11.947 14.569 12.0853 14.5142C12.2239 14.4594 12.3253 14.3378 12.3546 14.1916L14.9913 0.978836C15.0173 0.84788 14.9836 0.707549 14.8881 0.600323ZM3.96517 8.31852L1.48228 7.09744L11.2914 2.80343L3.96517 8.31852ZM5.34035 9.62486L4.93166 11.6683L4.49075 9.02282L9.88045 4.96552L5.46017 9.40074C5.39807 9.46285 5.35676 9.54371 5.34035 9.62486ZM5.60783 12.7684L6.06896 10.4636L7.14444 11.2318L5.60783 12.7684ZM11.6257 13.3526L6.44806 9.65445L13.8446 2.23332L11.6257 13.3526Z" fill="#40404C"/>
</svg>
