<svg width="15" height="15" viewBox="0 0 15 15" fill="none" xmlns="http://www.w3.org/2000/svg">
<path d="M11.2503 1.00365C10.147 0.3654 8.86617 0 7.49997 0C6.13617 0 4.85727 0.36405 3.75537 1.00035L7.50372 7.5L7.50807 7.5075H15C15 7.50495 15 7.50255 15 7.5C15 4.7241 13.4919 2.3004 11.2503 1.00365Z" fill="#FED935"/>
<path d="M3.7554 1C1.51065 2.296 0 4.72135 0 7.49965C0 10.2779 1.51065 12.7033 3.7554 13.9993L7.4994 7.50715L7.50375 7.49965L3.7554 1Z" fill="#D935FD"/>
<path d="M7.50807 7.50781H7.49937L3.75537 14C4.85727 14.6363 6.13617 15.0003 7.49997 15.0003C8.86617 15.0003 10.147 14.6349 11.2503 13.9967C13.4898 12.7011 14.9973 10.2806 15 7.50781H7.50807Z" fill="#3559FD"/>
</svg>
