<svg width="30" height="30" viewBox="0 0 30 30" fill="none" xmlns="http://www.w3.org/2000/svg">
<path d="M26.8611 10.7066C25.2193 5.5806 20.4268 2.05078 15 2.05078C9.57321 2.05078 4.78088 5.5806 3.13889 10.7066C1.35361 11.0484 0 12.6208 0 14.5042C0 16.3875 1.35361 17.9599 3.13889 18.3016C3.82576 20.4458 5.07889 22.3579 6.78909 23.8605C8.53798 25.397 10.6496 26.4013 12.9236 26.784C13.3285 27.5143 14.1074 28.0101 15 28.0101C16.3085 28.0101 17.373 26.9456 17.373 25.6371C17.373 24.3285 16.3085 23.264 15 23.264C13.9279 23.264 13.0202 23.9788 12.7267 24.9566C10.9618 24.5739 9.32533 23.7488 7.9493 22.5398C6.64284 21.392 5.64651 19.9667 5.02716 18.3714H5.84656V10.6371H5.02716C6.60736 6.56456 10.5563 3.80859 15 3.80859C19.444 3.80859 23.3926 6.56456 24.9728 10.6371H24.1534V18.3714H26.1328C28.2653 18.3714 30 16.6365 30 14.5042C30 12.6208 28.6464 11.0484 26.8611 10.7066ZM15 25.0218C15.3392 25.0218 15.6152 25.2976 15.6152 25.6371C15.6152 25.9763 15.3392 26.2523 15 26.2523C14.6608 26.2523 14.3848 25.9763 14.3848 25.6371C14.3848 25.2976 14.6608 25.0218 15 25.0218ZM1.75781 14.5042C1.75781 13.3411 2.70401 12.3949 3.86719 12.3949H4.08875V16.6136H3.86719C2.70401 16.6136 1.75781 15.6672 1.75781 14.5042ZM26.1328 16.6136H25.9113V12.3949H26.1328C27.296 12.3949 28.2422 13.3411 28.2422 14.5042C28.2422 15.6674 27.296 16.6136 26.1328 16.6136Z" fill="#FDD935"/>
<path d="M15.0002 6.20117C10.4216 6.20117 6.69678 9.92599 6.69678 14.5045C6.69678 19.0829 10.4216 22.8077 15.0002 22.8077C19.5787 22.8077 23.3035 19.0829 23.3035 14.5045C23.3035 9.92599 19.5787 6.20117 15.0002 6.20117ZM15.0002 21.0499C11.3909 21.0499 8.45459 18.1138 8.45459 14.5045C8.45459 10.8953 11.3909 7.95898 15.0002 7.95898C18.6094 7.95898 21.5457 10.8953 21.5457 14.5045C21.5457 18.1136 18.6094 21.0499 15.0002 21.0499Z" fill="#FDD935"/>
<path d="M15.0002 17.5336C13.3295 17.5336 11.9702 16.1745 11.9702 14.5039H10.2124C10.2124 17.1438 12.3602 19.2914 15.0002 19.2914C17.6401 19.2914 19.7879 17.1438 19.7879 14.5039H18.0301C18.0301 16.1745 16.6708 17.5336 15.0002 17.5336Z" fill="#FDD935"/>
</svg>
