<svg width="15" height="15" viewBox="0 0 15 15" fill="none" xmlns="http://www.w3.org/2000/svg">
<path d="M14.999 12.7932L14.7013 13.1168C14.5368 13.2957 13.0557 14.8678 11.7377 14.9893C11.6604 14.9964 11.5798 15 11.4978 15C9.73081 14.9999 6.90318 13.3139 4.29415 10.7049C2.9823 9.39308 1.88039 8.00182 1.10753 6.68154C0.550632 5.73018 -0.0919065 4.36451 0.00977898 3.26129C0.131238 1.94332 1.70337 0.462244 1.88226 0.29772L2.20586 0L6.22583 4.01997L4.87587 5.36993L9.62909 10.1232L10.9791 8.77319L14.999 12.7932ZM13.7161 12.807L10.9791 10.0699L9.62909 11.4199L3.57915 5.36996L4.92911 4.02L2.19147 1.28233C1.69781 1.80295 0.983535 2.68663 0.922805 3.34546C0.860913 4.01713 1.20753 5.0374 1.89885 6.21835C2.63272 7.47203 3.6852 8.79929 4.9425 10.0566C7.31317 12.4272 10.0088 14.083 11.498 14.0831C11.5518 14.0831 11.6041 14.0808 11.6536 14.0762C12.3069 14.016 13.2004 13.2933 13.7161 12.807Z" fill="#FED935"/>
<path d="M13.0777 6.81294H13.9946C13.9946 3.61092 11.3896 1.00586 8.18755 1.00586V1.92277C10.884 1.92277 13.0777 4.1165 13.0777 6.81294Z" fill="#FED935"/>
<path d="M10.9381 6.81216H11.855C11.855 4.78983 10.2097 3.14453 8.18735 3.14453V4.06144C9.7041 4.06144 10.9381 5.29541 10.9381 6.81216Z" fill="#FED935"/>
</svg>
