<?xml version="1.0" encoding="UTF-8"?>
<svg width="30px" height="30px" viewBox="0 0 30 30" version="1.1" xmlns="http://www.w3.org/2000/svg" xmlns:xlink="http://www.w3.org/1999/xlink">
    <!-- Generator: Sketch 55.2 (78181) - https://sketchapp.com -->
    <title>Untitled</title>
    <desc>Created with Sketch.</desc>
    <g id="Page-1" stroke="none" stroke-width="1" fill="none" fill-rule="evenodd">
        <g id="Ellipse" fill="#FDD935" fill-rule="nonzero">
            <circle id="Oval" cx="15" cy="15" r="15"></circle>
        </g>
        <g id="instagram-1" transform="translate(8.000000, 8.000000)" fill="#40404C" fill-rule="nonzero">
            <path d="M4.06038,0 L10.9396,0 C13.1786,0 15,1.82144 15,4.06036 L15,10.9397 C15,13.1785 13.1786,15 10.9396,15 L4.06027,15 C1.82147,15 2.86102e-05,13.1785 2.86102e-05,10.9397 L2.86102e-05,4.06036 C2.86102e-05,1.82144 1.82147,0 4.06038,0 L4.06038,0 Z M0.879391,10.9397 C0.879391,12.6936 2.30635,14.1206 4.06038,14.1206 L10.9396,14.1206 C12.6937,14.1206 14.1206,12.6936 14.1206,10.9397 L14.1206,4.06036 C14.1206,2.30632 12.6937,0.879362 10.9396,0.879362 L4.06027,0.879362 C2.30635,0.879362 0.879391,2.30632 0.879391,4.06036 L0.879391,10.9397 Z" id="Shape"></path>
            <path d="M7.50012,3.39844 C9.7617,3.39844 11.6016,5.2383 11.6016,7.49988 C11.6016,9.76146 9.7617,11.6013 7.50012,11.6013 C5.23854,11.6013 3.39868,9.76146 3.39868,7.49988 C3.39868,5.2383 5.23854,3.39844 7.50012,3.39844 Z M7.50012,10.722 C9.2767,10.722 10.7222,9.27657 10.7222,7.49988 C10.7222,5.7233 9.2767,4.2778 7.50012,4.2778 C5.72343,4.2778 4.27804,5.7233 4.27804,7.49988 C4.27804,9.27657 5.72343,10.722 7.50012,10.722 Z" id="Shape"></path>
            <path d="M3.30028,1.94141 C3.96861,1.94141 4.51221,2.48511 4.51221,3.15333 C4.51221,3.82167 3.96861,4.36537 3.30028,4.36537 C2.63195,4.36537 2.08824,3.82167 2.08824,3.15333 C2.08824,2.485 2.63195,1.94141 3.30028,1.94141 Z M3.30028,3.4859 C3.48361,3.4859 3.63284,3.33667 3.63284,3.153335 C3.63284,2.96988 3.48361,2.82077 3.30028,2.82077 C3.11683,2.82077 2.9676,2.96988 2.9676,3.153335 C2.9676,3.33667 3.11683,3.4859 3.30028,3.4859 Z" id="Shape"></path>
        </g>
    </g>
</svg>