<svg width="15" height="6" viewBox="0 0 15 6" fill="none" xmlns="http://www.w3.org/2000/svg">
<path d="M14.2039 0.953683L14.3117 0.879012C14.5214 0.72668 14.5707 0.425917 14.4255 0.207109C14.2791 -0.0136493 13.9911 -0.0634723 13.7856 0.086779C6.59848 5.36287 1.36672 0.346434 1.14693 0.130878C0.961466 -0.0513745 0.669202 -0.0421387 0.496495 0.151432C0.322921 0.345783 0.331346 0.649799 0.514955 0.832702C0.524866 0.842589 0.688529 0.999864 0.987235 1.23259L0.0665861 2.82682C-0.0647405 3.05421 0.00414387 3.35107 0.220833 3.49013C0.294921 3.53696 0.379044 3.56051 0.460442 3.56051C0.615184 3.56051 0.765839 3.4779 0.853431 3.32921L1.75364 1.77167C2.25838 2.09429 2.9056 2.44657 3.67671 2.74421L3.23304 4.30162C3.15958 4.55802 3.29697 4.82548 3.53968 4.90171L3.672 4.92227C3.86812 4.92227 4.05148 4.78698 4.1112 4.57766L4.55052 3.04159C5.26229 3.24596 6.05855 3.38398 6.91787 3.41676V4.95934C6.91787 5.22628 7.12316 5.44184 7.37739 5.44184C7.63137 5.44184 7.83679 5.22628 7.83679 4.95934V3.40818C8.58659 3.36499 9.38124 3.22957 10.2109 2.9811L10.7765 4.54709C10.847 4.74001 11.0217 4.85813 11.2062 4.85813L11.3687 4.82769C11.606 4.73299 11.7263 4.45473 11.6361 4.20574L11.0854 2.67995C11.8409 2.3853 12.6218 1.99738 13.4283 1.48275L14.1728 2.52618C14.2635 2.65224 14.4019 2.71988 14.5401 2.71988C14.6365 2.71988 14.7328 2.68918 14.8154 2.62297C15.0191 2.46296 15.0602 2.16051 14.9086 1.94755L14.2039 0.953683Z" fill="#40404C"/>
</svg>
