<svg width="5" height="712" viewBox="0 0 5 712" fill="none" xmlns="http://www.w3.org/2000/svg">
<circle cx="2.5" cy="457.5" r="2" fill="white" stroke="#D4D4D5"/>
<circle cx="2.5" cy="421.5" r="2" fill="white" stroke="#D4D4D5"/>
<circle cx="2.5" cy="493.5" r="2" fill="white" stroke="#D4D4D5"/>
<circle cx="2.5" cy="529.5" r="2" fill="white" stroke="#D4D4D5"/>
<circle cx="2.5" cy="565.5" r="2" fill="white" stroke="#D4D4D5"/>
<circle cx="2.5" cy="601.5" r="2" fill="white" stroke="#D4D4D5"/>
<circle cx="2.5" cy="637.5" r="2" fill="white" stroke="#D4D4D5"/>
<circle cx="2.5" cy="673.5" r="2" fill="white" stroke="#D4D4D5"/>
<circle cx="2.5" cy="709.5" r="2" fill="white" stroke="#D4D4D5"/>
<circle cx="2.5" cy="83.5" r="2" fill="white" stroke="#D4D4D5"/>
<circle cx="2.5" cy="47.5" r="2" fill="white" stroke="#D4D4D5"/>
<circle cx="2.5" cy="119.5" r="2" fill="white" stroke="#D4D4D5"/>
<circle cx="2.5" cy="155.5" r="2" fill="white" stroke="#D4D4D5"/>
<circle cx="2.5" cy="191.5" r="2" fill="white" stroke="#D4D4D5"/>
<circle cx="2.5" cy="227.5" r="2" fill="white" stroke="#D4D4D5"/>
<circle cx="2.5" cy="263.5" r="2" fill="white" stroke="#D4D4D5"/>
<circle cx="2.5" cy="299.5" r="2" fill="white" stroke="#D4D4D5"/>
<circle cx="2.5" cy="335.5" r="2" fill="white" stroke="#D4D4D5"/>
<line x1="2.5" y1="-2.18557e-08" x2="2.50003" y2="709" stroke="#D4D4D5"/>
</svg>
