<svg width="30" height="30" viewBox="0 0 30 30" fill="none" xmlns="http://www.w3.org/2000/svg">
<g clip-path="url(#clip0)">
<path d="M18.2229 13.0078C15.3797 13.0078 13.0667 15.3209 13.0667 18.1641C13.0667 21.0072 15.3797 23.3203 18.2229 23.3203C21.0661 23.3203 23.3792 21.0072 23.3792 18.1641C23.3792 15.3209 21.0661 13.0078 18.2229 13.0078ZM18.2229 22.1484C16.0259 22.1484 14.2385 20.3611 14.2385 18.1641C14.2385 15.967 16.0259 14.1797 18.2229 14.1797C20.4199 14.1797 22.2073 15.967 22.2073 18.1641C22.2073 20.3611 20.4199 22.1484 18.2229 22.1484Z" fill="#40404C"/>
<path d="M29.4765 26.6082L24.8264 21.9578C25.4709 20.8401 25.8401 19.5444 25.8401 18.1641C25.8401 16.1268 25.036 14.274 23.7289 12.9057V6.32744C23.7284 6.32744 23.728 6.32744 23.7275 6.32744C23.7275 6.175 23.6694 6.02531 23.5574 5.91316L17.8159 0.171661C17.7038 0.0595093 17.5539 0.00160218 17.4014 0.00160218C17.4014 0.000915527 17.4014 0.000686648 17.4017 0H1.81641C0.847092 0 0.0585938 0.788498 0.0585938 1.75781V28.2422C0.0585938 29.2115 0.847092 30 1.81641 30H21.9713C22.9404 30 23.7291 29.2115 23.7291 28.2422V26.4803L26.6668 29.4182C27.0541 29.8055 27.5629 29.9991 28.0719 29.9991C28.5807 29.9991 29.0895 29.8055 29.4768 29.4182C30.2513 28.6434 30.2513 27.383 29.4765 26.6082ZM18.2229 24.6094C14.669 24.6094 11.7776 21.7179 11.7776 18.1641C11.7776 14.6102 14.669 11.7188 18.2229 11.7188C21.7767 11.7188 24.6682 14.6102 24.6682 18.1641C24.6682 21.7179 21.7767 24.6094 18.2229 24.6094ZM17.9876 2.00066L21.7284 5.74173H18.5735C18.2504 5.74173 17.9876 5.47874 17.9876 5.15579V2.00066ZM22.5572 28.2422C22.5572 28.5654 22.2942 28.8281 21.9713 28.8281H1.81641C1.49323 28.8281 1.23047 28.5654 1.23047 28.2422V1.75781C1.23047 1.43463 1.49323 1.17188 1.81641 1.17188H16.8157V5.15556C16.8157 6.12488 17.6042 6.91338 18.5735 6.91338H22.557V11.9039C21.3261 11.0488 19.8322 10.5469 18.2229 10.5469C14.0227 10.5469 10.6057 13.9639 10.6057 18.1641C10.6057 18.9841 10.7366 19.7745 10.9776 20.5154H3.81752C3.49411 20.5154 3.23158 20.7777 3.23158 21.1013C3.23158 21.4247 3.49411 21.6872 3.81752 21.6872H11.2997C11.3548 21.6872 11.4084 21.679 11.459 21.6646C12.7288 24.1081 15.284 25.7812 18.2229 25.7812C19.603 25.7812 20.8987 25.4121 22.0164 24.7675L22.5572 25.3084V28.2422ZM28.648 28.5894C28.3303 28.9073 27.8133 28.9073 27.4956 28.5894L22.9992 24.093C23.4231 23.7508 23.8094 23.3645 24.1516 22.9406L28.648 27.4368C28.9659 27.7547 28.9659 28.2717 28.648 28.5894Z" fill="#40404C"/>
<path d="M18.2229 15.5273C17.8993 15.5273 17.637 15.7896 17.637 16.1133C17.637 16.4369 17.8993 16.6992 18.2229 16.6992C19.0304 16.6992 19.6875 17.3563 19.6875 18.1638C19.6875 18.4875 19.9498 18.7498 20.2735 18.7498C20.5971 18.7498 20.8594 18.4875 20.8594 18.1638C20.8594 16.71 19.6768 15.5273 18.2229 15.5273Z" fill="#40404C"/>
<path d="M9.09084 16.4531H3.81763C3.49422 16.4531 3.23169 16.7154 3.23169 17.0391C3.23169 17.3627 3.49422 17.625 3.81763 17.625H9.09084C9.41447 17.625 9.67677 17.3627 9.67677 17.0391C9.67677 16.7154 9.41447 16.4531 9.09084 16.4531Z" fill="#40404C"/>
<path d="M9.43805 12.3906H3.81763C3.49422 12.3906 3.23169 12.6529 3.23169 12.9766C3.23169 13.3 3.49422 13.5625 3.81763 13.5625H9.43805C9.76169 13.5625 10.024 13.3 10.024 12.9766C10.024 12.6529 9.76169 12.3906 9.43805 12.3906Z" fill="#40404C"/>
<path d="M11.1914 24.5781C11.0371 24.5781 10.8861 24.6406 10.7771 24.7498C10.6682 24.8587 10.6055 25.0098 10.6055 25.1641C10.6055 25.3181 10.6682 25.4694 10.7771 25.5781C10.8861 25.6873 11.0371 25.75 11.1914 25.75C11.3454 25.75 11.4967 25.6873 11.6061 25.5781C11.7151 25.4694 11.7773 25.3181 11.7773 25.1641C11.7773 25.0098 11.7151 24.8587 11.6061 24.7498C11.4967 24.6406 11.3454 24.5781 11.1914 24.5781Z" fill="#40404C"/>
<path d="M8.78505 24.5781H3.81763C3.49422 24.5781 3.23169 24.8404 3.23169 25.1641C3.23169 25.4875 3.49422 25.75 3.81763 25.75H8.78505C9.10846 25.75 9.37099 25.4875 9.37099 25.1641C9.37099 24.8404 9.10869 24.5781 8.78505 24.5781Z" fill="#40404C"/>
<path d="M3.81738 9.5C3.97211 9.5 4.12271 9.43729 4.23166 9.32834C4.34129 9.2187 4.40332 9.06833 4.40332 8.91406C4.40332 8.76003 4.34129 8.60896 4.23166 8.49933C4.12271 8.39038 3.97142 8.32812 3.81738 8.32812C3.66335 8.32812 3.51274 8.39038 3.40311 8.49933C3.29416 8.60828 3.23145 8.75934 3.23145 8.91406C3.23145 9.06833 3.29416 9.21939 3.40311 9.32834C3.51228 9.43729 3.66335 9.5 3.81738 9.5Z" fill="#40404C"/>
<path d="M15.0585 8.32812H6.30103C5.97762 8.32812 5.71509 8.59042 5.71509 8.91406C5.71509 9.23747 5.97762 9.5 6.30103 9.5H15.0585C15.3821 9.5 15.6444 9.23747 15.6444 8.91406C15.6444 8.59042 15.3821 8.32812 15.0585 8.32812Z" fill="#40404C"/>
<path d="M3.81763 5.4375H15.0587C15.3823 5.4375 15.6446 5.1752 15.6446 4.85156C15.6446 4.52792 15.3823 4.26562 15.0587 4.26562H3.81763C3.49422 4.26562 3.23169 4.52792 3.23169 4.85156C3.23169 5.1752 3.49422 5.4375 3.81763 5.4375Z" fill="#40404C"/>
</g>
<defs>
<clipPath id="clip0">
<rect width="30" height="30" fill="white"/>
</clipPath>
</defs>
</svg>
