<svg width="86" height="86" viewBox="0 0 86 86" fill="none" xmlns="http://www.w3.org/2000/svg">
<path d="M43 86C66.7482 86 86 66.7482 86 43C86 19.2518 66.7482 0 43 0C19.2518 0 0 19.2518 0 43C0 66.7482 19.2518 86 43 86Z" fill="#D20A11"/>
<path d="M48.8584 43.3906C48.3194 43.3906 47.8818 43.8282 47.8818 44.3672C47.8818 44.9062 48.3194 45.3438 48.8584 45.3438C49.3974 45.3438 49.835 44.9062 49.835 44.3672C49.835 43.8282 49.3974 43.3906 48.8584 43.3906Z" fill="white"/>
<path d="M27.9773 54.1118L18.2117 66.4165C17.9786 66.7099 17.9343 67.1108 18.0972 67.448C18.2601 67.7856 18.6019 68 18.9765 68H67.0234C67.398 68 67.7398 67.7856 67.9027 67.448C68.0659 67.1108 68.0213 66.7099 67.7882 66.4165L58.0226 54.1118C57.8376 53.8784 57.5557 53.7422 57.2578 53.7422H48.7033L56.0065 42.2874C57.7197 39.719 58.6249 36.7237 58.6249 33.625C58.6249 25.0095 51.6158 18 42.9999 18C34.3841 18 27.3749 25.0095 27.3749 33.625C27.3749 36.7237 28.2802 39.7186 29.9933 42.2874L37.2966 53.7422H28.7421C28.4442 53.7422 28.1627 53.8784 27.9773 54.1118ZM24.3312 61.8477H30.236L26.9034 66.0469H20.9983L24.3312 61.8477ZM38.5421 55.6953L41.2192 59.8945H34.2795L37.6124 55.6953H38.5421ZM47.4582 55.6953H48.3878L51.7203 59.8945H44.781L47.4582 55.6953ZM53.2706 61.8477L56.6031 66.0469H29.3967L32.7296 61.8477H53.2706ZM59.0968 66.0469L55.7639 61.8477H61.6691L65.0016 66.0469H59.0968ZM60.1188 59.8945H54.214L50.8811 55.6953H56.7863L60.1188 59.8945ZM31.6237 41.2117C30.1219 38.9633 29.3281 36.3399 29.3281 33.625C29.3281 26.0864 35.4613 19.9531 42.9999 19.9531C50.5385 19.9531 56.6718 26.0864 56.6718 33.625C56.6718 36.3399 55.878 38.9633 54.3765 41.2117C54.3723 41.2174 54.3689 41.2231 54.3651 41.2288C53.7238 42.2348 43.4939 58.2802 42.9999 59.0545C41.7575 57.1056 32.9001 43.2132 31.6348 41.2288C31.6314 41.2231 31.6276 41.2174 31.6237 41.2117ZM35.1188 55.6953L31.7863 59.8945H25.8811L29.214 55.6953H35.1188Z" fill="white"/>
<path d="M42.999 43.3906C48.3602 43.3906 52.7646 39.0491 52.7646 33.625C52.7646 28.2402 48.3839 23.8594 42.999 23.8594C37.6142 23.8594 33.2334 28.2402 33.2334 33.625C33.2334 39.0506 37.6394 43.3906 42.999 43.3906ZM42.999 25.8125C47.307 25.8125 50.8115 29.3171 50.8115 33.625C50.8115 37.973 47.2787 41.4375 42.999 41.4375C38.7182 41.4375 35.1865 37.973 35.1865 33.625C35.1865 29.3171 38.6911 25.8125 42.999 25.8125Z" fill="white"/>
<path d="M47.1128 46.7224C46.6512 46.4439 46.0508 46.5927 45.7723 47.0546L42.1628 53.043C41.8843 53.5049 42.0331 54.105 42.4951 54.3834C42.9589 54.6631 43.5582 54.5112 43.8356 54.0512L47.445 48.0629C47.7235 47.6009 47.5747 47.0009 47.1128 46.7224Z" fill="white"/>
</svg>
