<svg width="87" height="86" viewBox="0 0 87 86" fill="none" xmlns="http://www.w3.org/2000/svg">
<path d="M43.1254 86C66.9428 86 86.2507 66.7482 86.2507 43C86.2507 19.2518 66.9428 0 43.1254 0C19.3079 0 0 19.2518 0 43C0 66.7482 19.3079 86 43.1254 86Z" fill="#E34A02"/>
<g clip-path="url(#clip0)">
<path d="M40.4627 57.2513C40.3649 56.9489 40.1036 56.7287 39.7891 56.6834L35.0433 55.9982L32.926 51.7303C32.6823 51.3183 32.1508 51.1818 31.7387 51.4256C31.6131 51.4999 31.5083 51.6047 31.434 51.7303L29.3134 55.9982L24.5676 56.6834C24.1126 56.7495 23.7972 57.1719 23.8632 57.627C23.8897 57.8091 23.9757 57.9774 24.108 58.1055L27.5475 61.4359L26.7249 67.0476C26.6582 67.5026 26.973 67.9254 27.428 67.9921C27.6416 68.0234 27.8592 67.9704 28.0345 67.8444L32.1767 64.8628L36.3222 67.8435C36.6956 68.1118 37.2159 68.0267 37.4842 67.6533C37.6102 67.4779 37.6632 67.2604 37.6319 67.0467L36.8093 61.435L40.2487 58.1047C40.4768 57.8841 40.5598 57.5532 40.4627 57.2513ZM35.3447 60.5358C35.1524 60.722 35.0612 60.9894 35.0999 61.2544L35.6994 65.3449L32.6629 63.161C32.3725 62.952 31.9809 62.952 31.6905 63.161L28.654 65.3449L29.2534 61.2544C29.2922 60.9894 29.2011 60.722 29.0087 60.5358L26.4817 58.0922L29.9786 57.5876C30.2492 57.5483 30.4832 57.3787 30.6048 57.1339L32.1767 53.9717L33.747 57.1305C33.8685 57.3754 34.1026 57.545 34.3731 57.5843L37.87 58.0888L35.3447 60.5358Z" fill="white"/>
<path d="M34.4396 36.9424C34.3116 36.8101 34.1433 36.724 33.9611 36.6976L29.2153 36.0123L27.098 31.7479C26.8542 31.3359 26.3227 31.1994 25.9107 31.4432C25.7851 31.5175 25.6803 31.6223 25.606 31.7479L23.482 36.0158L18.7362 36.701C18.4217 36.7463 18.1605 36.9665 18.0626 37.2688C17.9652 37.5711 18.0482 37.9024 18.2766 38.1231L21.7069 41.4401L20.8968 46.1268C20.8159 46.5794 21.1172 47.012 21.5699 47.093C21.7517 47.1254 21.9389 47.0966 22.1024 47.011L26.3486 44.7938L30.5949 47.011C30.714 47.0727 30.8462 47.1049 30.9804 47.1051C31.4402 47.105 31.8129 46.7321 31.8128 46.2723C31.8128 46.2247 31.8086 46.1771 31.8005 46.1302L30.9904 41.4401L34.4207 38.1198C34.751 37.7998 34.7594 37.2727 34.4396 36.9424ZM29.515 40.5534C29.317 40.745 29.2266 41.0222 29.2735 41.2936L29.8713 44.7555L26.7325 43.1162C26.4908 42.9908 26.2031 42.9908 25.9615 43.1162L22.8226 44.7555L23.4204 41.2936C23.4673 41.0222 23.3769 40.745 23.1789 40.5534L20.6537 38.1098L24.1522 37.6019C24.4228 37.5625 24.6568 37.393 24.7784 37.1481L26.3486 33.9892L27.9189 37.1481C28.0405 37.393 28.2744 37.5625 28.545 37.6019L32.0419 38.1064L29.515 40.5534Z" fill="white"/>
<path d="M67.743 36.9403C67.615 36.808 67.4467 36.722 67.2645 36.6955L62.5187 36.0103L60.4014 31.7457C60.1609 31.3319 59.6303 31.1914 59.2165 31.432C59.0864 31.5075 58.9783 31.6157 58.9028 31.7457L56.7821 36.0136L52.0363 36.6989C51.5813 36.765 51.266 37.1874 51.332 37.6424C51.3584 37.8245 51.4445 37.9928 51.5768 38.1209L55.007 41.4413L54.1969 46.128C54.117 46.5809 54.4192 47.0128 54.8721 47.0927C55.0544 47.1249 55.2421 47.0954 55.4059 47.0089L59.6521 44.7917L63.8983 47.0089C64.0175 47.0705 64.1497 47.1028 64.2838 47.103C64.7436 47.1029 65.1163 46.73 65.1162 46.2702C65.1162 46.2225 65.112 46.175 65.1039 46.128L64.2938 41.438L67.7241 38.1176C68.0544 37.7978 68.0629 37.2707 67.743 36.9403ZM62.8151 40.5514C62.6172 40.743 62.5267 41.0202 62.5737 41.2916L63.1715 44.7535L60.0326 43.1141C59.7909 42.9887 59.5033 42.9887 59.2616 43.1141L56.1227 44.7535L56.7205 41.2916C56.7675 41.0202 56.677 40.743 56.4791 40.5514L53.9571 38.1077L57.454 37.6032C57.7246 37.5638 57.9586 37.3943 58.0802 37.1494L59.6521 33.9872L61.219 37.1461C61.3406 37.391 61.5746 37.5605 61.8451 37.5998L65.342 38.1044L62.8151 40.5514Z" fill="white"/>
<path d="M51.2864 23.9466C51.1885 23.6442 50.9273 23.424 50.6128 23.3787L45.867 22.6935L43.7497 18.4256C43.506 18.0136 42.9744 17.8772 42.5624 18.1209C42.4368 18.1952 42.332 18.3 42.2577 18.4256L40.1337 22.6935L35.3879 23.3787C34.9329 23.4448 34.6175 23.8673 34.6836 24.3223C34.71 24.5044 34.7961 24.6727 34.9283 24.8008L38.3586 28.1212L37.5485 32.8079C37.4696 33.2609 37.7729 33.6921 38.2259 33.771C38.4062 33.8024 38.5919 33.7735 38.7541 33.6888L43.0004 31.4716L47.2466 33.6888C47.3658 33.7504 47.4979 33.7827 47.6321 33.7829C48.0919 33.7828 48.4646 33.4099 48.4645 32.9501C48.4645 32.9024 48.4603 32.8548 48.4522 32.8079L47.6421 28.1179L51.0724 24.7975C51.2995 24.5775 51.3824 24.2478 51.2864 23.9466ZM46.1684 27.2312C45.9704 27.4228 45.88 27.6999 45.9269 27.9713L46.5247 31.4333L43.3859 29.7939C43.1442 29.6685 42.8565 29.6685 42.6149 29.7939L39.476 31.4333L40.0738 27.9713C40.1207 27.6998 40.0303 27.4228 39.8323 27.2312L37.3054 24.7875L40.8023 24.2829C41.0729 24.2436 41.3069 24.0741 41.4284 23.8292L43.0004 20.667L44.5706 23.8258C44.6922 24.0707 44.9263 24.2403 45.1967 24.2796L48.6937 24.7842L46.1684 27.2312Z" fill="white"/>
<path d="M62.1102 57.2513C62.0123 56.9489 61.7511 56.7287 61.4366 56.6834L56.6908 55.9982L54.5735 51.7303C54.3298 51.3183 53.7982 51.1818 53.3862 51.4256C53.2606 51.4999 53.1558 51.6047 53.0815 51.7303L50.9609 55.9982L46.2151 56.6834C45.76 56.7495 45.4447 57.1719 45.5107 57.627C45.5371 57.8091 45.6232 57.9774 45.7555 58.1055L49.1949 61.4359L48.3723 67.0476C48.3057 67.5026 48.6205 67.9254 49.0754 67.9921C49.2891 68.0234 49.5066 67.9704 49.682 67.8444L53.8242 64.8628L57.9697 67.8435C58.3431 68.1118 58.8634 68.0267 59.1317 67.6533C59.2577 67.4779 59.3107 67.2604 59.2793 67.0467L58.4567 61.435L61.8962 58.1047C62.1243 57.8841 62.2073 57.5532 62.1102 57.2513ZM56.9922 60.5358C56.7999 60.722 56.7087 60.9894 56.7474 61.2544L57.3469 65.3449L54.3104 63.161C54.0199 62.952 53.6284 62.952 53.3379 63.161L50.3014 65.3449L50.9009 61.2544C50.9396 60.9894 50.8486 60.722 50.6561 60.5358L48.1292 58.0922L51.6261 57.5876C51.8967 57.5483 52.1307 57.3787 52.2522 57.1339L53.8242 53.9717L55.3944 57.1305C55.516 57.3754 55.7501 57.545 56.0206 57.5843L59.5175 58.0888L56.9922 60.5358Z" fill="white"/>
<path d="M43.0009 35.5273C37.483 35.5273 33.0098 40.0006 33.0098 45.5185C33.0157 51.034 37.4854 55.5037 43.0009 55.5097C48.5188 55.5097 52.9921 51.0364 52.9921 45.5185C52.9921 40.0006 48.5188 35.5273 43.0009 35.5273ZM43.0009 53.8445C38.4026 53.8445 34.675 50.1168 34.675 45.5185C34.6801 40.9223 38.4047 37.1975 43.0009 37.1925C47.5992 37.1925 51.3269 40.9202 51.3269 45.5185C51.3269 50.1167 47.5992 53.8445 43.0009 53.8445Z" fill="white"/>
<path d="M47.9966 40.5234H44.6662C44.2064 40.5234 43.8336 40.8962 43.8336 41.356V43.0212H42.1684V41.356C42.1684 40.8962 41.7956 40.5234 41.3358 40.5234H38.0054C37.5456 40.5234 37.1729 40.8962 37.1729 41.356V49.682C37.1729 50.1418 37.5456 50.5146 38.0054 50.5146H41.3358C41.7956 50.5146 42.1684 50.1418 42.1684 49.682V48.0168H43.8336V49.682C43.8336 50.1418 44.2064 50.5146 44.6662 50.5146H47.9966C48.4564 50.5146 48.8292 50.1418 48.8292 49.682V41.356C48.8292 40.8961 48.4564 40.5234 47.9966 40.5234ZM47.164 48.8494H45.4988V47.1842C45.4988 46.7244 45.126 46.3516 44.6662 46.3516H41.3358C40.876 46.3516 40.5032 46.7244 40.5032 47.1842V48.8494H38.838V42.1886H40.5032V43.8538C40.5032 44.3136 40.876 44.6864 41.3358 44.6864H44.6662C45.126 44.6864 45.4988 44.3136 45.4988 43.8538V42.1886H47.164V48.8494Z" fill="white"/>
</g>
<defs>
<clipPath id="clip0">
<rect x="18" y="18" width="50" height="50" fill="white"/>
</clipPath>
</defs>
</svg>
