<svg width="271" height="237" viewBox="0 0 271 237" fill="none" xmlns="http://www.w3.org/2000/svg">
<path d="M202.068 155.482H186.249V236.44H202.068V155.482Z" fill="#40404C"/>
<path d="M207.037 227.93H181.688C177.473 227.93 174.055 231.34 174.055 235.543V236.446H214.664V235.543C214.67 231.334 211.251 227.93 207.037 227.93Z" fill="#7A98C5"/>
<path d="M197.559 155.482H181.739V236.44H197.559V155.482Z" fill="#292930"/>
<path d="M202.529 227.93H177.18C172.966 227.93 169.547 231.34 169.547 235.543V236.446H210.156V235.543C210.162 231.334 206.743 227.93 202.529 227.93Z" fill="#2F3052"/>
<path d="M181.739 155.482V165.959L202.067 159.128V155.482H181.739Z" fill="#ACACAC"/>
<path d="M35.4971 155.482H19.6777V236.44H35.4971V155.482Z" fill="#40404C"/>
<path d="M40.4712 227.93H15.1222C10.9079 227.93 7.48926 231.34 7.48926 235.543V236.446H48.0984V235.543C48.0984 231.334 44.6855 227.93 40.4712 227.93Z" fill="#40404C"/>
<path d="M30.9893 155.482H15.1699V236.44H30.9893V155.482Z" fill="#292930"/>
<path d="M35.9634 227.93H10.6144C6.40013 227.93 2.98145 231.34 2.98145 235.543V236.446H43.5906V235.543C43.5906 231.334 40.1777 227.93 35.9634 227.93Z" fill="#292930"/>
<path d="M15.1699 155.482V165.959L35.4975 159.128V155.482H15.1699Z" fill="#40404C"/>
<path d="M170.399 90.9473H211.648C214.998 90.9473 218.088 92.7471 219.731 95.6567L231.815 117.306C233.308 119.946 231.394 123.212 228.356 123.212H184.414L170.399 90.9473Z" fill="#292930"/>
<path d="M190.543 90.9473L208.709 123.218H194.158L176.511 90.9473H190.543Z" fill="#ACACAC"/>
<path d="M199.628 98.8496L201.68 102.449H212.559L210.449 98.8496H199.628Z" fill="#40404C"/>
<path d="M202.326 103.633L202.931 104.708H213.816L213.153 103.633H202.326Z" fill="#F3E2D9"/>
<path d="M203.427 105.572L204.032 106.648H214.917L214.254 105.572H203.427Z" fill="#F3E2D9"/>
<path d="M204.332 107.498L204.937 108.579H215.822L215.159 107.498H204.332Z" fill="#F3E2D9"/>
<path d="M207.069 112.162L207.675 113.237H218.553L217.89 112.162H207.069Z" fill="#F3E2D9"/>
<path d="M208.172 114.094L208.771 115.175H219.656L218.993 114.094H208.172Z" fill="#F3E2D9"/>
<path d="M205.405 109.465L206.339 111.127H223.156L222.13 109.465H205.405Z" fill="#40404C"/>
<path d="M212.559 98.8496L218.076 108.372H221.829L216.254 98.8496H212.559Z" fill="#40404C"/>
<path d="M219.656 112.162L221.472 115.175H225.225L223.352 112.162H219.656Z" fill="#40404C"/>
<path d="M15.3936 155.484H210.068V143.242C210.068 138.705 208.938 134.237 206.782 130.24L188.599 96.5498C186.737 93.0997 183.122 90.9434 179.196 90.9434H15.3936V155.484Z" fill="#D4D4D5"/>
<path d="M0.537109 155.482H47.7818V143.24C47.7818 138.703 46.6519 134.235 44.4957 130.239L26.2205 96.3755C24.416 93.0346 20.9166 90.9473 17.1117 90.9473H0.537109V155.482Z" fill="#292930"/>
<path d="M68.7268 121.231L57.8193 101.898H161.769L175.605 125.147" stroke="#40404C" stroke-width="1.0617" stroke-miterlimit="10"/>
<path d="M62.875 110.846H167.188" stroke="#40404C" stroke-width="2.1233" stroke-miterlimit="10"/>
<path d="M66.8418 117.889H171.328L175.605 125.145L68.727 121.23L66.8418 117.889Z" fill="#40404C"/>
<path d="M61.5441 68.1191H56.54V90.9476H61.5441V68.1191Z" fill="#40404C"/>
<path d="M56.5396 68.1191H44.0352V90.9476H56.5396V68.1191Z" fill="#292930"/>
<path d="M52.9006 68.1191H47.8965V90.9476H52.9006V68.1191Z" fill="#40404C"/>
<path d="M47.897 68.1191H35.3926V90.9476H47.897V68.1191Z" fill="#292930"/>
<path d="M44.1496 68.1191H39.1455V90.9476H44.1496V68.1191Z" fill="#40404C"/>
<path d="M39.145 68.1191H26.6406V90.9476H39.145V68.1191Z" fill="#292930"/>
<path d="M34.8215 68.1191H29.8174V90.9476H34.8215V68.1191Z" fill="#40404C"/>
<path d="M29.8179 68.1191H17.3135V90.9476H29.8179V68.1191Z" fill="#292930"/>
<path d="M33.6119 71.6668C33.6119 72.3799 33.0296 72.9606 32.3147 72.9606C31.5998 72.9606 31.0176 72.3799 31.0176 71.6668C31.0176 70.9538 31.5998 70.373 32.3147 70.373C33.0353 70.373 33.6119 70.9538 33.6119 71.6668Z" fill="#E9E9EA"/>
<path d="M42.939 71.6668C42.939 72.3799 42.3567 72.9606 41.6419 72.9606C40.927 72.9606 40.3447 72.3799 40.3447 71.6668C40.3447 70.9538 40.927 70.373 41.6419 70.373C42.3625 70.373 42.939 70.9538 42.939 71.6668Z" fill="#E9E9EA"/>
<path d="M51.6958 71.6668C51.6958 72.3799 51.1136 72.9606 50.3987 72.9606C49.6838 72.9606 49.1016 72.3799 49.1016 71.6668C49.1016 70.9538 49.6838 70.373 50.3987 70.373C51.1136 70.373 51.6958 70.9538 51.6958 71.6668Z" fill="#E9E9EA"/>
<path d="M59.0061 72.9606C59.7225 72.9606 60.3033 72.3814 60.3033 71.6668C60.3033 70.9523 59.7225 70.373 59.0061 70.373C58.2897 70.373 57.709 70.9523 57.709 71.6668C57.709 72.3814 58.2897 72.9606 59.0061 72.9606Z" fill="#E9E9EA"/>
<path d="M61.543 87.6387H17.3135V90.9508H61.543V87.6387Z" fill="#ACACAC"/>
<path d="M78.1162 202.234C78.1162 212.97 86.8445 221.676 97.6079 221.676H140.356V202.234H78.1162Z" fill="#F5F5F8"/>
<path d="M68.7266 121.229H167.897C167.897 121.229 181.71 122.333 181.71 139.963C181.71 157.599 181.71 202.232 181.71 202.232H78.1179V140.866C78.1179 135.081 76.0078 129.492 72.1741 125.144L68.7266 121.229Z" fill="#F5F5F8"/>
<path d="M132.791 172.995C141.951 172.995 149.377 165.588 149.377 156.452C149.377 147.315 141.951 139.908 132.791 139.908C123.631 139.908 116.205 147.315 116.205 156.452C116.205 165.588 123.631 172.995 132.791 172.995Z" fill="#61ABEB"/>
<path d="M121.851 191.552C131.011 191.552 138.437 184.145 138.437 175.008C138.437 165.872 131.011 158.465 121.851 158.465C112.691 158.465 105.265 165.872 105.265 175.008C105.265 184.145 112.691 191.552 121.851 191.552Z" fill="#C80788"/>
<path d="M145.425 191.552C154.585 191.552 162.011 184.145 162.011 175.008C162.011 165.872 154.585 158.465 145.425 158.465C136.265 158.465 128.839 165.872 128.839 175.008C128.839 184.145 136.265 191.552 145.425 191.552Z" fill="#F8F039"/>
<path d="M133.071 202.233C133.071 202.233 123.905 201.428 123.905 211.094C123.905 220.76 116.041 221.675 116.041 221.675H140.364V202.233H133.071Z" fill="#292930"/>
<path d="M133.07 202.234H237.314C237.314 202.234 247.034 202.746 247.034 213.407V226.012H140.357V212.729C140.357 212.734 140.305 202.234 133.07 202.234Z" fill="#40404C"/>
<path d="M270.751 226.016C270.751 226.016 272.031 233.86 259.232 236.344H158.096L170.398 226.016V215.35H270.785L270.751 226.016Z" fill="#E9E9EA"/>
<path d="M140.356 226.018C140.356 231.722 144.992 236.345 150.711 236.345H160.044C165.763 236.345 170.398 231.722 170.398 226.018H140.356Z" fill="#40404C"/>
<path d="M21.0061 222.443H31.7495L49.5214 231.922L18.9688 231.556L21.0061 222.443Z" fill="#101010"/>
<path d="M18.8633 235.565L18.969 231.557L49.5217 231.922L49.4159 235.93L18.8633 235.565Z" fill="#E9E9EA"/>
<path d="M39.1791 225.928L35.6543 226.891" stroke="#E9E9EA" stroke-width="0.959" stroke-miterlimit="10" stroke-linecap="round" stroke-linejoin="round"/>
<path d="M35.7396 224.172L32.2148 225.128" stroke="#E9E9EA" stroke-width="0.959" stroke-miterlimit="10" stroke-linecap="round" stroke-linejoin="round"/>
<path d="M34.4573 207.334H23.5024L21.0068 222.444H31.9618L34.4573 207.334Z" fill="#E9E9EA"/>
<path d="M54.216 222.768H64.9595L82.7243 232.253L52.1787 231.887L54.216 222.768Z" fill="#101010"/>
<path d="M52.0732 235.895L52.179 231.887L82.7246 232.252L82.6188 236.26L52.0732 235.895Z" fill="#E9E9EA"/>
<path d="M72.382 226.26L68.8643 227.216" stroke="white" stroke-width="0.959" stroke-miterlimit="10" stroke-linecap="round" stroke-linejoin="round"/>
<path d="M68.9425 224.496L65.4248 225.459" stroke="white" stroke-width="0.959" stroke-miterlimit="10" stroke-linecap="round" stroke-linejoin="round"/>
<path d="M64.988 207.662H54.04L54.2163 222.766H65.1712L64.988 207.662Z" fill="#E9E9EA"/>
<path d="M63.4661 93.8262C63.4661 93.8262 64.3755 95.7598 66.0321 113.535C66.3705 117.191 66.5891 122.282 66.5468 125.953L67.3927 217.206L51.7216 217.037L48.7396 120.637L35.9307 217.994L19.5898 217.403L29.7976 96.5965L37.1784 95.3168L63.4661 93.8262Z" fill="#292930"/>
<path d="M48.7461 120.633L55.4431 117.561" stroke="#7B7B7B" stroke-width="1.1102" stroke-miterlimit="10" stroke-linecap="round" stroke-linejoin="round"/>
<path d="M62.5495 46.2812C62.5495 46.2812 71.7562 51.7517 73.5468 66.5739L60.3994 73.774L62.5495 46.2812Z" fill="#FDFFFF"/>
<path d="M44.9595 41.6477C40.4266 42.0344 35.9573 43.0258 31.7346 44.7133C30.6983 45.1282 29.6832 45.5782 28.7456 46.0634C25.813 47.5962 26.6871 50.908 27.0607 54.2831L28.7879 99.9731L65.7486 99.0379L67.2149 55.7878C67.5391 51.0768 64.7475 46.7454 60.4262 45.2266C55.5831 43.525 49.6756 41.6195 47.1026 41.4648L44.9595 41.6477Z" fill="#E34A02"/>
<path d="M66.1377 71.4753L67.0541 58.1016" stroke="#D4D4D5" stroke-width="0.984" stroke-miterlimit="10"/>
<path d="M58.2494 44.4821C58.2494 44.4821 51.4466 41.8242 47.1041 41.4727C47.1041 41.4727 41.1684 41.7258 37.0938 42.9774C37.0938 42.9774 39.3566 47.7939 49.7688 48.5814C60.1809 49.3689 58.2494 44.4821 58.2494 44.4821Z" fill="#E3A299"/>
<path d="M89.7093 66.6129L81.9901 102.403C81.7222 103.633 80.6225 104.505 79.3606 104.484L50.6408 103.978C48.9701 103.95 47.7435 102.396 48.11 100.764L56.1818 64.9816C56.4567 63.7651 57.5494 62.9003 58.8042 62.9284L87.1785 63.4276C88.8352 63.4558 90.0547 64.9956 89.7093 66.6129Z" fill="#292930"/>
<path d="M88.9206 64.1172L90.6196 65.868L50.395 104.808L48.5762 102.93L88.9206 64.1172Z" fill="#131314"/>
<path d="M91.2347 68.1812L83.5155 103.971C83.2476 105.202 82.1479 106.073 80.886 106.052L52.1662 105.546C50.4955 105.518 49.2689 103.964 49.6354 102.333L57.7071 66.5499C57.9821 65.3335 59.0748 64.4686 60.3296 64.4968L88.7039 64.996C90.3676 65.0171 91.5872 66.557 91.2347 68.1812Z" fill="#40404C"/>
<path d="M75.4372 81.2615C75.6135 82.942 74.3939 84.4467 72.7091 84.6295C71.0242 84.8053 69.5156 83.5889 69.3324 81.9084C69.1561 80.2279 70.3757 78.7231 72.0605 78.5403C73.7524 78.3645 75.261 79.581 75.4372 81.2615Z" fill="#D4D4D5"/>
<path d="M91.756 78.784L89.5918 87.517C89.3309 88.5858 88.3581 89.3241 87.2584 89.303C84.0156 89.2467 81.6117 86.2935 82.2179 83.1153L82.7749 80.2044C83.219 77.8699 85.1928 76.1332 87.5685 75.9785L89.3098 75.866C90.903 75.7676 92.1366 77.2441 91.756 78.784Z" fill="#E3A299"/>
<path d="M8.14768 67.5664L25.5248 94.0396L20.8439 99.3342L1.66211 79.8854L8.14768 67.5664Z" fill="#E3A299"/>
<path d="M41.4998 95.2422L34.0626 91.3327L34.7957 89.6452C35.0636 89.0334 34.8944 88.3092 34.3939 87.8803C33.8723 87.4373 33.1321 87.4232 32.5963 87.8521L25.2718 93.8007L20.8447 99.3344C24.863 102.892 27.4854 102.85 29.001 102.161C29.1773 102.224 29.3535 102.288 29.5297 102.344L35.7051 104.179C36.2761 104.432 36.9388 104.186 37.2208 103.61C37.4252 103.195 37.4957 102.527 36.3043 101.901L37.4957 102.527C38.102 102.794 38.7999 102.527 39.0819 101.908C39.3497 101.366 39.0184 100.642 38.3205 100.178L39.2299 100.551C39.8926 100.846 40.668 100.509 40.9147 99.7844C41.1262 99.1586 40.809 98.4696 40.238 98.1672L38.9268 97.4781L40.4847 97.8719C41.2038 98.132 42.0074 97.7383 42.24 96.9578C42.4445 96.2758 42.0991 95.5586 41.4998 95.2422Z" fill="#E3A299"/>
<path d="M39.3276 97.6621L34.9287 95.5176" stroke="#171717" stroke-width="0.4143" stroke-miterlimit="10" stroke-linecap="round" stroke-linejoin="round"/>
<path d="M38.144 100.087L33.9072 98.2656" stroke="#171717" stroke-width="0.4143" stroke-miterlimit="10" stroke-linecap="round" stroke-linejoin="round"/>
<path d="M36.7066 102.054L33.1113 100.592" stroke="#171717" stroke-width="0.4143" stroke-miterlimit="10" stroke-linecap="round" stroke-linejoin="round"/>
<path d="M32.5253 60.2647L10.4251 79.9878C8.35955 82.1464 5.10972 82.4769 2.67763 80.7753C-0.381862 78.6307 -0.910578 74.1798 1.56381 71.3391L22.3458 50.3293C24.8272 47.4746 29.0358 47.116 31.9332 49.5278C35.1689 52.2137 35.4438 57.206 32.5253 60.2647Z" fill="#E3A299"/>
<path d="M33.011 44.2266C33.011 44.2266 24.1356 46.0196 13.1172 59.6535L22.5565 72.2818L36.9376 61.6293L33.011 44.2266Z" fill="#E34A02"/>
<path d="M27.4355 68.6708L35.7751 62.4902" stroke="#D4D4D5" stroke-width="0.984" stroke-miterlimit="10"/>
<path d="M59.9231 21.4081C60.3602 23.3347 62.2777 24.5441 64.2163 24.1082C66.1479 23.6723 67.3604 21.7597 66.9233 19.8261C66.4862 17.8995 64.5688 16.6901 62.6302 17.126C60.6986 17.562 59.4861 19.4815 59.9231 21.4081Z" fill="#292930"/>
<path d="M54.419 30.2416L54.0947 44.3185L43.4922 43.3973L46.1076 20.5312L54.419 30.2416Z" fill="#E3A299"/>
<path d="M54.2272 38.4811L46.6631 28.4473L54.3682 30.9997L54.2272 38.4811Z" fill="#292930"/>
<path d="M59.3895 6.20067C63.013 6.68584 64.7824 10.5179 65.1419 13.9493C65.5579 17.9079 65.9244 24.0393 64.6908 27.0487C62.7803 31.6965 58.7339 34.4177 52.6079 32.7653C52.6079 32.7653 45.4385 31.8934 44.4022 21.1143C43.1685 8.35228 51.6773 5.17409 59.3895 6.20067Z" fill="#E3A299"/>
<path d="M63.0262 19.039C63.1107 19.482 63.5408 19.7773 63.9849 19.6929C64.429 19.6086 64.7251 19.1797 64.6405 18.7367C64.5559 18.2937 64.1259 17.9984 63.6818 18.0828C63.2376 18.1671 62.9416 18.5961 63.0262 19.039Z" fill="#1E0B02"/>
<path d="M56.0974 19.039C56.182 19.482 56.6121 19.7773 57.0562 19.6929C57.5003 19.6086 57.7964 19.1797 57.7118 18.7367C57.6272 18.2937 57.1972 17.9984 56.7531 18.0828C56.3089 18.1671 56.0128 18.5961 56.0974 19.039Z" fill="#1E0B02"/>
<path d="M61.5045 19.9473L62.2518 22.6684C62.3152 22.9215 62.1531 23.1747 61.8993 23.2239L61.0322 23.3926" stroke="#292930" stroke-width="0.6045" stroke-miterlimit="10" stroke-linecap="round" stroke-linejoin="round"/>
<path d="M62.3079 13.1267C62.3079 13.1267 61.9837 14.0971 63.1962 14.294C64.1197 14.4416 64.7048 14.526 65.2194 14.751C65.5155 14.8776 65.8538 14.7721 66.0301 14.5119C66.1711 14.301 66.1781 14.0197 66.0371 13.8088C65.7552 13.3728 65.1419 12.6978 64.021 12.501C62.5829 12.2408 62.3079 13.1267 62.3079 13.1267Z" fill="#1F1E2D"/>
<path d="M58.056 13.1692C58.056 13.1692 58.4296 14.1466 56.8646 14.3153C55.6803 14.4419 54.2563 14.8919 53.5866 15.1028C53.2059 15.2224 52.7759 15.1099 52.5644 14.8427C52.3952 14.6247 52.4023 14.3505 52.5926 14.1395C52.9803 13.7106 54.4537 12.67 55.8988 12.5012C57.7458 12.2762 58.056 13.1692 58.056 13.1692Z" fill="#1F1E2D"/>
<path d="M57.1553 24.9121C57.1553 24.9121 58.7626 26.2621 61.4837 25.6856" stroke="#292930" stroke-width="0.6045" stroke-miterlimit="10" stroke-linecap="round" stroke-linejoin="round"/>
<path d="M47.3755 23.0285L48.9546 15.1534C49.3071 13.3252 48.722 11.8205 48.3272 9.59856C55.264 9.61966 63.4203 9.51419 63.4203 8.88136C63.4203 8.88136 61.4464 1.02027 48.6233 3.23516C29.3358 6.56804 38.1689 24.5122 45.1972 28.4497L47.3755 23.0285Z" fill="#292930"/>
<path d="M40.4466 22.1065C40.926 24.2159 43.0268 25.5448 45.1416 25.0667C47.2565 24.5886 48.5888 22.4932 48.1095 20.3838C47.6301 18.2744 45.5293 16.9454 43.4145 17.4236C41.2926 17.8947 39.9673 19.99 40.4466 22.1065Z" fill="#E3A299"/>
<path d="M42.5898 19.9678C42.5898 19.9678 45.5225 19.349 46.0582 22.5623" stroke="#1E0B02" stroke-width="0.5455" stroke-miterlimit="10" stroke-linecap="round" stroke-linejoin="round"/>
<path d="M48.3271 9.58403C48.3271 9.58403 67.0507 11.8763 66.7898 5.92771C66.522 -0.0138224 55.3978 -2.517 50.5125 3.29796L48.3271 9.58403Z" fill="#292930"/>
</svg>
