<svg width="109" height="26" viewBox="0 0 109 26" fill="none" xmlns="http://www.w3.org/2000/svg">
<path d="M99.6987 15.4329C99.6987 16.6495 99.9007 17.562 100.204 18.2717C100.507 18.9813 101.012 19.5896 101.719 19.8938C102.426 20.1979 103.234 20.4007 104.345 20.4007C105.254 20.4007 106.062 20.1979 106.87 19.9952C107.678 19.691 108.385 19.2855 108.991 18.7786L107.274 15.9399C107.072 16.1426 106.769 16.244 106.466 16.3454C106.163 16.4468 105.86 16.5481 105.557 16.5481C105.153 16.5481 104.951 16.4468 104.749 16.244C104.547 16.0412 104.446 15.7371 104.446 15.2302V9.34999H108.183V6.10575H104.446V2.96289H99.5977C99.6987 8.53893 99.6987 8.43755 99.6987 15.4329Z" fill="white"/>
<path d="M84.6494 20.1989H89.5985V10.5675C89.9015 10.162 90.2045 9.85785 90.6085 9.65509C91.0126 9.45232 91.3156 9.35094 91.7196 9.35094C92.2246 9.35094 92.5276 9.45233 92.7296 9.75647C92.9316 10.0606 93.0326 10.3648 93.0326 10.7703V20.0975H97.8807V10.8717C97.8807 9.75647 97.7797 8.84403 97.4767 8.03297C97.1737 7.32329 96.7697 6.715 96.0627 6.30947C95.4567 5.90394 94.5476 5.70117 93.5376 5.70117C93.0326 5.70117 92.4266 5.80255 92.0226 6.00532C91.5176 6.20808 91.1136 6.41085 90.7095 6.715C90.3055 7.01914 89.9015 7.32329 89.5985 7.62744L89.3965 6.1067H84.7504V20.1989H84.6494Z" fill="white"/>
<path d="M77.7812 4.6867H82.7304V0.935547H77.7812V4.6867Z" fill="white"/>
<path d="M77.7812 20.1983H82.7304V6.51172H77.7812V20.1983Z" fill="white"/>
<path d="M66.166 20.1992H71.1151V12.19C72.2262 10.1624 74.9532 9.75684 76.4682 10.9734V6.5126C74.8522 5.60016 72.1252 5.80292 71.1151 8.13472L70.8121 6.20845H66.267V20.1992H66.166Z" fill="white"/>
<path d="M55.56 15.9408V10.4661C55.863 10.162 56.166 9.95924 56.469 9.75647C56.7721 9.55371 57.1761 9.45232 57.5801 9.45232C58.2871 9.45232 58.7921 9.75647 59.0951 10.3648C59.3981 10.9731 59.6001 11.8855 59.6001 13.0007C59.6001 13.7104 59.4991 14.4201 59.3981 14.927C59.2971 15.5353 58.9941 15.9408 58.6911 16.245C58.3881 16.5491 57.9841 16.7519 57.5801 16.7519C57.1761 16.7519 56.7721 16.6505 56.469 16.5491C56.166 16.4477 55.863 16.2449 55.56 15.9408ZM55.56 18.8809C55.863 19.185 56.267 19.4892 56.671 19.6919C57.0751 19.8947 57.4791 20.0975 57.9841 20.3002C58.4891 20.4016 58.9941 20.503 59.4991 20.503C60.2061 20.503 60.9131 20.3002 61.5192 19.9961C62.1252 19.692 62.6302 19.185 63.1352 18.5767C63.6402 17.9684 63.9432 17.1574 64.2462 16.245C64.5492 15.3325 64.6502 14.2173 64.6502 13.0007C64.6502 11.3786 64.4482 10.0606 63.9432 8.94541C63.5392 7.8302 62.9332 7.12053 62.1252 6.51223C61.3172 6.00532 60.4081 5.70117 59.3981 5.70117C58.6911 5.70117 57.9841 5.90394 57.2771 6.20808C56.671 6.51223 56.065 7.01914 55.56 7.62744L55.156 6.00532H50.7119V25.1666H55.56V18.8809Z" fill="white"/>
<path d="M37.8848 23.2402L37.1777 25.0651C37.4807 25.1665 37.8848 25.2678 38.3898 25.3692C38.7938 25.4706 39.2988 25.4706 39.7028 25.4706C40.3088 25.4706 40.8138 25.3692 41.3188 25.2678C41.8238 25.0651 42.2278 24.7609 42.6319 24.3554C43.0359 23.9499 43.3389 23.3416 43.6419 22.6319L49.298 6.71484H47.076L43.5409 17.1572L39.9048 6.71484H37.5817L42.5309 19.9959L41.7228 22.0236C41.5208 22.5305 41.3188 22.936 40.9148 23.1388C40.6118 23.3416 40.2078 23.443 39.8038 23.443C39.5008 23.443 39.2988 23.3416 38.9958 23.3416C38.4908 23.443 38.1878 23.3416 37.8848 23.2402Z" fill="white"/>
<path d="M26.3711 18.9819C27.1791 19.4889 27.9871 19.8944 28.8962 20.0972C29.7042 20.4013 30.7142 20.5027 31.6232 20.5027C32.3302 20.5027 33.0372 20.4013 33.6433 20.2999C34.2493 20.0972 34.7543 19.8944 35.2593 19.5902C35.6633 19.2861 36.0673 18.8806 36.2693 18.3737C36.4713 17.8667 36.6733 17.3598 36.6733 16.6501C36.6733 16.0419 36.5723 15.4336 36.3703 15.028C36.1683 14.6225 35.8653 14.217 35.4613 13.9128C35.0573 13.6087 34.6533 13.4059 34.2493 13.2031C33.7443 13.0004 33.3403 12.899 32.8352 12.6962C32.3302 12.5949 31.8252 12.4935 31.4212 12.2907C30.9162 12.1893 30.5122 11.9866 30.2092 11.8852C29.8052 11.6824 29.5022 11.4796 29.3002 11.2769C29.0982 11.0741 28.9972 10.77 28.9972 10.3644C28.9972 9.9589 29.0982 9.55338 29.4012 9.24923C29.6032 8.94508 29.9062 8.74231 30.3102 8.64093C30.7142 8.53955 31.1182 8.43817 31.6232 8.43817C32.0272 8.43817 32.4312 8.43817 32.8352 8.53955C33.2393 8.64093 33.6433 8.74231 34.1483 8.94508C34.5523 9.14784 34.9563 9.24923 35.3603 9.45199L36.2693 7.72849C35.4613 7.32296 34.7543 7.12019 33.9463 6.91743C33.1382 6.71466 32.4312 6.61328 31.6232 6.61328C30.9162 6.61328 30.3102 6.71466 29.7042 6.91743C29.0982 7.12019 28.5931 7.32296 28.1891 7.62711C27.7851 7.93125 27.3811 8.33678 27.1791 8.8437C26.9771 9.35061 26.7751 9.85752 26.7751 10.4658C26.7751 11.0741 26.8761 11.581 27.0781 11.9866C27.2801 12.3921 27.5831 12.7976 27.9871 13.0004C28.3911 13.3045 28.7951 13.5073 29.1992 13.7101C29.7042 13.9128 30.1082 14.0142 30.6132 14.217C31.1182 14.3184 31.6232 14.5211 32.0272 14.6225C32.5322 14.7239 32.9362 14.9266 33.2392 15.028C33.6433 15.2308 33.9463 15.4336 34.1483 15.6363C34.3503 15.8391 34.4513 16.2446 34.4513 16.5488C34.4513 17.0557 34.3503 17.3598 34.0473 17.664C33.7443 17.9681 33.4413 18.1709 33.0372 18.2723C32.6332 18.3737 32.1282 18.475 31.6232 18.475C30.8152 18.475 30.1082 18.3736 29.4012 18.1709C28.6941 17.9681 28.0881 17.664 27.4821 17.2584L26.3711 18.9819Z" fill="white"/>
<path d="M15.766 16.8529C15.766 16.346 15.867 15.9405 16.069 15.6363C16.271 15.3322 16.574 15.028 16.978 14.8253C17.382 14.6225 17.786 14.4197 18.2911 14.3184C18.7961 14.217 19.3011 14.1156 19.8061 14.1156C20.3111 14.0142 20.8161 14.0142 21.4221 14.0142V17.1571C21.1191 17.4612 20.8161 17.664 20.5131 17.9681C20.1091 18.1709 19.7051 18.3737 19.3011 18.475C18.8971 18.5764 18.3921 18.6778 17.887 18.6778C17.483 18.6778 17.079 18.5764 16.776 18.475C16.473 18.3737 16.271 18.0695 16.069 17.8667C15.867 17.5626 15.766 17.2584 15.766 16.8529ZM13.5439 16.9543C13.5439 17.664 13.746 18.2723 14.049 18.7792C14.352 19.2861 14.857 19.6916 15.463 19.9958C16.069 20.2999 16.776 20.4013 17.584 20.4013C18.1901 20.4013 18.6951 20.2999 19.2001 20.1985C19.7051 19.9958 20.1091 19.793 20.5131 19.5902C20.9171 19.2861 21.3211 18.9819 21.6241 18.6778C21.8261 18.9819 22.0281 19.2861 22.3312 19.4889C22.6342 19.6916 22.9372 19.8944 23.3412 19.9958C23.7452 20.0972 24.2502 20.1985 24.9572 20.1985V18.475C24.5532 18.475 24.1492 18.3737 23.9472 18.1709C23.7452 17.9681 23.5432 17.5626 23.5432 17.1571V10.6686C23.5432 9.85752 23.3412 9.14785 23.0382 8.53955C22.7352 7.93126 22.2302 7.42434 21.5231 7.12019C20.8161 6.81605 20.0081 6.61328 18.8971 6.61328C18.2911 6.61328 17.685 6.71466 17.18 6.81605C16.574 6.91743 15.968 7.12019 15.463 7.32296C14.857 7.52572 14.352 7.72849 13.948 7.93125L14.756 9.75614C15.16 9.55338 15.665 9.35061 16.069 9.14784C16.574 8.94508 16.978 8.74231 17.483 8.64093C17.9881 8.53955 18.3921 8.43817 18.8971 8.43817C19.5031 8.43817 19.9071 8.53955 20.3111 8.74232C20.7151 8.94508 20.9171 9.14784 21.1191 9.45199C21.3211 9.75614 21.4221 10.1617 21.3211 10.5672V12.3921C20.6141 12.3921 19.8061 12.4935 19.0991 12.5948C18.3921 12.6962 17.685 12.7976 16.978 13.0004C16.271 13.2031 15.665 13.5073 15.16 13.8114C14.655 14.1156 14.251 14.6225 13.948 15.1294C13.746 15.6363 13.5439 16.2446 13.5439 16.9543Z" fill="white"/>
<path d="M6.37194 8.33678C6.97795 8.33678 7.48296 8.43817 7.88697 8.64093C8.29098 8.8437 8.59399 9.14784 8.89699 9.45199C9.099 9.75614 9.301 10.1617 9.40201 10.6686C9.50301 11.0741 9.60401 11.581 9.60401 12.0879H2.33184C2.53385 11.2769 2.73585 10.6686 3.13986 10.1617C3.54387 9.65476 3.94788 9.14784 4.55389 8.8437C5.05891 8.43817 5.66492 8.33678 6.37194 8.33678ZM0.00878906 13.4059C0.00878906 14.9266 0.311796 16.1432 0.816808 17.2584C1.32182 18.2723 2.02884 19.1847 3.03886 19.6916C4.04888 20.2999 5.15991 20.5027 6.57394 20.5027C7.48296 20.5027 8.29098 20.2999 9.099 20.0972C9.90702 19.793 10.715 19.3875 11.4221 18.9819L10.412 17.3598C9.90702 17.7654 9.301 18.0695 8.59399 18.2723C7.98797 18.475 7.28096 18.5764 6.57394 18.6778C5.66492 18.6778 4.8569 18.475 4.25089 18.0695C3.64487 17.664 3.13986 17.1571 2.83685 16.4474C2.53385 15.7377 2.33184 14.8253 2.33184 13.8114H11.8261C11.8261 13.7101 11.8261 13.6087 11.8261 13.5073C11.8261 13.4059 11.8261 13.2031 11.8261 13.1018C11.8261 13.0004 11.8261 12.899 11.8261 12.7976C11.8261 11.9866 11.7251 11.1755 11.5231 10.3644C11.321 9.65476 11.018 8.94508 10.614 8.43817C10.21 7.82987 9.60401 7.42434 8.89699 7.12019C8.18998 6.81605 7.38196 6.61328 6.37194 6.61328C5.46292 6.61328 4.55389 6.81605 3.84688 7.12019C3.03886 7.42434 2.43285 7.93126 1.82683 8.53955C1.22082 9.14785 0.816808 9.85752 0.513801 10.6686C0.210794 11.4796 0.00878906 12.3921 0.00878906 13.4059Z" fill="white"/>
</svg>
