<svg width="186" height="233" viewBox="0 0 186 233" fill="none" xmlns="http://www.w3.org/2000/svg">
<path d="M93.4043 232.47L16.6408 232.114C7.40873 232.074 -0.0399778 224.35 0.000161466 214.866L0.837352 17.111C0.877491 7.62089 8.40074 -0.0399823 17.6385 0.000157015L94.402 0.355676C103.634 0.395816 111.083 8.11976 111.043 17.6098L110.205 215.359C110.165 224.855 102.642 232.516 93.4043 232.47Z" fill="#263238"/>
<path d="M104.952 180.645C104.952 181.579 104.196 182.336 103.261 182.336C102.326 182.336 101.569 181.579 101.569 180.645C101.569 179.71 102.326 178.953 103.261 178.953C104.196 178.953 104.952 179.71 104.952 180.645Z" fill="#E0E0E0"/>
<path d="M103.261 184.353C103.181 184.353 103.112 183.521 103.112 182.5C103.112 181.474 103.181 180.643 103.261 180.643C103.342 180.643 103.41 181.474 103.41 182.5C103.41 183.521 103.342 184.353 103.261 184.353Z" fill="#E0E0E0"/>
<path d="M95.9335 6.88663L80.5831 6.81782C78.5246 6.80635 76.8502 8.54381 76.8387 10.6999L76.8273 13.4867C76.8215 15.637 75.1414 17.3745 73.0828 17.3687L43.1619 17.2311C41.1033 17.2196 39.4404 15.4707 39.4519 13.3147L39.4633 10.5278C39.4748 8.37752 37.8119 6.62286 35.7533 6.61139L30.3517 6.58846L16.9165 6.51965C10.2419 6.49097 4.80593 11.8754 4.77726 18.55L3.963 212.302C3.93433 218.971 9.31873 224.401 15.9876 224.436L95.0103 224.803C101.685 224.831 107.115 219.447 107.144 212.772L107.964 19.0202C107.987 12.3456 102.602 6.9153 95.9335 6.88663Z" fill="#FAFAFA"/>
<path d="M9.20992 159.776C9.88082 159.272 42.9326 144.712 42.9326 144.712L4.33013 125.457L4.19824 156.467L9.20992 159.776Z" fill="#EBEBEB"/>
<path d="M11.2218 124.862L39.3824 110.55L9.12313 93.7715L4.4555 94.9413L4.34082 122.087L11.2218 124.862Z" fill="#E34A02"/>
<path d="M5.47656 91.8216L92.2749 51.281L6.27361 23.1777L5.47656 91.8216Z" fill="#EBEBEB"/>
<path d="M4.4668 197.399L44.1301 177.043L103.175 211.781L89.1091 224.115H38.7171L4.4668 203.179V197.399Z" fill="#EBEBEB"/>
<path d="M51.9346 174.847L100.991 203.925L106.455 203.305V175.34L79.5791 161.113L51.9346 174.847Z" fill="#EBEBEB"/>
<path d="M59.9971 147.069L106.243 173.091V139.076L89.5166 131.908L59.9971 147.069Z" fill="#EBEBEB"/>
<path d="M10.6025 161.406L37.7367 176.292L70.6566 159.239L44.503 145.936L10.6025 161.406Z" fill="#EBEBEB"/>
<path d="M51.3271 110.361L89.7634 129.41L107.579 120.304L107.7 107.545L81.7355 94.9414L51.3271 110.361Z" fill="#EBEBEB"/>
<path d="M12.0254 126.972L50.4616 146.021L68.2777 136.915L68.3981 124.151L42.4338 111.553L12.0254 126.972Z" fill="#EBEBEB"/>
<path d="M17.3525 92.7454L48.6726 108.434L77.8768 92.7454L47.6176 78.9375L17.3525 92.7454Z" fill="#EBEBEB"/>
<path d="M77.8759 192.965C77.8701 192.977 77.6752 192.879 77.3082 192.679C76.9412 192.472 76.3964 192.168 75.6854 191.767C74.2633 190.947 72.1703 189.737 69.4696 188.171C64.068 185.006 56.2293 180.407 46.4411 174.667L45.9651 174.387L46.464 174.134C55.0309 169.776 65.2836 164.564 76.6717 158.772L76.6659 159.466C69.6817 155.745 62.0725 151.691 54.1077 147.442L53.3909 147.063L54.1077 146.685C63.9131 141.535 74.4927 135.985 85.445 130.239L85.4507 131.036C84.2695 130.44 82.9908 129.792 81.712 129.144C55.4552 115.829 31.1595 103.501 11.5256 93.5403L10.8662 93.2077L11.5314 92.8923C27.0653 85.4837 39.8582 79.3826 48.7749 75.1278C53.2361 73.0234 56.7282 71.3834 59.1136 70.2595C60.3063 69.7147 61.2181 69.2904 61.8374 69.0094C62.1413 68.8776 62.3764 68.7743 62.5369 68.6998C62.6975 68.631 62.7778 68.6023 62.7835 68.6138C62.7892 68.6195 62.7147 68.6711 62.5599 68.7514C62.405 68.8317 62.1757 68.9521 61.8832 69.1069C61.2754 69.4166 60.3751 69.8638 59.2054 70.4545C56.8429 71.6185 53.3794 73.3215 48.9526 75.5005C40.0647 79.8241 27.3176 86.0228 11.841 93.546L11.8468 92.8923C31.5035 102.812 55.8222 115.084 82.1077 128.352C83.3864 129 84.6651 129.648 85.8464 130.245L86.6205 130.635L85.8521 131.036C74.8941 136.77 64.3088 142.315 54.4976 147.447L54.5033 146.69C62.4566 150.957 70.0544 155.034 77.0272 158.778L77.6924 159.134L77.0157 159.472C65.599 165.206 55.3176 170.367 46.7278 174.673L46.745 174.14C56.4702 179.977 64.2687 184.656 69.6358 187.879C72.3022 189.502 74.3665 190.758 75.7714 191.612C76.4595 192.042 76.9871 192.375 77.3483 192.598C77.7096 192.828 77.8873 192.954 77.8759 192.965Z" fill="#9C1006"/>
<path d="M71.1389 50.1978C71.1389 44.4751 65.1295 40.8511 58.9997 43.7182C57.6177 44.3662 56.4709 45.4614 55.777 46.8089C54.2346 49.7964 54.9169 53.2083 56.3161 56.0352L61.0869 68.1229C61.775 69.8661 64.2407 69.8546 64.9173 68.1057L69.5964 55.955C71.2077 52.2621 71.1389 50.1978 71.1389 50.1978ZM65.3818 55.1751C61.2647 57.572 57.0844 53.1452 59.3437 48.7758C59.6419 48.1966 60.1064 47.7092 60.6511 47.3881C64.7682 44.9912 68.9485 49.418 66.6892 53.7874C66.391 54.3723 65.9323 54.8597 65.3818 55.1751Z" fill="#9C1006"/>
<path d="M61.9921 112.78L61.8545 106.025L79.4584 114.552V121.571L61.9921 112.78Z" fill="#F5F5F5"/>
<path d="M79.459 114.552L101.335 103.686V111.249L79.459 121.57V114.552Z" fill="#E0E0E0"/>
<path d="M61.8545 106.025L83.3118 95.291L101.334 103.686L79.4584 114.552L61.8545 106.025Z" fill="#F5F5F5"/>
<path d="M64.1543 108.943V112.218L65.8746 112.997V109.861L64.1543 108.943Z" fill="#FAFAFA"/>
<path d="M66.9062 110.158V113.432L68.6265 114.207V111.076L66.9062 110.158Z" fill="#FAFAFA"/>
<path d="M6.58398 70.1634V61.3672L27.4335 71.4651V79.7682L6.58398 70.1634Z" fill="#E0E0E0"/>
<path d="M27.4336 71.4652L53.3234 58.5977V67.5544L27.4336 79.7683V71.4652Z" fill="#F5F5F5"/>
<path d="M6.58398 61.3672L31.9921 48.666L53.3233 58.5976L27.4335 71.4651L6.58398 61.3672Z" fill="#FAFAFA"/>
<path d="M9.30762 64.8184V68.7004L11.349 69.6179V65.9136L9.30762 64.8184Z" fill="#FAFAFA"/>
<path d="M12.5703 66.2578V70.1399L14.6059 71.0573V67.3473L12.5703 66.2578Z" fill="#FAFAFA"/>
<path d="M69.418 143.635C69.418 144.048 69.418 150.562 69.418 150.562L76.8495 154.226V147.07L69.418 143.635Z" fill="#E0E0E0"/>
<path d="M86.3396 142.533L76.8438 147.069V154.225L86.3396 148.927V142.533Z" fill="#E0E0E0"/>
<path d="M69.418 143.635L78.8278 139.076L86.3395 142.534L76.8437 147.07L69.418 143.635Z" fill="#F5F5F5"/>
<path d="M72.0557 148.605V151.88L73.7759 152.66V149.529L72.0557 148.605Z" fill="#FAFAFA"/>
<path d="M9.41016 140.051C9.41016 140.464 9.41016 146.978 9.41016 146.978L16.8359 150.642V143.486L9.41016 140.051Z" fill="#E0E0E0"/>
<path d="M26.3319 138.949L16.8418 143.491V150.641L26.3319 145.343V138.949Z" fill="#E0E0E0"/>
<path d="M9.41113 140.051L18.8209 135.492L26.3327 138.95L16.8426 143.491L9.41113 140.051Z" fill="#F5F5F5"/>
<path d="M12.0537 145.021V148.296L13.774 149.076V145.945L12.0537 145.021Z" fill="#FAFAFA"/>
<path d="M40.209 94.332C40.209 94.7449 40.209 101.259 40.209 101.259L47.6405 104.923V97.7668L40.209 94.332Z" fill="#F5F5F5"/>
<path d="M57.1307 93.2305L47.6406 97.7662V104.922L57.1307 99.6241V93.2305Z" fill="#E0E0E0"/>
<path d="M40.209 94.3321L49.6188 89.7734L57.1306 93.2311L47.6405 97.7669L40.209 94.3321Z" fill="#F5F5F5"/>
<path d="M42.8525 99.3027V102.577L44.5728 103.357V100.22L42.8525 99.3027Z" fill="#E0E0E0"/>
<path d="M31.9521 153.693C31.9521 154.106 31.9521 160.62 31.9521 160.62L39.3836 164.284V157.128L31.9521 153.693Z" fill="#E0E0E0"/>
<path d="M48.8739 152.592L39.3838 157.133V164.29L48.8739 158.991V152.592Z" fill="#EBEBEB"/>
<path d="M31.9521 153.694L41.3619 149.141L48.8737 152.593L39.3836 157.134L31.9521 153.694Z" fill="#F5F5F5"/>
<path d="M34.5957 158.67V161.944L36.316 162.718V159.587L34.5957 158.67Z" fill="#FAFAFA"/>
<path d="M62.623 170.432C62.623 170.948 62.623 179.119 62.623 179.119L78.2774 188.339V179.365L62.623 170.432Z" fill="#F5F5F5"/>
<path d="M90.1815 172.953L78.2773 179.364V188.338L90.1815 181.692V172.953Z" fill="#E0E0E0"/>
<path d="M62.623 170.432L74.4183 164.715L90.1815 172.955L78.2774 179.366L62.623 170.432Z" fill="#FAFAFA"/>
<path d="M68.5293 178.465V182.571L70.6911 183.872V179.807L68.5293 178.465Z" fill="#FAFAFA"/>
<path d="M24.9619 188.311C24.9619 188.827 24.9619 196.998 24.9619 196.998L40.6162 206.218V197.25L24.9619 188.311Z" fill="#E0E0E0"/>
<path d="M59.2983 187.123L40.6221 197.25V206.218L59.3556 195.839L59.2983 187.123Z" fill="#FAFAFA"/>
<path d="M24.9619 188.311L44.7219 178.746L59.3555 187.158L40.622 197.25L24.9619 188.311Z" fill="#F5F5F5"/>
<path d="M30.874 196.344V200.455L33.0358 201.751V197.686L30.874 196.344Z" fill="#FAFAFA"/>
<path d="M84.2236 155.826V190.524L93.9889 195.576V160.442L84.2236 155.826Z" fill="#F5F5F5"/>
<path d="M91.4372 152.5L84.2236 155.826L93.9889 160.442L100.566 156.738L91.4372 152.5Z" fill="#FAFAFA"/>
<path d="M93.9893 160.443V195.576L99.9356 192.376L100.566 156.738L93.9893 160.443Z" fill="#E0E0E0"/>
<path d="M42.9268 127.723V162.42L52.6978 167.472V132.339L42.9268 127.723Z" fill="#F5F5F5"/>
<path d="M50.1461 124.391L42.9268 127.722L52.6978 132.338L59.2692 128.634L50.1461 124.391Z" fill="#FAFAFA"/>
<path d="M52.6982 132.339V167.472L58.6389 164.542L59.2696 128.635L52.6982 132.339Z" fill="#E0E0E0"/>
<path d="M47.3643 193.707C47.3643 194.223 47.3643 202.394 47.3643 202.394L63.0186 211.615V202.647L47.3643 193.707Z" fill="#E0E0E0"/>
<path d="M74.9227 196.236L63.0186 202.647V211.615L74.9227 204.975V196.236Z" fill="#FAFAFA"/>
<path d="M47.3652 193.706L59.2981 187.123L74.9237 196.235L63.0196 202.645L47.3652 193.706Z" fill="#F5F5F5"/>
<path d="M53.2764 201.74V205.852L55.4324 207.148V203.082L53.2764 201.74Z" fill="#FAFAFA"/>
<path d="M82.1831 90.1298L53.667 77.2795L93.3705 57.0723L106.399 76.4997L82.1831 90.1298Z" fill="#EBEBEB"/>
<path d="M107.556 101.93L107.751 79.6816L85.6514 92.2624L107.556 101.93Z" fill="#E34A02"/>
<path d="M90.7601 124.213C90.7601 125.148 90.0032 125.905 89.0685 125.905C88.1339 125.905 87.377 125.148 87.377 124.213C87.377 123.278 88.1339 122.521 89.0685 122.521C90.0032 122.521 90.7601 123.278 90.7601 124.213Z" fill="#E0E0E0"/>
<path d="M89.069 127.925C88.9887 127.925 88.9199 127.094 88.9199 126.073C88.9199 125.046 88.9887 124.221 89.069 124.221C89.1493 124.221 89.2181 125.052 89.2181 126.073C89.2181 127.094 89.1493 127.925 89.069 127.925Z" fill="#E0E0E0"/>
<path d="M44.6175 120.069C44.6175 121.003 43.8606 121.76 42.926 121.76C41.9913 121.76 41.2344 121.003 41.2344 120.069C41.2344 119.134 41.9913 118.377 42.926 118.377C43.8606 118.377 44.6175 119.134 44.6175 120.069Z" fill="#E0E0E0"/>
<path d="M42.9264 123.776C42.8462 123.776 42.7773 122.945 42.7773 121.924C42.7773 120.898 42.8462 120.066 42.9264 120.066C43.0067 120.066 43.0755 120.898 43.0755 121.924C43.0813 122.945 43.0124 123.776 42.9264 123.776Z" fill="#E0E0E0"/>
<path d="M22.0199 143.682C22.0199 144.616 21.263 145.373 20.3283 145.373C19.3936 145.373 18.6367 144.616 18.6367 143.682C18.6367 142.747 19.3936 141.99 20.3283 141.99C21.2572 141.99 22.0199 142.747 22.0199 143.682Z" fill="#E0E0E0"/>
<path d="M20.3278 147.39C20.2475 147.39 20.1787 146.558 20.1787 145.538C20.1787 144.511 20.2475 143.68 20.3278 143.68C20.4081 143.68 20.4769 144.511 20.4769 145.538C20.4769 146.558 20.4081 147.39 20.3278 147.39Z" fill="#E0E0E0"/>
<path d="M23.7054 125.457C23.7054 126.392 22.9485 127.149 22.0138 127.149C21.0792 127.149 20.3223 126.392 20.3223 125.457C20.3223 124.523 21.0792 123.766 22.0138 123.766C22.9485 123.766 23.7054 124.528 23.7054 125.457Z" fill="#E0E0E0"/>
<path d="M22.0202 129.167C21.9399 129.167 21.8711 128.336 21.8711 127.315C21.8711 126.288 21.9399 125.457 22.0202 125.457C22.1005 125.457 22.1693 126.288 22.1693 127.315C22.1693 128.341 22.1005 129.167 22.0202 129.167Z" fill="#E0E0E0"/>
<path d="M65.4506 123.789C65.4506 124.724 64.6936 125.481 63.759 125.481C62.8243 125.481 62.0674 124.724 62.0674 123.789C62.0674 122.855 62.8243 122.098 63.759 122.098C64.6936 122.098 65.4506 122.855 65.4506 123.789Z" fill="#E0E0E0"/>
<path d="M63.7585 127.499C63.6782 127.499 63.6094 126.668 63.6094 125.647C63.6094 124.621 63.6782 123.789 63.7585 123.789C63.8387 123.789 63.9076 124.621 63.9076 125.647C63.9076 126.668 63.8445 127.499 63.7585 127.499Z" fill="#E0E0E0"/>
<path d="M92.1664 136.455C92.1664 137.39 91.4095 138.147 90.4748 138.147C89.5401 138.147 88.7832 137.39 88.7832 136.455C88.7832 135.521 89.5401 134.764 90.4748 134.764C91.4095 134.764 92.1664 135.521 92.1664 136.455Z" fill="#E0E0E0"/>
<path d="M90.4753 140.165C90.395 140.165 90.3262 139.334 90.3262 138.313C90.3262 137.287 90.395 136.455 90.4753 136.455C90.5555 136.455 90.6243 137.287 90.6243 138.313C90.6243 139.334 90.5555 140.165 90.4753 140.165Z" fill="#E0E0E0"/>
<path d="M93.2494 146.404C93.2494 147.339 92.4925 148.096 91.5578 148.096C90.6231 148.096 89.8662 147.339 89.8662 146.404C89.8662 145.47 90.6231 144.713 91.5578 144.713C92.4925 144.713 93.2494 145.47 93.2494 146.404Z" fill="#E0E0E0"/>
<path d="M91.5583 150.114C91.478 150.114 91.4092 149.283 91.4092 148.262C91.4092 147.236 91.478 146.404 91.5583 146.404C91.6385 146.404 91.7074 147.236 91.7074 148.262C91.7074 149.283 91.6385 150.114 91.5583 150.114Z" fill="#E0E0E0"/>
<path d="M45.8226 167.047C45.8226 167.982 45.0657 168.739 44.131 168.739C43.1964 168.739 42.4395 167.982 42.4395 167.047C42.4395 166.112 43.1964 165.355 44.131 165.355C45.06 165.355 45.8226 166.112 45.8226 167.047Z" fill="#E0E0E0"/>
<path d="M44.1315 170.757C44.0512 170.757 43.9824 169.925 43.9824 168.905C43.9824 167.878 44.0512 167.047 44.1315 167.047C44.2118 167.047 44.2806 167.878 44.2806 168.905C44.2806 169.925 44.2118 170.757 44.1315 170.757Z" fill="#E0E0E0"/>
<path d="M99.6945 198.231C100.629 198.231 101.386 197.473 101.386 196.539C101.386 195.605 100.629 194.848 99.6945 194.848C98.7603 194.848 98.0029 195.605 98.0029 196.539C98.0029 197.473 98.7603 198.231 99.6945 198.231Z" fill="#E0E0E0"/>
<path d="M99.695 200.247C99.6147 200.247 99.5459 199.416 99.5459 198.395C99.5459 197.369 99.6147 196.537 99.695 196.537C99.7753 196.537 99.8441 197.369 99.8441 198.395C99.8441 199.416 99.7753 200.247 99.695 200.247Z" fill="#E0E0E0"/>
<path d="M69.0629 215.037C69.0629 215.972 68.3059 216.729 67.3713 216.729C66.4366 216.729 65.6797 215.972 65.6797 215.037C65.6797 214.103 66.4366 213.346 67.3713 213.346C68.3059 213.351 69.0629 214.108 69.0629 215.037Z" fill="#E0E0E0"/>
<path d="M67.3717 218.747C67.2915 218.747 67.2227 217.916 67.2227 216.895C67.2227 215.869 67.2915 215.043 67.3717 215.043C67.452 215.043 67.5208 215.874 67.5208 216.895C67.5208 217.922 67.4578 218.747 67.3717 218.747Z" fill="#E0E0E0"/>
<path d="M56.0472 209.928C56.0472 210.863 55.2903 211.619 54.3556 211.619C53.421 211.619 52.6641 210.863 52.6641 209.928C52.6641 208.993 53.421 208.236 54.3556 208.236C55.2903 208.236 56.0472 208.993 56.0472 209.928Z" fill="#E0E0E0"/>
<path d="M54.3561 213.638C54.2758 213.638 54.207 212.806 54.207 211.786C54.207 210.759 54.2758 209.928 54.3561 209.928C54.4364 209.928 54.5052 210.759 54.5052 211.786C54.5052 212.806 54.4364 213.638 54.3561 213.638Z" fill="#E0E0E0"/>
<path d="M85.9154 206.219C85.9154 207.154 85.1585 207.911 84.2238 207.911C83.2891 207.911 82.5322 207.154 82.5322 206.219C82.5322 205.284 83.2891 204.527 84.2238 204.527C85.1585 204.527 85.9154 205.284 85.9154 206.219Z" fill="#E0E0E0"/>
<path d="M84.2243 209.929C84.144 209.929 84.0752 209.097 84.0752 208.077C84.0752 207.05 84.144 206.225 84.2243 206.225C84.3046 206.225 84.3734 207.056 84.3734 208.077C84.3734 209.097 84.3046 209.929 84.2243 209.929Z" fill="#E0E0E0"/>
<path d="M58.7531 175.334C59.6873 175.334 60.4447 174.577 60.4447 173.643C60.4447 172.709 59.6873 171.951 58.7531 171.951C57.8189 171.951 57.0615 172.709 57.0615 173.643C57.0615 174.577 57.8189 175.334 58.7531 175.334Z" fill="#E0E0E0"/>
<path d="M58.7536 177.353C58.6733 177.353 58.6045 176.521 58.6045 175.501C58.6045 174.474 58.6733 173.648 58.7536 173.648C58.8339 173.648 58.9027 174.48 58.9027 175.501C58.9027 176.527 58.8396 177.353 58.7536 177.353Z" fill="#E0E0E0"/>
<path d="M64.7103 157.133C64.7103 158.068 63.9534 158.825 63.0187 158.825C62.0841 158.825 61.3271 158.068 61.3271 157.133C61.3271 156.198 62.0841 155.441 63.0187 155.441C63.9534 155.441 64.7103 156.198 64.7103 157.133Z" fill="#E0E0E0"/>
<path d="M63.0192 160.843C62.9389 160.843 62.8701 160.011 62.8701 158.991C62.8701 157.964 62.9389 157.133 63.0192 157.133C63.0995 157.133 63.1683 157.964 63.1683 158.991C63.1683 160.011 63.0995 160.843 63.0192 160.843Z" fill="#E0E0E0"/>
<path d="M23.7054 158.992C23.7054 159.927 22.9485 160.684 22.0138 160.684C21.0792 160.684 20.3223 159.927 20.3223 158.992C20.3223 158.058 21.0792 157.301 22.0138 157.301C22.9485 157.301 23.7054 158.058 23.7054 158.992Z" fill="#E0E0E0"/>
<path d="M22.0202 162.702C21.9399 162.702 21.8711 161.871 21.8711 160.85C21.8711 159.824 21.9399 158.992 22.0202 158.992C22.1005 158.992 22.1693 159.824 22.1693 160.85C22.1693 161.871 22.1005 162.702 22.0202 162.702Z" fill="#E0E0E0"/>
<path d="M101.817 143.682C101.817 144.616 101.06 145.373 100.125 145.373C99.1905 145.373 98.4336 144.616 98.4336 143.682C98.4336 142.747 99.1905 141.99 100.125 141.99C101.06 141.99 101.817 142.747 101.817 143.682Z" fill="#E0E0E0"/>
<path d="M100.125 147.39C100.044 147.39 99.9756 146.558 99.9756 145.538C99.9756 144.511 100.044 143.68 100.125 143.68C100.205 143.68 100.274 144.511 100.274 145.538C100.274 146.558 100.211 147.39 100.125 147.39Z" fill="#E0E0E0"/>
<path d="M97.2806 118.377C97.2806 119.312 96.5237 120.069 95.589 120.069C94.6544 120.069 93.8975 119.312 93.8975 118.377C93.8975 117.442 94.6544 116.686 95.589 116.686C96.5237 116.686 97.2806 117.442 97.2806 118.377Z" fill="#E0E0E0"/>
<path d="M95.5895 122.087C95.5092 122.087 95.4404 121.256 95.4404 120.235C95.4404 119.208 95.5092 118.377 95.5895 118.377C95.6698 118.377 95.7386 119.208 95.7386 120.235C95.7386 121.256 95.6698 122.087 95.5895 122.087Z" fill="#E0E0E0"/>
<path d="M61.339 97.7054C62.2733 97.7054 63.0306 96.9481 63.0306 96.0138C63.0306 95.0796 62.2733 94.3223 61.339 94.3223C60.4048 94.3223 59.6475 95.0796 59.6475 96.0138C59.6475 96.9481 60.4048 97.7054 61.339 97.7054Z" fill="#E0E0E0"/>
<path d="M61.3395 99.7237C61.2592 99.7237 61.1904 98.8922 61.1904 97.8715C61.1904 96.8451 61.2592 96.0137 61.3395 96.0137C61.4198 96.0137 61.4886 96.8451 61.4886 97.8715C61.4886 98.8922 61.4198 99.7237 61.3395 99.7237Z" fill="#E0E0E0"/>
<path d="M30.6947 127.924C30.6947 128.859 29.9378 129.616 29.0031 129.616C28.0684 129.616 27.3115 128.859 27.3115 127.924C27.3115 126.989 28.0684 126.232 29.0031 126.232C29.9378 126.232 30.6947 126.989 30.6947 127.924Z" fill="#E0E0E0"/>
<path d="M29.0036 131.632C28.9233 131.632 28.8545 130.8 28.8545 129.78C28.8545 128.753 28.9233 127.922 29.0036 127.922C29.0839 127.922 29.1527 128.753 29.1527 129.78C29.1527 130.8 29.0839 131.632 29.0036 131.632Z" fill="#E0E0E0"/>
<path d="M50.5638 83.9416C50.5638 84.8763 49.8069 85.6332 48.8723 85.6332C47.9376 85.6332 47.1807 84.8763 47.1807 83.9416C47.1807 83.0069 47.9376 82.25 48.8723 82.25C49.8069 82.25 50.5638 83.0069 50.5638 83.9416Z" fill="#E0E0E0"/>
<path d="M48.8727 87.6514C48.7924 87.6514 48.7236 86.82 48.7236 85.7993C48.7236 84.7729 48.7924 83.9414 48.8727 83.9414C48.953 83.9414 49.0218 84.7729 49.0218 85.7993C49.0218 86.82 48.9587 87.6514 48.8727 87.6514Z" fill="#E0E0E0"/>
<path d="M85.0609 80.2326C85.0609 81.1673 84.304 81.9242 83.3693 81.9242C82.4346 81.9242 81.6777 81.1673 81.6777 80.2326C81.6777 79.2979 82.4346 78.541 83.3693 78.541C84.304 78.541 85.0609 79.2979 85.0609 80.2326Z" fill="#E0E0E0"/>
<path d="M83.3698 83.9424C83.2895 83.9424 83.2207 83.111 83.2207 82.0903C83.2207 81.0639 83.2895 80.2324 83.3698 80.2324C83.4501 80.2324 83.5189 81.0639 83.5189 82.0903C83.5189 83.111 83.4501 83.9424 83.3698 83.9424Z" fill="#E0E0E0"/>
<path d="M94.5922 78.6721C94.5922 79.6067 93.8352 80.3636 92.9006 80.3636C91.9659 80.3636 91.209 79.6067 91.209 78.6721C91.209 77.7374 91.9659 76.9805 92.9006 76.9805C93.8352 76.9805 94.5922 77.7374 94.5922 78.6721Z" fill="#E0E0E0"/>
<path d="M92.901 82.3819C92.8208 82.3819 92.752 81.5504 92.752 80.5298C92.752 79.5033 92.8208 78.6719 92.901 78.6719C92.9813 78.6719 93.0501 79.5033 93.0501 80.5298C93.0501 81.5504 92.9871 82.3819 92.901 82.3819Z" fill="#E0E0E0"/>
<path d="M90.7611 66.1955C90.7611 67.1302 90.0042 67.8871 89.0695 67.8871C88.1348 67.8871 87.3779 67.1302 87.3779 66.1955C87.3779 65.2608 88.1348 64.5039 89.0695 64.5039C90.0042 64.5039 90.7611 65.2608 90.7611 66.1955Z" fill="#E0E0E0"/>
<path d="M89.069 69.9053C88.9887 69.9053 88.9199 69.0739 88.9199 68.0532C88.9199 67.0268 88.9887 66.1953 89.069 66.1953C89.1493 66.1953 89.2181 67.0268 89.2181 68.0532C89.2181 69.0739 89.1493 69.9053 89.069 69.9053Z" fill="#E0E0E0"/>
<path d="M37.6517 94.9396C37.6517 95.8743 36.8948 96.6312 35.9601 96.6312C35.0255 96.6312 34.2686 95.8743 34.2686 94.9396C34.2686 94.005 35.0255 93.248 35.9601 93.248C36.8948 93.248 37.6517 94.005 37.6517 94.9396Z" fill="#E0E0E0"/>
<path d="M35.9606 98.6495C35.8803 98.6495 35.8115 97.818 35.8115 96.7973C35.8115 95.7709 35.8803 94.9395 35.9606 94.9395C36.0409 94.9395 36.1097 95.7709 36.1097 96.7973C36.1097 97.818 36.0409 98.6495 35.9606 98.6495Z" fill="#E0E0E0"/>
<path d="M76.9642 78.9357C76.9642 79.8704 76.2073 80.6273 75.2726 80.6273C74.338 80.6273 73.5811 79.8704 73.5811 78.9357C73.5811 78.0011 74.338 77.2441 75.2726 77.2441C76.2073 77.2441 76.9642 78.0011 76.9642 78.9357Z" fill="#E0E0E0"/>
<path d="M75.2731 82.6456C75.1928 82.6456 75.124 81.8141 75.124 80.7934C75.124 79.767 75.1928 78.9355 75.2731 78.9355C75.3534 78.9355 75.4222 79.767 75.4222 80.7934C75.4222 81.8141 75.3534 82.6456 75.2731 82.6456Z" fill="#E0E0E0"/>
<path d="M29.4681 40.8381C29.4681 41.7727 28.7112 42.5297 27.7765 42.5297C26.8419 42.5297 26.085 41.7727 26.085 40.8381C26.085 39.9034 26.8419 39.1465 27.7765 39.1465C28.7055 39.1465 29.4681 39.9034 29.4681 40.8381Z" fill="#E0E0E0"/>
<path d="M27.777 44.5479C27.6967 44.5479 27.6279 43.7164 27.6279 42.6958C27.6279 41.6693 27.6967 40.8379 27.777 40.8379C27.8573 40.8379 27.9261 41.6693 27.9261 42.6958C27.9261 43.7164 27.8573 44.5479 27.777 44.5479Z" fill="#E0E0E0"/>
<path d="M48.8724 50.0998C48.8724 51.0345 48.1155 51.7914 47.1808 51.7914C46.2462 51.7914 45.4893 51.0345 45.4893 50.0998C45.4893 49.1651 46.2462 48.4082 47.1808 48.4082C48.1155 48.4082 48.8724 49.1651 48.8724 50.0998Z" fill="#E0E0E0"/>
<path d="M47.1813 53.8096C47.101 53.8096 47.0322 52.9782 47.0322 51.9575C47.0322 50.9311 47.101 50.0996 47.1813 50.0996C47.2616 50.0996 47.3304 50.9311 47.3304 51.9575C47.3304 52.9839 47.2673 53.8096 47.1813 53.8096Z" fill="#E0E0E0"/>
<path d="M18.0228 79.3556C18.0228 80.2903 17.2659 81.0472 16.3312 81.0472C15.3966 81.0472 14.6396 80.2903 14.6396 79.3556C14.6396 78.421 15.3966 77.6641 16.3312 77.6641C17.2659 77.6641 18.0228 78.421 18.0228 79.3556Z" fill="#E0E0E0"/>
<path d="M16.3317 83.0655C16.2514 83.0655 16.1826 82.234 16.1826 81.2133C16.1826 80.1869 16.2514 79.3555 16.3317 79.3555C16.412 79.3555 16.4808 80.1869 16.4808 81.2133C16.4808 82.234 16.4177 83.0655 16.3317 83.0655Z" fill="#E0E0E0"/>
<path d="M19.7142 51.7912C19.7142 52.7259 18.9573 53.4828 18.0226 53.4828C17.088 53.4828 16.3311 52.7259 16.3311 51.7912C16.3311 50.8565 17.088 50.0996 18.0226 50.0996C18.9573 50.0996 19.7142 50.8565 19.7142 51.7912Z" fill="#E0E0E0"/>
<path d="M18.0231 55.501C17.9428 55.501 17.874 54.6696 17.874 53.6489C17.874 52.6225 17.9428 51.791 18.0231 51.791C18.1034 51.791 18.1722 52.6225 18.1722 53.6489C18.1722 54.6696 18.1091 55.501 18.0231 55.501Z" fill="#E0E0E0"/>
<path d="M92.5156 130.665L106.455 123.273L106.398 136.605L92.5156 130.665Z" fill="#EBEBEB"/>
<path d="M34.5946 177.937L4.03711 193.706V164.289L7.42601 162.775L34.5946 177.937Z" fill="#EBEBEB"/>
<path d="M80.2274 193.707C80.2274 194.785 79.3558 195.657 78.2777 195.657C77.1997 195.657 76.3281 194.785 76.3281 193.707C76.3281 192.629 77.1997 191.758 78.2777 191.758C79.3558 191.758 80.2274 192.635 80.2274 193.707Z" fill="#E8505B"/>
<path d="M98.0664 54.543L107.797 57.5018V72.835L98.0664 54.543Z" fill="#EBEBEB"/>
<path d="M107.895 34.0667L107.837 17.3344C107.04 11.4626 102.034 6.91537 95.9388 6.8867L80.5884 6.81789C78.5298 6.80642 76.8554 8.54388 76.8439 10.6999L76.8325 13.4867C76.8268 15.6371 75.1466 17.3745 73.0881 17.3688L43.1671 17.2312C41.1085 17.2197 39.4456 15.4708 39.4571 13.3147L39.4686 10.5279C39.48 8.37759 37.8171 6.62293 35.7585 6.61146L30.3569 6.58852L16.916 6.51971C13.7622 6.50251 10.8894 7.71242 8.73334 9.68498C7.3858 12.2768 5.91785 15.9639 6.58875 18.7966L107.82 51.7509L107.895 34.0667Z" fill="#E34A02"/>
<path d="M95.9334 6.88623C95.9334 6.88623 96.071 6.88623 96.3463 6.90343C96.6215 6.9321 97.0344 6.90343 97.5676 7.00664C98.6399 7.13853 100.263 7.49405 102.092 8.58928C103.015 9.11682 103.95 9.868 104.839 10.8313C105.722 11.7947 106.542 13.0046 107.121 14.4439C107.711 15.8832 108.027 17.5575 108.004 19.3466C107.998 21.1299 107.992 23.0279 107.987 25.0406C107.929 41.1365 107.849 64.423 107.746 93.1971C107.631 121.971 107.499 156.233 107.35 194.279C107.333 199.033 107.31 203.85 107.293 208.718C107.287 209.934 107.281 211.155 107.276 212.382C107.258 213.609 107.172 214.871 106.8 216.058C106.45 217.25 105.951 218.409 105.246 219.452C104.546 220.49 103.697 221.431 102.723 222.228C100.756 223.793 98.2959 224.785 95.7499 224.9C95.1134 224.94 94.4827 224.934 93.8519 224.928L91.9596 224.923C90.6981 224.917 89.4308 224.911 88.1579 224.906C83.0774 224.883 77.951 224.86 72.773 224.837C62.4229 224.791 51.8892 224.739 41.2006 224.693C35.8564 224.67 30.472 224.642 25.0532 224.619C22.3409 224.607 19.6229 224.596 16.8992 224.579C14.164 224.705 11.3313 223.977 9.05481 222.377C6.76688 220.794 5.08103 218.403 4.30118 215.754C3.88258 214.435 3.80804 213.03 3.81377 211.671C3.81951 210.312 3.82524 208.953 3.83098 207.6C3.85391 202.181 3.87685 196.791 3.89979 191.447C3.94566 180.752 3.99153 170.219 4.03741 159.868C4.12915 139.162 4.21517 119.19 4.30118 100.17C4.38719 81.1439 4.46747 63.064 4.54201 46.1482C4.58215 37.6903 4.61656 29.519 4.6567 21.6632C4.66243 20.6827 4.66817 19.7021 4.66817 18.733C4.67963 18.2456 4.71404 17.7582 4.74271 17.2708C4.82872 16.7892 4.86886 16.3018 4.99501 15.8315C5.44228 13.945 6.32534 12.1789 7.55246 10.7281C8.79104 9.28311 10.3393 8.14201 12.0423 7.4023C13.7454 6.64539 15.609 6.38162 17.4095 6.41029C21.0049 6.42749 24.5199 6.44469 27.9375 6.4619C29.6463 6.47336 31.3378 6.4791 33.0008 6.49057C33.8322 6.4963 34.6637 6.50204 35.4837 6.50204C36.3151 6.4619 37.1752 6.697 37.8519 7.17293C38.5285 7.64887 39.0503 8.33697 39.3198 9.11109C39.6237 9.8852 39.5492 10.7224 39.5549 11.4908C39.5549 11.8864 39.5492 12.2764 39.5492 12.6663C39.5492 13.0562 39.532 13.4461 39.5836 13.8189C39.6753 14.57 39.9907 15.2868 40.4781 15.8488C40.9598 16.4164 41.6192 16.8293 42.3245 17.0071C42.6801 17.0988 43.0413 17.1275 43.414 17.1217C43.7868 17.1217 44.1595 17.1275 44.5265 17.1275C46.0059 17.1332 47.4566 17.1447 48.8844 17.1504C54.6014 17.1791 59.917 17.2078 64.814 17.2364C67.2625 17.2479 69.602 17.2651 71.8384 17.2766C72.3946 17.2708 72.9565 17.3052 73.4841 17.2651C74.0174 17.2078 74.5277 17.0243 74.9692 16.749C75.858 16.1985 76.4659 15.2811 76.678 14.3177C76.7927 13.8361 76.7755 13.3372 76.7812 12.8498C76.7812 12.3624 76.787 11.8807 76.787 11.4048C76.7927 10.9346 76.7698 10.4586 76.8558 9.99989C76.9361 9.54115 77.0966 9.10535 77.3145 8.70969C77.7503 7.91838 78.4613 7.32202 79.2469 7.01811C80.0382 6.67979 80.8812 6.78301 81.6438 6.77154C84.7403 6.78874 87.3608 6.80595 89.4767 6.82315C91.5926 6.84035 93.2097 6.85182 94.2934 6.85755C95.3772 6.86902 95.9334 6.88623 95.9334 6.88623C95.9334 6.88623 95.3772 6.89196 94.2934 6.89196C93.2039 6.89196 91.5926 6.88623 89.4767 6.88623C87.3608 6.88049 84.7403 6.87476 81.6438 6.86329C80.8754 6.88049 80.0497 6.77728 79.2813 7.10986C78.5187 7.40804 77.8306 7.99292 77.4063 8.76704C77.1941 9.15123 77.0393 9.57556 76.959 10.0228C76.873 10.4701 76.9017 10.9346 76.8959 11.4105C76.8959 11.8864 76.8902 12.3681 76.8902 12.8555C76.8845 13.3429 76.9074 13.8475 76.7927 14.3464C76.5805 15.3441 75.9555 16.2903 75.038 16.858C74.5793 17.1447 74.0518 17.3339 73.5013 17.397C72.9451 17.4429 72.4003 17.4084 71.8384 17.4142C69.6078 17.4084 67.2625 17.397 64.814 17.3855C59.917 17.3683 54.6014 17.3454 48.8844 17.3224C47.4566 17.3167 46.0002 17.311 44.5265 17.3052C44.1595 17.3052 43.7868 17.2995 43.414 17.2995C43.047 17.3052 42.6514 17.2766 42.2787 17.1848C41.5332 16.9956 40.8394 16.5713 40.3405 15.9749C39.8302 15.3843 39.4976 14.6331 39.4001 13.8475C39.3485 13.4519 39.3657 13.0562 39.3657 12.672C39.3657 12.2821 39.3714 11.8922 39.3714 11.4965C39.3657 10.7109 39.4345 9.91387 39.1421 9.1799C38.8898 8.44019 38.3909 7.78649 37.7429 7.33349C37.0892 6.88049 36.2979 6.66259 35.4837 6.697C34.6637 6.69126 33.8322 6.69126 33.0008 6.68553C31.3321 6.67979 29.6463 6.67406 27.9375 6.66259C24.5142 6.65112 21.0049 6.63392 17.4095 6.61672C15.6205 6.58805 13.8027 6.85182 12.1283 7.59726C10.4597 8.33124 8.94013 9.4494 7.72448 10.8657C6.52031 12.2936 5.65445 14.0253 5.21865 15.8774C5.0925 16.3362 5.05809 16.8178 4.97208 17.288C4.93767 17.7754 4.90327 18.2514 4.8918 18.7388C4.88606 19.7079 4.88606 20.6884 4.88033 21.6689C4.85166 29.5248 4.81725 37.6903 4.78285 46.1539C4.71404 63.0755 4.64523 81.1496 4.57068 100.176C4.49614 119.196 4.41586 139.168 4.32985 159.874C4.28398 170.224 4.24384 180.764 4.19796 191.452C4.17503 196.797 4.15209 202.187 4.12915 207.606C4.12342 208.959 4.11768 210.318 4.11195 211.677C4.10622 213.03 4.17503 214.383 4.58789 215.674C5.35053 218.254 6.99051 220.588 9.22684 222.136C11.4632 223.69 14.1869 224.407 16.9049 224.281C19.6344 224.292 22.3524 224.303 25.0589 224.321C30.4777 224.344 35.8621 224.372 41.2064 224.395C51.8949 224.447 62.4286 224.493 72.7788 224.544C77.951 224.567 83.0831 224.59 88.1636 224.619C89.4308 224.625 90.6981 224.63 91.9654 224.636L93.8576 224.648C94.4884 224.653 95.1192 224.659 95.7384 224.619C98.2271 224.51 100.63 223.535 102.551 222.01C103.503 221.23 104.334 220.312 105.016 219.298C105.704 218.283 106.192 217.147 106.536 215.983C106.903 214.813 106.983 213.598 107.006 212.382C107.012 211.155 107.018 209.939 107.023 208.718C107.046 203.85 107.063 199.033 107.086 194.279C107.258 156.233 107.413 121.971 107.545 93.1971C107.688 64.423 107.803 41.1365 107.883 25.0406C107.895 23.0279 107.906 21.1299 107.912 19.3466C107.941 17.569 107.631 15.9061 107.046 14.4725C106.473 13.039 105.664 11.8406 104.787 10.8772C103.91 9.91387 102.981 9.1627 102.063 8.63515C100.251 7.53419 98.6342 7.1672 97.5676 7.02958C97.0344 6.92063 96.6215 6.9493 96.3463 6.9149C96.071 6.89769 95.9334 6.88623 95.9334 6.88623Z" fill="#263238"/>
<path d="M131.794 120.812C140.286 121.025 148.87 121.254 157.082 123.427C165.293 125.601 173.223 129.941 178.097 136.903C183.459 144.563 184.525 154.357 185.064 163.698C185.959 179.186 185.856 194.749 184.336 210.185C183.568 218.013 180.793 225.278 173.516 228.26C164.765 231.843 153.005 228.26 153.005 228.26" fill="#292930"/>
<path d="M154.57 226.39C154.57 226.39 154.679 226.378 154.891 226.373C155.115 226.367 155.43 226.367 155.838 226.355C156.68 226.35 157.902 226.338 159.467 226.327C161.044 226.315 162.977 226.338 165.19 226.029C165.74 225.937 166.314 225.874 166.893 225.725C167.186 225.662 167.478 225.593 167.776 225.53C168.074 225.449 168.372 225.358 168.671 225.266C169.284 225.105 169.881 224.847 170.506 224.618C171.108 224.337 171.744 224.073 172.341 223.706C173.556 223.012 174.743 222.124 175.752 220.977C176.756 219.836 177.57 218.431 178 216.848C178.814 213.648 179.158 210.11 179.29 206.395C179.405 202.673 179.365 198.757 179.399 194.703C179.417 190.649 179.439 186.445 179.457 182.145C179.474 177.844 179.52 173.641 179.382 169.593C179.239 165.544 178.923 161.639 178.287 157.975C177.048 150.641 174.479 144.282 171.171 139.729C169.525 137.453 167.719 135.635 166.102 134.098C164.468 132.567 163 131.317 161.795 130.302C160.591 129.299 159.657 128.513 159.009 127.974C158.699 127.71 158.458 127.51 158.286 127.36C158.126 127.223 158.045 127.143 158.045 127.143C158.045 127.143 158.137 127.206 158.303 127.338C158.481 127.475 158.722 127.67 159.043 127.922C159.697 128.45 160.649 129.218 161.864 130.205C163.08 131.208 164.565 132.447 166.211 133.966C167.845 135.497 169.663 137.309 171.337 139.597C174.692 144.162 177.295 150.555 178.556 157.918C179.204 161.599 179.525 165.516 179.675 169.576C179.818 173.635 179.778 177.838 179.755 182.139C179.732 186.44 179.715 190.637 179.692 194.697C179.657 198.751 179.692 202.662 179.566 206.395C179.428 210.122 179.078 213.677 178.241 216.905C177.794 218.528 176.957 219.962 175.93 221.12C174.898 222.284 173.682 223.184 172.449 223.878C171.842 224.245 171.199 224.509 170.586 224.79C169.949 225.019 169.347 225.277 168.728 225.432C168.418 225.518 168.12 225.616 167.822 225.69C167.518 225.753 167.22 225.822 166.927 225.885C166.343 226.029 165.763 226.092 165.207 226.178C162.977 226.476 161.038 226.436 159.462 226.43C157.896 226.418 156.675 226.407 155.832 226.401C155.425 226.396 155.109 226.39 154.886 226.384C154.679 226.401 154.57 226.39 154.57 226.39Z" fill="#455A64"/>
<path d="M179.583 184.383C179.56 184.308 180.879 183.924 182.559 183.849C184.239 183.769 185.587 184.027 185.576 184.102C185.564 184.188 184.222 184.067 182.577 184.147C180.925 184.222 179.601 184.469 179.583 184.383Z" fill="#455A64"/>
<path d="M142.89 121.26C142.89 121.254 142.964 121.254 143.108 121.254C143.268 121.26 143.48 121.26 143.756 121.265C144.323 121.288 145.166 121.283 146.244 121.357C148.389 121.575 151.52 121.994 155.189 123.267C155.642 123.433 156.107 123.605 156.583 123.783C156.818 123.869 157.059 123.96 157.305 124.052C157.54 124.161 157.781 124.264 158.022 124.379C158.504 124.597 158.997 124.821 159.496 125.05C160 125.274 160.476 125.566 160.987 125.824C163.005 126.879 165.047 128.227 167.065 129.798C169.083 131.369 171.079 133.192 172.914 135.297C174.749 137.396 176.394 139.815 177.645 142.493C180.202 147.855 181.309 153.463 181.876 158.538C182.415 163.63 182.438 168.24 182.473 172.105C182.484 175.969 182.496 179.095 182.553 181.251C182.582 182.317 182.605 183.149 182.622 183.739C182.628 184.015 182.633 184.227 182.639 184.387C182.639 184.531 182.639 184.605 182.633 184.611C182.628 184.611 182.622 184.536 182.605 184.393C182.593 184.232 182.576 184.02 182.559 183.745C182.519 183.177 182.478 182.34 182.433 181.262C182.341 179.1 182.301 175.975 182.261 172.11C182.203 168.251 182.157 163.647 181.607 158.572C181.028 153.52 179.915 147.947 177.381 142.631C176.136 139.97 174.519 137.579 172.696 135.498C170.878 133.405 168.9 131.593 166.899 130.021C164.897 128.45 162.873 127.109 160.872 126.048C160.373 125.784 159.892 125.497 159.398 125.268C158.899 125.038 158.418 124.815 157.936 124.597C157.695 124.488 157.46 124.379 157.225 124.27C156.984 124.178 156.749 124.087 156.508 124.001C156.038 123.823 155.574 123.645 155.126 123.479C151.491 122.189 148.377 121.741 146.238 121.489C145.166 121.397 144.323 121.38 143.761 121.34C143.492 121.323 143.274 121.311 143.113 121.3C142.964 121.271 142.89 121.26 142.89 121.26Z" fill="#E0E0E0"/>
<path d="M137.58 121.238C137.58 121.238 139.662 115.739 147.076 116.782C147.076 116.782 150.379 116.599 150.981 118.439C150.981 118.439 144.077 116.725 141.135 121.501L137.58 121.238Z" fill="#292930"/>
<path d="M158.711 127.934H154.37C154.37 127.934 153.527 116.448 142.999 116.895C142.999 116.895 156.084 112.515 158.711 127.934Z" fill="#40404C"/>
<path d="M179.652 191.389L185.873 192.255L185.254 194.468L179.439 194.015L179.652 191.389Z" fill="#455A64"/>
<path d="M180.025 193.395C179.985 193.366 180.272 192.93 180.753 192.277L180.839 192.156L180.937 192.277C181.212 192.615 181.505 192.965 181.809 193.332L181.608 193.303C181.809 193.154 182.015 192.999 182.233 192.844C182.451 192.684 182.669 192.529 182.875 192.38L182.996 192.294L183.082 192.409C183.362 192.798 183.626 193.171 183.879 193.532L183.718 193.51C184.383 193.068 184.813 192.81 184.842 192.844C184.871 192.884 184.486 193.211 183.856 193.699L183.77 193.768L183.695 193.676C183.426 193.332 183.145 192.971 182.852 192.586L183.053 192.615C182.846 192.77 182.634 192.925 182.416 193.085C182.198 193.24 181.992 193.395 181.791 193.538L181.677 193.624L181.591 193.515C181.304 193.137 181.029 192.77 180.765 192.426H180.948C180.415 193.039 180.065 193.424 180.025 193.395Z" fill="#E8505B"/>
<path d="M89.1436 232.373C89.1436 232.373 87.9394 228.45 88.1803 226.793C88.4211 225.136 90.6517 223.628 90.6517 223.628L88.2319 160.753C88.2319 160.753 87.9165 133.252 102.476 124.702L111.163 122.511L132.592 121.244C133.285 121.474 158.47 130.946 161.933 134.645L151.073 190.094C151.073 190.094 152.392 206.477 153.711 218.255C153.98 220.663 155.786 232.55 155.786 232.55L89.1436 232.373Z" fill="#9C1006"/>
<g opacity="0.3">
<path opacity="0.3" d="M153.31 214.544C153.109 216.075 152.524 217.939 151.056 218.409C149.588 218.885 147.994 218.747 146.474 218.472C141.101 217.514 136.159 214.991 131.307 212.497C122.236 207.841 113.084 203.127 105.257 196.596C104.156 195.679 102.981 194.245 103.657 192.984C104.42 191.55 106.57 192.032 108.044 192.708C123.429 199.801 137.93 207.451 153.31 214.544Z" fill="black"/>
</g>
<path d="M99.2185 126.41C99.2185 126.41 89.6252 129.61 86.523 138.498C83.094 148.315 80.8232 167.375 80.8232 167.375L90.3018 168.568L99.2185 126.41Z" fill="#9C1006"/>
<path d="M161.934 134.638C161.934 134.638 167.077 141.405 169.583 149.628C172.083 157.85 173.517 181.682 173.517 181.682L147.713 181.32L146.342 160.356C146.342 160.356 143.733 125.372 161.934 134.638Z" fill="#9C1006"/>
<path d="M84.2119 147.064C84.2119 147.064 84.4011 146.772 84.923 146.393C85.439 146.021 86.4081 145.631 87.641 145.872C88.891 146.055 90.1066 147.036 91.7065 147.649C92.4978 147.953 93.4267 148.188 94.3672 147.976C95.3133 147.77 96.1275 147.093 96.9934 146.439C97.4292 146.112 97.8879 145.774 98.4269 145.539C98.9602 145.298 99.6197 145.218 100.21 145.464C100.807 145.682 101.254 146.187 101.598 146.703C101.953 147.219 102.24 147.787 102.613 148.291C102.974 148.796 103.456 149.238 104.069 149.415C104.671 149.616 105.348 149.564 105.985 149.398C106.633 149.232 107.258 148.945 107.854 148.595C108.45 148.246 109.024 147.816 109.643 147.437C110.257 147.053 110.91 146.692 111.639 146.468C112.361 146.256 113.175 146.204 113.926 146.462C114.678 146.709 115.326 147.168 115.91 147.672C116.501 148.177 117.052 148.722 117.665 149.197C118.267 149.673 118.944 150.086 119.706 150.201C120.458 150.35 121.255 150.241 121.994 149.966C123.485 149.404 124.804 148.395 126.266 147.586C127 147.19 127.769 146.812 128.6 146.657C129.426 146.502 130.309 146.554 131.089 146.852C132.654 147.46 133.813 148.641 135.2 149.306C135.544 149.478 135.906 149.599 136.267 149.685C136.634 149.759 137.007 149.777 137.379 149.754C138.125 149.702 138.841 149.455 139.518 149.14C140.877 148.527 142.104 147.666 143.509 147.208C144.203 146.978 144.954 146.875 145.677 147.013C146.405 147.139 147.036 147.535 147.563 147.976C148.618 148.853 149.444 149.972 150.648 150.344C151.239 150.528 151.864 150.516 152.454 150.396C153.051 150.275 153.618 150.075 154.18 149.88C155.287 149.49 156.445 149.089 157.569 149.347C158.126 149.455 158.607 149.748 159.026 150.063C159.444 150.384 159.806 150.734 160.173 151.061C160.54 151.388 160.912 151.675 161.308 151.893C161.704 152.105 162.134 152.231 162.552 152.294C163.395 152.414 164.204 152.282 164.892 152.053C165.591 151.824 166.176 151.485 166.675 151.141C167.667 150.447 168.332 149.759 168.785 149.312C169.003 149.094 169.175 148.922 169.301 148.796C169.416 148.681 169.479 148.624 169.485 148.624C169.491 148.63 169.433 148.693 169.324 148.813C169.204 148.945 169.038 149.123 168.831 149.352C168.384 149.811 167.736 150.516 166.744 151.233C166.245 151.589 165.649 151.938 164.938 152.179C164.232 152.42 163.407 152.569 162.529 152.449C162.094 152.391 161.646 152.259 161.228 152.042C160.809 151.818 160.425 151.52 160.052 151.199C159.312 150.568 158.579 149.759 157.523 149.547C156.48 149.312 155.362 149.696 154.255 150.092C153.693 150.287 153.12 150.499 152.5 150.625C151.887 150.751 151.21 150.774 150.574 150.574C149.931 150.379 149.375 149.972 148.876 149.53C148.377 149.088 147.913 148.595 147.397 148.171C146.887 147.741 146.296 147.38 145.625 147.271C144.96 147.145 144.26 147.242 143.595 147.46C142.248 147.902 141.02 148.762 139.639 149.392C138.95 149.714 138.199 149.977 137.408 150.035C137.012 150.058 136.605 150.04 136.215 149.96C135.825 149.868 135.441 149.736 135.086 149.559C133.641 148.865 132.482 147.689 130.997 147.122C130.263 146.841 129.455 146.795 128.675 146.938C127.889 147.087 127.144 147.449 126.427 147.838C124.988 148.63 123.663 149.656 122.109 150.241C121.335 150.534 120.481 150.648 119.666 150.488C118.841 150.361 118.118 149.914 117.499 149.427C116.255 148.458 115.263 147.196 113.852 146.732C113.164 146.491 112.418 146.537 111.736 146.732C111.048 146.944 110.411 147.288 109.809 147.666C109.196 148.039 108.628 148.463 108.014 148.825C107.401 149.18 106.753 149.478 106.076 149.65C105.405 149.822 104.677 149.874 104.018 149.656C103.347 149.455 102.814 148.962 102.441 148.435C102.057 147.907 101.77 147.34 101.426 146.835C101.093 146.33 100.686 145.877 100.153 145.677C99.6254 145.459 99.0405 145.522 98.5416 145.74C98.0313 145.952 97.584 146.284 97.1482 146.606C96.2881 147.248 95.4452 147.947 94.436 148.16C93.4382 148.377 92.4806 148.119 91.6778 147.798C90.055 147.156 88.8623 146.176 87.6524 145.981C86.4597 145.728 85.5078 146.09 84.9918 146.439C84.4298 146.795 84.2291 147.076 84.2119 147.064Z" fill="#FAFAFA"/>
<path d="M81.1731 162.564C81.1731 162.558 81.2591 162.564 81.4254 162.581C81.6032 162.598 81.8498 162.627 82.1651 162.656C82.8188 162.696 83.7822 162.971 84.9864 162.581C85.5942 162.449 86.2765 162.323 87.022 162.197C87.7674 162.065 88.5702 161.887 89.4533 161.778C90.3306 161.675 91.3169 161.675 92.2917 161.985C93.2665 162.272 94.2126 162.77 95.2563 163.12C96.2942 163.487 97.4697 163.527 98.6337 163.218C99.8035 162.942 100.95 162.403 102.189 161.973C103.41 161.532 104.827 161.193 106.231 161.583C107.619 161.973 108.737 163 110.131 163.338C110.475 163.418 110.83 163.441 111.186 163.413C111.541 163.372 111.897 163.281 112.241 163.16C112.94 162.919 113.617 162.564 114.357 162.306C115.085 162.036 115.951 161.922 116.731 162.226C117.505 162.524 118.107 163.092 118.738 163.556C119.053 163.791 119.38 164.009 119.735 164.158C120.091 164.307 120.475 164.37 120.859 164.37C121.639 164.342 122.402 164.032 123.142 163.688C123.887 163.344 124.638 162.96 125.481 162.747C125.905 162.656 126.341 162.598 126.783 162.661C127.224 162.713 127.649 162.868 128.033 163.069C128.807 163.476 129.449 164.043 130.132 164.508C130.47 164.737 130.825 164.949 131.198 165.093C131.387 165.162 131.571 165.225 131.772 165.253L132.064 165.305L132.362 165.316C133.159 165.334 133.945 165.104 134.702 164.829C135.459 164.554 136.204 164.233 136.984 163.997C137.752 163.768 138.595 163.619 139.398 163.825C140.212 163.998 140.877 164.525 141.434 165.047C141.996 165.58 142.512 166.142 143.108 166.561C143.704 166.985 144.421 167.18 145.121 167.134C145.826 167.088 146.503 166.83 147.139 166.521C147.776 166.211 148.383 165.85 148.991 165.511C150.195 164.846 151.52 164.227 152.891 164.382C154.25 164.542 155.356 165.293 156.331 165.993C157.317 166.704 158.218 167.455 159.21 167.92C160.19 168.407 161.228 168.654 162.214 168.734C163.206 168.797 164.141 168.694 165.001 168.516C166.704 168.103 168.057 167.346 169.009 166.561C169.967 165.775 170.517 164.972 170.873 164.428C171.033 164.147 171.142 163.917 171.223 163.774C171.303 163.625 171.343 163.55 171.349 163.556C171.355 163.556 171.32 163.636 171.251 163.791C171.177 163.94 171.079 164.175 170.925 164.462C170.58 165.018 170.041 165.844 169.084 166.652C168.132 167.461 166.773 168.247 165.041 168.682C164.17 168.872 163.218 168.98 162.209 168.923C161.199 168.849 160.139 168.602 159.124 168.109C158.097 167.633 157.185 166.876 156.205 166.176C155.23 165.483 154.146 164.766 152.873 164.623C151.595 164.479 150.322 165.064 149.129 165.735C148.521 166.073 147.919 166.44 147.265 166.756C146.617 167.071 145.912 167.352 145.149 167.404C144.392 167.455 143.59 167.237 142.959 166.784C142.322 166.343 141.801 165.769 141.244 165.248C140.694 164.731 140.075 164.25 139.335 164.095C138.601 163.911 137.815 164.043 137.07 164.267C136.313 164.491 135.573 164.817 134.805 165.093C134.037 165.374 133.222 165.62 132.356 165.603L132.035 165.592L131.714 165.534C131.502 165.506 131.29 165.437 131.089 165.356C130.688 165.202 130.315 164.978 129.965 164.743C129.266 164.267 128.629 163.705 127.901 163.321C127.54 163.132 127.15 162.994 126.754 162.948C126.358 162.897 125.951 162.948 125.556 163.028C124.764 163.229 124.025 163.602 123.273 163.946C122.522 164.29 121.731 164.623 120.877 164.651C120.452 164.657 120.022 164.582 119.632 164.416C119.242 164.25 118.898 164.02 118.571 163.774C117.929 163.292 117.344 162.747 116.639 162.478C115.939 162.208 115.165 162.3 114.46 162.558C113.743 162.805 113.067 163.155 112.344 163.407C111.983 163.527 111.61 163.631 111.22 163.671C110.836 163.705 110.446 163.676 110.073 163.59C108.583 163.212 107.482 162.186 106.168 161.819C104.85 161.452 103.491 161.761 102.281 162.191C101.054 162.61 99.8952 163.149 98.6968 163.424C97.5098 163.739 96.2598 163.688 95.1989 163.304C94.1324 162.937 93.1977 162.438 92.2458 162.151C91.2997 161.841 90.3535 161.836 89.482 161.933C88.6104 162.025 87.8076 162.203 87.0564 162.323C86.311 162.444 85.6286 162.552 85.0208 162.679C84.7168 162.736 84.4301 162.805 84.1549 162.845C83.8739 162.885 83.6101 162.874 83.375 162.851C82.8991 162.799 82.4977 162.742 82.1709 162.696C81.8555 162.65 81.6147 162.616 81.4312 162.593C81.2534 162.587 81.1674 162.57 81.1731 162.564Z" fill="#FAFAFA"/>
<path d="M90.7148 176.086C90.7148 176.081 90.7722 176.086 90.8869 176.092C91.013 176.104 91.1793 176.121 91.3857 176.144C91.8215 176.19 92.4695 176.276 93.2952 176.402C94.9524 176.631 97.3264 177.124 100.297 177.365C101.782 177.491 103.41 177.48 105.154 177.279C106.025 177.199 106.948 177.119 107.9 177.256C108.37 177.325 108.852 177.457 109.299 177.669C109.747 177.881 110.154 178.174 110.544 178.483C111.323 179.085 112.063 179.814 113.021 180.106C113.491 180.255 113.996 180.226 114.489 180.095C114.982 179.957 115.452 179.722 115.945 179.498C116.433 179.275 116.949 179.039 117.522 178.971C118.09 178.879 118.709 179.022 119.197 179.332C120.189 179.934 120.837 180.937 121.846 181.362C122.861 181.803 124.008 181.528 125.045 181.218C126.1 180.909 127.144 180.496 128.268 180.473C128.824 180.467 129.386 180.57 129.879 180.806C130.378 181.041 130.808 181.368 131.204 181.7C131.995 182.371 132.695 183.122 133.566 183.524C134.432 183.942 135.419 183.822 136.284 183.529C137.167 183.254 137.976 182.824 138.859 182.623C139.725 182.428 140.654 182.411 141.422 182.813C141.801 183.013 142.11 183.334 142.3 183.701C142.489 184.068 142.581 184.441 142.701 184.791C142.816 185.141 142.965 185.462 143.194 185.708C143.418 185.961 143.71 186.133 144.014 186.236C144.633 186.442 145.276 186.391 145.826 186.224C146.382 186.052 146.835 185.743 147.185 185.387C147.541 185.037 147.804 184.653 148.017 184.298C148.435 183.581 148.659 182.967 148.825 182.56C148.9 182.371 148.963 182.216 149.009 182.096C149.049 181.993 149.077 181.941 149.077 181.941C149.083 181.941 149.066 181.998 149.037 182.107C148.997 182.228 148.945 182.388 148.882 182.583C148.733 182.996 148.527 183.615 148.12 184.355C147.913 184.722 147.655 185.118 147.294 185.485C146.938 185.857 146.463 186.196 145.883 186.385C145.31 186.563 144.628 186.632 143.957 186.414C143.624 186.305 143.303 186.115 143.045 185.84C142.787 185.565 142.621 185.209 142.5 184.854C142.374 184.498 142.277 184.131 142.105 183.799C141.933 183.466 141.657 183.191 141.319 183.013C140.625 182.652 139.748 182.669 138.916 182.858C138.079 183.048 137.271 183.483 136.365 183.77C135.917 183.919 135.436 184.034 134.937 184.057C134.438 184.074 133.922 183.982 133.452 183.764C132.511 183.334 131.795 182.566 131.02 181.912C130.63 181.585 130.218 181.276 129.759 181.058C129.3 180.84 128.79 180.748 128.274 180.754C127.23 180.777 126.198 181.173 125.131 181.494C124.598 181.654 124.048 181.803 123.468 181.861C122.895 181.918 122.282 181.872 121.731 181.626C120.613 181.138 119.959 180.117 119.047 179.573C118.6 179.292 118.078 179.171 117.562 179.246C117.046 179.309 116.553 179.533 116.071 179.751C115.584 179.974 115.097 180.209 114.569 180.358C114.047 180.502 113.468 180.53 112.946 180.364C111.897 180.037 111.151 179.28 110.383 178.684C109.999 178.38 109.609 178.099 109.19 177.898C108.772 177.698 108.325 177.572 107.872 177.503C106.966 177.365 106.06 177.44 105.188 177.514C103.439 177.703 101.782 177.703 100.291 177.566C97.3034 177.291 94.9409 176.769 93.2895 176.505C92.481 176.373 91.8445 176.27 91.3915 176.195C91.1908 176.161 91.0245 176.138 90.8983 176.115C90.7722 176.104 90.7148 176.092 90.7148 176.086Z" fill="#FAFAFA"/>
<path d="M89.918 214.326C89.918 214.32 89.9753 214.297 90.0843 214.257C90.2104 214.211 90.3767 214.154 90.5889 214.079C91.0304 213.924 91.6784 213.689 92.527 213.414C93.3757 213.15 94.4193 212.8 95.6923 212.674C96.3345 212.605 97.0341 212.766 97.705 213.007C98.3816 213.242 99.0812 213.546 99.8553 213.62C100.629 213.695 101.426 213.443 102.206 213.087C102.992 212.743 103.795 212.284 104.735 212.072C105.681 211.86 106.69 211.986 107.66 212.244C108.634 212.502 109.586 212.886 110.59 213.179C111.582 213.471 112.654 213.672 113.703 213.448C114.758 213.23 115.739 212.663 116.811 212.238C117.35 212.026 117.924 211.854 118.537 211.831C119.145 211.803 119.77 211.969 120.292 212.29C121.341 212.915 122.092 213.93 123.188 214.337C123.727 214.532 124.317 214.521 124.879 214.377C125.441 214.24 125.98 213.999 126.519 213.752C127.058 213.511 127.597 213.259 128.171 213.099C128.744 212.932 129.375 212.881 129.96 213.064C130.55 213.23 131.021 213.632 131.416 214.033C131.818 214.435 132.173 214.865 132.58 215.209C133.377 215.948 134.501 216.046 135.499 215.817C136.514 215.616 137.466 215.226 138.441 214.968C138.928 214.853 139.421 214.733 139.926 214.744C140.419 214.739 140.935 214.836 141.354 215.088C141.795 215.306 142.128 215.679 142.391 216.052C142.655 216.43 142.862 216.826 143.074 217.204C143.487 217.95 143.997 218.638 144.742 218.873C145.465 219.119 146.239 218.959 146.864 218.655C147.495 218.351 148.022 217.927 148.435 217.457C149.238 216.505 149.662 215.478 150.092 214.704C150.505 213.913 150.878 213.328 151.171 212.961C151.463 212.594 151.658 212.433 151.658 212.433C151.669 212.445 151.497 212.623 151.222 212.995C150.947 213.374 150.591 213.959 150.196 214.756C149.783 215.536 149.381 216.568 148.561 217.565C148.143 218.053 147.604 218.5 146.95 218.821C146.302 219.142 145.482 219.332 144.679 219.068C143.859 218.816 143.297 218.059 142.879 217.313C142.443 216.573 142.047 215.713 141.239 215.3C140.459 214.836 139.45 214.968 138.515 215.214C137.563 215.467 136.611 215.868 135.562 216.08C135.04 216.189 134.484 216.241 133.928 216.143C133.647 216.115 133.383 215.994 133.114 215.897C132.856 215.771 132.62 215.604 132.403 215.421C131.967 215.054 131.605 214.624 131.216 214.234C130.826 213.844 130.396 213.483 129.874 213.339C129.358 213.179 128.796 213.225 128.251 213.38C127.706 213.534 127.179 213.781 126.64 214.022C126.101 214.263 125.55 214.515 124.948 214.664C124.352 214.819 123.687 214.836 123.084 214.618C121.875 214.154 121.123 213.116 120.137 212.542C119.65 212.244 119.099 212.101 118.543 212.118C117.987 212.135 117.442 212.296 116.914 212.502C115.865 212.915 114.873 213.488 113.755 213.718C112.637 213.953 111.513 213.735 110.504 213.431C109.489 213.127 108.537 212.743 107.585 212.485C106.639 212.233 105.675 212.107 104.781 212.301C103.886 212.496 103.095 212.938 102.292 213.282C101.501 213.638 100.652 213.901 99.8266 213.81C99.0066 213.724 98.3013 213.402 97.6304 213.167C96.9595 212.921 96.3116 212.76 95.6923 212.823C94.448 212.927 93.3986 213.259 92.55 213.506C91.7185 213.764 91.0648 213.97 90.5946 214.119C90.3824 214.182 90.2162 214.228 90.0843 214.268C89.981 214.32 89.918 214.331 89.918 214.326Z" fill="#FAFAFA"/>
<path d="M122.127 200.122C122.133 200.134 122.018 200.202 121.8 200.328C121.577 200.455 121.244 200.621 120.791 200.787C119.891 201.126 118.48 201.447 116.749 201.206C116.318 201.137 115.871 201.045 115.418 200.896C114.965 200.753 114.512 200.546 114.053 200.351C113.595 200.168 113.102 200.007 112.597 200.053C112.092 200.099 111.611 200.351 111.158 200.673C110.699 200.994 110.257 201.378 109.736 201.699C109.478 201.859 109.185 201.991 108.875 202.077C108.721 202.123 108.56 202.14 108.4 202.152C108.239 202.175 108.078 202.158 107.912 202.14C106.599 201.974 105.555 201.108 104.42 200.529C103.852 200.237 103.245 200.007 102.654 200.076L102.436 200.105C102.367 200.122 102.298 200.151 102.23 200.174C102.086 200.214 101.96 200.283 101.834 200.357C101.587 200.518 101.369 200.724 101.163 200.948C100.75 201.389 100.395 201.9 99.9015 202.284C99.6549 202.479 99.3625 202.628 99.0471 202.679C98.7317 202.731 98.4049 202.679 98.1296 202.542C97.5677 202.267 97.2236 201.773 96.914 201.338C96.6043 200.89 96.3348 200.449 96.0023 200.093C95.3371 199.377 94.3852 199.084 93.5652 199.124C92.7223 199.142 92.0399 199.56 91.5067 199.956C90.9676 200.357 90.572 200.793 90.3139 201.189C89.7807 201.991 89.8896 202.576 89.8495 202.565C89.8495 202.565 89.8093 202.433 89.8323 202.175C89.8552 201.923 89.9584 201.544 90.2107 201.126C90.463 200.707 90.8587 200.248 91.3977 199.824C91.9367 199.411 92.6478 198.952 93.548 198.918C94.4254 198.866 95.446 199.159 96.18 199.933C96.5355 200.317 96.8222 200.764 97.1262 201.2C97.4301 201.63 97.7684 202.077 98.2386 202.307C98.7088 202.536 99.2937 202.433 99.7237 202.072C100.165 201.722 100.515 201.223 100.945 200.759C101.157 200.529 101.392 200.3 101.673 200.122C101.817 200.036 101.966 199.956 102.132 199.91C102.212 199.881 102.293 199.847 102.373 199.83L102.625 199.795C103.313 199.715 103.979 199.979 104.563 200.277C105.733 200.879 106.771 201.716 107.952 201.859C108.537 201.934 109.105 201.773 109.592 201.47C110.085 201.171 110.527 200.793 111.003 200.466C111.473 200.139 112.001 199.858 112.58 199.812C113.159 199.761 113.686 199.95 114.157 200.145C114.627 200.346 115.063 200.552 115.498 200.701C115.934 200.85 116.37 200.948 116.789 201.022C118.475 201.286 119.868 201.005 120.762 200.707C121.663 200.386 122.116 200.093 122.127 200.122Z" fill="#FAFAFA"/>
<path d="M90.4799 229.647C90.4799 229.641 90.543 229.658 90.6519 229.693C90.715 229.71 90.7838 229.733 90.8583 229.762C90.9444 229.779 91.0418 229.79 91.1565 229.807C91.6095 229.865 92.2919 229.733 93.0775 229.343C93.8745 228.993 94.7691 228.339 96.0191 228.047C96.3345 227.978 96.6671 227.967 97.0111 228.001C97.3552 228.053 97.6935 228.167 98.0146 228.334C98.6626 228.666 99.2302 229.171 99.861 229.63C100.48 230.083 101.226 230.484 102.063 230.41C102.894 230.346 103.68 229.899 104.529 229.521C104.953 229.331 105.406 229.154 105.893 229.068C106.381 228.982 106.891 229.005 107.384 229.096C108.376 229.28 109.311 229.704 110.297 229.974C111.278 230.266 112.344 230.255 113.388 230.02C114.437 229.796 115.469 229.383 116.525 228.982C117.58 228.58 118.675 228.167 119.862 228.018C121.043 227.835 122.299 228.076 123.4 228.58C124.512 229.062 125.527 229.687 126.599 230.117C127.66 230.553 128.813 230.731 129.874 230.421C132.018 229.807 133.578 228.07 135.614 227.399C136.617 227.044 137.73 227.061 138.676 227.382C139.639 227.686 140.465 228.208 141.245 228.712C142.019 229.223 142.747 229.739 143.487 230.157C144.226 230.582 144.983 230.885 145.734 231.057C147.254 231.39 148.699 231.229 149.88 230.885C151.067 230.53 152.002 229.974 152.69 229.446C154.072 228.357 154.479 227.416 154.525 227.462C154.531 227.462 154.502 227.519 154.439 227.617C154.364 227.732 154.273 227.881 154.158 228.064C153.877 228.431 153.458 228.987 152.759 229.538C152.071 230.088 151.13 230.673 149.926 231.046C148.728 231.413 147.254 231.596 145.689 231.27C144.909 231.098 144.123 230.794 143.372 230.364C142.615 229.939 141.881 229.429 141.107 228.924C140.333 228.431 139.519 227.921 138.595 227.64C137.684 227.336 136.652 227.325 135.7 227.669C134.736 227.99 133.848 228.586 132.936 229.177C132.024 229.767 131.072 230.398 129.948 230.713C128.819 231.046 127.574 230.857 126.485 230.404C125.384 229.962 124.369 229.337 123.279 228.867C122.201 228.38 121.037 228.156 119.896 228.328C118.755 228.466 117.677 228.867 116.622 229.268C115.567 229.67 114.523 230.083 113.44 230.312C112.367 230.553 111.232 230.564 110.217 230.255C109.202 229.974 108.273 229.549 107.327 229.366C106.857 229.274 106.381 229.251 105.928 229.326C105.475 229.4 105.039 229.567 104.62 229.75C103.789 230.117 102.975 230.576 102.074 230.645C101.163 230.719 100.354 230.272 99.7349 229.807C99.0984 229.337 98.5421 228.833 97.9286 228.511C97.6247 228.351 97.3036 228.236 96.9882 228.19C96.6671 228.156 96.3517 228.162 96.0535 228.225C94.8493 228.489 93.9433 229.119 93.1291 229.463C92.332 229.842 91.621 229.962 91.1565 229.882C91.0418 229.859 90.9386 229.848 90.8526 229.825C90.7723 229.79 90.7035 229.767 90.6462 229.739C90.5315 229.676 90.4741 229.653 90.4799 229.647Z" fill="#FAFAFA"/>
<path d="M91.8955 131.055C91.9127 131.044 92.0618 131.262 92.4517 131.571C92.8416 131.875 93.4953 132.248 94.4243 132.431C95.3532 132.632 96.5115 132.632 97.8591 132.5C98.53 132.449 99.2525 132.38 100.027 132.391C100.795 132.403 101.632 132.5 102.435 132.821C103.243 133.137 104 133.63 104.809 134.066C105.216 134.283 105.635 134.484 106.088 134.633C106.535 134.777 107.017 134.851 107.504 134.868C108.484 134.908 109.505 134.708 110.549 134.519C111.592 134.329 112.705 134.134 113.852 134.266C115.016 134.398 116.071 134.989 117.069 135.597C118.072 136.204 119.098 136.858 120.28 137.024C120.865 137.093 121.467 137.053 122.057 136.904C122.648 136.749 123.221 136.514 123.789 136.256C124.93 135.74 126.054 135.075 127.344 134.742C127.986 134.582 128.663 134.524 129.323 134.622C129.982 134.731 130.596 134.989 131.152 135.304C132.27 135.935 133.227 136.755 134.317 137.26C135.401 137.77 136.611 137.867 137.758 137.684C138.91 137.523 140 137.151 141.078 136.824C142.15 136.491 143.216 136.181 144.289 136.044C145.361 135.906 146.428 136.009 147.408 136.239C149.381 136.709 151.061 137.563 152.638 138.171C154.192 138.871 155.74 138.997 157.076 138.877C158.412 138.756 159.536 138.429 160.402 138.045C162.151 137.265 162.718 136.273 162.753 136.325C162.753 136.325 162.615 136.554 162.265 136.915C161.921 137.282 161.319 137.741 160.453 138.154C159.588 138.561 158.452 138.911 157.099 139.049C156.422 139.123 155.688 139.123 154.92 139.031C154.146 138.951 153.354 138.687 152.569 138.378C150.975 137.776 149.295 136.938 147.362 136.491C146.399 136.267 145.372 136.176 144.329 136.313C143.285 136.451 142.236 136.755 141.164 137.093C140.091 137.42 138.99 137.804 137.803 137.971C136.628 138.16 135.343 138.068 134.202 137.529C133.061 137.001 132.098 136.181 131.014 135.568C130.475 135.264 129.896 135.023 129.282 134.92C128.669 134.828 128.038 134.88 127.425 135.035C126.192 135.35 125.073 136.004 123.921 136.531C123.342 136.795 122.751 137.036 122.138 137.196C121.518 137.351 120.876 137.397 120.245 137.323C118.978 137.139 117.917 136.451 116.925 135.849C115.927 135.235 114.918 134.673 113.823 134.547C111.615 134.306 109.545 135.218 107.498 135.121C106.988 135.098 106.489 135.017 106.019 134.868C105.549 134.714 105.119 134.501 104.706 134.278C103.886 133.83 103.14 133.337 102.366 133.028C100.795 132.403 99.2066 132.598 97.8763 132.678C96.5287 132.793 95.3418 132.781 94.4071 132.557C93.4667 132.351 92.8072 131.955 92.4231 131.629C92.0331 131.29 91.8955 131.055 91.8955 131.055Z" fill="#FAFAFA"/>
<g opacity="0.3">
<path opacity="0.3" d="M134.903 137.648L142.999 143.251C140.425 149.633 142.81 158.492 145.041 165.74C145.907 168.561 148.779 171.497 148.642 174.445C148.504 177.392 150.97 182.404 148.114 183.149C146.222 183.642 144.163 183 142.592 181.836C141.015 180.672 139.857 179.043 138.825 177.381C133.137 168.183 130.482 150.59 134.903 137.648Z" fill="black"/>
</g>
<path d="M92.2864 224.768C92.2864 224.757 92.3953 224.768 92.596 224.802C92.8311 224.843 93.1178 224.9 93.4676 224.963C94.2647 225.118 95.3484 225.318 96.6673 225.571C99.3681 226.075 103.112 226.729 107.264 227.308C111.421 227.887 115.194 228.283 117.935 228.535C119.271 228.656 120.367 228.753 121.181 228.822C121.536 228.856 121.829 228.885 122.064 228.908C122.265 228.931 122.374 228.948 122.368 228.96C122.368 228.971 122.259 228.971 122.058 228.971C121.823 228.965 121.531 228.954 121.175 228.942C120.407 228.914 119.294 228.845 117.924 228.747C115.177 228.553 111.393 228.186 107.23 227.606C103.072 227.027 99.3279 226.339 96.6329 225.783C95.2853 225.502 94.1958 225.261 93.4504 225.078C93.1063 224.992 92.8196 224.923 92.5903 224.865C92.3838 224.808 92.2806 224.779 92.2864 224.768Z" fill="#263238"/>
<path d="M104.884 223.272C104.89 223.26 105.05 223.295 105.36 223.375C105.669 223.444 106.117 223.593 106.713 223.702C107.889 223.971 109.62 224.258 111.776 224.356C113.932 224.453 116.513 224.293 119.294 223.662C122.075 223.037 125.034 221.901 127.832 220.175C130.613 218.421 132.935 216.259 134.713 214.034C136.502 211.809 137.781 209.561 138.641 207.583C139.507 205.605 140.006 203.925 140.281 202.749C140.441 202.164 140.505 201.7 140.579 201.39C140.648 201.081 140.688 200.914 140.694 200.92C140.705 200.92 140.682 201.086 140.636 201.402C140.579 201.717 140.533 202.187 140.39 202.778C140.149 203.965 139.679 205.668 138.83 207.669C137.993 209.67 136.72 211.953 134.925 214.206C133.142 216.46 130.797 218.65 127.987 220.428C125.154 222.177 122.161 223.312 119.351 223.926C116.541 224.545 113.932 224.688 111.765 224.562C109.592 224.442 107.86 224.121 106.684 223.811C106.094 223.679 105.646 223.513 105.343 223.427C105.039 223.341 104.884 223.283 104.884 223.272Z" fill="#263238"/>
<path d="M109.965 122.481C109.977 122.481 109.977 122.624 109.977 122.894C109.977 123.192 109.971 123.587 109.971 124.075C109.982 125.096 109.959 126.604 110.407 128.37C110.647 129.241 111.003 130.188 111.645 131.042C112.265 131.908 113.159 132.647 114.208 133.221C115.258 133.8 116.468 134.213 117.746 134.488C119.025 134.769 120.384 134.913 121.778 134.878C124.559 134.821 127.185 134.047 129.226 132.774C131.285 131.512 132.678 129.746 133.504 128.135C134.324 126.5 134.571 125.01 134.622 123.995C134.657 122.974 134.553 122.406 134.588 122.406C134.599 122.406 134.622 122.544 134.662 122.813C134.708 123.083 134.731 123.484 134.737 124C134.72 125.027 134.507 126.552 133.693 128.226C132.879 129.884 131.474 131.701 129.375 133.009C127.3 134.328 124.622 135.125 121.789 135.176C120.373 135.211 118.991 135.067 117.689 134.775C116.387 134.494 115.16 134.064 114.082 133.462C113.004 132.865 112.081 132.091 111.45 131.191C110.791 130.302 110.435 129.322 110.206 128.427C109.776 126.615 109.839 125.101 109.856 124.075C109.873 123.559 109.902 123.163 109.919 122.894C109.942 122.618 109.959 122.475 109.965 122.481Z" fill="#263238"/>
<path d="M106.461 123.48C106.461 123.48 92.5101 124.008 89.1957 137.942C85.3596 154.078 87.6762 171.871 92.4986 180.782L92.728 164.91C92.8828 153.895 95.5378 143.063 100.486 133.217L106.461 123.48Z" fill="#40404C"/>
<path d="M90.0669 169.273C90.0554 169.273 90.044 169.107 90.0325 168.786C90.021 168.442 90.0095 167.977 89.9866 167.392C89.9637 166.785 89.9522 166.045 89.9809 165.185C90.0038 164.325 89.9981 163.344 90.0784 162.26C90.1128 161.716 90.1472 161.154 90.1816 160.563C90.2217 159.972 90.2963 159.359 90.3536 158.728C90.4626 157.455 90.669 156.108 90.8639 154.685C91.3227 151.853 91.9592 148.762 92.848 145.568C93.7597 142.38 94.832 139.41 95.9215 136.755C96.4949 135.442 97.0225 134.18 97.5959 133.045C97.8768 132.471 98.1291 131.909 98.4101 131.387C98.6854 130.866 98.9549 130.367 99.2129 129.885C99.7061 128.922 100.228 128.085 100.658 127.339C101.088 126.594 101.484 125.963 101.822 125.458C102.143 124.971 102.401 124.581 102.59 124.294C102.768 124.03 102.866 123.893 102.877 123.899C102.889 123.904 102.803 124.053 102.642 124.329C102.464 124.627 102.223 125.023 101.925 125.521C101.604 126.037 101.22 126.668 100.807 127.425C100.388 128.176 99.8838 129.013 99.4021 129.983C99.1556 130.464 98.8918 130.969 98.6223 131.491C98.3528 132.018 98.1062 132.58 97.8252 133.154C97.2633 134.295 96.7472 135.55 96.1795 136.864C95.1072 139.513 94.0464 142.477 93.1404 145.654C92.2573 148.831 91.6094 151.91 91.1392 154.731C90.9328 156.148 90.7206 157.489 90.6002 158.757C90.5371 159.387 90.4568 160.001 90.4109 160.586C90.3708 161.177 90.3307 161.738 90.2905 162.277C90.193 163.356 90.1873 164.336 90.1472 165.196C90.107 166.056 90.1013 166.796 90.107 167.404C90.1013 167.989 90.0956 168.453 90.0956 168.797C90.0841 169.107 90.0726 169.273 90.0669 169.273Z" fill="#263238"/>
<path d="M96.4491 127.006C96.4606 127.012 96.3975 127.138 96.2828 127.379C96.1452 127.643 95.9731 127.992 95.7495 128.422C95.2736 129.317 94.6314 130.642 93.8802 132.293C93.5189 133.124 93.1003 134.03 92.7276 135.028C92.5384 135.527 92.3205 136.037 92.1312 136.571C91.942 137.11 91.7528 137.66 91.5521 138.228C90.7952 140.504 90.0841 143.045 89.5337 145.757C88.4556 151.193 88.232 156.227 88.2435 159.857C88.2549 161.675 88.2893 163.143 88.341 164.158C88.3582 164.639 88.3696 165.029 88.3811 165.328C88.3868 165.597 88.3868 165.735 88.3754 165.735C88.3639 165.735 88.3467 165.597 88.3237 165.328C88.3008 165.029 88.2664 164.645 88.2263 164.158C88.1403 163.143 88.0714 161.669 88.0313 159.851C87.9682 156.216 88.1575 151.153 89.2412 145.688C89.7917 142.959 90.5199 140.407 91.2941 138.125C91.4948 137.557 91.6955 137.006 91.8847 136.467C92.0796 135.934 92.3033 135.424 92.4982 134.925C92.8824 133.927 93.3182 133.027 93.6909 132.195C94.4708 130.55 95.1417 129.237 95.652 128.354C95.8929 127.935 96.0878 127.597 96.2312 127.333C96.3631 127.121 96.4376 127 96.4491 127.006Z" fill="#263238"/>
<path d="M151.537 128.848C151.537 128.848 142.168 154.359 149.072 175.885L149.45 183.494C149.45 183.494 144.169 183.133 140.167 175.581C136.17 168.029 134.874 160.236 133.521 149.009C132.167 137.781 138.32 123.475 138.32 123.475C138.32 123.475 149.238 125.871 151.537 128.848Z" fill="#40404C"/>
<path d="M149.697 182.874C149.697 182.88 149.652 182.857 149.56 182.811C149.457 182.754 149.331 182.679 149.17 182.593C148.837 182.387 148.361 182.048 147.828 181.527C146.75 180.489 145.586 178.585 144.858 176.016C144.474 174.737 144.187 173.304 143.94 171.761C143.671 170.225 143.453 168.567 143.258 166.818C142.88 163.326 142.679 159.461 142.765 155.407C142.851 151.353 143.218 147.5 143.757 144.025C144.29 140.556 144.944 137.448 145.706 134.902C146.463 132.35 147.369 130.383 148.109 129.093C148.482 128.445 148.797 127.964 149.021 127.642C149.13 127.493 149.216 127.379 149.285 127.281C149.348 127.201 149.376 127.161 149.382 127.167C149.388 127.172 149.359 127.212 149.308 127.298C149.244 127.396 149.17 127.522 149.072 127.677C148.866 128.004 148.562 128.497 148.212 129.151C147.507 130.452 146.635 132.419 145.913 134.965C145.179 137.505 144.554 140.607 144.032 144.071C143.516 147.534 143.155 151.376 143.069 155.419C142.983 159.461 143.172 163.315 143.533 166.795C143.722 168.539 143.929 170.19 144.187 171.727C144.422 173.269 144.697 174.691 145.064 175.959C145.764 178.51 146.876 180.397 147.914 181.446C148.946 182.501 149.726 182.828 149.697 182.874Z" fill="#263238"/>
<path d="M149.347 182.617C149.347 182.622 149.296 182.605 149.192 182.565C149.078 182.519 148.929 182.456 148.751 182.382C148.372 182.192 147.816 181.906 147.174 181.424C145.878 180.472 144.318 178.694 142.908 176.2C141.549 173.689 139.989 170.644 138.802 167.043C137.581 163.464 136.6 159.399 136.095 155.064C135.585 150.729 135.597 146.549 135.946 142.781C136.262 139.008 137.03 135.671 137.758 132.913C138.166 131.542 138.51 130.292 138.928 129.237C139.324 128.171 139.633 127.242 139.977 126.525C140.293 125.808 140.545 125.246 140.723 124.845C140.803 124.667 140.872 124.524 140.924 124.409C140.97 124.311 140.998 124.266 141.004 124.266C141.01 124.266 140.992 124.323 140.952 124.42C140.906 124.535 140.849 124.684 140.78 124.868C140.614 125.275 140.379 125.843 140.086 126.565C139.76 127.293 139.467 128.222 139.089 129.289C138.687 130.35 138.36 131.594 137.965 132.964C137.26 135.723 136.52 139.043 136.222 142.798C135.895 146.549 135.889 150.706 136.394 155.018C136.898 159.33 137.862 163.378 139.066 166.939C140.23 170.523 141.767 173.568 143.091 176.08C144.467 178.568 145.987 180.346 147.248 181.315C147.873 181.808 148.412 182.106 148.779 182.313C148.957 182.399 149.095 182.468 149.21 182.525C149.301 182.582 149.347 182.611 149.347 182.617Z" fill="#263238"/>
<path d="M144.903 138.504L150.981 140.109L150.104 142.231L144.387 141.09L144.903 138.504Z" fill="#263238"/>
<path d="M145.04 140.54C145.006 140.505 145.344 140.11 145.895 139.519L145.998 139.41L146.078 139.542C146.313 139.909 146.56 140.293 146.812 140.695L146.617 140.643C146.835 140.517 147.059 140.391 147.288 140.259C147.529 140.127 147.758 140.001 147.982 139.875L148.108 139.806L148.177 139.932C148.406 140.356 148.624 140.758 148.837 141.142L148.682 141.096C149.393 140.735 149.857 140.528 149.874 140.568C149.897 140.609 149.479 140.89 148.791 141.297L148.693 141.354L148.63 141.251C148.406 140.872 148.171 140.482 147.919 140.07L148.114 140.127C147.89 140.253 147.661 140.385 147.426 140.517C147.191 140.649 146.967 140.769 146.749 140.895L146.623 140.964L146.554 140.844C146.313 140.431 146.084 140.035 145.866 139.662L146.05 139.685C145.471 140.242 145.075 140.574 145.04 140.54Z" fill="#E8505B"/>
<path d="M95.1131 174.944L88.4959 162.736H68.3689L67.7324 163.952L84.7687 192.279L104.058 193.208L95.1131 174.944Z" fill="#40404C"/>
<path d="M171.86 181.681V203.018C171.86 206.912 170.111 210.599 167.095 213.065C163.419 216.064 158.396 216.82 154.004 215.026L107.029 194.205L111.628 178.539L149.416 190.994L149.37 181.28L171.86 181.681Z" fill="#FFBE9D"/>
<g filter="url(#filter0_d)">
<path d="M94.4766 176.154L87.8594 163.951H67.7324L84.1322 193.488L103.422 194.417L94.4766 176.154Z" fill="#292930"/>
</g>
<path d="M113.474 180.213L110.292 176.262C108.193 173.658 105.033 172.15 101.69 172.15H98.9094L97.0113 174.284C97.0113 174.284 83.3984 174.874 82.8995 176.554L82.8881 177.099L82.8823 177.414L94.5227 178.2C94.5227 178.2 84.6198 178.171 84.0234 178.188C83.3697 178.211 81.2596 178.022 81.3054 179.186C81.3398 180.144 82.4695 180.895 84.184 181.147C84.8893 181.251 93.4676 181.996 93.4676 181.996C93.4676 181.996 84.4592 181.91 84.0234 181.91C82.9626 181.904 83.1002 183.602 83.7252 183.814C84.2241 183.98 96.3175 187.512 96.3175 187.512C96.3175 187.512 94.2819 188.877 92.6247 188.757C90.9618 188.636 88.1176 186.503 87.527 187.512C86.9364 188.521 87.0511 189.112 87.4066 189.353C87.7621 189.588 91.6786 191.606 92.9802 191.962C94.2819 192.318 104.936 194.003 104.936 194.003L108.778 194.623L113.474 180.213Z" fill="#FFBE9D"/>
<path d="M70.5427 168.711C70.5427 168.711 68.4382 169.445 69.5105 172.151C71.076 176.108 73.7825 178.912 73.7825 178.912C73.7825 178.912 73.4098 180.311 74.6197 181.338C74.6197 181.338 73.1288 181.71 74.0635 184.228C74.0635 184.228 73.0371 186.837 75.8353 187.955C75.8353 187.955 75.0899 190.099 77.7907 191.126C80.4915 192.152 83.1005 190.38 83.1005 190.38L70.5427 168.711Z" fill="#FFBE9D"/>
<path d="M74.8148 178.705C76.73 179.221 78.8287 179.634 80.6005 180.305C81.1854 180.529 81.7589 180.54 82.143 181.027C82.5272 181.515 82.619 182.295 82.1774 182.736C81.7875 183.12 81.1682 183.115 80.6235 183.052C78.5821 182.805 76.6268 182.105 74.6943 181.406" fill="#FFBE9D"/>
<path d="M75.5775 181.898C77.4927 182.415 79.5914 182.827 81.3632 183.498C81.9481 183.722 82.5215 183.733 82.9057 184.221C83.2899 184.708 83.3817 185.488 82.9401 185.93C82.5502 186.314 81.9309 186.308 81.3862 186.245C79.3448 185.998 77.3895 185.299 75.457 184.599" fill="#FFBE9D"/>
<path d="M76.6663 185.186C78.5815 185.702 80.6802 186.114 82.4521 186.785C83.037 187.009 83.6104 187.02 83.9946 187.508C84.3788 187.995 84.4705 188.775 84.029 189.217C83.6391 189.601 83.0198 189.595 82.475 189.532C80.4337 189.285 78.4783 188.586 76.5459 187.886" fill="#FFBE9D"/>
<path d="M74.8022 181.47C74.8366 181.39 76.1842 181.86 77.8815 182.33C79.5731 182.806 80.9779 183.098 80.9607 183.184C80.9493 183.265 79.5157 183.098 77.8012 182.617C76.0867 182.147 74.7735 181.539 74.8022 181.47Z" fill="#EB996E"/>
<path d="M74.4477 184.284C74.4763 184.203 76.0246 184.714 77.9513 185.276C79.8779 185.843 81.4548 186.245 81.4376 186.331C81.4204 186.411 79.8091 186.136 77.871 185.562C75.9271 185.001 74.419 184.358 74.4477 184.284Z" fill="#EB996E"/>
<path d="M75.7033 187.908C75.7205 187.827 77.1942 188.125 78.989 188.573C80.7838 189.02 82.223 189.45 82.2058 189.53C82.1886 189.611 80.715 189.312 78.9202 188.865C77.1254 188.418 75.6861 187.988 75.7033 187.908Z" fill="#EB996E"/>
<path d="M73.2261 178.314C73.2548 178.234 74.9521 178.807 77.0852 179.352C79.2183 179.908 80.973 180.224 80.9615 180.31C80.9558 180.35 80.5085 180.321 79.786 180.212C79.0692 180.103 78.083 179.914 77.0049 179.639C75.9326 179.364 74.975 179.048 74.2984 178.796C73.616 178.544 73.2089 178.349 73.2261 178.314Z" fill="#EB996E"/>
<path d="M92.3779 174.445C92.3779 174.365 94.5168 174.285 97.1545 174.273C99.7922 174.262 101.931 174.313 101.931 174.399C101.931 174.48 99.7922 174.56 97.1545 174.571C94.5225 174.583 92.3837 174.531 92.3779 174.445Z" fill="#EB996E"/>
<path d="M77.9507 169.072C78.3865 169.421 79.023 169.352 79.3728 168.917C79.7225 168.481 79.6537 167.844 79.2179 167.495C78.7821 167.145 78.1456 167.214 77.7959 167.649C77.4403 168.085 77.5149 168.722 77.9507 169.072Z" fill="#EBEBEB"/>
<path d="M146.956 190.437C146.962 190.414 147.122 190.437 147.421 190.488C147.719 190.534 148.137 190.643 148.654 190.804C149.68 191.119 151.056 191.721 152.409 192.656C153.763 193.596 154.806 194.68 155.46 195.529C155.787 195.953 156.033 196.314 156.183 196.572C156.337 196.83 156.412 196.979 156.395 196.991C156.355 197.019 155.988 196.469 155.294 195.666C154.606 194.863 153.562 193.831 152.237 192.908C150.913 191.991 149.577 191.371 148.585 191.01C147.587 190.637 146.945 190.482 146.956 190.437Z" fill="#EB996E"/>
<path d="M121.324 133.917C115.126 133.424 110.447 128.091 110.756 121.881C110.974 117.523 111.198 113.595 111.198 113.595C111.198 113.595 101.857 112.144 101.742 102.803C101.627 93.4622 103.245 72.0164 103.245 72.0164C114.059 67.3717 126.537 68.9371 135.861 76.1163L137.242 77.1829L133.704 123.337C133.223 129.679 127.672 134.421 121.324 133.917Z" fill="#FFBE9D"/>
<path d="M111.18 113.456C111.18 113.456 117.081 113.937 123.354 109.998C123.354 109.998 120.475 116.719 111.157 115.881L111.18 113.456Z" fill="#EB996E"/>
<path d="M105.549 86.6555C105.526 87.3608 106.099 87.9629 106.833 88.003C107.567 88.0432 108.181 87.5042 108.209 86.7989C108.232 86.0935 107.659 85.4915 106.925 85.4513C106.191 85.4112 105.571 85.9502 105.549 86.6555Z" fill="#263238"/>
<path d="M105.01 85.1529C105.176 85.3249 106.186 84.5795 107.619 84.5852C109.053 84.568 110.108 85.3077 110.263 85.13C110.337 85.0497 110.171 84.7401 109.712 84.4017C109.259 84.0692 108.491 83.748 107.596 83.748C106.702 83.7538 105.95 84.0806 105.52 84.4189C105.079 84.763 104.93 85.0726 105.01 85.1529Z" fill="#263238"/>
<path d="M119.082 86.9875C119.059 87.6928 119.632 88.2949 120.366 88.3351C121.1 88.3752 121.714 87.8362 121.742 87.1309C121.765 86.4256 121.192 85.8235 120.458 85.7834C119.724 85.7432 119.11 86.2822 119.082 86.9875Z" fill="#263238"/>
<path d="M119.122 85.4225C119.289 85.5945 120.298 84.849 121.731 84.8548C123.165 84.8376 124.22 85.5773 124.375 85.3995C124.449 85.3192 124.283 85.0096 123.824 84.6713C123.371 84.3387 122.603 84.0176 121.708 84.0176C120.814 84.0233 120.063 84.3502 119.627 84.6885C119.191 85.0268 119.042 85.3422 119.122 85.4225Z" fill="#263238"/>
<path d="M113.909 96.0659C113.915 95.9856 113.026 95.8308 111.576 95.6473C111.209 95.6072 110.865 95.5384 110.802 95.2861C110.716 95.0223 110.87 94.6266 111.048 94.2023C111.392 93.3135 111.753 92.3846 112.132 91.4098C113.634 87.436 114.729 84.1675 114.569 84.1101C114.408 84.0528 113.061 87.2238 111.553 91.1976C111.191 92.1781 110.842 93.1128 110.515 94.0073C110.377 94.4259 110.136 94.8961 110.326 95.4466C110.423 95.7219 110.693 95.9168 110.928 95.9799C111.163 96.0487 111.369 96.0544 111.553 96.0659C113.003 96.1405 113.904 96.1462 113.909 96.0659Z" fill="#263238"/>
<path d="M118.135 97.0567C117.9 97.0452 117.9 98.5992 116.564 99.7059C115.234 100.813 113.571 100.641 113.56 100.858C113.537 100.956 113.932 101.162 114.632 101.18C115.32 101.203 116.323 100.985 117.138 100.308C117.952 99.6314 118.302 98.7254 118.353 98.0831C118.416 97.4352 118.244 97.051 118.135 97.0567Z" fill="#263238"/>
<path d="M118.749 79.7971C118.893 80.187 120.326 80.0035 122.006 80.2042C123.692 80.3705 125.051 80.8637 125.275 80.5139C125.372 80.3476 125.137 79.9806 124.587 79.6021C124.042 79.2237 123.176 78.8682 122.161 78.7535C121.152 78.6445 120.223 78.8051 119.609 79.0517C119.001 79.304 118.686 79.6079 118.749 79.7971Z" fill="#263238"/>
<path d="M105.538 81.0023C105.79 81.3291 106.776 80.9908 107.969 80.9736C109.156 80.9163 110.165 81.1915 110.395 80.8532C110.498 80.6869 110.337 80.36 109.896 80.0504C109.46 79.7407 108.737 79.4942 107.917 79.5171C107.103 79.5458 106.392 79.8382 105.979 80.1708C105.566 80.5034 105.429 80.8417 105.538 81.0023Z" fill="#263238"/>
<path d="M136.096 86.8545C136.256 86.7857 142.512 84.9565 142.312 91.3444C142.105 97.7323 135.74 96.207 135.735 96.0235C135.723 95.8343 136.096 86.8545 136.096 86.8545Z" fill="#FFBE9D"/>
<path d="M137.759 93.6605C137.787 93.6433 137.868 93.7408 138.051 93.8325C138.235 93.9242 138.544 93.9873 138.883 93.8784C139.565 93.6547 140.167 92.5996 140.236 91.4471C140.27 90.8679 140.167 90.3117 139.978 89.8472C139.8 89.3713 139.508 89.0387 139.169 88.9642C138.837 88.8782 138.584 89.0731 138.504 89.2509C138.412 89.4286 138.447 89.5548 138.412 89.5663C138.395 89.5835 138.28 89.4573 138.338 89.1935C138.366 89.0674 138.447 88.9183 138.602 88.8036C138.756 88.6832 138.986 88.6259 139.221 88.6603C139.714 88.7119 140.138 89.1763 140.351 89.6867C140.586 90.2028 140.717 90.8278 140.677 91.4815C140.597 92.7659 139.898 93.9472 138.969 94.188C138.516 94.2912 138.143 94.1421 137.959 93.9873C137.764 93.8153 137.736 93.6719 137.759 93.6605Z" fill="#EB996E"/>
<path d="M99.6719 63.9406C101.031 61.2628 103.669 59.2673 106.616 58.7053C109.563 58.1376 112.757 59.0092 115.011 60.9933C116.421 58.1835 119.289 56.1479 122.408 55.7465C125.527 55.3394 128.819 56.5779 130.9 58.9347C132.689 60.9646 133.618 63.717 135.717 65.4258C137.535 66.9052 139.995 67.3926 141.818 68.8606C143.831 70.4719 144.829 73.2472 144.313 75.776C143.796 78.299 141.784 80.4608 139.301 81.1547C141.302 84.7672 139.427 89.9509 135.574 91.4418L134.645 91.0576C131.112 87.1813 130.304 81.0572 132.712 76.3953C132.598 76.401 132.489 76.3838 132.38 76.3781C131.153 77.049 129.736 77.3873 128.337 77.3013C126.107 77.1694 123.956 75.9767 122.66 74.1532C120.109 75.9939 116.456 76.1487 113.761 74.5259C113.336 74.2679 112.912 73.9697 112.419 73.9181C111.834 73.855 111.278 74.1589 110.745 74.417C109.345 75.1051 107.769 75.5524 106.226 75.3287C104.787 75.1223 103.399 74.222 102.831 72.8974C102.797 72.8917 102.763 72.8917 102.723 72.886C100.922 72.5591 99.477 71.0224 98.9838 69.262C98.4849 67.5016 98.8405 65.5749 99.6719 63.9406Z" fill="#292930"/>
<defs>
<filter id="filter0_d" x="63.7324" y="163.951" width="43.6895" height="38.4657" filterUnits="userSpaceOnUse" color-interpolation-filters="sRGB">
<feFlood flood-opacity="0" result="BackgroundImageFix"/>
<feColorMatrix in="SourceAlpha" type="matrix" values="0 0 0 0 0 0 0 0 0 0 0 0 0 0 0 0 0 0 127 0"/>
<feOffset dy="4"/>
<feGaussianBlur stdDeviation="2"/>
<feColorMatrix type="matrix" values="0 0 0 0 0 0 0 0 0 0 0 0 0 0 0 0 0 0 0.25 0"/>
<feBlend mode="normal" in2="BackgroundImageFix" result="effect1_dropShadow"/>
<feBlend mode="normal" in="SourceGraphic" in2="effect1_dropShadow" result="shape"/>
</filter>
</defs>
</svg>
