<svg width="87" height="86" viewBox="0 0 87 86" fill="none" xmlns="http://www.w3.org/2000/svg">
<path d="M43.3465 86C67.2861 86 86.693 66.7482 86.693 43C86.693 19.2518 67.2861 0 43.3465 0C19.4069 0 0 19.2518 0 43C0 66.7482 19.4069 86 43.3465 86Z" fill="#E30613"/>
<path d="M33.4044 54.1328C32.8626 54.1328 32.4229 54.5703 32.4229 55.1094C32.4229 55.6484 32.8626 56.0859 33.4044 56.0859C33.9462 56.0859 34.386 55.6484 34.386 55.1094C34.386 54.5703 33.9462 54.1328 33.4044 54.1328Z" fill="white"/>
<path d="M62.2766 36.5546L68.0608 30.7998C68.3042 30.5577 68.4022 30.2065 68.3195 29.8743C68.2367 29.542 67.9851 29.2771 67.6562 29.1762L53.5707 24.851C52.301 20.7903 48.527 18 44.2015 18C40.1806 18 36.5845 20.438 35.0962 24.1157L18.7811 29.1771C18.4532 29.2788 18.2025 29.5438 18.1203 29.8758C18.0381 30.2076 18.1363 30.5582 18.3792 30.7999L24.3157 36.7061L20.5716 42.9146C20.4184 43.1686 20.3894 43.478 20.4927 43.7559C20.5959 44.0337 20.8204 44.2498 21.1029 44.3435L26.5333 46.1442V61.164C26.5333 61.571 26.7871 61.9354 27.1702 62.0783C30.4906 63.317 42.8274 67.9203 42.8937 67.9436C43.0884 68.0119 43.3078 68.0212 43.5217 67.9523C43.5245 67.9514 43.5275 67.9508 43.5303 67.9498L61.1986 62.0904C61.5994 61.9575 61.8698 61.5843 61.8698 61.164V45.7421L67.6609 43.9315C67.9883 43.8292 68.2382 43.5642 68.32 43.2325C68.4017 42.9009 68.3034 42.5509 68.0608 42.3094L62.2766 36.5546ZM54.0172 27.7656C54.0172 27.5175 54.0067 27.2699 53.988 27.0231L65.5208 30.5646L60.6231 35.4373L52.6205 32.7837C53.5267 31.2768 54.0172 29.5379 54.0172 27.7656ZM36.7737 25.2238C37.8633 22.0713 40.8484 19.9531 44.2015 19.9531C47.8138 19.9531 50.9468 22.384 51.8203 25.8645C51.9755 26.4829 52.0541 27.1226 52.0541 27.7656C52.0541 29.5795 51.449 31.2796 50.3041 32.6828C48.8046 34.5229 46.5803 35.5781 44.2015 35.5781C41.6302 35.5781 39.2184 34.3225 37.7494 32.2184C36.8333 30.9092 36.349 29.3693 36.349 27.7656C36.349 26.8935 36.4918 26.0383 36.7737 25.2238ZM20.9152 30.5608L34.4904 26.3495C34.4222 26.8161 34.3858 27.2888 34.3858 27.7655C34.3858 29.3379 34.7602 30.8608 35.4738 32.235L25.8168 35.4373L20.9152 30.5608ZM22.8846 42.8755L25.9883 37.7288L41.7487 42.9555L38.645 48.1021C36.9621 47.544 24.6814 43.4713 22.8846 42.8755ZM42.2384 65.6143L28.4964 60.4873V46.7953C39.3084 50.3619 38.7804 50.253 39.0815 50.253C39.4189 50.253 39.7421 50.0793 39.9233 49.7788L42.2384 45.9398V65.6143ZM43.2199 41.3847L28.6558 36.5548L36.5863 33.9249C38.4424 36.1951 41.2367 37.5312 44.2015 37.5312C46.9442 37.5312 49.5219 36.4083 51.376 34.4298L57.7841 36.5547L43.2199 41.3847ZM59.9067 60.4602L44.2015 65.6685V45.1978L47.6813 49.5249C47.9344 49.8396 48.3558 49.9672 48.7421 49.8465L59.9067 46.356V60.4602ZM48.7945 47.7829L44.8658 42.8976L60.6231 37.672L65.5274 42.5513L48.7945 47.7829Z" fill="white"/>
<path d="M39.6384 56.3007L37.4554 55.4862C36.9479 55.297 36.3821 55.5527 36.1917 56.0577C36.0013 56.5628 36.2585 57.1257 36.7661 57.315L38.9491 58.1295C39.4577 58.3191 40.0228 58.0621 40.2129 57.558C40.4032 57.053 40.146 56.49 39.6384 56.3007Z" fill="white"/>
<path d="M39.6388 60.4726L33.7494 58.2753C33.2418 58.086 32.6761 58.3418 32.4856 58.8468C32.2952 59.3518 32.5525 59.9148 33.0601 60.1041L38.9495 62.3014C39.0631 62.3438 39.1795 62.3639 39.294 62.3639C39.6915 62.3639 40.0654 62.122 40.2133 61.7299C40.4037 61.2248 40.1465 60.662 39.6388 60.4726Z" fill="white"/>
<path d="M49.8038 24.1454C49.4205 23.764 48.799 23.7641 48.4156 24.1454L43.2202 29.3144L41.9511 28.0518C41.5678 27.6704 40.9463 27.6704 40.5629 28.0518C40.1795 28.4331 40.1796 29.0515 40.5629 29.4329L42.5261 31.3859C42.9094 31.7673 43.531 31.7673 43.9144 31.3859L49.8038 25.5266C50.1871 25.1452 50.1871 24.5269 49.8038 24.1454Z" fill="white"/>
</svg>
