<svg width="829" height="415" viewBox="0 0 829 415" fill="none" xmlns="http://www.w3.org/2000/svg">
<path d="M0.5 414.5L37 387.5H801.5L828.5 414.5H0.5Z" fill="#40404C"/>
<path d="M549.334 191.361H289.667L335.936 148H502.849L549.334 191.361Z" fill="#FDD935" fill-opacity="0.8"/>
<path d="M289.667 298.68H30L169.022 244.479H335.935L289.667 298.68Z" fill="url(#paint0_linear)"/>
<path d="M809 265.075H549.334L502.849 206.32H669.762L809 265.075Z" fill="url(#paint1_linear)"/>
<path d="M549.667 191H290V405.639H549.667V191Z" fill="url(#paint2_linear)"/>
<g filter="url(#filter0_i)">
<path d="M399.48 255.8V272.888H411V323H433.656V255.8H399.48Z" fill="#40404C"/>
</g>
<path d="M289.667 299H30V406.319H289.667V299Z" fill="url(#paint3_linear)"/>
<g filter="url(#filter1_i)">
<path d="M167.54 348.39L176.64 339.15V329H140.1V341.46H157.6L150.39 348.81V358.96H156.9C161.1 358.96 162.71 360.22 162.71 362.32C162.71 364.84 160.05 366.1 156.34 366.1C152.21 366.1 147.38 364.98 143.18 362.53L137.58 374.71C142.83 377.65 150.18 379.12 156.9 379.12C172.58 379.12 179.3 370.72 179.3 362.32C179.3 355.53 175.24 350.28 167.54 348.39Z" fill="#40404C"/>
</g>
<path d="M808.667 265H549V405.708H808.667V265Z" fill="url(#paint4_linear)"/>
<g filter="url(#filter2_i)">
<path d="M683.24 349.36L691.24 342.08C699.4 334.72 700.84 329.76 700.84 324.24C700.84 313.6 691.48 306.72 678.2 306.72C666.12 306.72 658.04 312 653.96 319.68L668.2 326.8C669.88 323.44 673.08 321.6 676.44 321.6C680.04 321.6 681.88 323.28 681.88 326C681.88 327.92 681.32 330.08 677.48 333.68L657.24 352.4V364H702.12V349.36H683.24Z" fill="#40404C"/>
</g>
<g style="mix-blend-mode:hard-light" filter="url(#filter3_f)">
<path d="M591.916 237.381H733.528L764 264.998H573L591.916 237.381Z" fill="url(#paint5_linear)"/>
</g>
<g clip-path="url(#clip0)">
<path fill-rule="evenodd" clip-rule="evenodd" d="M595.777 240.586H738.796C739.986 240.586 740.78 241.592 740.78 242.8V248.839C740.78 250.047 739.788 251.053 738.796 251.053H595.777C594.587 251.053 593.793 250.047 593.793 248.839V242.8C593.793 241.592 594.587 240.586 595.777 240.586Z" fill="#40404C"/>
<path fill-rule="evenodd" clip-rule="evenodd" d="M589.231 166.309H745.342C748.714 166.309 751.491 169.127 751.491 172.75V234.144C751.491 237.768 748.714 240.586 745.342 240.586H589.231C585.859 240.586 583.082 237.768 583.082 234.144V172.75C583.082 169.127 585.859 166.309 589.231 166.309Z" fill="#D4D4D5"/>
<path fill-rule="evenodd" clip-rule="evenodd" d="M619.381 166.309H715.19V124.842C715.19 122.628 713.405 120.615 711.025 120.615H623.349C621.167 120.615 619.183 122.628 619.183 124.842V166.309H619.381Z" fill="#292930"/>
<path d="M704.082 138.127H630.292V166.308H704.082V138.127Z" fill="white"/>
<path fill-rule="evenodd" clip-rule="evenodd" d="M596.173 240.586V166.309H589.231C585.859 166.309 583.082 169.127 583.082 172.75V234.144C583.082 237.768 585.859 240.586 589.231 240.586H596.173Z" fill="#40404C"/>
<path fill-rule="evenodd" clip-rule="evenodd" d="M738.399 166.309V240.586H745.342C748.714 240.586 751.491 237.768 751.491 234.144V172.75C751.491 169.127 748.714 166.309 745.342 166.309H738.399Z" fill="#40404C"/>
<path d="M715.191 215.223H619.382V240.586H715.191V215.223Z" fill="#292930"/>
<path d="M704.082 215.223H630.292V247.832H704.082V215.223Z" fill="white"/>
<path d="M738.2 169.127H596.173V172.75H738.2V169.127Z" fill="#D5D0CF"/>
<path d="M738.2 172.75H596.173V176.373H738.2V172.75Z" fill="#EAE5E4"/>
<path d="M738.2 176.373H596.173V179.996H738.2V176.373Z" fill="#D5D0CF"/>
<path d="M596.173 172.75H583.082V176.373H596.173V172.75Z" fill="#747171"/>
<path d="M596.173 176.373H583.082V179.996H596.173V176.373Z" fill="#5B5959"/>
<path fill-rule="evenodd" clip-rule="evenodd" d="M583.082 172.75H596.173V169.127H584.272C583.478 170.133 583.082 171.341 583.082 172.75Z" fill="#5B5959"/>
<path fill-rule="evenodd" clip-rule="evenodd" d="M738.399 169.127V172.75H751.491C751.491 171.341 751.094 170.133 750.301 169.127H738.399Z" fill="#5B5959"/>
<path d="M751.491 176.373H738.399V179.996H751.491V176.373Z" fill="#5B5959"/>
<path d="M682.263 187.646H652.31V192.276H682.263V187.646Z" fill="#A7A3A2"/>
<path d="M698.329 217.639H636.242V218.645H698.329V217.639Z" fill="#D5D0CF"/>
<path d="M698.329 219.65H636.242V220.657H698.329V219.65Z" fill="#D5D0CF"/>
<path d="M698.329 221.865H636.242V222.872H698.329V221.865Z" fill="#D5D0CF"/>
<path d="M698.329 223.879H636.242V224.885H698.329V223.879Z" fill="#D5D0CF"/>
<path d="M698.329 225.893H636.242V226.899H698.329V225.893Z" fill="#D5D0CF"/>
<path d="M698.329 228.107H636.242V229.114H698.329V228.107Z" fill="#D5D0CF"/>
<path d="M698.329 230.318H636.242V231.325H698.329V230.318Z" fill="#D5D0CF"/>
<path d="M698.329 232.533H636.242V233.54H698.329V232.533Z" fill="#D5D0CF"/>
<path d="M698.329 234.547H636.242V235.553H698.329V234.547Z" fill="#D5D0CF"/>
<path d="M698.329 236.559H636.242V237.565H698.329V236.559Z" fill="#D5D0CF"/>
<path d="M698.329 238.773H636.242V239.78H698.329V238.773Z" fill="#D5D0CF"/>
<path d="M698.329 240.787H636.242V241.794H698.329V240.787Z" fill="#D5D0CF"/>
<path fill-rule="evenodd" clip-rule="evenodd" d="M740.978 216.23H748.912C749.507 216.23 749.904 216.633 749.904 217.237V218.646C749.904 219.25 749.507 219.652 748.912 219.652H740.978C740.383 219.652 739.986 219.25 739.986 218.646V217.237C739.986 216.633 740.383 216.23 740.978 216.23Z" fill="#C0BCBB"/>
<path fill-rule="evenodd" clip-rule="evenodd" d="M740.978 222.068H748.912C749.507 222.068 749.904 222.471 749.904 223.075V224.484C749.904 225.088 749.507 225.49 748.912 225.49H740.978C740.383 225.49 739.986 225.088 739.986 224.484V223.075C739.986 222.672 740.383 222.068 740.978 222.068Z" fill="#C0BCBB"/>
<path fill-rule="evenodd" clip-rule="evenodd" d="M585.66 216.23H593.595C594.19 216.23 594.587 216.633 594.587 217.237V218.646C594.587 219.25 594.19 219.652 593.595 219.652H585.66C585.065 219.652 584.668 219.25 584.668 218.646V217.237C584.668 216.633 585.264 216.23 585.66 216.23Z" fill="#C0BCBB"/>
</g>
<g style="mix-blend-mode:hard-light" filter="url(#filter4_f)">
<path d="M141.444 279H228.556L241 406H129L141.444 279Z" fill="url(#paint6_linear)" fill-opacity="0.4"/>
</g>
<g style="mix-blend-mode:hard-light" filter="url(#filter5_f)">
<path d="M108.194 273H256.792L271 298H94L108.194 273Z" fill="url(#paint7_linear)" fill-opacity="0.7"/>
</g>
<g clip-path="url(#clip1)">
<path d="M239.074 188.377C239.074 197.767 228.465 205.368 215.466 205.368H156.594C143.595 205.368 132.986 197.767 132.986 188.377V167.362C132.986 157.972 143.595 150.371 156.594 150.371H215.466C228.465 150.371 239.074 157.972 239.074 167.362V188.377Z" fill="#40404C" fill-opacity="0.85"/>
<path d="M142.101 138V206.113H231.454V146.794L221.144 138H142.101Z" fill="#F8F8F8"/>
<path d="M221.144 138L231.454 146.794H221.144V138Z" fill="#CCCCCA"/>
<path d="M132.986 216.247H238.327C248.189 216.247 256.109 209.987 256.109 202.237V185.693C253.867 184.948 251.327 184.352 248.637 184.352H122.527C119.837 184.352 117.297 184.799 115.056 185.693V202.386C115.205 209.987 123.124 216.247 132.986 216.247Z" fill="#292930"/>
<path d="M256.108 185.693V202.386C256.108 210.136 248.189 216.396 238.327 216.396H132.986C123.124 216.247 115.205 209.987 115.205 202.386V185.693C109.079 187.929 104.746 192.698 104.746 198.362V266.475C104.746 274.225 112.665 280.485 122.527 280.485H126.412V236.964H244.603V280.485H248.488C258.35 280.485 266.269 274.225 266.269 266.475V198.362C266.418 192.698 262.235 187.929 256.108 185.693Z" fill="#E6E8E8"/>
<path d="M247.442 236.965H124.32V280.485H247.442V236.965Z" fill="#292930"/>
<path d="M228.017 290.918C228.017 300.755 227.569 308.654 219.799 308.654H151.066C143.296 308.654 142.848 300.755 142.848 290.918V274.523C142.848 264.686 143.296 256.787 151.066 256.787H219.799C227.569 256.787 228.017 264.686 228.017 274.523V290.918Z" fill="#292930"/>
<path d="M223.385 266.029H146.882V297.775H223.385V266.029Z" fill="white"/>
<path d="M244.752 236.965H126.561V273.033H244.752V236.965Z" fill="#292930"/>
<path d="M220.995 277.355H150.767V280.187H220.995V277.355Z" fill="#A6A6A6"/>
<path d="M220.995 283.914H150.768V286.746H220.995V283.914Z" fill="#A6A6A6"/>
<path d="M220.995 290.322H150.768V293.303H220.995V290.322Z" fill="#A6A6A6"/>
<path d="M233.098 197.766C233.098 200.449 230.856 202.685 228.167 202.685C225.477 202.685 223.236 200.449 223.236 197.766C223.236 195.083 225.477 192.848 228.167 192.848C230.856 192.848 233.098 195.083 233.098 197.766Z" fill="#4CA644"/>
<path d="M142.101 197.916C142.101 199.257 141.055 200.301 139.71 200.301C138.365 200.301 137.17 199.257 137.17 197.916C137.17 196.575 138.216 195.531 139.71 195.531C140.905 195.531 142.101 196.575 142.101 197.916Z" fill="#FFCC33"/>
<path d="M149.273 197.916C149.273 199.257 148.227 200.301 146.733 200.301C145.388 200.301 144.342 199.257 144.342 197.916C144.342 196.575 145.388 195.531 146.733 195.531C148.227 195.531 149.273 196.575 149.273 197.916Z" fill="#14B6E7"/>
<path d="M156.594 197.916C156.594 199.257 155.549 200.301 154.054 200.301C152.71 200.301 151.664 199.257 151.664 197.916C151.664 196.575 152.71 195.531 154.054 195.531C155.399 195.531 156.594 196.575 156.594 197.916Z" fill="#FF9933"/>
<path d="M163.767 197.916C163.767 199.257 162.721 200.301 161.376 200.301C160.031 200.301 158.836 199.257 158.836 197.916C158.836 196.575 159.882 195.531 161.376 195.531C162.721 195.531 163.767 196.575 163.767 197.916Z" fill="#FF3399"/>
<path d="M170.939 197.916C170.939 199.257 169.893 200.301 168.399 200.301C167.054 200.301 166.008 199.257 166.008 197.916C166.008 196.575 167.054 195.531 168.399 195.531C169.893 195.531 170.939 196.575 170.939 197.916Z" fill="#66CCCC"/>
</g>
<g style="mix-blend-mode:hard-light" filter="url(#filter6_f)">
<path d="M344.167 175H492.343L507 328H331.5L344.167 175Z" fill="url(#paint8_linear)" fill-opacity="0.4"/>
</g>
<g style="mix-blend-mode:hard-light" filter="url(#filter7_f)">
<path d="M333.836 154.299H499.471L524.7 191.349H314.75L333.836 154.299Z" fill="url(#paint9_linear)" fill-opacity="0.7"/>
</g>
<path d="M343.992 70.8134H359.443V69.9495H479.23V70.8134H493.813C503.014 70.8134 510.479 78.2434 510.479 87.4014V94.9178L511 90.0796C511 67.3576 498.674 59.582 489.994 59.582H479.23V64.7658H359.443V59.582H348.593C340.26 59.582 328.455 66.4073 327.673 84.1183C329.149 76.5155 335.92 70.8134 343.992 70.8134Z" fill="#40404C" fill-opacity="0.85"/>
<path d="M510.479 94.9168V87.4004C510.479 78.2425 503.014 70.8125 493.813 70.8125H479.23V80.316H359.443V70.8125H343.992C335.92 70.8125 329.149 76.5146 327.673 84.1174C327.5 85.1541 327.326 86.2773 327.326 87.4004V156.171C327.326 160.232 328.802 163.86 331.232 166.711C330.798 166.193 330.451 165.848 330.104 164.984H358.054L355.711 172.932L348.68 196.95H408.313H430.274H489.647H489.907L482.876 172.932L480.533 164.984H507.702C509.438 162.392 510.393 159.541 510.393 156.171V94.9168H510.479ZM475.845 149.432H430.187H408.313H362.655L359.443 161.269V113.146H479.23V161.355L475.845 149.432Z" fill="#40404C"/>
<path d="M482.876 172.758H494.334C500.324 172.758 505.532 170.166 508.483 164.982H507.789H480.62L482.876 172.758Z" fill="#EAE5E5"/>
<path d="M358.054 164.982H330.104C330.451 165.846 330.885 166.019 331.232 166.538C334.271 170.339 338.958 172.758 344.253 172.758H355.711L358.054 164.982Z" fill="#EAE5E5"/>
<path d="M479.231 64.7636V59.5798V17.2461H359.443V59.5798V64.7636H479.231Z" fill="#292930"/>
<path d="M359.443 69.9473V70.8112V80.3147H479.231V70.8112V69.9473H359.443Z" fill="#292930"/>
<path d="M479.231 113.145H359.443V161.267L362.655 149.431H408.313H430.274H475.845L479.231 161.353V113.145Z" fill="#292930"/>
<path d="M408.313 196.949H348.68H348.159V201.269H408.313H430.274H489.647V196.949H430.274H408.313Z" fill="#7D8993"/>
<path d="M370.556 142.69C371.25 139.752 375.504 137.074 380.538 137.074C404.669 137.074 428.8 137.074 452.931 137.074C457.966 137.074 463.174 139.666 463.782 142.69C467.948 162.474 472.115 182.259 476.281 202.044C476.889 204.981 471.16 207.4 464.476 207.4C432.273 207.4 400.156 207.4 367.952 207.4C363.699 205.24 361.615 204.204 357.536 202.044C361.876 182.259 366.216 162.474 370.556 142.69Z" fill="#EAE5E5"/>
<path opacity="0.7" d="M368.037 207.053C369.078 204.72 369.512 203.51 370.467 201.178C365.259 201.523 362.655 201.696 357.447 202.042C361.613 204.029 363.697 204.979 368.037 207.053Z" fill="#B0ACAC"/>
<path d="M461.175 192.02C440.343 192.02 419.51 192.02 398.591 192.02" stroke="white" stroke-width="3.0468" stroke-miterlimit="10"/>
<path d="M459.874 183.641C431.316 183.641 402.758 183.641 374.113 183.641" stroke="white" stroke-width="3.0468" stroke-miterlimit="10"/>
<path d="M458.572 175.863C430.882 175.863 403.192 175.863 375.415 175.863" stroke="white" stroke-width="3.0468" stroke-miterlimit="10"/>
<path d="M457.356 168.002C430.534 168.002 403.712 168.002 376.803 168.002" stroke="white" stroke-width="3.0468" stroke-miterlimit="10"/>
<path d="M456.055 160.227C430.101 160.227 404.147 160.227 378.106 160.227" stroke="white" stroke-width="3.0468" stroke-miterlimit="10"/>
<path d="M398.938 148.477C391.473 148.477 387.654 148.477 380.189 148.477" stroke="white" stroke-width="3.0468" stroke-miterlimit="10"/>
<path d="M461.002 1.08926L460.915 0.830078H459.353H379.061H377.498L377.411 1.08926C372.464 1.86682 368.124 6.18659 368.124 11.1975C368.124 11.1975 368.705 41.8198 369.078 64.7627C442.774 64.7627 459.353 64.7627 470.55 64.7627C470.55 21.0363 470.55 11.1975 470.55 11.1975C470.55 6.18659 466.037 1.86682 461.002 1.08926Z" fill="#EAE5E5"/>
<path d="M487.042 93.0156C487.042 94.6571 485.74 95.953 484.091 95.953C482.442 95.953 481.14 94.6571 481.14 93.0156C481.14 91.3741 482.442 90.0781 484.091 90.0781C485.653 90.1645 487.042 91.4605 487.042 93.0156Z" fill="#EAE5E5"/>
<path d="M496.677 93.0156C496.677 94.6571 495.375 95.953 493.726 95.953C492.077 95.953 490.775 94.6571 490.775 93.0156C490.775 91.3741 492.077 90.0781 493.726 90.0781C495.375 90.1645 496.677 91.4605 496.677 93.0156Z" fill="#7D8993"/>
<defs>
<filter id="filter0_i" x="399.48" y="255.801" width="35.176" height="69.2" filterUnits="userSpaceOnUse" color-interpolation-filters="sRGB">
<feFlood flood-opacity="0" result="BackgroundImageFix"/>
<feBlend mode="normal" in="SourceGraphic" in2="BackgroundImageFix" result="shape"/>
<feColorMatrix in="SourceAlpha" type="matrix" values="0 0 0 0 0 0 0 0 0 0 0 0 0 0 0 0 0 0 127 0" result="hardAlpha"/>
<feOffset dx="1" dy="2"/>
<feGaussianBlur stdDeviation="2"/>
<feComposite in2="hardAlpha" operator="arithmetic" k2="-1" k3="1"/>
<feColorMatrix type="matrix" values="0 0 0 0 0 0 0 0 0 0 0 0 0 0 0 0 0 0 0.5 0"/>
<feBlend mode="normal" in2="shape" result="effect1_innerShadow"/>
</filter>
<filter id="filter1_i" x="137.58" y="329" width="42.72" height="52.12" filterUnits="userSpaceOnUse" color-interpolation-filters="sRGB">
<feFlood flood-opacity="0" result="BackgroundImageFix"/>
<feBlend mode="normal" in="SourceGraphic" in2="BackgroundImageFix" result="shape"/>
<feColorMatrix in="SourceAlpha" type="matrix" values="0 0 0 0 0 0 0 0 0 0 0 0 0 0 0 0 0 0 127 0" result="hardAlpha"/>
<feOffset dx="1" dy="2"/>
<feGaussianBlur stdDeviation="2"/>
<feComposite in2="hardAlpha" operator="arithmetic" k2="-1" k3="1"/>
<feColorMatrix type="matrix" values="0 0 0 0 0 0 0 0 0 0 0 0 0 0 0 0 0 0 0.5 0"/>
<feBlend mode="normal" in2="shape" result="effect1_innerShadow"/>
</filter>
<filter id="filter2_i" x="653.96" y="306.721" width="49.16" height="59.28" filterUnits="userSpaceOnUse" color-interpolation-filters="sRGB">
<feFlood flood-opacity="0" result="BackgroundImageFix"/>
<feBlend mode="normal" in="SourceGraphic" in2="BackgroundImageFix" result="shape"/>
<feColorMatrix in="SourceAlpha" type="matrix" values="0 0 0 0 0 0 0 0 0 0 0 0 0 0 0 0 0 0 127 0" result="hardAlpha"/>
<feOffset dx="1" dy="2"/>
<feGaussianBlur stdDeviation="2"/>
<feComposite in2="hardAlpha" operator="arithmetic" k2="-1" k3="1"/>
<feColorMatrix type="matrix" values="0 0 0 0 0 0 0 0 0 0 0 0 0 0 0 0 0 0 0.5 0"/>
<feBlend mode="normal" in2="shape" result="effect1_innerShadow"/>
</filter>
<filter id="filter3_f" x="569" y="233.381" width="199" height="35.6172" filterUnits="userSpaceOnUse" color-interpolation-filters="sRGB">
<feFlood flood-opacity="0" result="BackgroundImageFix"/>
<feBlend mode="normal" in="SourceGraphic" in2="BackgroundImageFix" result="shape"/>
<feGaussianBlur stdDeviation="2" result="effect1_foregroundBlur"/>
</filter>
<filter id="filter4_f" x="122" y="272" width="126" height="141" filterUnits="userSpaceOnUse" color-interpolation-filters="sRGB">
<feFlood flood-opacity="0" result="BackgroundImageFix"/>
<feBlend mode="normal" in="SourceGraphic" in2="BackgroundImageFix" result="shape"/>
<feGaussianBlur stdDeviation="3.5" result="effect1_foregroundBlur"/>
</filter>
<filter id="filter5_f" x="90" y="269" width="185" height="33" filterUnits="userSpaceOnUse" color-interpolation-filters="sRGB">
<feFlood flood-opacity="0" result="BackgroundImageFix"/>
<feBlend mode="normal" in="SourceGraphic" in2="BackgroundImageFix" result="shape"/>
<feGaussianBlur stdDeviation="2" result="effect1_foregroundBlur"/>
</filter>
<filter id="filter6_f" x="324.5" y="168" width="189.5" height="167" filterUnits="userSpaceOnUse" color-interpolation-filters="sRGB">
<feFlood flood-opacity="0" result="BackgroundImageFix"/>
<feBlend mode="normal" in="SourceGraphic" in2="BackgroundImageFix" result="shape"/>
<feGaussianBlur stdDeviation="3.5" result="effect1_foregroundBlur"/>
</filter>
<filter id="filter7_f" x="309.75" y="149.299" width="219.95" height="47.05" filterUnits="userSpaceOnUse" color-interpolation-filters="sRGB">
<feFlood flood-opacity="0" result="BackgroundImageFix"/>
<feBlend mode="normal" in="SourceGraphic" in2="BackgroundImageFix" result="shape"/>
<feGaussianBlur stdDeviation="2.5" result="effect1_foregroundBlur"/>
</filter>
<linearGradient id="paint0_linear" x1="100" y1="277.5" x2="290" y2="272" gradientUnits="userSpaceOnUse">
<stop stop-color="#EECC30"/>
<stop offset="1" stop-color="#E8C31E"/>
</linearGradient>
<linearGradient id="paint1_linear" x1="745" y1="236" x2="544.5" y2="229" gradientUnits="userSpaceOnUse">
<stop stop-color="#FFE157"/>
<stop offset="1" stop-color="#D1AD08"/>
</linearGradient>
<linearGradient id="paint2_linear" x1="419.818" y1="-46.3422" x2="419.818" y2="606.026" gradientUnits="userSpaceOnUse">
<stop offset="0.00461474" stop-color="#FDD935"/>
<stop offset="1" stop-color="#FDD935"/>
</linearGradient>
<linearGradient id="paint3_linear" x1="30" y1="335.32" x2="290" y2="335.32" gradientUnits="userSpaceOnUse">
<stop offset="0.00461474" stop-color="#FDD935"/>
<stop offset="1" stop-color="#C5A30B"/>
</linearGradient>
<linearGradient id="paint4_linear" x1="548.667" y1="353.424" x2="808.667" y2="353.424" gradientUnits="userSpaceOnUse">
<stop offset="0.00461474" stop-color="#CDAE1A"/>
<stop offset="1" stop-color="#FDD935"/>
</linearGradient>
<linearGradient id="paint5_linear" x1="661.5" y1="236.998" x2="661.5" y2="256.998" gradientUnits="userSpaceOnUse">
<stop offset="0.203892" stop-color="#292930" stop-opacity="0.79"/>
<stop offset="0.927179" stop-color="#40404C" stop-opacity="0.15"/>
</linearGradient>
<linearGradient id="paint6_linear" x1="182.765" y1="294.5" x2="182.765" y2="412.272" gradientUnits="userSpaceOnUse">
<stop stop-color="#292930" stop-opacity="0.6"/>
<stop offset="0.694905" stop-color="#40404C" stop-opacity="0"/>
</linearGradient>
<linearGradient id="paint7_linear" x1="183.087" y1="273" x2="183.087" y2="299.667" gradientUnits="userSpaceOnUse">
<stop offset="0.0599106" stop-color="#292930"/>
<stop offset="0.676676" stop-color="#40404C" stop-opacity="0.07"/>
</linearGradient>
<linearGradient id="paint8_linear" x1="420.5" y1="175" x2="420.5" y2="328" gradientUnits="userSpaceOnUse">
<stop offset="0.152747" stop-color="#40404C" stop-opacity="0.6"/>
<stop offset="0.930298" stop-color="#40404C" stop-opacity="0"/>
</linearGradient>
<linearGradient id="paint9_linear" x1="419.163" y1="154.299" x2="419.163" y2="190.226" gradientUnits="userSpaceOnUse">
<stop offset="0.349191" stop-color="#292930"/>
<stop offset="0.958331" stop-color="#40404C" stop-opacity="0"/>
</linearGradient>
<clipPath id="clip0">
<rect x="583.082" y="120.615" width="168.409" height="130.236" fill="white"/>
</clipPath>
<clipPath id="clip1">
<rect x="104.746" y="138" width="161.673" height="170.655" fill="white"/>
</clipPath>
</defs>
</svg>
