<svg width="37" height="37" viewBox="0 0 37 37" fill="none" xmlns="http://www.w3.org/2000/svg">
<path d="M27.1034 18.1754L33.1836 10.6372L23.8336 8.11213L18.543 0L13.2523 8.11213L3.90234 10.6369L9.98256 18.1754L9.49448 27.8481L11.9611 26.9069V36.9999L18.543 34.225L25.1248 36.9999V26.9069L27.5914 27.8483L27.1034 18.1754ZM22.9526 33.7267L18.543 31.8676L14.1333 33.7267V26.0778L18.543 24.3951L22.9526 26.0778V33.7267ZM18.543 22.0699L11.8318 24.6311L12.194 17.457L7.68445 11.866L14.6192 9.9933L18.543 3.9766L22.4668 9.9933L29.4015 11.866L24.8919 17.457L25.2538 24.6311L18.543 22.0699Z" fill="#FDD935"/>
</svg>
