<?xml version="1.0" encoding="UTF-8"?>
<svg width="344px" height="167px" viewBox="0 0 344 167" version="1.1" xmlns="http://www.w3.org/2000/svg" xmlns:xlink="http://www.w3.org/1999/xlink">
    <!-- Generator: Sketch 55.2 (78181) - https://sketchapp.com -->
    <title>Untitled</title>
    <desc>Created with Sketch.</desc>
    <g id="Page-1" stroke="none" stroke-width="1" fill="none" fill-rule="evenodd">
        <g id="salesBackground-2" fill-rule="nonzero">
            <g id="salesBackground">
                <rect id="Rectangle" fill="#E9E9EA" x="0" y="1" width="343" height="166"></rect>
                <polygon id="Path" fill="#E34A02" points="246 0.8741 343.184 1.0078 343.185 79.5"></polygon>
                <g id="Group" transform="translate(300.000000, 11.000000)" fill="#E9E9EA">
                    <polygon id="Path" points="14.85 4.3999 15.95 4.3999 15.95 5.4999 14.85 5.4999"></polygon>
                    <polygon id="Path" points="7.233 8.0111 8.011 7.2328 8.789 8.0105 8.011 8.7885"></polygon>
                    <polygon id="Path" points="4.4 14.85 5.5 14.85 5.5 15.95 4.4 15.95"></polygon>
                    <polygon id="Path" points="7.233 22.7886 8.011 22.0111 8.788 22.7891 8.01 23.5669"></polygon>
                    <polygon id="Path" points="14.85 25.3001 15.95 25.3001 15.95 26.4001 14.85 26.4001"></polygon>
                    <polygon id="Path" points="25.3 14.85 26.4 14.85 26.4 15.95 25.3 15.95"></polygon>
                    <polygon id="Path" points="22.012 8.0104 22.79 7.233 23.567 8.011 22.789 8.7884"></polygon>
                    <path d="M17.344,15.0113 L15.95,13.6164 L15.95,7.1501 L14.85,7.1501 L14.85,13.6164 L13.617,14.8502 L8.25,14.8502 L8.25,15.9502 L13.617,15.9502 L15.011,17.345 C15.226,17.5596 15.574,17.5596 15.789,17.345 L17.344,15.789 C17.559,15.5742 17.559,15.2261 17.344,15.0113 Z M15.4,16.1779 L14.622,15.4002 L15.4,14.6224 L16.178,15.4002 L15.4,16.1779 Z" id="Shape"></path>
                    <path d="M28.551,16.5469 C28.584,16.1669 28.6,15.7807 28.6,15.4001 C28.6,8.1099 22.69,2.2001 15.4,2.2001 C8.11,2.2001 2.2,8.1099 2.2,15.4001 C2.2,22.6903 8.11,28.6001018 15.4,28.6001018 C15.976,28.6004 16.55,28.5639 17.121,28.49 L16.979,27.3989 C11.984,28.0563 7.104,25.5499 4.729,21.1066 C2.354,16.6634 2.98,11.2134 6.302,7.4251 C9.624,3.6369 14.945,2.3033 19.661,4.0773 C24.376,5.8514 27.499,10.3618 27.5,15.4001 C27.5,15.7493 27.485,16.1035 27.455,16.4534 L28.551,16.5469 Z" id="Path"></path>
                    <path d="M15.4,29.7 C7.502,29.7 1.1,23.2977 1.1,15.4 C1.1,7.5023 7.502,1.1 15.4,1.1 C23.298,1.1 29.7,7.5023 29.7,15.4 C29.7,16.1095 29.648,16.818 29.544,17.5197 L30.632,17.6803 C30.744,16.9254 30.8,16.1632 30.8,15.4 C30.8,6.8949 23.905,0 15.4,0 C6.895,0 0,6.8949 0,15.4 C0,23.9051 6.895,30.8000086 15.4,30.8000086 C16.163,30.8008 16.925,30.7458 17.68,30.6351 L17.52,29.5467 C16.818,29.6498 16.109,29.7011 15.4,29.7 Z" id="Path"></path>
                    <path d="M25.3,17.5999 C21.047,17.5999 17.6,21.0473 17.6,25.2999 C17.6,29.5524 21.047,32.9999 25.3,32.9999 C29.553,32.9999 33,29.5524 33,25.2999 C32.995,21.0492 29.551,17.6044 25.3,17.5999 Z M25.3,31.8999 C21.655,31.8999 18.7,28.9449 18.7,25.2999 C18.7,21.6548 21.655,18.6999 25.3,18.6999 C28.945,18.6999 31.9,21.6548 31.9,25.2999 C31.896,28.9433 28.943,31.8958 25.3,31.8999 Z" id="Shape"></path>
                    <polygon id="Path" points="21.611 28.211 28.211 21.611 28.989 22.3887 22.389 28.989"></polygon>
                    <path d="M27.5,25.8499 C26.589,25.8499 25.85,26.5886 25.85,27.4999 C25.85,28.4111 26.589,29.1499 27.5,29.1499 C28.411,29.1499 29.15,28.4111 29.15,27.4999 C29.15,26.5886 28.411,25.8499 27.5,25.8499 Z M27.5,28.0499 C27.196,28.0499 26.95,27.8036 26.95,27.4999 C26.95,27.1961 27.196,26.9499 27.5,26.9499 C27.804,26.9499 28.05,27.1961 28.05,27.4999 C28.05,27.8036 27.804,28.0499 27.5,28.0499 Z" id="Shape"></path>
                    <path d="M23.1,24.75 C24.011,24.75 24.75,24.0112 24.75,23.1 C24.75,22.1888 24.011,21.45 23.1,21.45 C22.189,21.45 21.45,22.1888 21.45,23.1 C21.45,24.0112 22.189,24.75 23.1,24.75 Z M23.1,22.55 C23.404,22.55 23.65,22.7963 23.65,23.1 C23.65,23.4037 23.404,23.65 23.1,23.65 C22.796,23.65 22.55,23.4037 22.55,23.1 C22.55,22.7963 22.796,22.55 23.1,22.55 Z" id="Shape"></path>
                </g>
            </g>
        </g>
    </g>
</svg>