<svg width="30" height="30" viewBox="0 0 30 30" fill="none" xmlns="http://www.w3.org/2000/svg">
<g clip-path="url(#clip0)">
<path d="M15 30C23.2843 30 30 23.2843 30 15C30 6.71573 23.2843 0 15 0C6.71573 0 0 6.71573 0 15C0 23.2843 6.71573 30 15 30Z" fill="#F2F2F2"/>
<path d="M8.98289 17.1015C8.41471 18.4007 7.59434 19.5076 6.78492 20.1438C5.32898 21.2881 4.70514 19.8321 3.35326 19.8321C2.41652 19.8321 1.82936 20.5307 1.07268 20.5797C0.380801 18.8544 0 16.9705 0 14.9984C0 13.0907 0.356309 11.2662 1.00594 9.58742C2.06086 9.68908 2.37984 10.2291 3.35326 10.2291C4.42775 10.2291 4.70508 9.57031 6.05695 9.57031C6.93428 9.57031 8.01861 10.1097 8.78086 11.0562C7.64144 11.565 6.8468 12.7087 6.8468 14.0379C6.84674 15.4442 7.73631 16.6429 8.98289 17.1015Z" fill="#353535"/>
<path d="M2.89111 9.44945C2.89111 9.53664 2.89562 9.62277 2.9026 9.7082C4.57715 9.65283 5.91795 8.27887 5.91795 6.59078C5.91795 6.50359 5.91344 6.41746 5.90646 6.33203C4.23191 6.38734 2.89111 7.76137 2.89111 9.44945Z" fill="#353535"/>
<path d="M10.7872 10.1124C10.7872 9.84197 11.0275 9.60156 11.4031 9.60156H14.3328C16.1808 9.60156 17.6231 10.488 17.6231 12.9068V13.027C17.6231 15.4309 16.1357 16.3473 14.2426 16.3473H12.3796V20.0582C12.3796 20.4037 11.989 20.5841 11.5833 20.5841C11.1928 20.5841 10.7871 20.4038 10.7871 20.0582L10.7872 10.1124ZM12.3797 11.0138V15.0853H14.2427C15.3544 15.0853 16.0306 14.4542 16.0306 13.1322V12.9519C16.0306 11.6298 15.3544 11.0138 14.2427 11.0138L12.3797 11.0138Z" fill="#353535"/>
<path d="M23.2854 16.2877V20.0587C23.2854 20.3441 22.955 20.5845 22.5192 20.5845C22.1136 20.5845 21.798 20.3442 21.798 20.0587V19.5328C21.2722 20.1488 20.5511 20.7046 19.5294 20.7046C18.4327 20.7046 17.5312 20.0737 17.5312 18.7215C17.5312 17.0238 18.9586 16.5731 21.0469 16.5731H21.7079V16.3027C21.7079 15.5364 21.3173 14.6801 20.2205 14.6801C19.1238 14.6801 18.8534 15.1309 18.5529 15.1309C18.1773 15.1309 17.982 14.6952 17.982 14.3346C17.982 13.7937 19.229 13.373 20.2506 13.373C22.4591 13.373 23.2854 14.7853 23.2854 16.2877ZM21.7079 17.4446H21.3323C20.1906 17.4446 19.1238 17.5647 19.1238 18.5263C19.1238 19.2024 19.5445 19.5029 20.1004 19.5029C20.8515 19.5029 21.7079 18.7216 21.7079 18.0004V17.4446Z" fill="#353535"/>
<path d="M23.5244 14.3189C23.4794 14.2589 23.4644 14.1988 23.4644 14.1087C23.4644 13.7029 24.0803 13.3574 24.5009 13.3574C24.7113 13.3574 24.9066 13.4476 24.9818 13.6429L26.8748 18.5257L28.4974 13.6429C28.5876 13.4476 28.7678 13.3574 28.948 13.3574C29.3236 13.3574 29.9997 13.6879 29.9997 14.1387C29.9997 14.1988 29.9997 14.2739 29.9697 14.3189L27.7462 20.1933C27.0701 21.9662 26.334 23.9643 24.2006 23.9643C23.7949 23.9643 23.4644 23.8592 23.4644 23.2882C23.4644 22.9277 23.5846 22.6122 23.9001 22.6122C24.6662 22.6122 25.8381 21.8459 26.0485 20.1483L23.5244 14.3189Z" fill="#353535"/>
</g>
<defs>
<clipPath id="clip0">
<rect width="30" height="30" fill="white"/>
</clipPath>
</defs>
</svg>
