<svg width="30" height="30" viewBox="0 0 30 30" fill="none" xmlns="http://www.w3.org/2000/svg">
<g clip-path="url(#clip0)">
<path d="M30 15C30 15.7206 29.9492 16.4296 29.8506 17.1227C28.8196 24.4016 22.5637 30 15 30C7.91203 30 1.97268 25.0843 0.405293 18.4757C0.140215 17.3602 0 16.1963 0 15C0 13.9427 0.10957 12.9104 0.317754 11.9149C0.317754 11.9149 0.317754 11.9149 0.31834 11.9149C1.74 5.11043 7.77305 0 15 0C22.7872 0 29.1882 5.93391 29.9283 13.527V13.5275C29.9761 14.0118 30 14.5028 30 15Z" fill="#F0EFEB"/>
<path d="M3.20941 11.123C1.89123 11.123 0.966152 11.4451 0.318398 11.9147C0.317813 11.9147 0.317813 11.9147 0.317813 11.9147C0.10957 12.9102 0 13.9425 0 14.9998C0 16.1961 0.140215 17.36 0.405293 18.4755C1.02486 18.8851 1.88936 19.1655 3.09609 19.1655C6.94775 19.1655 7.11732 16.73 7.11732 16.73H5.36203C5.36203 16.73 5.02225 18.0328 3.09609 17.9759C0.661172 17.9759 0.54791 15.541 0.54791 15.541H7.34385C7.4008 15.541 7.91021 11.123 3.20941 11.123ZM0.604277 14.4078C0.604277 14.4078 0.717539 12.2557 3.15305 12.2557C5.58855 12.2557 5.58855 14.4078 5.58855 14.4078H0.604277Z" fill="#E82F31"/>
<path d="M12.271 11.1793C10.1189 11.1793 9.32596 12.4253 9.32596 12.4253V8.17773H7.40039L7.45705 17.1827C7.45705 17.1827 7.45705 18.372 7.40039 18.9384H9.04277L9.09943 17.9189C9.09943 17.9189 9.89227 19.1649 12.1577 19.1649C14.4232 19.1649 16.2354 17.749 16.292 15.2005C16.292 12.6518 14.3665 11.1793 12.271 11.1793ZM11.7613 18.0321C9.09949 18.0888 9.09949 15.2003 9.09949 15.2003C9.09949 15.2003 8.98623 12.4253 11.7613 12.3685C14.4797 12.3119 14.4231 15.2569 14.4231 15.2569C14.4231 15.2569 14.4231 17.9755 11.7613 18.0321Z" fill="#0061D5"/>
<path d="M24.0507 17.1265C24.0507 15.9372 24.1074 14.9177 24.0507 14.1815C23.9941 13.332 24.1074 11.1798 20.4261 11.0099C20.4261 11.0099 16.9148 10.9532 16.5183 13.2186H18.3306C18.3306 13.2186 18.4439 12.0859 20.3129 12.1426C22.0686 12.1992 22.3517 13.0487 22.3517 14.1248C22.3517 14.1248 20.8792 14.1815 20.3695 14.1815C19.4634 14.1815 16.3484 14.2947 16.0653 16.2203C15.7255 18.4856 17.7077 19.1653 19.2935 19.1653C20.8792 19.1653 21.7853 18.7123 22.465 17.8627L22.5217 18.9388H24.1075C24.1074 18.8821 24.0507 18.3158 24.0507 17.1265ZM19.5766 18.0893C19.5766 18.0893 17.8776 18.0893 17.7643 16.7301C17.6511 15.2575 20.3695 15.3708 20.3695 15.3708H22.295C22.3518 15.3708 22.6915 18.1459 19.5766 18.0893Z" fill="#F7B000"/>
<path d="M29.9999 14.9998C29.9999 15.7204 29.9491 16.4294 29.8505 17.1225L27.4492 21.7707H25.5237L27.0525 18.939L23.1445 11.5762H25.127L28.0155 17.3533L29.9282 13.5274C29.976 14.0116 29.9999 14.5026 29.9999 14.9998Z" fill="#85BA00"/>
</g>
<defs>
<clipPath id="clip0">
<rect width="30" height="30" fill="white"/>
</clipPath>
</defs>
</svg>
