<svg width="30" height="30" viewBox="0 0 30 30" fill="none" xmlns="http://www.w3.org/2000/svg">
<path d="M30 15C30 18.1812 29.01 21.131 27.3202 23.5586C26.9419 24.1022 26.528 24.6202 26.0822 25.1081C23.3394 28.1143 19.3898 30 15 30C10.2453 30 6.00732 27.788 3.25898 24.3361C3.05754 24.0833 2.86406 23.8236 2.6792 23.5579C0.99 21.131 0 18.1806 0 15C0 6.71572 6.71572 0 15 0C23.2843 0 30 6.71572 30 15Z" fill="#F0EFEB"/>
<path d="M10.1964 20.0988C14.4667 20.0988 17.9284 16.6371 17.9284 12.3668C17.9284 8.09651 14.4667 4.63477 10.1964 4.63477C5.9261 4.63477 2.46436 8.09651 2.46436 12.3668C2.46436 16.6371 5.9261 20.0988 10.1964 20.0988Z" fill="#EE0005"/>
<path d="M19.8033 20.0988C24.0736 20.0988 27.5354 16.6371 27.5354 12.3668C27.5354 8.09651 24.0736 4.63477 19.8033 4.63477C15.533 4.63477 12.0713 8.09651 12.0713 12.3668C12.0713 16.6371 15.533 20.0988 19.8033 20.0988Z" fill="#F9A000"/>
<path d="M12.0708 12.3656C12.0708 14.8207 13.2153 17.0083 14.9996 18.4246C16.7838 17.0083 17.9283 14.8207 17.9283 12.3656C17.9283 9.91057 16.7838 7.72297 14.9996 6.30664C13.2153 7.72309 12.0708 9.91063 12.0708 12.3656Z" fill="#FF6300"/>
<path d="M5.51695 22.418C5.19674 22.418 4.87652 22.5943 4.68369 22.9696C4.55637 22.6439 4.29123 22.418 3.96 22.418C3.59021 22.418 3.34717 22.6218 3.22594 22.8374V22.6384C3.22594 22.5282 3.10471 22.4511 2.96637 22.4511C2.79557 22.4511 2.6792 22.5282 2.6792 22.6384V23.558C2.86412 23.8237 3.05754 24.0833 3.25898 24.3362V23.5054C3.25898 23.1301 3.51305 22.9311 3.77268 22.9311C4.04326 22.9311 4.28572 23.1576 4.28572 23.4998V24.8804C4.28572 25.0127 4.44064 25.0678 4.57289 25.0678C4.7223 25.0678 4.86557 25.0127 4.86557 24.8804V23.4943C4.86557 23.1356 5.12514 22.9256 5.38477 22.9256C5.63883 22.9256 5.89846 23.1245 5.89846 23.5054V24.8749C5.89846 24.9686 6.03621 25.0678 6.18563 25.0678C6.34541 25.0678 6.47766 24.9686 6.47766 24.8749V23.5054C6.47754 22.8098 6.01406 22.418 5.51695 22.418Z" fill="#171614"/>
<path d="M7.89666 22.418C7.52137 22.418 7.06275 22.5722 7.06275 22.7712C7.06275 22.9035 7.135 23.0639 7.27275 23.0639C7.38297 23.0639 7.48275 22.898 7.88559 22.898C8.28842 22.898 8.43232 23.2127 8.43232 23.4943V23.5935H8.18928C7.42211 23.5935 6.89746 23.7594 6.89746 24.3833C6.89746 24.8804 7.22869 25.1118 7.63152 25.1118C8.00682 25.1118 8.27195 24.908 8.46543 24.6814V24.8749C8.46543 24.9796 8.58115 25.0677 8.73051 25.0677C8.89029 25.0677 9.01217 24.9795 9.01217 24.8749V23.4888C9.01217 22.9365 8.70848 22.418 7.89666 22.418ZM8.43238 24.1182C8.43238 24.3833 8.11768 24.6704 7.84158 24.6704C7.63709 24.6704 7.48281 24.5602 7.48281 24.3117C7.48281 23.9584 7.87463 23.9137 8.29404 23.9137H8.43238V24.1182Z" fill="#171614"/>
<path d="M10.028 23.1851C10.028 23.0474 10.1492 22.8649 10.4749 22.8649C10.7847 22.8649 10.9555 23.0254 11.0712 23.0254C11.2096 23.0254 11.2922 22.8264 11.2922 22.7437C11.2922 22.5667 10.8783 22.418 10.4639 22.418C9.7684 22.418 9.51984 22.8319 9.51984 23.2127C9.51984 24.1292 10.8509 23.787 10.8509 24.3667C10.8509 24.5155 10.7456 24.6649 10.3813 24.6649C9.9068 24.6649 9.79049 24.4109 9.64723 24.4109C9.53092 24.4109 9.44824 24.5713 9.44824 24.6704C9.44824 24.8804 9.85172 25.1119 10.3978 25.1119C11.0217 25.1119 11.3695 24.8137 11.3695 24.3447C11.3694 23.3511 10.028 23.6713 10.028 23.1851Z" fill="#171614"/>
<path d="M12.9873 24.5722H12.7938C12.5066 24.5722 12.4075 24.4725 12.4075 24.2073V22.8825H13.081C13.1802 22.8825 13.2414 22.7778 13.2414 22.667C13.2414 22.5567 13.1802 22.452 13.081 22.452H12.4075V21.4412C12.4075 21.331 12.2581 21.2539 12.1148 21.2539C11.9765 21.2539 11.8276 21.3311 11.8276 21.4412V24.2073C11.8276 24.8091 12.1644 25.0688 12.7937 25.0688H12.9872C13.1525 25.0688 13.2352 24.9475 13.2352 24.8202C13.2352 24.6935 13.1526 24.5722 12.9873 24.5722Z" fill="#171614"/>
<path d="M15.5213 24.4328C15.3718 24.4328 15.2396 24.6428 14.8478 24.6428C14.4223 24.6428 14.1296 24.4108 14.1296 24.041V23.9137H15.2947C15.5432 23.9137 15.7974 23.8972 15.7974 23.4392C15.7974 22.8374 15.2892 22.418 14.6984 22.418C14.0634 22.418 13.5498 22.909 13.5498 23.4888V24.0135C13.5498 24.6704 14.08 25.1118 14.8313 25.1118C15.3884 25.1118 15.7478 24.8578 15.7478 24.6924C15.7478 24.5933 15.659 24.4328 15.5213 24.4328ZM14.1296 23.3786C14.1296 23.0749 14.3892 22.8594 14.6929 22.8594C15.0076 22.8594 15.2506 23.0969 15.2506 23.3896C15.2506 23.5218 15.2066 23.5549 15.0461 23.5549H14.1296V23.3786Z" fill="#171614"/>
<path d="M17.6913 22.418H17.5144C17.1886 22.418 16.9297 22.6494 16.8133 22.8814V22.6384C16.8133 22.5282 16.6921 22.4511 16.5483 22.4511C16.383 22.4511 16.2666 22.5282 16.2666 22.6384V24.8749C16.2666 24.9686 16.3829 25.0678 16.5483 25.0678C16.7142 25.0678 16.8464 24.9686 16.8464 24.8749V23.7429C16.8464 23.2402 17.1777 22.9311 17.5144 22.9311H17.6914C17.8071 22.9311 17.9124 22.8154 17.9124 22.6715C17.9123 22.5337 17.807 22.418 17.6913 22.418Z" fill="#171614"/>
<path d="M19.9384 24.4163C19.8116 24.4163 19.7235 24.5988 19.3586 24.5988C18.9337 24.5988 18.7458 24.3778 18.7458 24.0135V23.5163C18.7458 23.152 18.9392 22.931 19.3531 22.931C19.707 22.931 19.8061 23.1025 19.9219 23.1025C20.0602 23.1025 20.1539 22.931 20.1539 22.8208C20.1539 22.6273 19.8116 22.418 19.309 22.418C18.5198 22.418 18.1665 22.898 18.1665 23.5163V24.0135C18.1665 24.6429 18.5198 25.1118 19.3145 25.1118C19.8227 25.1118 20.1869 24.8859 20.1869 24.6924C20.187 24.5767 20.0933 24.4163 19.9384 24.4163Z" fill="#171614"/>
<path d="M21.4406 22.418C21.0653 22.418 20.6067 22.5722 20.6067 22.7712C20.6067 22.9035 20.6789 23.0639 20.8167 23.0639C20.9275 23.0639 21.0267 22.898 21.4295 22.898C21.8324 22.898 21.9763 23.2127 21.9763 23.4943V23.5935H21.7332C20.9661 23.5935 20.4414 23.7594 20.4414 24.3833C20.4414 24.8804 20.7726 25.1118 21.1755 25.1118C21.5514 25.1118 21.8159 24.908 22.0094 24.6814V24.8749C22.0094 24.9796 22.1251 25.0677 22.2745 25.0677C22.4342 25.0677 22.5561 24.9795 22.5561 24.8749V23.4888C22.5561 22.9365 22.2524 22.418 21.4406 22.418ZM21.9763 24.1182C21.9763 24.3833 21.6616 24.6704 21.3855 24.6704C21.181 24.6704 21.0268 24.5602 21.0268 24.3117C21.0268 23.9584 21.4186 23.9137 21.838 23.9137H21.9763V24.1182Z" fill="#171614"/>
<path d="M24.5705 22.418H24.3942C24.0685 22.418 23.8089 22.6494 23.6932 22.8814V22.6384C23.6932 22.5282 23.5714 22.4511 23.4281 22.4511C23.2622 22.4511 23.1465 22.5282 23.1465 22.6384V24.8749C23.1465 24.9686 23.2622 25.0678 23.4281 25.0678C23.5934 25.0678 23.7263 24.9686 23.7263 24.8749V23.7429C23.7263 23.2402 24.0576 22.9311 24.3943 22.9311H24.5706C24.6869 22.9311 24.7916 22.8154 24.7916 22.6715C24.7916 22.5337 24.6869 22.418 24.5705 22.418Z" fill="#171614"/>
<path d="M27.0331 20.8945C26.8678 20.8945 26.7404 20.9717 26.7404 21.0819V22.8378C26.6192 22.6223 26.3706 22.4184 26.0229 22.4184C25.4816 22.4184 25.0347 22.9094 25.0347 23.5057V24.0139C25.0347 24.5882 25.4871 25.1122 26.0063 25.1122C26.0321 25.1122 26.0571 25.111 26.0823 25.1085C26.528 24.6206 26.9418 24.1026 27.3202 23.559V21.0819C27.3202 20.9717 27.199 20.8945 27.0331 20.8945ZM26.7404 24.1407C26.7404 24.2735 26.4925 24.5992 26.1717 24.5992C25.868 24.5992 25.6145 24.3121 25.6145 24.0139V23.5058C25.6145 23.2186 25.868 22.9315 26.1778 22.9315C26.4533 22.9315 26.7404 23.147 26.7404 23.5058V24.1407Z" fill="#171614"/>
</svg>
