<svg width="30" height="30" viewBox="0 0 30 30" fill="none" xmlns="http://www.w3.org/2000/svg">
<path d="M30 15C30 15.6937 29.9528 16.377 29.861 17.0455C29.7263 18.0398 29.493 19.0028 29.1722 19.9255C27.1347 25.7902 21.559 30 15 30C6.71572 30 0 23.2843 0 15C0 13.5551 0.204492 12.158 0.585938 10.8355C0.660645 10.5753 0.742676 10.3182 0.830859 10.0641C2.87203 4.20492 8.44471 0 15 0C23.2843 0 30 6.71572 30 15Z" fill="#F0EFEB"/>
<path d="M10.2178 19.918H12.7491L14.3319 10.0625H11.8014L10.2178 19.918Z" fill="#191B73"/>
<path d="M10.781 10.0636L6.8008 19.9085H4.12225L2.16855 12.6203C1.96711 11.8685 1.44609 11.2434 0.743262 10.9085C0.69123 10.8835 0.638555 10.859 0.585938 10.8357C0.660645 10.5755 0.742676 10.3184 0.830859 10.0643H2.87086C3.7084 10.0753 4.32434 10.5822 4.51781 11.3335L5.37252 15.5126C5.36947 15.5041 5.3652 15.4949 5.36209 15.4863L5.6223 16.7586L8.10252 10.0625V10.0637L10.781 10.0636Z" fill="#191B73"/>
<path d="M28.418 10.0938H26.4595C25.8558 10.0938 25.3972 10.2676 25.1358 10.8866L21.376 19.919H24.0325L24.7642 17.9635H27.7366L28.1162 19.9264H29.1723C29.4931 19.0037 29.7264 18.0406 29.8611 17.0464L28.418 10.0938ZM25.5006 15.9897C25.5533 15.9897 26.5206 12.798 26.5206 12.798L27.2914 15.9897C27.2915 15.9897 26.0008 15.9897 25.5006 15.9897Z" fill="#191B73"/>
<path d="M19.4372 14.0778C18.5525 13.641 18.0103 13.3461 18.0103 12.8994C18.0211 12.4932 18.4689 12.077 19.4688 12.077C20.2912 12.0563 20.8957 12.2496 21.3543 12.4419L21.584 12.5444L21.9281 10.4824C21.4281 10.2891 20.6353 10.0762 19.6561 10.0762C17.1562 10.0762 15.396 11.3759 15.3851 13.2348C15.3644 14.6065 16.6453 15.3677 17.6039 15.8244C18.5831 16.2929 18.9165 16.5965 18.9165 17.0127C18.9057 17.6517 18.1247 17.9465 17.3959 17.9465C16.3862 17.9465 15.8438 17.7947 15.0204 17.4387L14.687 17.2868L14.333 19.4297C14.9277 19.694 16.0212 19.9267 17.1563 19.9386C19.8129 19.9386 21.5416 18.6586 21.5634 16.6775C21.572 15.5906 20.8966 14.7583 19.4372 14.0778Z" fill="#191B73"/>
</svg>
