<svg width="166" height="175" viewBox="0 0 166 175" fill="none" xmlns="http://www.w3.org/2000/svg">
<rect width="166" height="175" fill="#D4D4D5"/>
<rect width="166" height="175" stroke="#FDD935"/>
<path d="M118.776 97.9053H46.6211V101.449H118.776V97.9053Z" fill="#38393A"/>
<path d="M115.672 87.9794H49.095V130.742H115.672V87.9794Z" fill="#7A7A7D"/>
<path d="M111.635 73.4549L52.8582 73.3373L52.7364 133.882L111.513 134L111.635 73.4549Z" fill="white"/>
<path d="M105.54 123.042H64.1752V124.579H105.54V123.042Z" fill="#E3E3E3"/>
<path d="M105.54 125.708H57.62V127.245H105.54V125.708Z" fill="#E3E3E3"/>
<path d="M106.548 82.1305H57.9194V83.6673H106.548V82.1305Z" fill="#E3E3E3"/>
<path d="M106.564 85.2824H71.6918V86.8192H106.564V85.2824Z" fill="#E3E3E3"/>
<path d="M87.9697 109.478C84.3926 109.996 80.7526 108.929 77.2228 107.894C76.4192 107.659 75.5682 107.408 74.7646 107.205C74.2446 107.063 73.693 106.922 73.173 106.797C71.9439 106.483 70.6833 106.17 69.4857 105.762C63.3086 103.676 58.8964 106.954 58.8491 106.985L58.7861 106.907C58.8334 106.875 63.2771 103.566 69.5172 105.668C70.7148 106.075 71.9754 106.389 73.2045 106.687C73.7246 106.812 74.2761 106.954 74.7961 107.095C75.5997 107.314 76.4507 107.55 77.2543 107.785C81.635 109.071 86.1733 110.388 90.5382 108.694C91.6728 108.255 92.7601 107.361 93.4061 106.358C94.2413 105.056 95.3601 102.955 95.7856 101.638C95.7856 101.638 96.0062 100.807 96.5577 99.8814C97.062 99.0189 97.9444 97.9056 99.3153 97.4195C101.08 96.7922 103.208 97.3567 105.618 99.0973L105.555 99.1757C103.16 97.4508 101.064 96.8863 99.3311 97.5135C97.9917 97.984 97.125 99.0817 96.6207 99.9284C96.085 100.838 95.8644 101.653 95.8644 101.669C95.4231 103.002 94.3043 105.119 93.4692 106.42C92.8231 107.44 91.7043 108.349 90.554 108.788C89.703 109.133 88.8363 109.353 87.9697 109.478Z" fill="#7F8081"/>
<path d="M56.834 113.779L56.8338 113.904L57.4957 113.906L57.4959 113.78L56.834 113.779Z" fill="#7F8081"/>
<path d="M67.2744 115.835L67.2729 116.494L67.3989 116.494L67.4004 115.835L67.2744 115.835Z" fill="#7F8081"/>
<path d="M56.2806 114.057H56.2018V113.54C56.186 113.555 56.1545 113.571 56.123 113.602C56.0915 113.618 56.06 113.634 56.0442 113.65V113.571C56.0915 113.555 56.123 113.524 56.1703 113.493C56.2018 113.461 56.2333 113.43 56.2491 113.399H56.2963L56.2806 114.057Z" fill="#7F8081"/>
<path d="M56.8346 111.684L56.8344 111.81L57.4962 111.811L57.4964 111.685L56.8346 111.684Z" fill="#7F8081"/>
<path d="M56.8508 109.589L56.8506 109.715L57.5125 109.716L57.5127 109.59L56.8508 109.589Z" fill="#7F8081"/>
<path d="M56.8513 107.479L56.8511 107.605L57.513 107.606L57.5132 107.48L56.8513 107.479Z" fill="#7F8081"/>
<path d="M56.8519 105.384L56.8517 105.51L57.5135 105.511L57.5137 105.385L56.8519 105.384Z" fill="#7F8081"/>
<path d="M56.8525 103.29L56.8522 103.415L57.5141 103.417L57.5143 103.291L56.8525 103.29Z" fill="#7F8081"/>
<path d="M56.853 101.195L56.8528 101.321L57.5146 101.322L57.5148 101.196L56.853 101.195Z" fill="#7F8081"/>
<path d="M56.8692 99.0848L56.869 99.2104L57.5308 99.2116L57.5311 99.086L56.8692 99.0848Z" fill="#7F8081"/>
<path d="M56.8698 96.99L56.8696 97.1157L57.5314 97.1168L57.5316 96.9911L56.8698 96.99Z" fill="#7F8081"/>
<path d="M76.8117 115.855L76.8102 116.514L76.9363 116.514L76.9378 115.856L76.8117 115.855Z" fill="#7F8081"/>
<path d="M86.349 115.86L86.3476 116.518L86.4736 116.519L86.475 115.86L86.349 115.86Z" fill="#7F8081"/>
<path d="M95.8862 115.88L95.8848 116.539L96.0109 116.539L96.0123 115.88L95.8862 115.88Z" fill="#7F8081"/>
<path d="M105.508 106.876C102.908 106.781 100.497 106.044 98.5432 104.727C97.7868 104.225 97.1407 103.504 96.4474 102.736C95.2025 101.356 93.9261 99.9444 92.0509 99.9288C90.8848 99.9131 89.5139 100.462 88.4424 101.34C86.772 102.704 85.2435 103.912 83.2738 104.696C79.6968 106.107 75.9464 106.06 72.716 104.57C71.8966 104.194 71.0615 103.63 70.0687 102.83C68.7923 101.779 67.5947 100.556 66.1765 98.8467L66.1135 98.7683C65.2153 97.6863 63.9704 96.1809 62.2686 96.8709C60.9607 97.3884 59.2431 101.434 58.8649 102.532L58.7703 102.5C59.1485 101.387 60.8819 97.31 62.2213 96.7925C64.0019 96.0869 65.2626 97.6079 66.1765 98.7213L66.2396 98.7997C67.6578 100.493 68.8396 101.716 70.116 102.767C71.093 103.567 71.9281 104.116 72.7318 104.492C75.9306 105.982 79.6495 106.029 83.2108 104.617C85.1647 103.849 86.6933 102.642 88.3478 101.277C89.1988 100.572 90.617 99.8347 92.0194 99.8347C93.9419 99.8503 95.234 101.277 96.4946 102.673C97.188 103.426 97.8341 104.147 98.5747 104.649C100.513 105.95 102.908 106.687 105.492 106.781L105.508 106.876Z" fill="#7F8081"/>
<path d="M105.508 107.691C103.05 107.597 100.607 106.922 98.5589 105.558C96.4316 104.131 94.9503 100.775 92.0351 100.76C90.7588 100.744 89.3563 101.387 88.3951 102.187C86.8035 103.504 85.2277 104.743 83.2423 105.527C79.8228 106.875 76.0882 106.954 72.7318 105.401C70.7463 104.476 68.1462 102.092 66.7753 100.383C65.7983 99.1757 63.608 95.9768 62.0007 98.0153C60.8819 99.4266 59.6212 101.481 58.8176 103.88L58.8018 115.124L105.555 115.202L105.508 107.691Z" fill="url(#paint0_linear)"/>
<path d="M63.4504 96.6358C63.4504 96.777 63.3243 96.9024 63.1825 96.9024C63.0407 96.9024 62.9146 96.777 62.9146 96.6358C62.9146 96.4947 63.0407 96.3693 63.1825 96.3693C63.3243 96.3849 63.4504 96.4947 63.4504 96.6358Z" fill="#6D6E6F"/>
<path d="M77.1597 107.706C77.1597 107.848 77.0336 107.973 76.8918 107.973C76.75 107.973 76.6239 107.848 76.6239 107.706C76.6239 107.565 76.75 107.44 76.8918 107.44C77.0336 107.44 77.1597 107.565 77.1597 107.706Z" fill="#6D6E6F"/>
<path d="M86.6932 109.557C86.6932 109.698 86.5671 109.823 86.4253 109.823C86.2835 109.823 86.1574 109.698 86.1574 109.557C86.1574 109.415 86.2835 109.29 86.4253 109.29C86.5829 109.29 86.6932 109.415 86.6932 109.557Z" fill="#6D6E6F"/>
<path d="M96.1164 101.748C96.1164 101.889 95.9904 102.014 95.8486 102.014C95.7067 102.014 95.5807 101.889 95.5807 101.748C95.5807 101.606 95.7067 101.481 95.8486 101.481C95.9904 101.497 96.1164 101.606 96.1164 101.748Z" fill="#6D6E6F"/>
<path d="M100.497 97.2627C100.497 97.4038 100.371 97.5293 100.229 97.5293C100.087 97.5293 99.9613 97.4038 99.9613 97.2627C99.9613 97.1215 100.087 96.9961 100.229 96.9961C100.371 96.9961 100.497 97.1059 100.497 97.2627Z" fill="#6D6E6F"/>
<path d="M86.0315 109.62C83.0847 109.62 80.1223 108.757 77.2228 107.91C76.4192 107.675 75.5682 107.424 74.7646 107.22C74.2446 107.079 73.693 106.938 73.173 106.813C71.9439 106.499 70.6833 106.185 69.4857 105.778C63.3086 103.692 58.8964 106.969 58.8491 107.001L58.7861 106.922C58.8334 106.891 63.2771 103.582 69.5172 105.684C70.7148 106.091 71.9754 106.405 73.2045 106.703C73.7246 106.828 74.2761 106.969 74.7961 107.111C75.5997 107.33 76.4507 107.565 77.2543 107.8C81.635 109.086 86.1733 110.404 90.5382 108.71C91.6728 108.271 92.7601 107.377 93.4061 106.374C94.2413 105.072 95.3601 102.971 95.7856 101.653C95.7856 101.653 96.0062 100.822 96.5577 99.8972C97.062 99.0347 97.9444 97.9213 99.3153 97.4352C101.08 96.808 103.208 97.3725 105.618 99.1131L105.555 99.1915C103.16 97.4666 101.064 96.902 99.3311 97.5293C97.9917 97.9997 97.125 99.0974 96.6207 99.9442C96.085 100.854 95.8644 101.669 95.8644 101.685C95.4231 103.018 94.3043 105.135 93.4692 106.436C92.8231 107.456 91.7043 108.365 90.554 108.804C89.0727 109.384 87.5442 109.62 86.0315 109.62Z" fill="#7F8081"/>
<path d="M105.855 115.83L57.557 115.751L57.5885 96.2908H57.4625L57.4309 115.892L105.855 115.971V115.83Z" fill="#7F8081"/>
<path d="M56.834 113.779L56.8338 113.904L57.4957 113.906L57.4959 113.78L56.834 113.779Z" fill="#7F8081"/>
<path d="M67.2744 115.835L67.2729 116.494L67.3989 116.494L67.4004 115.835L67.2744 115.835Z" fill="#7F8081"/>
<path d="M56.8346 111.684L56.8344 111.81L57.4962 111.811L57.4964 111.685L56.8346 111.684Z" fill="#7F8081"/>
<path d="M56.8508 109.589L56.8506 109.715L57.5125 109.716L57.5127 109.59L56.8508 109.589Z" fill="#7F8081"/>
<path d="M56.8513 107.479L56.8511 107.605L57.513 107.606L57.5132 107.48L56.8513 107.479Z" fill="#7F8081"/>
<path d="M56.8519 105.384L56.8517 105.51L57.5135 105.511L57.5137 105.385L56.8519 105.384Z" fill="#7F8081"/>
<path d="M56.8525 103.29L56.8522 103.415L57.5141 103.417L57.5143 103.291L56.8525 103.29Z" fill="#7F8081"/>
<path d="M56.853 101.195L56.8528 101.321L57.5146 101.322L57.5148 101.196L56.853 101.195Z" fill="#7F8081"/>
<path d="M56.8692 99.0848L56.869 99.2104L57.5308 99.2116L57.5311 99.086L56.8692 99.0848Z" fill="#7F8081"/>
<path d="M56.8698 96.99L56.8696 97.1157L57.5314 97.1168L57.5316 96.9911L56.8698 96.99Z" fill="#7F8081"/>
<path d="M76.8117 115.855L76.8102 116.514L76.9363 116.514L76.9378 115.856L76.8117 115.855Z" fill="#7F8081"/>
<path d="M86.349 115.86L86.3476 116.518L86.4736 116.519L86.475 115.86L86.349 115.86Z" fill="#7F8081"/>
<path d="M95.8862 115.88L95.8848 116.539L96.0109 116.539L96.0123 115.88L95.8862 115.88Z" fill="#7F8081"/>
<path d="M105.508 106.876C102.908 106.781 100.497 106.044 98.5432 104.727C97.7868 104.225 97.1407 103.504 96.4474 102.736C95.2025 101.356 93.9261 99.9444 92.0509 99.9288C90.9006 99.9131 89.5139 100.462 88.4424 101.34C86.772 102.704 85.2435 103.912 83.2738 104.696C79.6968 106.107 75.9464 106.06 72.716 104.57C71.8966 104.194 71.0615 103.63 70.0687 102.83C68.8081 101.779 67.5947 100.556 66.1765 98.8467L66.1135 98.7683C65.2153 97.6863 63.9704 96.1809 62.2686 96.8709C60.9607 97.3884 59.2431 101.434 58.8649 102.532L58.7703 102.5C59.1485 101.387 60.8819 97.31 62.2213 96.7925C64.0019 96.0869 65.2626 97.6079 66.1765 98.7213L66.2396 98.7997C67.6578 100.509 68.8396 101.716 70.116 102.767C71.093 103.567 71.9281 104.116 72.7318 104.492C75.9306 105.982 79.6495 106.029 83.2108 104.617C85.1647 103.849 86.6933 102.642 88.3478 101.277C89.1988 100.572 90.617 99.819 92.0194 99.8347C93.9419 99.8503 95.234 101.277 96.4946 102.673C97.188 103.426 97.8341 104.147 98.5747 104.649C100.513 105.95 102.908 106.687 105.492 106.781L105.508 106.876Z" fill="#7F8081"/>
<path d="M63.4504 96.6358C63.4504 96.777 63.3243 96.9024 63.1825 96.9024C63.0407 96.9024 62.9146 96.777 62.9146 96.6358C62.9146 96.4947 63.0407 96.3693 63.1825 96.3693C63.3243 96.3849 63.4504 96.4947 63.4504 96.6358Z" fill="#6D6E6F"/>
<path d="M77.1597 107.706C77.1597 107.848 77.0336 107.973 76.8918 107.973C76.75 107.973 76.6239 107.848 76.6239 107.706C76.6239 107.565 76.75 107.44 76.8918 107.44C77.0336 107.44 77.1597 107.565 77.1597 107.706Z" fill="#6D6E6F"/>
<path d="M86.6932 109.557C86.6932 109.698 86.5671 109.823 86.4253 109.823C86.2835 109.823 86.1574 109.698 86.1574 109.557C86.1574 109.415 86.2835 109.29 86.4253 109.29C86.5829 109.29 86.6932 109.415 86.6932 109.557Z" fill="#6D6E6F"/>
<path d="M96.1164 101.748C96.1164 101.889 95.9904 102.014 95.8486 102.014C95.7067 102.014 95.5807 101.889 95.5807 101.748C95.5807 101.606 95.7067 101.481 95.8486 101.481C95.9904 101.497 96.1164 101.606 96.1164 101.748Z" fill="#6D6E6F"/>
<path d="M100.497 97.2627C100.497 97.4038 100.371 97.5293 100.229 97.5293C100.087 97.5293 99.9613 97.4038 99.9613 97.2627C99.9613 97.1215 100.087 96.9961 100.229 96.9961C100.371 96.9961 100.497 97.1059 100.497 97.2627Z" fill="#6D6E6F"/>
<path d="M58.8176 107.785C58.8176 107.785 63.214 104.429 69.5014 106.546C71.219 107.126 73.0312 107.518 74.7803 107.989C80.0276 109.384 85.2277 111.517 90.6327 109.478C92.5394 108.757 93.863 107.252 94.7928 105.495C96.274 102.673 96.6995 98.6427 100.418 97.8273C102.404 97.3882 104.247 98.6741 105.603 99.9913L105.571 114.841L58.8176 114.763V107.785Z" fill="url(#paint1_linear)"/>
<path d="M58.8176 107.785C58.8176 107.785 63.214 104.429 69.5014 106.546C71.219 107.126 73.0312 107.518 74.7803 107.989C80.0276 109.384 85.2277 111.517 90.6327 109.478C92.5394 108.757 93.863 107.252 94.7928 105.495C96.274 102.673 96.6995 98.6427 100.418 97.8273C102.404 97.3882 104.247 98.6741 105.603 99.9913L105.571 115.233L58.8176 115.155V107.785Z" fill="url(#paint2_linear)"/>
<path d="M61.2601 118.229H57.62V116.802L61.2601 116.817V118.229Z" fill="#A7A7A7"/>
<path d="M69.156 116.836L65.516 116.83L65.5136 118.241L69.1536 118.248L69.156 116.836Z" fill="#A7A7A7"/>
<path d="M78.7053 116.852L75.0652 116.846L75.0628 118.257L78.7029 118.263L78.7053 116.852Z" fill="#A7A7A7"/>
<path d="M88.1443 116.867L84.5042 116.861L84.5018 118.272L88.1419 118.278L88.1443 116.867Z" fill="#A7A7A7"/>
<path d="M97.6463 116.883L94.0062 116.877L94.0038 118.288L97.6439 118.294L97.6463 116.883Z" fill="#A7A7A7"/>
<path d="M105.54 118.307H102.215V116.88L105.54 116.896V118.307Z" fill="#A7A7A7"/>
<path d="M67.3426 105.589C67.5863 105.589 67.7838 105.393 67.7838 105.15C67.7838 104.908 67.5863 104.711 67.3426 104.711C67.0989 104.711 66.9014 104.908 66.9014 105.15C66.9014 105.393 67.0989 105.589 67.3426 105.589Z" fill="white"/>
<path d="M67.6578 105.15C67.6578 105.323 67.516 105.464 67.3427 105.464C67.1693 105.464 67.0275 105.323 67.0275 105.15C67.0275 104.978 67.1693 104.837 67.3427 104.837C67.516 104.837 67.6578 104.978 67.6578 105.15Z" fill="#6D6E6F"/>
<path d="M76.8918 108.145C77.1355 108.145 77.3331 107.949 77.3331 107.706C77.3331 107.464 77.1355 107.267 76.8918 107.267C76.6482 107.267 76.4506 107.464 76.4506 107.706C76.4506 107.949 76.6482 108.145 76.8918 108.145Z" fill="white"/>
<path d="M77.2071 107.706C77.2071 107.879 77.0652 108.02 76.8919 108.02C76.7186 108.02 76.5768 107.879 76.5768 107.706C76.5768 107.534 76.7186 107.392 76.8919 107.392C77.0652 107.392 77.2071 107.534 77.2071 107.706Z" fill="#6D6E6F"/>
<path d="M86.4253 109.996C86.669 109.996 86.8665 109.799 86.8665 109.557C86.8665 109.314 86.669 109.118 86.4253 109.118C86.1817 109.118 85.9841 109.314 85.9841 109.557C85.9841 109.799 86.1817 109.996 86.4253 109.996Z" fill="white"/>
<path d="M86.4254 109.87C86.5994 109.87 86.7405 109.73 86.7405 109.557C86.7405 109.384 86.5994 109.243 86.4254 109.243C86.2513 109.243 86.1102 109.384 86.1102 109.557C86.1102 109.73 86.2513 109.87 86.4254 109.87Z" fill="#6D6E6F"/>
<path d="M95.8486 102.186C96.0923 102.186 96.2899 101.99 96.2899 101.747C96.2899 101.505 96.0923 101.308 95.8486 101.308C95.6049 101.308 95.4074 101.505 95.4074 101.747C95.4074 101.99 95.6049 102.186 95.8486 102.186Z" fill="white"/>
<path d="M96.1638 101.747C96.1638 101.92 96.022 102.061 95.8487 102.061C95.6753 102.061 95.5335 101.92 95.5335 101.747C95.5335 101.575 95.6753 101.434 95.8487 101.434C96.022 101.434 96.1638 101.575 96.1638 101.747Z" fill="#6D6E6F"/>
<path d="M100.229 97.7016C100.473 97.7016 100.67 97.505 100.67 97.2625C100.67 97.02 100.473 96.8234 100.229 96.8234C99.9855 96.8234 99.788 97.02 99.788 97.2625C99.788 97.505 99.9855 97.7016 100.229 97.7016Z" fill="white"/>
<path d="M100.544 97.2623C100.544 97.4348 100.403 97.576 100.229 97.576C100.056 97.576 99.9141 97.4348 99.9141 97.2623C99.9141 97.0899 100.056 96.9487 100.229 96.9487C100.403 96.9487 100.544 97.0899 100.544 97.2623Z" fill="#6D6E6F"/>
<path d="M63.1352 96.9491C63.3789 96.9491 63.5764 96.7525 63.5764 96.51C63.5764 96.2675 63.3789 96.0709 63.1352 96.0709C62.8915 96.0709 62.694 96.2675 62.694 96.51C62.694 96.7525 62.8915 96.9491 63.1352 96.9491Z" fill="white"/>
<path d="M63.4504 96.5099C63.4504 96.6824 63.3085 96.8235 63.1352 96.8235C62.9619 96.8235 62.82 96.6824 62.82 96.5099C62.82 96.3374 62.9619 96.1962 63.1352 96.1962C63.3085 96.1962 63.4504 96.3374 63.4504 96.5099Z" fill="#6D6E6F"/>
<g opacity="0.21">
<path opacity="0.21" d="M115.672 92.7621H49.095V101.873H115.672V92.7621Z" fill="#575759"/>
</g>
<path d="M144.871 85.6271H23V98.4544H144.871V85.6271Z" fill="#C4C4C4"/>
<path d="M144.871 31.3233H23V98.4546H144.871V31.3233Z" fill="#F2F2F2"/>
<path d="M23 40.7163V96.7453H144.871V44.4014C144.871 44.3387 144.824 40.732 144.777 40.732H23V40.7163Z" fill="#F3F3F3"/>
<path d="M23 50.1249V95.0515H144.871V52.9945C144.871 52.8848 144.777 50.1092 144.666 50.1092H23V50.1249Z" fill="#F4F4F4"/>
<path d="M23 59.5179V93.3423H144.871V61.6035C144.871 61.4311 144.729 59.5179 144.572 59.5179H23Z" fill="#F4F4F4"/>
<path d="M23 68.9271V91.6492H144.871V70.213C144.871 69.9934 144.682 68.9114 144.462 68.9114H23V68.9271Z" fill="#F5F5F5"/>
<path d="M144.367 78.3201H23V89.9242H144.871V78.8219C144.871 78.5396 144.635 78.3201 144.367 78.3201Z" fill="#F6F6F6"/>
<path d="M144.367 78.6807H23V90.0966H144.871V79.1668C144.871 78.9002 144.635 78.6807 144.367 78.6807Z" fill="#F5F5F5"/>
<path d="M144.367 79.041H23V90.2688H144.871V79.5271C144.871 79.2606 144.651 79.041 144.367 79.041Z" fill="#F4F4F4"/>
<path d="M144.383 79.402H23V90.4415H144.871V79.8881C144.871 79.6215 144.651 79.402 144.383 79.402Z" fill="#F3F3F3"/>
<path d="M144.383 79.7782H23V90.6296H144.871V80.2486C144.871 79.9821 144.651 79.7782 144.383 79.7782Z" fill="#F2F2F2"/>
<path d="M144.383 80.1387H23V90.8019H144.871V80.6092C144.871 80.3426 144.651 80.1387 144.383 80.1387Z" fill="#F1F1F1"/>
<path d="M144.399 80.4998H23V90.9748H144.871V80.9702C144.871 80.7036 144.651 80.4998 144.399 80.4998Z" fill="#F0F0F0"/>
<path d="M144.399 80.8602H23V91.147H144.871V81.3149C144.871 81.064 144.651 80.8602 144.399 80.8602Z" fill="#EFEFEF"/>
<path d="M144.399 81.2211H23V91.3198H144.871V81.6759C144.871 81.425 144.666 81.2211 144.399 81.2211Z" fill="#EEEEEE"/>
<path d="M144.414 81.5815H23V91.4921H144.871V82.0363C144.871 81.7854 144.666 81.5815 144.414 81.5815Z" fill="#EDEDED"/>
<path d="M144.414 81.9421H23V91.6645H144.871V82.3812C144.871 82.146 144.666 81.9421 144.414 81.9421Z" fill="#ECECEC"/>
<path d="M144.414 82.303H23V91.8372H144.871V82.7421C144.871 82.5069 144.666 82.303 144.414 82.303Z" fill="#EBEBEB"/>
<path d="M144.43 82.6793H23V92.0253H144.871V83.1184C144.871 82.8675 144.666 82.6793 144.43 82.6793Z" fill="#EAEAEA"/>
<path d="M144.43 83.0397H23V92.1976H144.871V83.4631C144.871 83.2279 144.666 83.0397 144.43 83.0397Z" fill="#E9E9E9"/>
<path d="M144.446 83.4008H23V92.3704H144.871V83.8242C144.871 83.5889 144.682 83.4008 144.446 83.4008Z" fill="#E8E8E8"/>
<path d="M144.446 83.7612H23V92.5426H144.871V84.1846C144.871 83.9493 144.682 83.7612 144.446 83.7612Z" fill="#E7E7E7"/>
<path d="M144.446 84.1221H23V92.7154H144.871V84.5298C144.871 84.3103 144.682 84.1221 144.446 84.1221Z" fill="#E6E6E6"/>
<path d="M144.462 84.4826H23V92.8877H144.871V84.8903C144.871 84.6708 144.682 84.4826 144.462 84.4826Z" fill="#E5E5E5"/>
<path d="M144.462 84.8431H23V93.0601H144.871V85.2508C144.871 85.0313 144.682 84.8431 144.462 84.8431Z" fill="#E4E4E4"/>
<path d="M144.462 85.2198H23V93.2486H144.871V85.6276C144.871 85.3923 144.682 85.2198 144.462 85.2198Z" fill="#E3E3E3"/>
<path d="M144.477 85.5803H23V93.4209H144.871V85.9724C144.871 85.7528 144.698 85.5803 144.477 85.5803Z" fill="#E2E2E2"/>
<path d="M144.477 85.9407H23V93.5932H144.871V86.3328C144.871 86.1132 144.698 85.9407 144.477 85.9407Z" fill="#E1E1E1"/>
<path d="M144.477 86.3017H23V93.7659H144.871V86.6937C144.871 86.4742 144.698 86.3017 144.477 86.3017Z" fill="#E0E0E0"/>
<path d="M144.493 86.6622H23V93.9383H144.871V87.0386C144.871 86.8347 144.698 86.6622 144.493 86.6622Z" fill="#DFDFDF"/>
<path d="M144.493 87.0232H23V94.1111H144.871V87.3995C144.871 87.1957 144.698 87.0232 144.493 87.0232Z" fill="#DEDEDE"/>
<path d="M144.509 87.3836H23V94.2833H144.871V87.76C144.871 87.5561 144.698 87.3836 144.509 87.3836Z" fill="#DEDEDE"/>
<path d="M144.509 87.7441H23V94.4557H144.871V88.1048C144.871 87.9166 144.698 87.7441 144.509 87.7441Z" fill="#DDDDDD"/>
<path d="M144.509 88.1208H23V94.6442H144.871V88.4815C144.871 88.2777 144.714 88.1208 144.509 88.1208Z" fill="#DCDCDC"/>
<path d="M144.525 88.4813H23V94.8009H144.871V88.8263C144.871 88.6381 144.714 88.4813 144.525 88.4813Z" fill="#DBDBDB"/>
<path d="M144.525 88.8419H23V94.9732H144.871V89.1712C144.871 88.9987 144.714 88.8419 144.525 88.8419Z" fill="#DADADA"/>
<path d="M144.525 89.2027H23V95.1459H144.871V89.532C144.871 89.3595 144.714 89.2027 144.525 89.2027Z" fill="#D9D9D9"/>
<path d="M144.54 89.5633H23V95.3183H144.871V89.8926C144.871 89.7044 144.714 89.5633 144.54 89.5633Z" fill="#D8D8D8"/>
<path d="M144.54 89.9241H23V95.5066H144.871V90.2534C144.871 90.0653 144.714 89.9241 144.54 89.9241Z" fill="#D7D7D7"/>
<path d="M144.54 90.2847H23V95.6633H144.871V90.5983C144.871 90.4258 144.729 90.2847 144.54 90.2847Z" fill="#D6D6D6"/>
<path d="M144.556 90.6451H23V95.8356H144.871V90.9588C144.871 90.7863 144.729 90.6451 144.556 90.6451Z" fill="#D5D5D5"/>
<path d="M144.556 91.0219H23V96.0242H144.871V91.3199C144.871 91.1474 144.729 91.0219 144.556 91.0219Z" fill="#D4D4D4"/>
<path d="M144.572 91.3824H23V96.1965H144.871V91.6803C144.871 91.5078 144.729 91.3824 144.572 91.3824Z" fill="#D3D3D3"/>
<path d="M144.572 91.7429H23V96.3688H144.871V92.0408C144.871 91.8683 144.729 91.7429 144.572 91.7429Z" fill="#D2D2D2"/>
<path d="M144.572 92.1038H23V96.5416H144.871V92.3861C144.871 92.2293 144.729 92.1038 144.572 92.1038Z" fill="#D1D1D1"/>
<path d="M144.588 92.4643H23V96.7139H144.871V92.7466C144.871 92.5897 144.745 92.4643 144.588 92.4643Z" fill="#D0D0D0"/>
<path d="M144.588 92.8252H23V96.8866H144.871V93.1075C144.871 92.9506 144.745 92.8252 144.588 92.8252Z" fill="#CFCFCF"/>
<path d="M144.588 93.1857H23V97.059H144.871V93.4523C144.871 93.3112 144.745 93.1857 144.588 93.1857Z" fill="#CECECE"/>
<path d="M144.603 93.562H23V97.2314H144.871V93.8129C144.871 93.6717 144.745 93.562 144.603 93.562Z" fill="#CDCDCD"/>
<path d="M144.603 93.9229H23V97.4198H144.871V94.1895C144.871 94.0327 144.745 93.9229 144.603 93.9229Z" fill="#CCCCCC"/>
<path d="M144.603 94.2834H23V97.5921H144.871V94.5343C144.871 94.3932 144.745 94.2834 144.603 94.2834Z" fill="#CBCBCB"/>
<path d="M144.619 94.6438H23V97.7644H144.871V94.8947C144.871 94.7536 144.761 94.6438 144.619 94.6438Z" fill="#CACACA"/>
<path d="M144.619 95.0048H23V97.9372H144.871V95.2557C144.871 95.1146 144.761 95.0048 144.619 95.0048Z" fill="#C9C9C9"/>
<path d="M144.619 95.3652H23V98.1094H144.871V95.6005C144.871 95.475 144.761 95.3652 144.619 95.3652Z" fill="#C8C8C8"/>
<path d="M144.635 95.7263H23V98.2823H144.871V95.9615C144.871 95.836 144.761 95.7263 144.635 95.7263Z" fill="#C7C7C7"/>
<path d="M144.635 96.0867H23V98.4545H144.871V96.3219C144.871 96.1964 144.761 96.0867 144.635 96.0867Z" fill="#C6C6C6"/>
<path d="M136.283 38.5052H31.5723V60.255H136.283V38.5052Z" fill="#353535"/>
<path d="M136.283 68.5662H31.5723V84.7178H136.283V68.5662Z" fill="#4D4D4F"/>
<path d="M64.0177 68.5662H31.5723V84.7178H64.0177V68.5662Z" fill="#8E8E91"/>
<path d="M70.8093 68.5662H65.0892V84.7178H70.8093V68.5662Z" fill="#8E8E91"/>
<path d="M126.498 45.4519L41.2161 45.6244C40.0342 45.6244 38.8997 45.0912 38.159 44.166L23.3309 25.9288L24.7964 24L143.532 24.1411L144.54 25.772L129.523 44.0249C128.783 44.9187 127.664 45.4519 126.498 45.4519Z" fill="#38393A"/>
<path d="M24.7963 24L143.532 24.1411L144.068 25.0193L137.024 34.8984C136.646 35.3532 133.825 35.6198 133.242 35.6198L34.6135 35.7609C34.0147 35.7609 31.1625 35.4943 30.7843 35.0396L23.9927 25.0506L24.7963 24Z" fill="#38393A"/>
<path d="M144.541 25.772L143.533 24.1411L24.7972 24L23.4263 25.9131L144.541 25.772Z" fill="#38393A"/>
<g opacity="0.52">
<path opacity="0.52" d="M144.541 25.772L143.533 24.1411L24.7972 24L23.4263 25.9131L144.541 25.772Z" fill="#7A7A7D"/>
</g>
<path d="M34.1881 29.3314L134.282 29.2216L120.557 45.6242H47.078L34.1881 29.3314Z" fill="white"/>
<path d="M134.282 28.9238H34.1881V29.3323L134.282 29.2852V28.9238Z" fill="#D8D8D8"/>
<defs>
<linearGradient id="paint0_linear" x1="82.1805" y1="115.132" x2="82.2105" y2="97.3657" gradientUnits="userSpaceOnUse">
<stop stop-color="#009BE3"/>
<stop offset="0.0392844" stop-color="#079CE2"/>
<stop offset="0.3502" stop-color="#37A7DE"/>
<stop offset="0.6242" stop-color="#5AAEDB"/>
<stop offset="0.8482" stop-color="#6FB2D9"/>
<stop offset="0.9942" stop-color="#77B4D8"/>
</linearGradient>
<linearGradient id="paint1_linear" x1="58.815" y1="106.209" x2="105.576" y2="106.289" gradientUnits="userSpaceOnUse">
<stop stop-color="#EF833A"/>
<stop offset="0.1461" stop-color="#EC7E4A"/>
<stop offset="0.5083" stop-color="#E5736D"/>
<stop offset="0.8059" stop-color="#E16C82"/>
<stop offset="1" stop-color="#E06A8A"/>
</linearGradient>
<linearGradient id="paint2_linear" x1="58.8147" y1="106.407" x2="105.576" y2="106.487" gradientUnits="userSpaceOnUse">
<stop stop-color="#EF833A"/>
<stop offset="0.3473" stop-color="#EA7B53"/>
<stop offset="1" stop-color="#E06A8A"/>
</linearGradient>
</defs>
</svg>
