<svg width="50" height="41" viewBox="0 0 50 41" fill="none" xmlns="http://www.w3.org/2000/svg">
<path d="M50 0H0L0.123457 0.493827C2.22222 7.22222 3.82716 16.2963 4.50617 25.3704H4.01235C3.2716 25.3704 2.71605 25.4938 2.40741 25.8025C2.09877 26.1111 1.91358 26.5432 1.91358 27.2222C1.91358 27.9012 2.09877 28.3333 2.40741 28.642C2.77778 28.8889 3.2716 29.0123 4.01235 29.0123H45.9259C46.6667 29.0123 47.1605 28.8889 47.5309 28.5802C47.8395 28.2716 48.0247 27.8395 48.0247 27.1605C48.0247 26.4815 47.8395 26.0494 47.5309 25.7407C47.2222 25.4321 46.6667 25.3086 45.9259 25.3086H45.4321C46.1111 16.2963 47.716 7.22222 49.8148 0.432099L50 0ZM44.6914 25.3086C44.6296 26.0494 44.5679 26.7901 44.5679 27.5309H5.4321C5.37037 26.7901 5.30864 26.0494 5.30864 25.3086C4.5679 16.4198 3.02469 7.46914 0.987654 0.740741H48.9506C46.9136 7.46914 45.3704 16.4198 44.6914 25.3086ZM21.9136 10.3704H19.7531V18.1481H21.4815C21.9753 18.1481 22.284 18.2099 22.4691 18.3951C22.6543 18.5802 22.7778 18.8889 22.7778 19.2593C22.7778 19.6914 22.6543 19.9383 22.4691 20.1235C22.284 20.3086 21.9136 20.3704 21.4815 20.3704H15.3086C14.8765 20.3704 14.5062 20.3086 14.321 20.1235C14.1358 19.9383 14.0123 19.6296 14.0123 19.2593C14.0123 18.8272 14.1358 18.5802 14.321 18.3951C14.5062 18.2099 14.8148 18.1481 15.3086 18.1481H17.037V10.3704H14.8765L14.8148 12.4691V12.716C14.8148 13.0247 14.6914 13.3333 14.5679 13.5185C14.3827 13.7037 14.1358 13.8272 13.8272 13.8272C13.4568 13.8272 13.1481 13.7037 12.963 13.5185C12.7778 13.3333 12.716 13.0247 12.716 12.5926V12.5309L12.8395 9.44444C12.8395 8.82716 12.963 8.45679 13.0864 8.33333C13.2099 8.20988 13.5185 8.14815 14.0123 8.14815H22.963C23.3951 8.14815 23.7037 8.20988 23.8889 8.33333C24.0123 8.45679 24.1358 8.82716 24.1358 9.44444L24.2593 12.5309V12.5926C24.2593 13.0247 24.1975 13.3333 24.0123 13.5185C23.8272 13.7037 23.5802 13.8272 23.1481 13.8272C22.7778 13.8272 22.5309 13.7037 22.3457 13.5185C22.1605 13.3333 22.0988 12.963 22.0988 12.4691L21.9136 10.3704ZM29.9383 18.0247H33.7037V17.963C33.7037 17.5926 33.8272 17.3457 34.0123 17.1605C34.1975 16.9753 34.5062 16.9136 34.8765 16.9136C35.1852 16.9136 35.4321 16.9753 35.6173 17.1605C35.8025 17.3457 35.8642 17.5926 35.8642 17.9012V18.0247L35.8025 19.6914C35.8025 20 35.7407 20.2469 35.679 20.3086C35.5556 20.3704 35.4321 20.4321 35.1852 20.4321H27.4691C27.037 20.4321 26.7284 20.3704 26.5432 20.1852C26.2963 20 26.1728 19.7531 26.1728 19.4444C26.1728 19.1975 26.2346 18.8889 26.358 18.642C26.4815 18.3951 26.7284 18.0864 27.037 17.8395L31.4198 13.642C31.9136 13.2099 32.2222 12.716 32.4691 12.2839C32.716 11.8519 32.8395 11.358 32.8395 10.9259C32.8395 10.3086 32.716 9.81481 32.3457 9.50617C32.037 9.19753 31.5432 9.01235 30.9259 9.01235C30.5556 9.01235 30.2469 9.07407 29.9383 9.19753C29.6296 9.32099 29.4444 9.44444 29.2593 9.69136C29.1975 9.81481 29.0741 9.93827 28.9506 10.1235C28.5802 10.679 28.2099 10.9877 27.8395 10.9877C27.4691 10.9877 27.2222 10.8642 27.037 10.6173C26.8519 10.3704 26.7901 10.0617 26.7901 9.5679C26.7901 9.07407 26.8519 8.76543 26.9753 8.51852C27.0988 8.2716 27.3457 8.02469 27.6543 7.83951C28.2099 7.46914 28.7654 7.22222 29.3827 7.03704C30 6.85185 30.679 6.79012 31.358 6.79012C32.716 6.79012 33.7654 7.16049 34.5679 7.90123C35.3704 8.64198 35.7407 9.62963 35.7407 10.8025C35.7407 11.6049 35.5556 12.4074 35.1235 13.1481C34.6914 13.8889 34.0741 14.6296 33.2099 15.3704L29.9383 18.0247Z" fill="#FDD935"/>
<path d="M10.8642 34.8766V35.9877H12.037V36.7284H10.8642V38.5185C10.8642 38.9506 10.9259 39.1358 11.4197 39.1358C11.6049 39.1358 11.8518 39.0741 12.0987 39.0124L12.2222 39.7531C11.8518 39.8766 11.4197 40 11.1111 40C9.99998 40 9.75307 39.4445 9.75307 38.8272V36.7284H9.19751V36.1111L9.81479 35.9259L10.1234 34.9383L10.8642 34.8766Z" fill="#FDD935"/>
<path d="M14.321 39.1975C14.8765 39.1975 15.4321 39.1975 15.9876 39.1975V38.5802H16.8518V39.9383H12.8395V39.2592C13.8889 38.3333 15.4938 37.0987 15.4938 36.1111C15.4938 35.6173 15.1852 35.3086 14.5679 35.3086C14.321 35.3086 13.7654 35.3704 13.2098 35.7407C13.0864 35.4938 12.9629 35.3086 12.8395 35.0617C13.5185 34.5679 14.1975 34.4444 14.7531 34.4444C15.8642 34.4444 16.6049 35 16.6049 36.0494C16.6049 37.2839 15.1852 38.395 14.321 39.1975Z" fill="#FDD935"/>
<path d="M19.321 36.5432C19.6914 36.2346 20.3087 35.8642 20.8025 35.8642C20.9877 35.8642 21.0494 35.9877 21.0494 36.2346C21.0494 36.4815 20.926 36.9136 20.7408 37.1605L19.2593 37.037V39.1975H19.8149V39.9383H17.5927V39.1975H18.0865V36.7284H17.5927V35.9877H19.1976L19.321 36.5432Z" fill="#FDD935"/>
<path d="M21.7902 38.7654V36.7284H21.2346V35.9876H22.9013V38.5185C22.9013 38.9506 22.963 39.1358 23.3951 39.1358C23.5803 39.1358 24.0124 39.0123 24.2593 38.7654V36.7284H23.7655V35.9876H25.3704V39.1975H25.926V39.8765C25.5556 40 25.247 40.0617 25.0001 40.0617C24.5062 40.0617 24.321 39.8765 24.2593 39.5062C23.8272 39.9383 23.3334 40.0617 22.9013 40.0617C22.0988 40.0617 21.7902 39.5062 21.7902 38.7654Z" fill="#FDD935"/>
<path d="M27.284 38.642V39.1358C27.4691 39.1975 27.8395 39.2592 28.0864 39.2592C28.5185 39.2592 28.8272 39.1358 28.8272 38.8272C28.8272 38.5185 28.5185 38.3951 28.1482 38.2716C27.3457 38.0247 26.5432 37.8395 26.5432 37.037C26.5432 36.1728 27.2222 35.8025 28.2716 35.8025C28.7654 35.8025 29.321 35.9259 29.6914 36.1111C29.6914 36.4197 29.6914 36.7901 29.6914 37.0988H28.8889V36.6667C28.7037 36.6049 28.5185 36.5432 28.3333 36.5432C27.963 36.5432 27.7161 36.6667 27.7161 36.9753C27.7161 37.2222 28.0864 37.3457 28.3951 37.4074C29.0741 37.5926 30.0617 37.7778 30.0617 38.7654C30.0617 39.5679 29.3827 39.9383 28.2099 39.9383C27.7161 39.9383 27.0988 39.8765 26.5432 39.6296C26.5432 39.321 26.5432 38.9506 26.5432 38.5802H27.284V38.642Z" fill="#FDD935"/>
<path d="M31.358 40.0617C30.9876 40.0617 30.7407 39.7531 30.7407 39.4444C30.7407 39.0741 31.0494 38.8271 31.358 38.8271C31.7284 38.8271 31.9753 39.0741 31.9753 39.4444C31.9753 39.7531 31.7284 40.0617 31.358 40.0617Z" fill="#FDD935"/>
<path d="M34.3827 36.5432C34.7531 36.2346 35.3704 35.8642 35.8642 35.8642C36.0494 35.8642 36.1111 35.9877 36.1111 36.2346C36.1111 36.4815 35.9877 36.9136 35.8025 37.1605L34.3827 37.037V39.1975H34.9383V39.9383H32.7161V39.1975H33.2099V36.7284H32.7161V35.9877H34.321L34.3827 36.5432Z" fill="#FDD935"/>
<path d="M36.9136 38.7654V36.7284H36.358V35.9876H38.0247V38.5185C38.0247 38.9506 38.0864 39.1358 38.5185 39.1358C38.7037 39.1358 39.0741 39.0123 39.3827 38.7654V36.7284H38.8889V35.9876H40.4938V39.1975H41.0494V39.8765C40.679 40 40.3704 40.0617 40.1235 40.0617C39.6296 40.0617 39.4445 39.8765 39.3827 39.5062C38.9506 39.9383 38.4568 40.0617 38.0247 40.0617C37.2222 40.0617 36.9136 39.5062 36.9136 38.7654Z" fill="#FDD935"/>
</svg>
