<?xml version="1.0" encoding="UTF-8"?>
<svg width="526px" height="293px" viewBox="0 0 526 293" version="1.1" xmlns="http://www.w3.org/2000/svg" xmlns:xlink="http://www.w3.org/1999/xlink">
    <!-- Generator: Sketch 64 (93537) - https://sketch.com -->
    <title>Untitled</title>
    <desc>Created with Sketch.</desc>
    <defs>
        <linearGradient x1="50%" y1="0%" x2="50%" y2="100%" id="linearGradient-1">
            <stop stop-color="#E9E9EA" stop-opacity="0" offset="0%"></stop>
            <stop stop-color="#292930" stop-opacity="0.35" offset="100%"></stop>
        </linearGradient>
        <linearGradient x1="102%" y1="74.99995%" x2="58%" y2="40.999882%" id="linearGradient-2">
            <stop stop-color="#F8F8F8" offset="0%"></stop>
            <stop stop-color="#EFEFF0" offset="100%"></stop>
        </linearGradient>
    </defs>
    <g id="Page-1" stroke="none" stroke-width="1" fill="none" fill-rule="evenodd">
        <g id="email_test-2" fill-rule="nonzero">
            <g id="email_test">
                <path d="M525.779883,292.97632 C525.779883,292.97632 521.033812,292.97632 513.773492,292.97632 C483.757514,292.97632 395.646469,258.481126 342.18215,258.481126 L188.600396,209.487951 C129.305655,209.487951 70.8341186,292.97632 14.0074564,292.97632 C12.5066575,292.97632 11.3727452,292.954792 10.005326,292.97632 C6.62117511,293.0296 4.00213041,292.97632 0,292.97632 L0.937999315,198.021056 C1.01195869,156.576074 53.2297352,123 117.651628,123 L409.360911,123 C473.856243,123 526,156.576074 526,198.021056 C525.853249,259.316791 525.779876,289.968685 525.779883,289.976738 C525.779889,289.984791 525.779889,290.984652 525.779883,292.97632 Z" id="Path" fill="#40404C"></path>
                <rect id="Rectangle" fill="#F8F8F8" x="14" y="1.0001" width="500" height="292"></rect>
                <rect id="Rectangle" fill="url(#linearGradient-1)" x="14" y="273" width="500" height="20"></rect>
                <polygon id="Path" fill="#FFFFFF" points="13.7882 51 64 0.7882 13.7882 0.7882"></polygon>
                <path d="M64,1.0001 L14,51 C14,51 21.5,43.5 38.5,40.5 C55.5,37.5 64,37.5 64,37.5 L64,1.0001 Z" id="Path" fill="url(#linearGradient-2)"></path>
            </g>
        </g>
    </g>
</svg>