<?xml version="1.0" encoding="UTF-8"?>
<svg width="30px" height="30px" viewBox="0 0 30 30" version="1.1" xmlns="http://www.w3.org/2000/svg" xmlns:xlink="http://www.w3.org/1999/xlink">
    <!-- Generator: Sketch 64 (93537) - https://sketch.com -->
    <title>Untitled</title>
    <desc>Created with Sketch.</desc>
    <g id="Page-1" stroke="none" stroke-width="1" fill="none" fill-rule="evenodd">
        <g id="Group" fill-rule="nonzero">
            <g id="round" fill="#FDD935">
                <circle id="Oval" cx="15" cy="15" r="15"></circle>
            </g>
            <g id="location" transform="translate(10.000000, 8.000000)" fill="#40404C">
                <path d="M5.50003,0 C2.69301,0 0.409302,2.28368 0.409302,5.0907 C0.409302,6.2187 1.0734,7.93418 2.49928,10.4894 C3.47227,12.2329 4.44078,13.7055 4.48163,13.7676 L5.18165,14.8286 C5.25223,14.9356 5.37181,15 5.50003,15 C5.62825,15 5.74783,14.9356 5.81841,14.8286 L6.51839,13.7676 C6.55886,13.7063 7.52031,12.2464 8.50078,10.4894 C9.92665,7.9343 10.5908,6.21882 10.5908,5.0907 C10.5908,2.28368 8.30705,0 5.50003,0 Z M7.83466,10.1176 C6.86784,11.85 5.92158,13.2871 5.8817,13.3474 L5.50003,13.9259 L5.11849,13.3476 C5.07839,13.2867 4.12487,11.8368 3.16539,10.1176 C1.84278,7.74744 1.17214,6.05612 1.17214,5.0907 C1.17214,2.70431 3.11361,0.762843 5.50003,0.762843 C7.88645,0.762843 9.82791,2.70431 9.82791,5.0907 C9.82791,6.05624 9.15728,7.7475 7.83466,10.1176 Z" id="Shape"></path>
                <path d="M5.50002,2.23639 C3.94366,2.23639 2.67749,3.50258 2.67749,5.0589 C2.67749,6.61522 3.94366,7.88141 5.50002,7.88141 C7.05638,7.88141 8.32255,6.61522 8.32255,5.0589 C8.32255,3.50258 7.05638,2.23639 5.50002,2.23639 Z M5.50002,7.11857 C4.36429,7.11857 3.44034,6.19462 3.44034,5.0589 C3.44034,3.92318 4.36429,2.99923 5.50002,2.99923 C6.63577,2.99923 7.5597,3.92318 7.5597,5.0589 C7.5597,6.19462 6.63577,7.11857 5.50002,7.11857 Z" id="Shape"></path>
            </g>
        </g>
    </g>
</svg>