<svg width="25" height="25" viewBox="0 0 25 25" fill="none" xmlns="http://www.w3.org/2000/svg">
<circle cx="12.5" cy="12.5" r="12.5" fill="#FDD935"/>
<path d="M9.06038 5H15.9396C18.1786 5 20 6.82144 20 9.06036V15.9397C20 18.1785 18.1786 20 15.9396 20H9.06027C6.82147 20 5.00003 18.1785 5.00003 15.9397V9.06036C5.00003 6.82144 6.82147 5 9.06038 5V5ZM5.87939 15.9397C5.87939 17.6936 7.30635 19.1206 9.06038 19.1206H15.9396C17.6937 19.1206 19.1206 17.6936 19.1206 15.9397V9.06036C19.1206 7.30632 17.6937 5.87936 15.9396 5.87936H9.06027C7.30635 5.87936 5.87939 7.30632 5.87939 9.06036V15.9397Z" fill="#40404C"/>
<path d="M12.5 8.39874C14.7616 8.39874 16.6014 10.2386 16.6014 12.5002C16.6014 14.7618 14.7616 16.6016 12.5 16.6016C10.2384 16.6016 8.39856 14.7618 8.39856 12.5002C8.39856 10.2386 10.2384 8.39874 12.5 8.39874ZM12.5 15.7223C14.2766 15.7223 15.7221 14.2769 15.7221 12.5002C15.7221 10.7236 14.2766 9.27811 12.5 9.27811C10.7233 9.27811 9.27792 10.7236 9.27792 12.5002C9.27792 14.2769 10.7233 15.7223 12.5 15.7223Z" fill="#40404C"/>
<path d="M8.3004 6.9422C8.96874 6.9422 9.51233 7.48591 9.51233 8.15413C9.51233 8.82246 8.96874 9.36617 8.3004 9.36617C7.63207 9.36617 7.08836 8.82246 7.08836 8.15413C7.08836 7.48579 7.63207 6.9422 8.3004 6.9422ZM8.3004 8.48669C8.48374 8.48669 8.63297 8.33746 8.63297 8.15413C8.63297 7.97068 8.48374 7.82156 8.3004 7.82156C8.11695 7.82156 7.96772 7.97068 7.96772 8.15413C7.96772 8.33746 8.11695 8.48669 8.3004 8.48669Z" fill="#40404C"/>
</svg>
