<svg width="25" height="25" viewBox="0 0 25 25" fill="none" xmlns="http://www.w3.org/2000/svg">
<circle cx="12.5" cy="12.5" r="12.5" fill="#FDD935"/>
<path d="M10.7067 10.8936H11.2067V10.3936V8.69152C11.2067 7.67615 11.5246 6.88679 12.044 6.35376C12.5622 5.8221 13.3249 5.50008 14.3038 5.5C14.304 5.5 14.3041 5.5 14.3042 5.5L16.0548 5.50281V7.40479L14.9387 7.40518C14.9387 7.40518 14.9386 7.40518 14.9385 7.40518C14.4477 7.40521 13.992 7.4958 13.6908 7.83698C13.4027 8.1633 13.3701 8.59862 13.3701 8.95072V10.3936V10.8936H13.8701H15.9635L15.9628 12.9715H13.8701H13.3701V13.4715V19.5H11.2067V13.4715V12.9715H10.7067H8.94507V10.8936H10.7067ZM16.2491 7.40472H16.2489H16.2491Z" stroke="#40404C"/>
</svg>
