<svg width="14" height="20" viewBox="0 0 14 20" fill="none" xmlns="http://www.w3.org/2000/svg">
<path d="M6.95224 9.85312C6.19266 9.85312 5.43292 9.56396 4.85477 8.98566C3.69815 7.82919 3.69815 5.94733 4.85477 4.79071C5.41492 4.23041 6.15985 3.92188 6.95224 3.92188C7.74463 3.92188 8.48941 4.23056 9.04971 4.79071C10.2063 5.94733 10.2063 7.82919 9.04971 8.98566C8.47141 9.56396 7.71182 9.85312 6.95224 9.85312ZM6.95224 5.09604C6.4931 5.09604 6.03397 5.27075 5.68439 5.62033C4.98523 6.31949 4.98523 7.45703 5.68439 8.15619C6.02298 8.49478 6.47327 8.68124 6.95224 8.68124C7.43121 8.68124 7.8815 8.49478 8.22009 8.15619C8.91925 7.45703 8.91925 6.31949 8.22009 5.62033C7.87051 5.27075 7.41138 5.09604 6.95224 5.09604Z" fill="#292930"/>
<path d="M6.95877 20L6.50513 19.4672C6.23962 19.1551 0 11.7699 0 6.9519C0 3.11859 3.11859 0 6.9519 0C10.7852 0 13.9038 3.11859 13.9038 6.9519C13.9038 11.5329 7.66968 19.1388 7.40433 19.4603L6.95877 20ZM6.9519 1.17325C3.76556 1.17325 1.17325 3.76556 1.17325 6.9519C1.17325 8.74268 2.24106 11.3342 4.26132 14.4466C5.30975 16.0617 6.36551 17.4295 6.9455 18.1534C7.5264 17.4097 8.59222 15.9969 9.64722 14.351C11.6644 11.2045 12.7306 8.64578 12.7306 6.9519C12.7306 3.76556 10.1382 1.17325 6.9519 1.17325Z" fill="#292930"/>
</svg>
