<svg width="24" height="18" viewBox="0 0 24 18" fill="none" xmlns="http://www.w3.org/2000/svg">
<path d="M8.80839 17.8086C10.4793 17.8086 12.1056 17.3384 13.5115 16.4489C14.8786 15.5838 15.9813 14.362 16.7002 12.9155L15.3284 12.2336C14.0889 14.7275 11.5906 16.2767 8.80839 16.2767C4.79605 16.2767 1.5318 13.0124 1.5318 9.00008C1.5318 4.98774 4.79605 1.72348 8.80839 1.72349C11.5906 1.72349 14.0889 3.27266 15.3284 5.76652L16.7002 5.08471C15.9813 3.63812 14.8786 2.41632 13.5115 1.5513C12.1056 0.661766 10.4794 0.19157 8.80839 0.19157C3.95136 0.191569 -0.000113246 4.14304 -0.000113671 9.00008C-0.000114095 13.8571 3.95135 17.8086 8.80839 17.8086Z" fill="#292930"/>
<path d="M12.4139 6.47781L11.3308 5.39465L7.72529 9.00006L11.3308 12.6055L12.4139 11.5223L10.6577 9.76601L24 9.76601L24 8.2341L10.6577 8.2341L12.4139 6.47781Z" fill="#292930"/>
</svg>
