<svg width="7" height="10" viewBox="0 0 7 10" fill="none" xmlns="http://www.w3.org/2000/svg">
<path d="M2.0625 7.72656H1.04687V8.84548H0.158203V9.8611H2.95117V8.84548H2.0625V7.72656Z" fill="#40404C"/>
<path d="M4.06098 0H0V1.21875H1.0466V4.65928H0V5.87803H1.0466V6.1035H2.06223V5.87803H4.06098C5.68162 5.87803 7 4.55965 7 2.93902C7 1.31838 5.68162 0 4.06098 0ZM4.06098 4.65938H2.06223V1.21875H4.06098C5.00958 1.21875 5.78125 1.99052 5.78125 2.93902C5.78125 3.88751 5.00947 4.65938 4.06098 4.65938Z" fill="#40404C"/>
<path d="M5.48326 6.3125H0V7.53126H5.48326V6.3125Z" fill="#40404C"/>
</svg>
