<svg width="24" height="15" viewBox="0 0 24 15" fill="none" xmlns="http://www.w3.org/2000/svg">
<g clip-path="url(#clip0)">
<path d="M0 6.75152L2.70937 2.42313H8.35781V0H24V1.42537H9.76406V11.4505H16.3875C16.6969 10.3102 17.7281 9.46923 18.9516 9.46923C20.175 9.46923 21.2062 10.3102 21.5156 11.4505H23.2969V12.8759H21.5156C21.2062 14.0162 20.175 14.8571 18.9516 14.8571C17.7281 14.8571 16.6969 14.0162 16.3875 12.8759H7.6125C7.30313 14.0162 6.27188 14.8571 5.04844 14.8571C3.825 14.8571 2.79375 14.0162 2.48438 12.8759H0V6.75152ZM18.9516 13.4318C19.6406 13.4318 20.2031 12.8616 20.2031 12.1632C20.2031 11.4648 19.6406 10.8946 18.9516 10.8946C18.2625 10.8946 17.7 11.4648 17.7 12.1632C17.7 12.8616 18.2578 13.4318 18.9516 13.4318ZM5.04844 13.4318C5.7375 13.4318 6.3 12.8616 6.3 12.1632C6.3 11.4648 5.7375 10.8946 5.04844 10.8946C4.35938 10.8946 3.79688 11.4648 3.79688 12.1632C3.79688 12.8616 4.35938 13.4318 5.04844 13.4318ZM1.40625 11.4505H2.48438C2.79375 10.3102 3.825 9.46923 5.04844 9.46923C6.27188 9.46923 7.30313 10.3102 7.6125 11.4505H8.35781V3.84851H3.47813L1.40625 7.16488V11.4505Z" fill="#292930"/>
<path d="M24 2.42383H19.0266V3.8492H24V2.42383Z" fill="#292930"/>
<path d="M22.2139 7.13672H17.2404V8.56209H22.2139V7.13672Z" fill="#292930"/>
<path d="M23.1094 4.57031H18.1359V5.99569H23.1094V4.57031Z" fill="#292930"/>
</g>
<defs>
<clipPath id="clip0">
<rect width="24" height="14.8571" transform="matrix(-1 0 0 1 24 0)" fill="white"/>
</clipPath>
</defs>
</svg>
