<svg width="130" height="97" viewBox="0 0 130 97" fill="none" xmlns="http://www.w3.org/2000/svg">
<path d="M64.9249 69.3476C62.0232 69.3476 59.0965 68.7414 56.2949 67.4279C51.267 65.0787 47.4399 60.9107 45.5137 55.6819C43.5876 50.4278 43.8128 44.7442 46.1391 39.6922C50.9168 29.2092 63.2489 24.6118 73.6299 29.4365C78.6578 31.7857 82.485 35.9537 84.4111 41.1825C86.3372 46.4366 86.112 52.1202 83.7857 57.1722C80.2837 64.8261 72.7544 69.3476 64.9249 69.3476ZM64.9749 30.9269C58.4212 30.9269 52.1425 34.6907 49.2159 41.1067C47.2898 45.3505 47.0896 50.0994 48.6906 54.4946C50.2915 58.8647 53.4933 62.3758 57.6957 64.3209C66.3757 68.3625 76.6816 64.4977 80.6589 55.7577C82.585 51.5139 82.7851 46.765 81.1842 42.3698C79.5833 37.9997 76.3814 34.4886 72.179 32.5435C69.8527 31.4321 67.4013 30.9269 64.9749 30.9269Z" fill="#D4D4D5"/>
<path d="M108.55 48.432H108.4C63.2992 -3.55352 24.1768 45.1229 21.6003 48.432H21.4502C21.4752 48.4572 21.5002 48.4825 21.5252 48.5077C21.4752 48.5583 21.4502 48.6088 21.4502 48.6088H21.6003C66.7011 100.594 105.824 51.9179 108.4 48.6088H108.525C108.5 48.5835 108.475 48.5583 108.45 48.533C108.525 48.4572 108.55 48.432 108.55 48.432ZM103.397 48.5835H103.272C101.021 51.5137 66.501 94.4055 26.7532 48.5835H26.6282C26.6282 48.5835 26.6532 48.5583 26.7032 48.5077C26.6782 48.4825 26.6532 48.4572 26.6282 48.432H26.7532C29.0045 45.5018 63.5243 2.60997 103.272 48.432H103.397C103.397 48.432 103.372 48.4572 103.322 48.5077C103.347 48.533 103.372 48.5583 103.397 48.5835Z" fill="#D4D4D5" stroke="white" stroke-miterlimit="10"/>
<path d="M1 80.3203V95.1436H15.3658" stroke="#D4D4D5" stroke-width="2"/>
<path d="M15.3658 1.85547H1V16.6787" stroke="#D4D4D5" stroke-width="2"/>
<path d="M114.635 95.1436H128.961V80.3203" stroke="#D4D4D5" stroke-width="2"/>
<path d="M128.961 16.6787V1.85547H114.635" stroke="#D4D4D5" stroke-width="2"/>
</svg>
