<svg width="33" height="32" viewBox="0 0 33 32" fill="none" xmlns="http://www.w3.org/2000/svg">
<g clip-path="url(#clip0)">
<path d="M9.88901 20.5108H28.1285L31 3.98501L29.1554 3.66477L26.5538 18.6388H9.88901L7.18545 3.07822L3.55737 2.08984H0V3.96183H3.3069L5.54477 4.57156L8.1516 19.5746L7.29708 24.4922H30.0778V22.6202H9.52242L9.88901 20.5108Z" fill="#40404C"/>
<path d="M12.3662 25.8027C10.9727 25.8027 9.83887 26.9363 9.83887 28.3299C9.83887 29.7234 10.9727 30.8572 12.3662 30.8572C13.7598 30.8572 14.8936 29.7234 14.8936 28.3299C14.8936 26.9363 13.7598 25.8027 12.3662 25.8027ZM12.3662 28.9852C12.0048 28.9852 11.7111 28.6912 11.7111 28.3299C11.7111 27.9687 12.0048 27.6747 12.3662 27.6747C12.7276 27.6747 13.0214 27.9687 13.0214 28.3299C13.0214 28.6912 12.7274 28.9852 12.3662 28.9852Z" fill="#40404C"/>
<path d="M24.0772 25.8027C22.6834 25.8027 21.5498 26.9363 21.5498 28.3299C21.5498 29.7234 22.6834 30.8572 24.0772 30.8572C25.4707 30.8572 26.6043 29.7234 26.6043 28.3299C26.6043 26.9363 25.4707 25.8027 24.0772 25.8027ZM24.0772 28.9852C23.7158 28.9852 23.4218 28.6912 23.4218 28.3299C23.4218 27.9687 23.7158 27.6747 24.0772 27.6747C24.4383 27.6747 24.7323 27.9687 24.7323 28.3299C24.7323 28.6912 24.4383 28.9852 24.0772 28.9852Z" fill="#40404C"/>
<path d="M23.389 9.50367L22.0652 8.17992L19.1569 11.0883V3.02539H17.2849V11.0883L14.3763 8.17992L13.0527 9.50367L18.2207 14.6719L23.389 9.50367Z" fill="#40404C"/>
</g>
<g filter="url(#filter0_d)">
<circle cx="18.5" cy="14.5" r="11.5" fill="#D935FD"/>
</g>
<defs>
<filter id="filter0_d" x="4" y="0" width="29" height="29" filterUnits="userSpaceOnUse" color-interpolation-filters="sRGB">
<feFlood flood-opacity="0" result="BackgroundImageFix"/>
<feColorMatrix in="SourceAlpha" type="matrix" values="0 0 0 0 0 0 0 0 0 0 0 0 0 0 0 0 0 0 127 0"/>
<feOffset/>
<feGaussianBlur stdDeviation="1.5"/>
<feColorMatrix type="matrix" values="0 0 0 0 0 0 0 0 0 0 0 0 0 0 0 0 0 0 0.25 0"/>
<feBlend mode="normal" in2="BackgroundImageFix" result="effect1_dropShadow"/>
<feBlend mode="normal" in="SourceGraphic" in2="effect1_dropShadow" result="shape"/>
</filter>
<clipPath id="clip0">
<rect width="31" height="31" fill="white" transform="translate(0 1)"/>
</clipPath>
</defs>
</svg>
