<svg width="15" height="15" viewBox="0 0 15 15" fill="none" xmlns="http://www.w3.org/2000/svg">
<g clip-path="url(#clip0)">
<path d="M2.86102e-06 -6.55671e-07L2.75729e-06 2.37305L15 2.37305L15 0L2.86102e-06 -6.55671e-07Z" fill="#292930"/>
<path d="M1.49415 3.15625L1.49415 5.5293L15 5.5293L15 3.15625L1.49415 3.15625Z" fill="#292930"/>
<path d="M1.49415 6.31445L1.49415 8.6875L15 8.6875L15 6.31445L1.49415 6.31445Z" fill="#292930"/>
<path d="M1.49414 9.46875L1.49414 11.8418L15 11.8418L15 9.46875L1.49414 9.46875Z" fill="#292930"/>
<path d="M15 12.627L3.8147e-06 12.627L3.71097e-06 15L15 15L15 12.627Z" fill="#292930"/>
<path d="M0.878906 3.1582L0.878906 5.53125L-1.0574e-06 5.53125L-9.53674e-07 3.1582L0.878906 3.1582Z" fill="#292930"/>
<path d="M0.878906 6.3125L0.878906 8.68555L-1.0574e-06 8.68555L-9.53674e-07 6.3125L0.878906 6.3125Z" fill="#292930"/>
<path d="M0.878906 9.4707L0.878906 11.8438L-2.96475e-06 11.8438L-2.86102e-06 9.4707L0.878906 9.4707Z" fill="#292930"/>
</g>
<defs>
<clipPath id="clip0">
<rect x="15" width="15" height="15" transform="rotate(90 15 0)" fill="white"/>
</clipPath>
</defs>
</svg>
