<?xml version="1.0" encoding="UTF-8"?>
<svg width="14px" height="20px" viewBox="0 0 14 20" version="1.1" xmlns="http://www.w3.org/2000/svg" xmlns:xlink="http://www.w3.org/1999/xlink">
    <title>Slice 1</title>
    <g id="Page-1" stroke="none" stroke-width="1" fill="none" fill-rule="evenodd">
        <g id="menu_point" fill="#292930" fill-rule="nonzero">
            <path d="M6.95224,9.85312 C6.19266,9.85312 5.43292,9.56396 4.85477,8.98566 C3.69815,7.82919 3.69815,5.94733 4.85477,4.79071 C5.41492,4.23041 6.15985,3.92188 6.95224,3.92188 C7.74463,3.92188 8.48941,4.23056 9.04971,4.79071 C10.2063,5.94733 10.2063,7.82919 9.04971,8.98566 C8.47141,9.56396 7.71182,9.85312 6.95224,9.85312 Z M6.95224,5.09604 C6.4931,5.09604 6.03397,5.27075 5.68439,5.62033 C4.98523,6.31949 4.98523,7.45703 5.68439,8.15619 C6.02298,8.49478 6.47327,8.68124 6.95224,8.68124 C7.43121,8.68124 7.8815,8.49478 8.22009,8.15619 C8.91925,7.45703 8.91925,6.31949 8.22009,5.62033 C7.87051,5.27075 7.41138,5.09604 6.95224,5.09604 Z" id="Shape"></path>
            <path d="M6.95877,20 L6.50513,19.4672 C6.23962,19.1551 0,11.7699 0,6.9519 C0,3.11859 3.11859,0 6.9519,0 C10.7852,0 13.9038,3.11859 13.9038,6.9519 C13.9038,11.5329 7.66968,19.1388 7.40433,19.4603 L6.95877,20 Z M6.9519,1.17325 C3.76556,1.17325 1.17325,3.76556 1.17325,6.9519 C1.17325,8.74268 2.24106,11.3342 4.26132,14.4466 C5.30975,16.0617 6.36551,17.4295 6.9455,18.1534 C7.5264,17.4097 8.59222,15.9969 9.64722,14.351 C11.6644,11.2045 12.7306,8.64578 12.7306,6.9519 C12.7306,3.76556 10.1382,1.17325 6.9519,1.17325 Z" id="Shape"></path>
        </g>
    </g>
</svg>