<svg width="15" height="15" viewBox="0 0 15 15" fill="none" xmlns="http://www.w3.org/2000/svg">
<path d="M3.38086 8.4375L3.92285 8.97949L4.76367 8.13867C4.31836 7.34766 4.06641 6.43652 4.06641 5.4668C4.06641 2.45215 6.51855 0 9.5332 0C12.5479 0 15 2.45215 15 5.4668C15 8.48145 12.5479 10.9336 9.5332 10.9336C8.56348 10.9336 7.65234 10.6787 6.86133 10.2334L6.02051 11.0742L6.5625 11.6191L2.1709 15L0 12.8291L3.38086 8.4375ZM14.1211 5.4668C14.1211 2.93848 12.0615 0.878906 9.5332 0.878906C7.00488 0.878906 4.94531 2.93555 4.94531 5.4668C4.94531 7.99805 7.00195 10.0547 9.5332 10.0547C12.0645 10.0547 14.1211 7.99805 14.1211 5.4668ZM6.12012 9.73242C5.80664 9.48047 5.51953 9.19336 5.26758 8.87988L4.54688 9.60059C4.8457 9.89941 5.10059 10.1543 5.39941 10.4531L6.12012 9.73242ZM2.24414 13.8311L5.22949 11.5312C5.02148 11.3232 3.67383 9.97559 3.46582 9.76758L1.16602 12.7529L2.24414 13.8311Z" fill="white"/>
</svg>
