<svg width="86" height="86" viewBox="0 0 86 86" fill="none" xmlns="http://www.w3.org/2000/svg">
<path d="M43 86C66.7482 86 86 66.7482 86 43C86 19.2518 66.7482 0 43 0C19.2518 0 0 19.2518 0 43C0 66.7482 19.2518 86 43 86Z" fill="#FDD935"/>
<path d="M80 51.472H6L10.7968 43.4749L6 35.5273H80L75.2032 43.4749L80 51.472Z" fill="#D9553F"/>
<path d="M78.4509 50.5784H7.54883L11.796 43.4753L7.54883 36.4219H78.4509L74.2038 43.525L78.4509 50.5784ZM7.99852 50.33H78.0012L73.904 43.4753L73.9539 43.4256L78.0512 36.6702H7.99852L12.0958 43.525L7.99852 50.33Z" fill="white"/>
<path d="M42.9748 17L44.7236 19.0862L46.7722 17.2484L48.2212 19.5829L50.5197 18.0928L51.569 20.5764L54.0673 19.3843L54.7668 22.0169L57.415 21.2221L57.7148 23.9044L60.463 23.4574L60.363 26.1893L63.1112 26.1396L62.6615 28.8219L65.4096 29.1696L64.5602 31.7526L67.2084 32.4977L66.0592 34.9316L68.5575 36.0244L67.0085 38.3093L69.357 39.7001L67.5082 41.7366L69.6567 43.4752L67.5082 45.2137L69.357 47.2502L67.0085 48.6907L68.5575 50.9756L66.0592 52.0187L67.2084 54.5023L64.5602 55.1978L65.4096 57.8304L62.6615 58.1284L63.1112 60.8604L60.363 60.761L60.463 63.493L57.7148 63.0459L57.415 65.7779L54.7668 64.9335L54.0673 67.5661L51.569 66.3739L50.5197 68.9072L48.2212 67.3674L46.7722 69.702L44.7236 67.8641L42.9748 70L41.226 67.8641L39.1773 69.702L37.7783 67.3674L35.4798 68.9072L34.3806 66.3739L31.9322 67.5661L31.1827 64.9335L28.5845 65.7779L28.2347 63.0459L25.5366 63.493L25.5865 60.761L22.8384 60.8604L23.2881 58.1284L20.5899 57.8304L21.3894 55.1978L18.7412 54.5023L19.9403 52.0187L17.442 50.9756L18.941 48.6907L16.5926 47.2502L18.4414 45.2137L16.3428 43.4752L18.4414 41.7366L16.5926 39.7001L18.941 38.3093L17.442 36.0244L19.9403 34.9316L18.7412 32.4977L21.3894 31.7526L20.5899 29.1696L23.2881 28.8219L22.8384 26.1396L25.5865 26.1893L25.5366 23.4574L28.2347 23.9044L28.5845 21.2221L31.2327 22.0169L31.9322 19.3843L34.3806 20.5764L35.4798 18.0928L37.7783 19.5829L39.1773 17.2484L41.226 19.0862L42.9748 17Z" fill="#366F7C"/>
<path d="M42.975 66.1767C30.3835 66.1767 20.1904 55.9939 20.1904 43.5263C20.1904 31.0089 30.4335 20.8262 42.975 20.8262C55.5665 20.8262 65.7596 31.0089 65.7596 43.4766C65.8096 55.9939 55.5665 66.1767 42.975 66.1767ZM42.975 21.0745C30.5334 21.0745 20.4403 31.1083 20.4403 43.4766C20.4403 55.8449 30.5334 65.8787 42.975 65.8787C55.4166 65.8787 65.5098 55.8449 65.5098 43.4766C65.5598 31.1579 55.4166 21.0745 42.975 21.0745Z" fill="white"/>
<path d="M42.9752 61.1092C33.2317 61.1092 25.2871 53.2113 25.2871 43.5253C25.2871 33.8393 33.2317 25.9414 42.9752 25.9414C52.7186 25.9414 60.6632 33.8393 60.6632 43.5253C60.7132 53.2113 52.7685 61.1092 42.9752 61.1092ZM42.9752 26.1401C33.3317 26.1401 25.5369 33.9386 25.5369 43.4756C25.5369 53.0623 33.3816 60.8111 42.9752 60.8111C52.6186 60.8111 60.4134 53.0126 60.4134 43.4756C60.4633 33.9386 52.6186 26.1401 42.9752 26.1401Z" fill="white"/>
<path d="M23.788 43.4742C23.788 43.9709 23.3883 44.3683 22.8886 44.3683C22.389 44.3683 21.9893 43.9709 21.9893 43.4742C21.9893 42.9775 22.389 42.5801 22.8886 42.5801C23.3883 42.5801 23.788 42.9775 23.788 43.4742Z" fill="white"/>
<path d="M63.7607 43.4742C63.7607 43.9709 63.361 44.3683 62.8613 44.3683C62.3616 44.3683 61.9619 43.9709 61.9619 43.4742C61.9619 42.9775 62.3616 42.5801 62.8613 42.5801C63.361 42.5801 63.7607 42.9775 63.7607 43.4742Z" fill="white"/>
<path d="M48.7227 40.5938C48.7227 39.352 49.672 38.4082 50.9212 38.4082C52.1703 38.4082 53.1197 39.352 53.1197 40.5938C53.1197 41.8356 52.1703 42.7793 50.9212 42.7793C49.672 42.7793 48.7227 41.7859 48.7227 40.5938ZM49.3722 48.2929L56.1177 38.4579H58.0663L51.2709 48.2929H49.3722ZM51.7206 40.5938C51.7206 40.1467 51.3209 39.7493 50.8712 39.7493C50.4215 39.7493 50.0218 40.0971 50.0218 40.5938C50.0218 41.0408 50.3715 41.3885 50.8712 41.3885C51.3709 41.3885 51.7206 41.0408 51.7206 40.5938ZM54.3688 46.157C54.3688 44.9152 55.3182 43.9715 56.5674 43.9715C57.8165 43.9715 58.7659 44.9649 58.7659 46.157C58.7659 47.3988 57.8165 48.3426 56.5674 48.3426C55.3182 48.3426 54.3688 47.3492 54.3688 46.157ZM57.3668 46.157C57.3668 45.71 56.9671 45.3126 56.5174 45.3126C56.0677 45.3126 55.668 45.71 55.668 46.157C55.668 46.6041 56.0177 47.0015 56.5174 47.0015C57.0171 47.0015 57.3668 46.6041 57.3668 46.157Z" fill="white"/>
<path d="M56.7658 36.2715H29.5342V36.5198H56.7658V36.2715Z" fill="white"/>
<path d="M56.7658 50.2793H29.5342V50.5277H56.7658V50.2793Z" fill="white"/>
<path d="M31.432 39.6V48H29.872V40.908H28.096V39.6H31.432ZM36.8423 48.12C36.1703 48.12 35.5703 47.952 35.0423 47.616C34.5143 47.272 34.0983 46.776 33.7943 46.128C33.4903 45.472 33.3383 44.696 33.3383 43.8C33.3383 42.904 33.4903 42.132 33.7943 41.484C34.0983 40.828 34.5143 40.332 35.0423 39.996C35.5703 39.652 36.1703 39.48 36.8423 39.48C37.5143 39.48 38.1143 39.652 38.6423 39.996C39.1783 40.332 39.5983 40.828 39.9023 41.484C40.2063 42.132 40.3583 42.904 40.3583 43.8C40.3583 44.696 40.2063 45.472 39.9023 46.128C39.5983 46.776 39.1783 47.272 38.6423 47.616C38.1143 47.952 37.5143 48.12 36.8423 48.12ZM36.8423 46.764C37.4423 46.764 37.9143 46.516 38.2583 46.02C38.6103 45.524 38.7863 44.784 38.7863 43.8C38.7863 42.816 38.6103 42.076 38.2583 41.58C37.9143 41.084 37.4423 40.836 36.8423 40.836C36.2503 40.836 35.7783 41.084 35.4263 41.58C35.0823 42.076 34.9103 42.816 34.9103 43.8C34.9103 44.784 35.0823 45.524 35.4263 46.02C35.7783 46.516 36.2503 46.764 36.8423 46.764ZM45.1565 48.12C44.4845 48.12 43.8845 47.952 43.3565 47.616C42.8285 47.272 42.4125 46.776 42.1085 46.128C41.8045 45.472 41.6525 44.696 41.6525 43.8C41.6525 42.904 41.8045 42.132 42.1085 41.484C42.4125 40.828 42.8285 40.332 43.3565 39.996C43.8845 39.652 44.4845 39.48 45.1565 39.48C45.8285 39.48 46.4285 39.652 46.9565 39.996C47.4925 40.332 47.9125 40.828 48.2165 41.484C48.5205 42.132 48.6725 42.904 48.6725 43.8C48.6725 44.696 48.5205 45.472 48.2165 46.128C47.9125 46.776 47.4925 47.272 46.9565 47.616C46.4285 47.952 45.8285 48.12 45.1565 48.12ZM45.1565 46.764C45.7565 46.764 46.2285 46.516 46.5725 46.02C46.9245 45.524 47.1005 44.784 47.1005 43.8C47.1005 42.816 46.9245 42.076 46.5725 41.58C46.2285 41.084 45.7565 40.836 45.1565 40.836C44.5645 40.836 44.0925 41.084 43.7405 41.58C43.3965 42.076 43.2245 42.816 43.2245 43.8C43.2245 44.784 43.3965 45.524 43.7405 46.02C44.0925 46.516 44.5645 46.764 45.1565 46.764Z" fill="white"/>
</svg>
