<svg width="86" height="86" viewBox="0 0 86 86" fill="none" xmlns="http://www.w3.org/2000/svg">
<path d="M43 86C66.7482 86 86 66.7482 86 43C86 19.2518 66.7482 0 43 0C19.2518 0 0 19.2518 0 43C0 66.7482 19.2518 86 43 86Z" fill="#FDD935"/>
<path fill-rule="evenodd" clip-rule="evenodd" d="M22.5 32H65.1L66 38H21L22.5 32Z" fill="#FFFEFE"/>
<path d="M71 51.5C71 50.1 69.9 49 68.5 49C67.1 49 66 50.1 66 51.5C66 52.9 67.1 54 68.5 54C69.9 54 71 52.9 71 51.5ZM68.5 54C67.1 54 66 55.1 66 56.5C66 57.9 67.1 59 68.5 59C69.9 59 71 57.9 71 56.5C71 55.1 69.9 54 68.5 54Z" fill="#FFFEFE"/>
<path d="M71 40H16C14.9 40 14 40.9 14 42V60C14 61.8 15.9 63 17 63H70C71.1 63 73 61.9 73 60V42C73 40.9 72.1 40 71 40ZM68.5 58.4C67.4 58.4 66.6 57.5 66.6 56.5C66.6 55.4 67.5 54.6 68.5 54.6C69.6 54.6 70.4 55.5 70.4 56.5C70.4 57.6 69.6 58.4 68.5 58.4ZM68.5 53.4C67.4 53.4 66.6 52.5 66.6 51.5C66.6 50.4 67.5 49.6 68.5 49.6C69.6 49.6 70.4 50.5 70.4 51.5C70.4 52.6 69.6 53.4 68.5 53.4ZM63 27H24V36H63V27Z" fill="#505665"/>
<path d="M60 43H27C24.9 43 24 45 24 46V62C24 62.6 24.4 63 25 63L27 53H60L62 63C62.6 63 63 62.6 63 62V46C63 45.1 62 43 60 43ZM48.5 48H38.5C37.7 48 37 47.3 37 46.5C37 45.7 37.7 45 38.5 45H48.5C49.3 45 50 45.7 50 46.5C50 47.3 49.3 48 48.5 48Z" fill="#B5C1E1"/>
<path d="M59 54H28L23 66H63L59 54ZM57 21H30V36H57V21Z" fill="white"/>
<path d="M14.1 40.9C14 40.9 14 41 14 41L14.1 40.9ZM55 24H32V25H55V24ZM28 53L22 68H65L59 53H28ZM25 66L29 55H58L62 66H25ZM55 30H32V31H55V30ZM55 27H32V28H55V27ZM65 32H63L65 36H59V19H28V36H22L24 32H22C20.9 32 20.1 32.6 19 34L14.1 40.9C14.3 40.6 14.9 40 16 40C26.4 40 61.2 40 71 40C72.1 40 72.7 40.6 72.9 40.9L68 34C67.2 32.6 66.7 31.9 65 32ZM57 36H30V21H57V36ZM72.9 40.9L73 41C73 41 73 40.9 72.9 40.9ZM55 33H32V34H55V33Z" fill="#6B717F"/>
</svg>
