<svg width="50" height="50" viewBox="0 0 50 50" fill="none" xmlns="http://www.w3.org/2000/svg">
<circle cx="25" cy="25" r="24.5" stroke="#40404C"/>
<g clip-path="url(#clip0)">
<path d="M32.5625 13H31.0977V15.9715H32.5625V13Z" fill="#40404C"/>
<path d="M29.6304 13H28.1655V15.9715H29.6304V13Z" fill="#40404C"/>
<path d="M26.6982 13H25.2334V15.9715H26.6982V13Z" fill="#40404C"/>
<path d="M23.7666 13H22.3018V15.9715H23.7666V13Z" fill="#40404C"/>
<path d="M20.8345 13H19.3696V15.9715H20.8345V13Z" fill="#40404C"/>
<path d="M17.9023 13H16.4375V15.9715H17.9023V13Z" fill="#40404C"/>
<path d="M32.5625 35.0293H31.0977V38.0008H32.5625V35.0293Z" fill="#40404C"/>
<path d="M29.6304 35.0293H28.1655V38.0008H29.6304V35.0293Z" fill="#40404C"/>
<path d="M26.6982 35.0293H25.2334V38.0008H26.6982V35.0293Z" fill="#40404C"/>
<path d="M23.7666 35.0293H22.3018V38.0008H23.7666V35.0293Z" fill="#40404C"/>
<path d="M20.8345 35.0293H19.3696V38.0008H20.8345V35.0293Z" fill="#40404C"/>
<path d="M17.9023 35.0293H16.4375V38.0008H17.9023V35.0293Z" fill="#40404C"/>
<path d="M14.9717 17.4375H12.0002V18.9023H14.9717V17.4375Z" fill="#40404C"/>
<path d="M14.9717 20.3691H12.0002V21.834H14.9717V20.3691Z" fill="#40404C"/>
<path d="M14.9717 23.3027H12.0002V24.7676H14.9717V23.3027Z" fill="#40404C"/>
<path d="M14.9717 26.2324H12.0002V27.6973H14.9717V26.2324Z" fill="#40404C"/>
<path d="M14.9717 29.166H12.0002V30.6309H14.9717V29.166Z" fill="#40404C"/>
<path d="M14.9717 32.0977H12.0002V33.5625H14.9717V32.0977Z" fill="#40404C"/>
<path d="M37 17.4375H34.0285V18.9023H37V17.4375Z" fill="#40404C"/>
<path d="M37 20.3691H34.0285V21.834H37V20.3691Z" fill="#40404C"/>
<path d="M37 23.3027H34.0285V24.7676H37V23.3027Z" fill="#40404C"/>
<path d="M37 26.2324H34.0285V27.6973H37V26.2324Z" fill="#40404C"/>
<path d="M37 29.166H34.0285V30.6309H37V29.166Z" fill="#40404C"/>
<path d="M37 32.0977H34.0285V33.5625H37V32.0977Z" fill="#40404C"/>
<path d="M27.0879 22.9121H21.9121V28.0879H27.0879V22.9121Z" fill="#40404C"/>
<path d="M32.5635 33.5629H16.4361V17.4355H32.5635V33.5629ZM28.5525 21.4465H20.447V29.552H28.5525V21.4465Z" fill="#40404C"/>
</g>
<defs>
<clipPath id="clip0">
<rect width="25" height="25" transform="matrix(-1 0 0 1 37 13)" fill="white"/>
</clipPath>
</defs>
</svg>
