<svg width="50" height="50" viewBox="0 0 50 50" fill="none" xmlns="http://www.w3.org/2000/svg">
<circle cx="25" cy="25" r="24.5" stroke="#40404C"/>
<path d="M50 25C50 38.8071 38.8071 50 25 50C11.1929 50 0 38.8071 0 25C14.0978 25 21.1355 25 24.2831 25C21.946 25 23.501 24.9999 50 25ZM26.2135 25.0001C25.7222 25.0001 24.6449 25.0001 23.6807 25.0002C21.7309 25.0002 20.2438 25.0002 25 25.0002C29.8419 25.0002 28.2134 25.0002 26.2135 25.0001Z" fill="#40404C"/>
<path d="M50 25C50 38.8071 38.8071 50 25 50C11.1929 50 0 38.8071 0 25C14.0978 25 21.1355 25 24.2831 25C21.946 25 23.501 24.9999 50 25ZM26.2135 25.0001C25.7222 25.0001 24.6449 25.0001 23.6807 25.0002C21.7309 25.0002 20.2438 25.0002 25 25.0002C29.8419 25.0002 28.2134 25.0002 26.2135 25.0001Z" stroke="#40404C"/>
<path d="M6.212 33H7.064V30.216H11.036V33H11.888V26.688H11.036V29.484H7.064V26.688H6.212V33ZM17.1537 33.06C19.0017 33.06 20.3577 31.716 20.3577 29.844C20.3577 27.972 19.0017 26.64 17.1537 26.64C15.3057 26.64 13.9377 27.972 13.9377 29.844C13.9377 31.716 15.3057 33.06 17.1537 33.06ZM17.1537 32.304C15.8097 32.304 14.8017 31.32 14.8017 29.844C14.8017 28.368 15.8097 27.384 17.1537 27.384C18.4977 27.384 19.4937 28.368 19.4937 29.844C19.4937 31.32 18.4977 32.304 17.1537 32.304ZM26.4386 29.736C27.0986 29.496 27.5066 29.016 27.5066 28.308C27.5066 27.264 26.6306 26.688 25.2026 26.688H22.4186V33H25.2866C26.9306 33 27.7226 32.376 27.7226 31.284C27.7226 30.456 27.3146 29.94 26.4386 29.736ZM23.2466 27.36H25.1426C26.1146 27.36 26.6546 27.708 26.6546 28.416C26.6546 29.124 26.1146 29.496 25.1426 29.496H23.2466V27.36ZM25.2506 32.328H23.2466V30.132H25.3346C26.4026 30.132 26.8826 30.48 26.8826 31.236C26.8826 31.992 26.3186 32.328 25.2506 32.328ZM32.6113 28.92L30.8113 28.896V26.688H29.9593V33L32.4553 33.012C34.1233 33.036 35.0473 32.28 35.0473 30.936C35.0473 29.64 34.1953 28.932 32.6113 28.92ZM36.1033 33H36.9553V26.688H36.1033V33ZM32.4073 32.364L30.8113 32.34V29.532L32.4073 29.556C33.5833 29.568 34.1833 30 34.1833 30.936C34.1833 31.884 33.5713 32.376 32.4073 32.364ZM42.4892 25.788C43.5572 25.788 44.2652 25.236 44.2892 24.228H43.6772C43.6532 24.864 43.1732 25.26 42.4892 25.26C41.8052 25.26 41.3252 24.864 41.3132 24.228H40.7012C40.7252 25.236 41.4212 25.788 42.4892 25.788ZM39.6212 33H40.3892L44.5892 27.984V33H45.4412V26.688H44.6852L40.4732 31.704V26.688H39.6212V33Z" fill="white"/>
<path d="M9.108 11.6V12.368H11.088V20H11.952V11.6H9.108ZM17.5479 20.072C19.4919 20.072 20.9079 18.476 20.9079 15.8C20.9079 13.124 19.4919 11.528 17.5479 11.528C15.6039 11.528 14.1999 13.124 14.1999 15.8C14.1999 18.476 15.6039 20.072 17.5479 20.072ZM17.5479 19.28C16.0839 19.28 15.0759 18.044 15.0759 15.8C15.0759 13.556 16.0839 12.32 17.5479 12.32C19.0119 12.32 20.0199 13.556 20.0199 15.8C20.0199 18.044 19.0119 19.28 17.5479 19.28ZM25.7332 20.072C27.6772 20.072 29.0932 18.476 29.0932 15.8C29.0932 13.124 27.6772 11.528 25.7332 11.528C23.7892 11.528 22.3852 13.124 22.3852 15.8C22.3852 18.476 23.7892 20.072 25.7332 20.072ZM25.7332 19.28C24.2692 19.28 23.2612 18.044 23.2612 15.8C23.2612 13.556 24.2692 12.32 25.7332 12.32C27.1972 12.32 28.2052 13.556 28.2052 15.8C28.2052 18.044 27.1972 19.28 25.7332 19.28ZM32.3466 16.1C33.4626 16.1 34.2426 15.2 34.2426 13.82C34.2426 12.44 33.4626 11.54 32.3466 11.54C31.2186 11.54 30.4506 12.452 30.4506 13.82C30.4506 15.188 31.2186 16.1 32.3466 16.1ZM31.6986 20H32.4066L38.1426 11.6H37.4346L31.6986 20ZM32.3466 15.56C31.5546 15.56 31.0506 14.9 31.0506 13.82C31.0506 12.74 31.5546 12.08 32.3466 12.08C33.1266 12.08 33.6426 12.728 33.6426 13.82C33.6426 14.912 33.1266 15.56 32.3466 15.56ZM37.4946 20.06C38.6226 20.06 39.3906 19.148 39.3906 17.78C39.3906 16.412 38.6226 15.5 37.4946 15.5C36.3786 15.5 35.5986 16.412 35.5986 17.78C35.5986 19.148 36.3786 20.06 37.4946 20.06ZM37.4946 19.52C36.7146 19.52 36.1986 18.872 36.1986 17.78C36.1986 16.688 36.7146 16.04 37.4946 16.04C38.2866 16.04 38.7906 16.7 38.7906 17.78C38.7906 18.86 38.2866 19.52 37.4946 19.52Z" fill="#40404C"/>
</svg>
