<svg width="50" height="50" viewBox="0 0 50 50" fill="none" xmlns="http://www.w3.org/2000/svg">
<circle cx="25" cy="25" r="24.5" stroke="#40404C"/>
<path d="M11.88 27.06C13.524 27.06 14.484 26.352 14.484 25.26C14.484 22.836 10.392 24.12 10.392 22.416C10.392 21.816 10.896 21.372 12.036 21.372C12.684 21.372 13.344 21.528 13.896 21.912L14.268 21.228C13.74 20.868 12.852 20.64 12.036 20.64C10.428 20.64 9.54 21.408 9.54 22.44C9.54 24.936 13.632 23.64 13.632 25.284C13.632 25.908 13.14 26.316 11.94 26.316C11.052 26.316 10.2 26.004 9.696 25.608L9.312 26.28C9.828 26.724 10.836 27.06 11.88 27.06ZM19.3231 26.004C19.0831 26.22 18.7351 26.328 18.3871 26.328C17.6791 26.328 17.2951 25.92 17.2951 25.176V21.408H19.2151V20.688H17.2951V19.308H16.4431V20.688H15.3151V21.408H16.4431V25.224C16.4431 26.388 17.1031 27.06 18.2911 27.06C18.7831 27.06 19.2871 26.916 19.6231 26.616L19.3231 26.004ZM29.2861 20.64C28.1461 20.64 27.2461 21.156 26.7901 21.972C26.4061 21.084 25.5901 20.64 24.5461 20.64C23.4901 20.64 22.6741 21.084 22.2301 21.84V20.688H21.4141V27H22.2661V23.688C22.2661 22.248 23.0941 21.408 24.3781 21.408C25.5301 21.408 26.2021 22.092 26.2021 23.424V27H27.0541V23.688C27.0541 22.248 27.8701 21.408 29.1661 21.408C30.3061 21.408 30.9781 22.092 30.9781 23.424V27H31.8301V23.34C31.8301 21.528 30.8221 20.64 29.2861 20.64ZM37.0201 27.06C38.0881 27.06 38.9881 26.628 39.4921 25.812L38.8561 25.38C38.4241 26.016 37.7521 26.304 37.0201 26.304C35.6401 26.304 34.6321 25.332 34.6321 23.844C34.6321 22.368 35.6401 21.384 37.0201 21.384C37.7521 21.384 38.4241 21.684 38.8561 22.32L39.4921 21.888C38.9881 21.06 38.0881 20.64 37.0201 20.64C35.1361 20.64 33.7681 21.96 33.7681 23.844C33.7681 25.728 35.1361 27.06 37.0201 27.06Z" fill="#40404C"/>
</svg>
