<svg width="40" height="40" viewBox="0 0 40 40" fill="none" xmlns="http://www.w3.org/2000/svg">
<circle cx="20" cy="20" r="20" fill="#FED935"/>
<path d="M20 19.9795C23.1646 19.9795 25.73 17.4141 25.73 14.2495C25.73 11.0849 23.1646 8.51953 20 8.51953C16.8354 8.51953 14.27 11.0849 14.27 14.2495C14.27 17.4141 16.8354 19.9795 20 19.9795Z" stroke="#40404C" stroke-width="1.91" stroke-miterlimit="10"/>
<path d="M9.5 30.48L9.87 28.43C10.3071 26.0625 11.5597 23.9229 13.4103 22.3828C15.2609 20.8428 17.5925 19.9997 20 20V20C22.4104 20.0006 24.7443 20.8465 26.5952 22.3905C28.4462 23.9345 29.6971 26.0788 30.13 28.45L30.5 30.5" stroke="#40404C" stroke-width="1.91" stroke-miterlimit="10"/>
</svg>
