<svg width="40" height="40" viewBox="0 0 40 40" fill="none" xmlns="http://www.w3.org/2000/svg">
<circle cx="20" cy="20" r="20" fill="white"/>
<path d="M29.009 22.5423C28.5038 22.9736 27.8713 23.2077 27.2305 23.2077H26.5816H24.2445H22.9137V26.3252C22.9137 27.6355 22.5317 28.5802 21.7759 29.1347C20.5807 30.0137 18.9336 29.5126 18.8638 29.4879C18.6584 29.4222 18.5187 29.2333 18.5187 29.0197V25.5325C18.5187 24.3948 17.9766 23.4295 16.9045 22.6614C16.1036 22.0864 15.2862 21.8359 15.2 21.8071L15.0809 21.7784C14.9042 22.0782 14.5798 22.2795 14.206 22.2795H11.0145C10.4559 22.2795 10 21.8235 10 21.2649V11.8836C10 11.325 10.4559 10.8691 11.0145 10.8691H14.2142C14.5264 10.8691 14.8098 11.0129 14.9946 11.2347C15.508 10.6884 16.235 10.3475 17.0237 10.3475H19.7304H20.0097H25.5588C27.4441 10.3475 28.6476 11.3332 28.8612 13.0583L29.9661 19.9136C30.118 20.8994 29.7525 21.9098 29.009 22.5423ZM14.2388 11.8836C14.2388 11.8672 14.2265 11.8549 14.2101 11.8549H11.0145C10.9981 11.8549 10.9858 11.8672 10.9858 11.8836V21.2649C10.9858 21.2814 10.9981 21.2937 11.0145 21.2937H14.2142C14.2306 21.2937 14.2429 21.2814 14.2429 21.2649V11.8836H14.2388ZM28.9844 20.0697L27.8836 13.2021C27.8836 13.198 27.8836 13.1898 27.8795 13.1816C27.7275 11.9535 26.9471 11.3291 25.5547 11.3291H20.0056H19.7263H17.0195C16.1447 11.3291 15.3848 11.9822 15.2493 12.8448C15.2452 12.8735 15.2369 12.9023 15.2287 12.931V20.8008L15.4423 20.8501C15.4505 20.8501 15.4546 20.8542 15.4628 20.8542C15.5039 20.8665 16.4774 21.1417 17.459 21.84C18.8022 22.7929 19.5086 24.0703 19.5086 25.5325V28.6254C19.9358 28.6952 20.6669 28.7322 21.1968 28.3379C21.6814 27.9805 21.9279 27.3028 21.9279 26.3252V22.719C21.9279 22.4479 22.1497 22.2261 22.4208 22.2261H24.2445H26.5816H27.2305C27.6372 22.2261 28.0438 22.0741 28.3683 21.7948C28.853 21.3799 29.0912 20.7186 28.9844 20.0697Z" fill="#40404C"/>
</svg>
