<svg width="40" height="40" viewBox="0 0 40 40" fill="none" xmlns="http://www.w3.org/2000/svg">
<circle cx="20" cy="20" r="20" fill="white"/>
<g clip-path="url(#clip0)">
<path d="M17.609 17.7913H18.209V17.1913V14.922C18.209 13.554 18.6375 12.4838 19.3444 11.7585C20.0497 11.0348 21.0848 10.6001 22.4052 10.6C22.4054 10.6 22.4056 10.6 22.4057 10.6L24.8064 10.6039V13.273L23.2517 13.2735C23.2516 13.2735 23.2516 13.2735 23.2515 13.2735C22.6022 13.2736 22.0198 13.394 21.6378 13.8267C21.2715 14.2416 21.2269 14.7988 21.2269 15.2676V17.1913V17.7913H21.8269H24.6848L24.6837 20.6952H21.8269H21.2269V21.2952V29.3998H18.209V21.2952V20.6952H17.609H15.1935V17.7913H17.609Z" stroke="#40404C" stroke-width="1.2"/>
</g>
<defs>
<clipPath id="clip0">
<rect width="20" height="19.9998" fill="white" transform="translate(10 10)"/>
</clipPath>
</defs>
</svg>
