<svg width="40" height="40" viewBox="0 0 40 40" fill="none" xmlns="http://www.w3.org/2000/svg">
<circle cx="20" cy="20" r="20" fill="white"/>
<path d="M24.5862 10H15.4138C12.4286 10 10 12.4286 10 15.4138V24.5863C10 27.5714 12.4286 30 15.4138 30H24.5863C27.5714 30 30 27.5714 30 24.5863V15.4138C30 12.4286 27.5714 10 24.5862 10V10ZM28.8275 24.5863C28.8275 26.9249 26.9249 28.8275 24.5862 28.8275H15.4138C13.0751 28.8275 11.1725 26.9249 11.1725 24.5863V15.4138C11.1725 13.0751 13.0751 11.1725 15.4138 11.1725H24.5863C26.9249 11.1725 28.8275 13.0751 28.8275 15.4138V24.5863Z" fill="#40404C"/>
<path d="M20.0001 14.5312C16.9846 14.5312 14.5315 16.9844 14.5315 19.9998C14.5315 23.0153 16.9846 25.4684 20.0001 25.4684C23.0155 25.4684 25.4687 23.0153 25.4687 19.9998C25.4687 16.9844 23.0155 14.5312 20.0001 14.5312ZM20.0001 24.2959C17.6313 24.2959 15.704 22.3688 15.704 19.9998C15.704 17.6311 17.6313 15.7037 20.0001 15.7037C22.369 15.7037 24.2962 17.6311 24.2962 19.9998C24.2962 22.3688 22.369 24.2959 20.0001 24.2959Z" fill="#40404C"/>
<path d="M25.5993 12.5889C24.7082 12.5889 23.9834 13.3138 23.9834 14.2048C23.9834 15.0959 24.7082 15.8208 25.5993 15.8208C26.4904 15.8208 27.2154 15.0959 27.2154 14.2048C27.2154 13.3137 26.4904 12.5889 25.5993 12.5889ZM25.5993 14.6482C25.3549 14.6482 25.1559 14.4492 25.1559 14.2048C25.1559 13.9602 25.3549 13.7614 25.5993 13.7614C25.8439 13.7614 26.0429 13.9602 26.0429 14.2048C26.0429 14.4492 25.8439 14.6482 25.5993 14.6482Z" fill="#40404C"/>
</svg>
