<svg width="30" height="30" viewBox="0 0 30 30" fill="none" xmlns="http://www.w3.org/2000/svg">
<path d="M30 15C30 18.8161 28.5747 22.2992 26.2273 24.9465C25.7596 25.4749 25.2551 25.9696 24.7175 26.427C23.4643 27.4941 22.0335 28.358 20.4747 28.969C19.8564 29.212 19.2184 29.4147 18.5627 29.5733C18.5314 29.5818 18.5002 29.5892 18.469 29.5965C17.3559 29.8604 16.1938 30 15 30C6.71572 30 0 23.2843 0 15C0 6.71572 6.71572 0 15 0C18.6012 0 21.9049 1.26855 24.4904 3.38391C24.7354 3.58348 24.9729 3.79107 25.2043 4.00658C28.1541 6.74508 30 10.6567 30 15Z" fill="#F0EFEB"/>
<path d="M15.2328 17.7536C15.2328 17.7536 15.0583 19.3075 14.2932 21.8592C14.0087 22.8096 13.6412 23.8991 13.1714 25.0973L9.19727 22.4033V16.2827C10.1876 11.4552 10.0755 8.28711 10.0755 8.28711L13.8115 10.4422L15.2328 17.7536Z" fill="#FCD645"/>
<path d="M14.2953 21.8489L14.2932 21.8597C14.0087 22.8101 13.6412 23.8996 13.1714 25.0978L9.19727 22.4038V16.2832L14.2953 21.8489Z" fill="#F7C840"/>
<path d="M13.1712 25.0979C12.4596 22.0376 9.59742 16.0513 6.99469 13.3906C6.94775 13.3426 6.88342 13.3164 6.81627 13.3164H0.668848C0.452227 13.3164 0.339141 13.5721 0.483692 13.7334C2.99649 16.5362 5.65717 22.1628 6.33973 25.0979H13.1712V25.0979Z" fill="#12B65F"/>
<path d="M26.7179 20.4419C26.623 21.8868 26.4656 23.3935 26.2275 24.9474C25.7597 25.4757 25.2552 25.9704 24.7177 26.4278C23.4644 27.495 22.0336 28.3588 20.4748 28.9698C19.8565 29.2129 19.2185 29.4156 18.5628 29.5741L19.4083 20.7811L20.0732 13.8651C19.794 8.94086 18.9149 5.3684 18.5292 4.00006C18.4422 3.69086 18.6737 3.38477 18.9945 3.38477H24.6614C24.8763 3.38477 25.0649 3.52498 25.1249 3.7307C25.1482 3.80969 25.1751 3.90215 25.2045 4.00744C25.7487 5.93904 27.2591 12.1998 26.7179 20.4419Z" fill="#508BF4"/>
<path d="M26.7181 20.44C26.6231 21.8849 26.4658 23.3917 26.2276 24.9455C25.7599 25.4739 25.2554 25.9686 24.7179 26.426C23.4646 27.4931 22.0338 28.357 20.475 28.968L19.4085 20.7792L18.8765 16.6913L20.0734 13.8633L26.7181 20.44Z" fill="#497CE7"/>
<path d="M24.7175 26.4254C22.9432 27.9358 20.8126 29.0403 18.4689 29.5949C17.6051 19.0539 10.0757 8.28516 10.0757 8.28516H16.7718C16.7718 8.28516 22.8655 17.0011 24.7175 26.4254Z" fill="#D23737"/>
</svg>
