<svg width="30" height="30" viewBox="0 0 30 30" fill="none" xmlns="http://www.w3.org/2000/svg">
<path d="M30 15C30 23.2843 23.2843 30 15 30C8.32283 30 2.66449 25.6372 0.720586 19.6059C0.252832 18.1549 0 16.6065 0 15C0 8.92834 3.60732 3.6992 8.79551 1.33898C10.6861 0.47877 12.7873 0 15 0C23.2843 0 30 6.71572 30 15Z" fill="#F0EFEB"/>
<path d="M10.1974 20.0988C14.4676 20.0988 17.9294 16.6371 17.9294 12.3668C17.9294 8.09651 14.4676 4.63477 10.1974 4.63477C5.92708 4.63477 2.46533 8.09651 2.46533 12.3668C2.46533 16.6371 5.92708 20.0988 10.1974 20.0988Z" fill="#EE0005"/>
<path d="M19.8033 20.0988C24.0736 20.0988 27.5354 16.6371 27.5354 12.3668C27.5354 8.09651 24.0736 4.63477 19.8033 4.63477C15.533 4.63477 12.0713 8.09651 12.0713 12.3668C12.0713 16.6371 15.533 20.0988 19.8033 20.0988Z" fill="#0098E2"/>
<path d="M12.0713 12.3656C12.0713 14.8207 13.2157 17.0083 15 18.4246C16.7843 17.0083 17.9288 14.8207 17.9288 12.3656C17.9288 9.91057 16.7843 7.72303 15 6.30664C13.2158 7.72309 12.0713 9.91063 12.0713 12.3656Z" fill="#6C69BF"/>
<path d="M7.00957 23.3666C7.00957 23.0282 6.76946 22.8045 6.50197 22.8045C6.24551 22.8045 5.99443 23.0009 5.99443 23.3721V24.7256C5.99443 24.8183 5.85797 24.9166 5.70516 24.9166C5.536 24.9166 5.42139 24.8184 5.42139 24.7256V22.5152C5.42139 22.406 5.536 22.3296 5.70516 22.3296C5.84162 22.3296 5.96168 22.406 5.96168 22.5152V22.7117C6.08174 22.4988 6.32186 22.2969 6.68748 22.2969C7.01496 22.2969 7.27688 22.5206 7.40244 22.8426C7.59346 22.4715 7.90999 22.2969 8.22651 22.2969C8.7177 22.2969 9.17614 22.6844 9.17614 23.372V24.7255C9.17614 24.8183 9.04512 24.9165 8.88686 24.9165C8.7395 24.9165 8.60309 24.8183 8.60309 24.7255V23.372C8.60309 22.9954 8.34657 22.799 8.09555 22.799C7.83903 22.799 7.58256 23.0063 7.58256 23.3611V24.731C7.58256 24.8619 7.44065 24.9165 7.29328 24.9165C7.16227 24.9165 7.00951 24.862 7.00951 24.731V23.3666H7.00957Z" fill="#171614"/>
<path d="M11.9598 23.3556V24.7255C11.9598 24.8292 11.8398 24.9165 11.6815 24.9165C11.5342 24.9165 11.4196 24.8292 11.4196 24.7255V24.5345C11.2285 24.7583 10.9666 24.9602 10.5955 24.9602C10.1971 24.9602 9.86963 24.731 9.86963 24.2398C9.86963 23.6231 10.3881 23.4594 11.1467 23.4594H11.3869V23.3611C11.3869 23.0828 11.245 22.7717 10.8466 22.7717C10.4481 22.7717 10.3499 22.9354 10.2408 22.9354C10.1043 22.9354 10.0334 22.7772 10.0334 22.6462C10.0334 22.4497 10.4864 22.2969 10.8575 22.2969C11.6596 22.2968 11.9598 22.8098 11.9598 23.3556ZM11.3867 23.7758H11.2502C10.8355 23.7758 10.4479 23.8195 10.4479 24.1688C10.4479 24.4143 10.6008 24.5235 10.8027 24.5235C11.0755 24.5235 11.3866 24.2397 11.3866 23.9778L11.3867 23.7758Z" fill="#171614"/>
<path d="M14.9455 23.3065C14.9455 23.7595 14.6945 23.7758 14.4489 23.7758H13.2973V23.9013C13.2973 24.267 13.5866 24.4962 14.0067 24.4962C14.3942 24.4962 14.5252 24.2888 14.6725 24.2888C14.809 24.2888 14.8963 24.4471 14.8963 24.5454C14.8963 24.7091 14.5416 24.9601 13.9903 24.9601C13.2481 24.9601 12.7241 24.5236 12.7241 23.8741V23.3556C12.7241 22.7826 13.2317 22.2969 13.8593 22.2969C14.4434 22.2968 14.9455 22.7116 14.9455 23.3065ZM14.2033 23.4211C14.3615 23.4211 14.4052 23.3884 14.4052 23.2574C14.4052 22.9681 14.1651 22.7335 13.854 22.7335C13.5538 22.7335 13.2973 22.9463 13.2973 23.2464V23.4211H14.2033Z" fill="#171614"/>
<path d="M16.9213 24.2234C16.9213 23.6503 15.606 23.9887 15.606 23.0827C15.606 22.7062 15.8516 22.2969 16.5393 22.2969C16.9486 22.2969 17.3579 22.4442 17.3579 22.6188C17.3579 22.7007 17.276 22.8972 17.1396 22.8972C17.025 22.8972 16.8558 22.7389 16.5502 22.7389C16.2283 22.7389 16.1081 22.919 16.1081 23.0554C16.1081 23.5357 17.4344 23.2191 17.4344 24.2015C17.4344 24.6654 17.0906 24.9601 16.4739 24.9601C15.9336 24.9601 15.5352 24.7309 15.5352 24.5236C15.5352 24.4254 15.617 24.267 15.7316 24.267C15.8735 24.267 15.9881 24.5181 16.4575 24.5181C16.8176 24.5181 16.9213 24.3707 16.9213 24.2234Z" fill="#171614"/>
<path d="M18.7386 24.0663C18.7386 24.3283 18.8368 24.4266 19.1206 24.4266H19.3116C19.4753 24.4266 19.5572 24.5466 19.5572 24.6721C19.5572 24.7976 19.4753 24.9177 19.3116 24.9177H19.1206C18.4985 24.9177 18.1655 24.6612 18.1655 24.0663V21.3321C18.1655 21.2229 18.3129 21.1465 18.4494 21.1465C18.5912 21.1465 18.7386 21.2229 18.7386 21.3321V22.3308H19.4044C19.5026 22.3308 19.5626 22.4345 19.5626 22.5437C19.5626 22.6528 19.5026 22.7565 19.4044 22.7565H18.7386V24.0663Z" fill="#171614"/>
<path d="M21.4785 22.8065C21.1455 22.8065 20.8181 23.1121 20.8181 23.6087V24.7275C20.8181 24.8203 20.6871 24.9186 20.5234 24.9186C20.3597 24.9186 20.2451 24.8204 20.2451 24.7275V22.5171C20.2451 22.408 20.3597 22.3316 20.5234 22.3316C20.6653 22.3316 20.7854 22.408 20.7854 22.5171V22.7573C20.9 22.528 21.1565 22.2988 21.4785 22.2988H21.6532C21.7678 22.2988 21.8715 22.4134 21.8715 22.5499C21.8715 22.6918 21.7678 22.8064 21.6532 22.8064H21.4785V22.8065Z" fill="#171614"/>
<path d="M24.5783 23.372V23.8741C24.5783 24.4417 24.0489 24.9601 23.4486 24.9601C22.8428 24.9601 22.3188 24.4471 22.3188 23.8741V23.372C22.3188 22.799 22.8264 22.2969 23.4486 22.2969C24.0489 22.2968 24.5783 22.7826 24.5783 23.372ZM24.0052 23.372C24.0052 23.0882 23.7542 22.8044 23.4486 22.8044C23.1375 22.8044 22.8919 23.0882 22.8919 23.372V23.8741C22.8919 24.1688 23.1375 24.4526 23.4486 24.4526C23.7542 24.4526 24.0052 24.1688 24.0052 23.8741V23.372Z" fill="#171614"/>
</svg>
