<svg width="30" height="30" viewBox="0 0 30 30" fill="none" xmlns="http://www.w3.org/2000/svg">
<g clip-path="url(#clip0)">
<path d="M30 15C30 22.9194 23.8628 29.4049 16.0855 29.9614C15.7267 29.9872 15.3649 30 15 30C13.2367 30 11.5451 29.6957 9.97348 29.1367C7.78225 28.358 5.82492 27.0833 4.23738 25.448C1.61508 22.7473 0 19.0622 0 15C0 6.71572 6.71572 0 15 0C23.2843 0 30 6.71572 30 15Z" fill="#F0EFEB"/>
<path d="M25.1973 9.74178C24.4963 14.412 23.4071 18.5373 17.1022 19.471C15.8306 19.6595 14.2565 19.6675 12.5539 19.5597C11.8682 19.5169 11.2657 20.0128 11.1696 20.693L9.97389 29.1353C7.78266 28.3565 5.82533 27.0818 4.23779 25.4465L7.27699 3.98424C7.36576 3.35793 7.90207 2.89258 8.53453 2.89258H18.8147C21.7724 2.89258 25.8977 5.07221 25.1973 9.74178Z" fill="#002C8D"/>
<path d="M26.1657 20.6794C24.1807 24.4545 19.8999 24.6412 18.8885 24.6412H17.8244C17.2569 24.6412 16.7762 25.0594 16.6973 25.6208L16.0856 29.9616C15.7269 29.9874 15.3651 30.0002 15.0002 30.0002C13.2369 30.0002 11.5452 29.696 9.97363 29.137L12.5744 10.7709C12.6516 10.2291 13.115 9.82617 13.6624 9.82617H22.5589C24.1673 9.82617 26.2434 10.7562 26.9052 12.2347C27.5665 13.7133 28.1506 16.9049 26.1657 20.6794Z" fill="#008EE7"/>
<path d="M25.0821 10.473C24.3676 14.8371 23.0763 18.5883 17.1022 19.4733C15.8297 19.6612 14.2558 19.6695 12.5536 19.562C11.8671 19.5188 11.2647 20.0138 11.1689 20.6944L12.5734 10.7707C12.6505 10.229 13.1151 9.82617 13.6615 9.82617H22.5591C23.3612 9.82623 24.28 10.0574 25.0821 10.473Z" fill="#142171"/>
</g>
<defs>
<clipPath id="clip0">
<rect width="30" height="30" fill="white"/>
</clipPath>
</defs>
</svg>
