<svg width="30" height="30" viewBox="0 0 30 30" fill="none" xmlns="http://www.w3.org/2000/svg">
<g clip-path="url(#clip0)">
<path d="M30 15C30 22.7063 24.1886 29.0553 16.7094 29.9033C16.1486 29.9675 15.578 30 15 30C7.00406 30 0.46957 23.7441 0.0244922 15.8596C0.00796875 15.5749 0 15.2883 0 15C0 6.71572 6.71572 0 15 0C23.2843 0 30 6.71572 30 15Z" fill="#006AB8"/>
<path d="M8.71637 10.6681L11.4736 13.8203L14.6258 11.0631L11.8685 7.91089L8.71637 10.6681Z" fill="#F0EFEB"/>
<path d="M11.0562 16.1017L13.8135 19.2539L16.9656 16.4967L14.2084 13.3445L11.0562 16.1017Z" fill="#F0EFEB"/>
<path d="M13.3643 21.5724L16.1216 24.7246L19.2737 21.9673L16.5165 18.8152L13.3643 21.5724Z" fill="#F0EFEB"/>
<path d="M21.0329 23.7782L23.0977 26.1387L25.4581 24.0739L23.3934 21.7135L21.0329 23.7782Z" fill="#F0EFEB"/>
<path d="M18.9309 19.0106L20.9956 21.3711L23.3561 19.3064L21.2913 16.9459L18.9309 19.0106Z" fill="#F0EFEB"/>
<path d="M16.8298 13.9247L18.8945 16.2852L21.255 14.2204L19.1903 11.86L16.8298 13.9247Z" fill="#F0EFEB"/>
<path d="M14.6755 9.16297L16.7402 11.5234L19.1007 9.4587L17.036 7.09823L14.6755 9.16297Z" fill="#F0EFEB"/>
<path d="M21.7591 27.3723C20.2964 28.5478 18.5822 29.4228 16.7093 29.9028C16.1485 29.967 15.5779 29.9995 14.9999 29.9995C7.00398 29.9995 0.469492 23.7436 0.0244141 15.8591C0.568691 8.96211 6.33848 3.53516 13.375 3.53516C15.8393 3.53516 18.1468 4.20125 20.1305 5.36211L18.906 6.43356L17.1672 4.44377L13.9009 7.29986L12.2148 5.37254L6.21607 10.5675L9.82773 14.6977L8.52607 15.8371L12.1377 19.9667L10.773 21.1606L16.0181 27.1581L19.1638 24.4061L21.7591 27.3723Z" fill="#F0EFEB"/>
<path d="M19.92 7.99817L21.2729 9.54492L22.8197 8.19195L21.4667 6.64519L19.92 7.99817Z" fill="#F0EFEB"/>
<path d="M22.004 12.7736L23.3569 14.3203L24.9037 12.9673L23.5507 11.4206L22.004 12.7736Z" fill="#F0EFEB"/>
<path d="M24.0381 17.5489L25.3911 19.0957L26.9379 17.7427L25.5849 16.196L24.0381 17.5489Z" fill="#F0EFEB"/>
</g>
<defs>
<clipPath id="clip0">
<rect width="30" height="30" fill="white"/>
</clipPath>
</defs>
</svg>
