<svg width="20" height="20" viewBox="0 0 20 20" fill="none" xmlns="http://www.w3.org/2000/svg">
<path d="M16.7875 1.34766H3.19302C1.77166 1.34766 0.615234 2.50385 0.615234 3.92544V12.2449C0.615234 13.6633 1.76662 14.8177 3.18386 14.8227V18.598L8.60939 14.8227H16.7875C18.2088 14.8227 19.3652 13.6663 19.3652 12.2449V3.92544C19.3652 2.50385 18.2088 1.34766 16.7875 1.34766ZM18.2666 12.2449C18.2666 13.0605 17.6031 13.7241 16.7875 13.7241H8.26469L4.28249 16.4952V13.7241H3.19302C2.3774 13.7241 1.71387 13.0605 1.71387 12.2449V3.92544C1.71387 3.1097 2.3774 2.44629 3.19302 2.44629H16.7875C17.6031 2.44629 18.2666 3.1097 18.2666 3.92544V12.2449Z" fill="#D4D4D5"/>
<path d="M5.63354 5.23047H14.3469V6.3291H5.63354V5.23047Z" fill="#D4D4D5"/>
<path d="M5.63354 7.57422H14.3469V8.67285H5.63354V7.57422Z" fill="#D4D4D5"/>
<path d="M5.63354 9.91797H14.3469V11.0166H5.63354V9.91797Z" fill="#D4D4D5"/>
</svg>
