<svg width="30" height="25" viewBox="0 0 30 25" fill="none" xmlns="http://www.w3.org/2000/svg">
<circle cx="12.5" cy="12.5" r="12.5" fill="#FDD935"/>
<g clip-path="url(#clip0)">
<path d="M6 14.7515L8.70937 10.4231H14.3578V8H30V9.42537H15.7641V19.4505H22.3875C22.6969 18.3102 23.7281 17.4692 24.9516 17.4692C26.175 17.4692 27.2062 18.3102 27.5156 19.4505H29.2969V20.8759H27.5156C27.2062 22.0162 26.175 22.8571 24.9516 22.8571C23.7281 22.8571 22.6969 22.0162 22.3875 20.8759H13.6125C13.3031 22.0162 12.2719 22.8571 11.0484 22.8571C9.825 22.8571 8.79375 22.0162 8.48438 20.8759H6V14.7515ZM24.9516 21.4318C25.6406 21.4318 26.2031 20.8616 26.2031 20.1632C26.2031 19.4648 25.6406 18.8946 24.9516 18.8946C24.2625 18.8946 23.7 19.4648 23.7 20.1632C23.7 20.8616 24.2578 21.4318 24.9516 21.4318ZM11.0484 21.4318C11.7375 21.4318 12.3 20.8616 12.3 20.1632C12.3 19.4648 11.7375 18.8946 11.0484 18.8946C10.3594 18.8946 9.79688 19.4648 9.79688 20.1632C9.79688 20.8616 10.3594 21.4318 11.0484 21.4318ZM7.40625 19.4505H8.48438C8.79375 18.3102 9.825 17.4692 11.0484 17.4692C12.2719 17.4692 13.3031 18.3102 13.6125 19.4505H14.3578V11.8485H9.47813L7.40625 15.1649V19.4505Z" fill="#292930"/>
<path d="M30 10.4229H25.0266V11.8482H30V10.4229Z" fill="#292930"/>
<path d="M28.2141 15.1362H23.2407V16.5616H28.2141V15.1362Z" fill="#292930"/>
<path d="M29.1094 12.5708H24.1359V13.9962H29.1094V12.5708Z" fill="#292930"/>
</g>
<defs>
<clipPath id="clip0">
<rect width="24" height="14.8571" transform="matrix(-1 0 0 1 30 8)" fill="white"/>
</clipPath>
</defs>
</svg>
