<svg width="20" height="20" viewBox="0 0 20 20" fill="none" xmlns="http://www.w3.org/2000/svg">
<path d="M19.009 12.1947C18.5038 12.626 17.8713 12.8601 17.2305 12.8601H16.5816H14.2445H12.9137V15.9776C12.9137 17.2879 12.5317 18.2326 11.7759 18.7871C10.5807 19.666 8.9336 19.1649 8.86377 19.1403C8.6584 19.0746 8.51875 18.8856 8.51875 18.672V15.1849C8.51875 14.0471 7.97657 13.0819 6.90454 12.3138C6.1036 11.7388 5.28622 11.4882 5.19997 11.4595L5.08085 11.4307C4.90424 11.7305 4.57975 11.9318 4.20598 11.9318H1.01453C0.455921 11.9318 0 11.4759 0 10.9173V1.53597C0 0.977367 0.455921 0.521444 1.01453 0.521444H4.21419C4.52636 0.521444 4.80977 0.665203 4.9946 0.887003C5.50802 0.340719 6.23503 -0.00019455 7.02365 -0.00019455H9.73043H10.0097H15.5588C17.4441 -0.00019455 18.6476 0.985582 18.8612 2.71069L19.9661 9.56594C20.118 10.5517 19.7525 11.5621 19.009 12.1947ZM4.23884 1.53597C4.23884 1.51954 4.22651 1.50722 4.21009 1.50722H1.01453C0.998098 1.50722 0.985776 1.51954 0.985776 1.53597V10.9173C0.985776 10.9337 0.998098 10.946 1.01453 10.946H4.21419C4.23062 10.946 4.24294 10.9337 4.24294 10.9173V1.53597H4.23884ZM18.9844 9.72202L17.8836 2.85445C17.8836 2.85034 17.8836 2.84213 17.8795 2.83391C17.7275 1.6058 16.9471 0.981474 15.5547 0.981474H10.0056H9.72632H7.01955C6.14467 0.981474 5.3848 1.63455 5.24926 2.4971C5.24515 2.52586 5.23694 2.55461 5.22872 2.58336V10.4531L5.44231 10.5024C5.45052 10.5024 5.45463 10.5065 5.46284 10.5065C5.50392 10.5189 6.47737 10.7941 7.45904 11.4923C8.80216 12.4452 9.50863 13.7226 9.50863 15.1849V18.2777C9.9358 18.3476 10.6669 18.3845 11.1968 17.9902C11.6814 17.6329 11.9279 16.9552 11.9279 15.9776V12.3713C11.9279 12.1002 12.1497 11.8784 12.4208 11.8784H14.2445H16.5816H17.2305C17.6372 11.8784 18.0438 11.7264 18.3683 11.4471C18.853 11.0323 19.0912 10.371 18.9844 9.72202Z" fill="#D4D4D5"/>
</svg>
