<svg width="50" height="50" viewBox="0 0 50 50" fill="none" xmlns="http://www.w3.org/2000/svg">
<path d="M41.3944 27V0H8.57506V27H4.58984V50H45.3796V27H41.3944ZM42.45 44.6251L31.731 32.3265L34.1278 29.9297H42.45V44.6251ZM24.9847 39.0728L29.6543 34.4028L40.6948 47.0703H9.27467L20.3148 34.4028L24.9847 39.0728ZM11.5047 2.92969H38.4647V27H32.914L24.9847 34.9297L17.0551 27H11.5047V2.92969ZM15.8417 29.9297L18.2384 32.3265L7.51953 44.6251V29.9297H15.8417Z" fill="#FDD935"/>
<path d="M31.4315 4.98242H18.5386V13.9397H31.4315V4.98242ZM28.5018 11.01H21.4683V7.91211H28.5018V11.01Z" fill="#FDD935"/>
<path d="M15.0215 17.2051H34.9476V20.1348H15.0215V17.2051Z" fill="#FDD935"/>
<path d="M15.0215 22.1035H34.9476V25.0332H15.0215V22.1035Z" fill="#FDD935"/>
</svg>
