<svg width="50" height="50" viewBox="0 0 50 50" fill="none" xmlns="http://www.w3.org/2000/svg">
<path fill-rule="evenodd" clip-rule="evenodd" d="M41.3944 0V27H45.3796V50H4.58984V27H8.57506V0H41.3944ZM31.731 32.3265L42.45 44.6251V29.9297H34.1278L31.731 32.3265ZM29.6543 34.4028L24.9847 39.0728L20.3148 34.4028L9.27467 47.0703H40.6948L29.6543 34.4028ZM38.4647 2.92969H11.5047V27H17.0551L24.9847 34.9297L32.914 27H38.4647V2.92969ZM18.2384 32.3265L15.8417 29.9297H7.51953V44.6251L18.2384 32.3265ZM18.5386 4.98242H31.4315V13.9397H18.5386V4.98242ZM21.4683 11.01H28.5018V7.91211H21.4683V11.01ZM15.0215 17.2051H34.9476V20.1348H15.0215V17.2051ZM34.9476 22.1035H15.0215V25.0332H34.9476V22.1035Z" fill="url(#paint0_linear)"/>
<defs>
<linearGradient id="paint0_linear" x1="24.9845" y1="1.5" x2="24.9845" y2="50" gradientUnits="userSpaceOnUse">
<stop stop-color="#D935FD"/>
<stop offset="1" stop-color="#3559FD"/>
</linearGradient>
</defs>
</svg>
