<svg width="30" height="30" viewBox="0 0 30 30" fill="none" xmlns="http://www.w3.org/2000/svg">
<circle cx="15" cy="15" r="15" fill="#FDD935"/>
<path d="M11.4375 11.3753H18.3125C18.4853 11.3753 18.625 11.2355 18.625 11.0628C18.625 10.89 18.4853 10.7502 18.3125 10.7502H11.4375C11.2648 10.7502 11.125 10.89 11.125 11.0628C11.125 11.2355 11.2648 11.3753 11.4375 11.3753Z" fill="#40404C"/>
<path d="M15.1875 14.4714H11.4375C11.2648 14.4714 11.125 14.6112 11.125 14.7839C11.125 14.9567 11.2648 15.0965 11.4375 15.0965H15.1875C15.3603 15.0965 15.5 14.9567 15.5 14.7839C15.5 14.6112 15.3603 14.4714 15.1875 14.4714Z" fill="#40404C"/>
<path d="M21.8037 8.86549C21.7856 8.86549 21.7681 8.87003 21.75 8.87088V8.86549C21.75 8.1761 21.1891 7.61548 20.5 7.61548H9.25001C8.56092 7.61548 8 8.1761 8 8.86549V21.053C8 21.1793 8.07629 21.2935 8.19286 21.3417C8.23133 21.3579 8.2722 21.3655 8.31248 21.3655C8.39366 21.3655 8.47361 21.3338 8.53344 21.2739L11.5669 18.2405H20.5C21.1891 18.2405 21.75 17.6799 21.75 16.9905V11.8072L22.6497 10.9077C22.6497 10.9077 22.6497 10.9077 22.6497 10.9074C22.8724 10.6846 23 10.3764 23 10.0618C23 9.402 22.4635 8.86549 21.8037 8.86549ZM21.125 16.9905C21.125 17.335 20.8448 17.6155 20.5 17.6155H11.4375C11.3545 17.6155 11.2751 17.6484 11.2165 17.707L8.62499 20.2986V8.86549C8.62499 8.52096 8.90516 8.2405 9.24998 8.2405H20.5C20.8449 8.2405 21.125 8.52096 21.125 8.86549V9.07895C21.0657 9.11973 21.0089 9.16458 20.9578 9.21582L17.5576 12.6155H11.4375C11.2648 12.6155 11.125 12.7553 11.125 12.928C11.125 13.1007 11.2648 13.2405 11.4375 13.2405H17.0562L16.7561 14.7417C16.7354 14.8442 16.7677 14.9501 16.8416 15.024C16.9008 15.0832 16.9807 15.1155 17.0625 15.1155C17.0827 15.1155 17.1034 15.1134 17.1235 15.1094L18.6854 14.7969C18.7465 14.7847 18.802 14.7551 18.8454 14.7114L21.125 12.4321V16.9905ZM18.4706 14.2027L17.4611 14.4047L17.6631 13.394L20.4999 10.5572L21.3081 11.3654L18.4706 14.2027ZM22.2078 10.4658L21.75 10.9236L20.9417 10.1153L21.3996 9.65741C21.5058 9.5515 21.6529 9.49048 21.8037 9.49048C22.1186 9.49048 22.375 9.74683 22.375 10.0618C22.375 10.2119 22.314 10.3593 22.2078 10.4658Z" fill="#40404C"/>
</svg>
