<svg width="30" height="30" viewBox="0 0 30 30" fill="none" xmlns="http://www.w3.org/2000/svg">
<circle cx="12.5" cy="12.5" r="12.5" fill="#FDD935"/>
<g clip-path="url(#clip0)">
<path d="M28.8967 12.3167C26.5499 10.91 25.2615 9.42003 24.5943 8.41771C23.8948 7.36743 23.7127 6.61926 23.7017 6.57202C23.6363 6.23437 23.3424 6 22.9982 6H13.0444C12.7029 6 12.4087 6.24023 12.3404 6.57458C12.3343 6.60461 11.6759 9.60149 7.14589 12.3167C6.87379 12.4797 6.74086 12.802 6.81886 13.1094C6.88167 13.3573 8.38221 19.2235 10.5864 22.8802C11.9465 25.1361 13.676 26.9126 14.5858 27.7708C15.253 28.4003 15.902 28.9368 16.4624 29.3224C17.3446 29.9298 17.7748 30.0001 18.0214 30.0001C18.268 30.0001 18.698 29.9298 19.5803 29.3224C20.1406 28.9368 20.7896 28.4003 21.457 27.7708C22.3668 26.9126 24.0963 25.1361 25.4562 22.8802C27.6606 19.2235 29.1611 13.3573 29.2239 13.1094C29.3017 12.802 29.1688 12.4797 28.8967 12.3167ZM27.695 13.263C27.5167 13.9099 27.1695 15.1131 26.6938 16.5029H22.9718C22.6556 14.3223 20.9231 12.5947 18.7403 12.286V7.43701H22.4703C22.8771 8.53032 24.1338 10.9918 27.695 13.263ZM18.0388 20.7692C16.1122 20.7692 14.5404 19.2255 14.493 17.31C14.4966 17.2809 14.499 17.2514 14.499 17.2214C14.499 17.1912 14.4966 17.1619 14.493 17.1326C14.5404 15.2173 16.1122 13.6734 18.0388 13.6734C19.9951 13.6734 21.5868 15.2649 21.5868 17.2214C21.5868 19.1777 19.9951 20.7692 18.0388 20.7692ZM13.5721 7.43701H17.3033V12.2907C15.1364 12.6125 13.4203 14.3336 13.1058 16.5029H9.34882C8.87312 15.1131 8.52595 13.9099 8.3476 13.263C11.9088 10.9918 13.1655 8.53032 13.5721 7.43701ZM15.4544 26.6139C14.625 25.82 13.0496 24.1825 11.8173 22.1383C11.0797 20.9148 10.4161 19.3963 9.86554 17.9399H13.1058C13.4211 20.1146 15.1456 21.8391 17.3203 22.1544V28.1689C16.8704 27.8633 16.2385 27.3645 15.4544 26.6139ZM24.2253 22.1383C22.9931 24.1825 21.4176 25.8198 20.5882 26.6139C19.8241 27.3454 19.2046 27.8374 18.7573 28.1449V22.1544C20.932 21.8391 22.6565 20.1146 22.9718 17.9399H26.1771C25.6263 19.3963 24.9629 20.9148 24.2253 22.1383Z" fill="#40404C"/>
<path d="M18.9876 15.8974L17.4032 17.4818L16.9892 16.9786C16.7371 16.6723 16.2844 16.6282 15.9779 16.8803C15.6716 17.1324 15.6275 17.5853 15.8796 17.8918L16.7966 19.0062C16.9253 19.1627 17.1143 19.2576 17.3166 19.2673C17.3283 19.2678 17.3399 19.2682 17.3516 19.2682C17.5417 19.2682 17.7246 19.1927 17.8595 19.0576L20.0037 16.9136C20.2844 16.6329 20.2844 16.1781 20.0037 15.8974C19.7232 15.6169 19.2682 15.6169 18.9876 15.8974Z" fill="#40404C"/>
</g>
<defs>
<clipPath id="clip0">
<rect x="6" y="6" width="24" height="24" fill="white"/>
</clipPath>
</defs>
</svg>
