<svg width="15" height="15" viewBox="0 0 15 15" fill="none" xmlns="http://www.w3.org/2000/svg">
<path d="M4.06038 0H10.9396C13.1786 0 15 1.82144 15 4.06036V10.9397C15 13.1785 13.1786 15 10.9396 15H4.06027C1.82147 15 2.86102e-05 13.1785 2.86102e-05 10.9397V4.06036C2.86102e-05 1.82144 1.82147 0 4.06038 0V0ZM0.879391 10.9397C0.879391 12.6936 2.30635 14.1206 4.06038 14.1206H10.9396C12.6937 14.1206 14.1206 12.6936 14.1206 10.9397V4.06036C14.1206 2.30632 12.6937 0.879362 10.9396 0.879362H4.06027C2.30635 0.879362 0.879391 2.30632 0.879391 4.06036V10.9397Z" fill="#40404C"/>
<path d="M7.5 3.39874C9.76158 3.39874 11.6014 5.23861 11.6014 7.50018C11.6014 9.76176 9.76158 11.6016 7.5 11.6016C5.23842 11.6016 3.39856 9.76176 3.39856 7.50018C3.39856 5.23861 5.23842 3.39874 7.5 3.39874ZM7.5 10.7223C9.27658 10.7223 10.7221 9.27688 10.7221 7.50018C10.7221 5.72361 9.27658 4.27811 7.5 4.27811C5.72331 4.27811 4.27792 5.72361 4.27792 7.50018C4.27792 9.27688 5.72331 10.7223 7.5 10.7223Z" fill="#40404C"/>
<path d="M3.3004 1.9422C3.96874 1.9422 4.51233 2.48591 4.51233 3.15413C4.51233 3.82246 3.96874 4.36617 3.3004 4.36617C2.63207 4.36617 2.08836 3.82246 2.08836 3.15413C2.08836 2.48579 2.63207 1.9422 3.3004 1.9422ZM3.3004 3.48669C3.48374 3.48669 3.63297 3.33746 3.63297 3.15413C3.63297 2.97068 3.48374 2.82156 3.3004 2.82156C3.11695 2.82156 2.96772 2.97068 2.96772 3.15413C2.96772 3.33746 3.11695 3.48669 3.3004 3.48669Z" fill="#40404C"/>
</svg>
