<svg width="20" height="20" viewBox="0 0 20 20" fill="none" xmlns="http://www.w3.org/2000/svg">
<path d="M19.009 7.45767C18.5038 7.02639 17.8713 6.79227 17.2305 6.79227H16.5816H14.2445H12.9137V3.67475C12.9137 2.36449 12.5317 1.41979 11.7759 0.86529C10.5807 -0.0136936 8.9336 0.487409 8.86377 0.512054C8.6584 0.577772 8.51875 0.766712 8.51875 0.980297V4.46748C8.51875 5.60523 7.97657 6.57047 6.90454 7.33855C6.1036 7.91359 5.28622 8.16414 5.19997 8.19289L5.08085 8.22164C4.90424 7.9218 4.57975 7.72054 4.20598 7.72054H1.01453C0.455921 7.72054 0 8.17646 0 8.73507V18.1164C0 18.675 0.455921 19.1309 1.01453 19.1309H4.21419C4.52636 19.1309 4.80977 18.9871 4.9946 18.7653C5.50802 19.3116 6.23503 19.6525 7.02365 19.6525H9.73043H10.0097H15.5588C17.4441 19.6525 18.6476 18.6668 18.8612 16.9417L19.9661 10.0864C20.118 9.10063 19.7525 8.09021 19.009 7.45767ZM4.23884 18.1164C4.23884 18.1328 4.22651 18.1451 4.21009 18.1451H1.01453C0.998098 18.1451 0.985776 18.1328 0.985776 18.1164V8.73507C0.985776 8.71864 0.998098 8.70632 1.01453 8.70632H4.21419C4.23062 8.70632 4.24294 8.71864 4.24294 8.73507V18.1164H4.23884ZM18.9844 9.93032L17.8836 16.7979C17.8836 16.802 17.8836 16.8102 17.8795 16.8184C17.7275 18.0465 16.9471 18.6709 15.5547 18.6709H10.0056H9.72632H7.01955C6.14467 18.6709 5.3848 18.0178 5.24926 17.1552C5.24515 17.1265 5.23694 17.0977 5.22872 17.069V9.1992L5.44231 9.14992C5.45052 9.14992 5.45463 9.14581 5.46284 9.14581C5.50392 9.13349 6.47737 8.85829 7.45904 8.16003C8.80216 7.20712 9.50863 5.92971 9.50863 4.46748V1.37461C9.9358 1.30478 10.6669 1.26782 11.1968 1.66213C11.6814 2.01947 11.9279 2.69719 11.9279 3.67475V7.28105C11.9279 7.55214 12.1497 7.77394 12.4208 7.77394H14.2445H16.5816H17.2305C17.6372 7.77394 18.0438 7.92591 18.3683 8.20521C18.853 8.62006 19.0912 9.28135 18.9844 9.93032Z" fill="#D4D4D5"/>
</svg>
