<svg width="30" height="30" viewBox="0 0 30 30" fill="none" xmlns="http://www.w3.org/2000/svg">
<circle cx="15" cy="15" r="15" fill="#FDD935"/>
<circle cx="15" cy="15" r="15" stroke="#FDD935"/>
<path d="M10.9114 14.9348C9.70833 14.9348 8.5053 14.9348 7.30227 14.9348C7.13753 14.9348 7 15.0753 7 15.2435C7 17.1625 7 19.0815 7 21.0005C7 21.2307 7 21.4606 7 21.6908C7 21.859 7.13753 21.9995 7.30227 21.9995C8.5053 21.9995 9.70833 21.9995 10.9114 21.9995C10.9939 21.9995 11.0552 21.968 11.1027 21.9242C11.1099 21.9186 11.1175 21.914 11.1242 21.9078C11.1296 21.9016 11.1338 21.8945 11.1387 21.888C11.1822 21.8393 11.2133 21.7763 11.2133 21.6911C11.2133 19.7722 11.2133 17.8532 11.2133 15.9342C11.2133 15.7039 11.2133 15.474 11.2133 15.2438C11.2136 15.0753 11.0761 14.9348 10.9114 14.9348ZM7.60454 15.5521C8.60595 15.5521 9.60767 15.5521 10.6091 15.5521C10.6091 17.3683 10.6091 19.1842 10.6091 21.0005C10.6091 21.1279 10.6091 21.2551 10.6091 21.3822C9.60767 21.3822 8.60595 21.3822 7.60454 21.3822C7.60454 19.566 7.60454 17.7501 7.60454 15.9338C7.60454 15.8067 7.60454 15.6792 7.60454 15.5521ZM21.7238 17.5723C21.7238 17.4668 21.7238 17.3615 21.7238 17.256C22.0043 17.0511 21.998 16.5076 21.9992 16.1885C22.0004 15.8974 22.0128 15.5984 21.8263 15.3617C21.7767 15.299 21.7105 15.2626 21.6392 15.2376C21.6392 15.2182 21.6392 15.1987 21.6392 15.1793C21.6482 15.1783 21.657 15.1777 21.6661 15.1768C21.7876 15.166 21.9384 15.0919 21.9575 14.9503C22.0061 14.5901 21.9798 14.2241 21.9838 13.8618C21.9886 13.3942 21.8399 13.0078 21.4554 12.7362C21.057 12.4548 20.5023 12.5171 20.0396 12.5094C19.0073 12.4918 17.9748 12.4721 16.9425 12.4523C17.155 12.1767 17.3672 11.9008 17.5791 11.6246C17.9896 11.0888 18.4079 10.5833 18.6908 9.96299C18.9719 9.34667 19.1908 8.57697 18.9317 7.91283C18.7495 7.44558 18.3526 7.09684 17.8602 7.01937C17.3887 6.9453 16.902 7.08356 16.5632 7.43539C16.4166 7.58785 16.3325 7.77395 16.234 7.95819C16.1309 8.15077 16.0194 8.33903 15.9066 8.52574C15.2265 9.65344 14.483 10.7426 13.7427 11.8298C13.042 12.8591 12.3335 13.8831 11.6153 14.9C11.6135 14.9024 11.6138 14.9055 11.6123 14.908C11.6039 14.9234 11.5987 14.9413 11.593 14.9592C11.583 14.9876 11.5757 15.0151 11.5757 15.0453C11.5757 15.049 11.5736 15.0518 11.5736 15.0555C11.5736 16.9754 11.5736 18.8954 11.5736 20.8153C11.5736 21.1072 11.5736 21.3995 11.5736 21.6915C11.5736 21.8597 11.7112 22.0001 11.8759 22.0001C13.7203 22.0001 15.5651 22.0001 17.4095 22.0001C18.2934 22.0001 19.1772 22.0001 20.061 22.0001C20.5918 22.0001 21.0908 21.7714 21.3756 21.2915C21.5331 21.0261 21.5062 20.6273 21.5325 20.327C21.5388 20.2536 21.5455 20.1801 21.5518 20.1067C21.5579 20.0369 21.5639 19.9675 21.5702 19.8978C21.5724 19.8746 21.5745 19.8512 21.5766 19.828C21.5778 19.8255 21.5787 19.8246 21.5805 19.8197C21.5811 19.8178 21.5817 19.8163 21.5823 19.8144C21.9789 19.6336 21.9916 19.0154 21.9958 18.6395C21.9989 18.3602 22.0243 18.0266 21.9006 17.772C21.8583 17.6846 21.7979 17.6208 21.7238 17.5723ZM21.4811 18.1096C21.4793 18.1096 21.4775 18.109 21.4756 18.1087C21.4953 18.1071 21.5146 18.1084 21.537 18.1028C21.5198 18.1071 21.4932 18.1087 21.4811 18.1096ZM21.4164 15.8098C21.4161 15.8098 21.4158 15.8095 21.4155 15.8092C21.424 15.8092 21.4324 15.8095 21.4406 15.8101C21.4294 15.8095 21.4218 15.8095 21.4164 15.8098ZM21.2801 19.27C21.2973 19.2608 21.3061 19.2561 21.3112 19.2534C21.3103 19.2546 21.3091 19.2561 21.3085 19.2571C21.3049 19.2577 21.2967 19.2611 21.2801 19.27ZM21.3463 19.2006C21.3384 19.2173 21.3357 19.2247 21.3348 19.2287C21.3324 19.2299 21.3275 19.2339 21.3169 19.2456C21.313 19.25 21.3136 19.2503 21.3115 19.2527C21.3024 19.2568 21.2831 19.2654 21.2695 19.2672C21.1631 19.2821 21.0915 19.3901 21.0585 19.4827C20.9013 19.9234 20.9164 20.4542 20.8756 20.919C20.8756 20.9205 20.8756 20.9208 20.8753 20.9224C20.8738 20.9282 20.872 20.9344 20.8696 20.9446C20.8693 20.9455 20.836 21.0094 20.8315 21.0171C20.7877 21.0909 20.7172 21.1492 20.6538 21.2041C20.5413 21.3017 20.3733 21.3828 20.2242 21.3828C20.1574 21.3828 20.0903 21.3828 20.0235 21.3828C19.1158 21.3828 18.2078 21.3828 17.3001 21.3828C15.5929 21.3828 13.8857 21.3828 12.1785 21.3828C12.1785 19.5657 12.1785 17.7488 12.1785 15.9317C12.1785 15.6718 12.1785 15.4117 12.1785 15.1518C13.3836 13.4445 14.5739 11.7237 15.7138 9.96947C16.0188 9.50006 16.3214 9.02756 16.6025 8.54272C16.6953 8.38285 16.7829 8.22052 16.8648 8.05479C16.8875 8.00881 16.915 7.96591 16.9437 7.92394C16.9062 7.97856 16.99 7.87147 17.0072 7.85357C17.0241 7.83598 17.0423 7.81962 17.0601 7.80327C17.0677 7.79648 17.0667 7.79678 17.0695 7.79401C17.0719 7.79216 17.0704 7.79339 17.074 7.79092C17.1187 7.75728 17.1671 7.72858 17.2161 7.70235C17.2288 7.69556 17.2418 7.68969 17.2545 7.68383C17.2578 7.68321 17.2889 7.67025 17.2968 7.66716C17.3415 7.65112 17.3878 7.63908 17.434 7.62859C17.447 7.62581 17.46 7.62365 17.4733 7.62149C17.4769 7.62149 17.5093 7.61686 17.5183 7.61593C17.5737 7.6113 17.6293 7.61192 17.6846 7.61501C17.6979 7.61562 17.7109 7.61748 17.7242 7.61871C17.7272 7.61964 17.7602 7.62457 17.7692 7.62643C17.8161 7.63569 17.8617 7.64926 17.9071 7.66439C17.9128 7.66624 17.9343 7.67488 17.9457 7.6792C17.96 7.68599 17.9745 7.69247 17.9884 7.69988C18.0385 7.7258 18.0857 7.75697 18.1313 7.79061C18.0766 7.75049 18.1821 7.83968 18.1993 7.85727C18.2169 7.87548 18.2335 7.89462 18.2498 7.91406C18.2538 7.91869 18.2525 7.91684 18.255 7.91992C18.2571 7.92332 18.2568 7.92363 18.2643 7.93443C18.3487 8.05603 18.3626 8.10263 18.3946 8.21404C18.436 8.35693 18.4366 8.40569 18.4387 8.55074C18.4412 8.71462 18.4182 8.8609 18.3825 9.01892C18.2347 9.67535 17.8823 10.2265 17.486 10.7484C17.2475 11.0623 17.0075 11.3749 16.7672 11.6872C16.6608 11.8255 16.5544 11.9635 16.448 12.1017C16.3244 12.2619 16.143 12.4409 16.2101 12.6665C16.347 13.1279 16.8328 13.0671 17.1985 13.0739C17.7925 13.0853 18.3862 13.0964 18.9801 13.1072C19.5311 13.1174 20.0822 13.1294 20.6332 13.1353C20.9585 13.1387 21.2734 13.2467 21.3653 13.5973C21.4149 13.7859 21.378 14.0232 21.3792 14.2179C21.3798 14.3404 21.3795 14.4627 21.3771 14.5849C21.3635 14.5861 21.3496 14.5873 21.336 14.5886C21.1719 14.6031 21.0337 14.7179 21.0337 14.8972C21.0337 15.0987 21.0337 15.3003 21.0337 15.5018C21.0337 15.67 21.1713 15.8104 21.336 15.8104C21.3517 15.8104 21.3671 15.8098 21.3828 15.8095C21.385 15.8373 21.385 15.8656 21.3862 15.8906C21.391 15.9897 21.3934 16.0891 21.3937 16.1882C21.3943 16.3585 21.4064 16.5495 21.3771 16.7171C21.3765 16.7208 21.3762 16.7211 21.3756 16.7242C21.1758 16.7393 21.093 16.9079 21.1181 17.0668C21.1181 17.3131 21.1181 17.559 21.1181 17.8053C21.1181 17.9569 21.2317 18.0803 21.3744 18.1044C21.375 18.1071 21.3762 18.1096 21.3765 18.1121C21.3967 18.2914 21.3922 18.4818 21.3901 18.6627C21.3883 18.8284 21.4173 19.05 21.3463 19.2006Z" fill="#40404C"/>
</svg>
