<svg width="30" height="30" viewBox="0 0 30 30" fill="none" xmlns="http://www.w3.org/2000/svg">
<circle cx="15" cy="15" r="15" fill="#FDD935"/>
<path d="M15.5 7C12.693 7 10.4093 9.28368 10.4093 12.0907C10.4093 13.2187 11.0734 14.9342 12.4993 17.4894C13.4723 19.2329 14.4408 20.7055 14.4816 20.7676L15.1816 21.8286C15.2522 21.9356 15.3718 22 15.5 22C15.6282 22 15.7478 21.9356 15.8184 21.8286L16.5184 20.7676C16.5589 20.7063 17.5203 19.2464 18.5008 17.4894C19.9267 14.9343 20.5908 13.2188 20.5908 12.0907C20.5908 9.28368 18.307 7 15.5 7ZM17.8347 17.1176C16.8678 18.85 15.9216 20.2871 15.8817 20.3474L15.5 20.9259L15.1185 20.3476C15.0784 20.2867 14.1249 18.8368 13.1654 17.1176C11.8428 14.7474 11.1721 13.0561 11.1721 12.0907C11.1721 9.70431 13.1136 7.76284 15.5 7.76284C17.8864 7.76284 19.8279 9.70431 19.8279 12.0907C19.8279 13.0562 19.1573 14.7475 17.8347 17.1176Z" fill="#40404C"/>
<path d="M15.5 9.23639C13.9437 9.23639 12.6775 10.5026 12.6775 12.0589C12.6775 13.6152 13.9437 14.8814 15.5 14.8814C17.0564 14.8814 18.3225 13.6152 18.3225 12.0589C18.3225 10.5026 17.0564 9.23639 15.5 9.23639ZM15.5 14.1186C14.3643 14.1186 13.4403 13.1946 13.4403 12.0589C13.4403 10.9232 14.3643 9.99923 15.5 9.99923C16.6358 9.99923 17.5597 10.9232 17.5597 12.0589C17.5597 13.1946 16.6358 14.1186 15.5 14.1186Z" fill="#40404C"/>
</svg>
