<svg width="50" height="46" viewBox="0 0 50 46" fill="none" xmlns="http://www.w3.org/2000/svg">
<path fill-rule="evenodd" clip-rule="evenodd" d="M40.0601 29.1174V16.4769H38.0709V13.395C38.0709 6.1877 32.2073 0.324219 25 0.324219C17.7927 0.324219 11.9293 6.18779 11.9293 13.395V16.4769H9.94004V29.1174H0V45.673H50V29.1174H40.0601ZM13.394 13.3951C13.394 6.99561 18.6005 1.78926 24.9999 1.78926C31.3994 1.78926 36.6059 6.9957 36.6059 13.3951V16.477H34.1519V13.3951C34.1519 8.34873 30.0463 4.24326 24.9999 4.24326C19.9535 4.24326 15.848 8.34883 15.848 13.3951V16.477H13.394V13.3951ZM17.313 16.4769V13.395C17.313 9.15635 20.7613 5.70801 25 5.70801C29.2387 5.70801 32.6871 9.15635 32.6871 13.395V16.4769H32.687H17.313ZM11.4049 17.9418H11.9292H17.313H32.6871H38.0709H38.5951V29.1174H28.7902C28.8862 28.7742 28.9377 28.4179 28.9377 28.0551C28.9377 25.8838 27.1712 24.1174 25 24.1174C22.8287 24.1174 21.0624 25.8838 21.0624 28.0551C21.0624 28.4179 21.1139 28.7742 21.2099 29.1174H11.4049V17.9418ZM27.4727 28.0551C27.4727 28.4264 27.3907 28.7877 27.2336 29.1174H22.7662C22.6091 28.7877 22.5271 28.4264 22.5271 28.0551C22.5271 26.6915 23.6364 25.5823 24.9999 25.5823C26.3635 25.5823 27.4727 26.6915 27.4727 28.0551ZM48.5352 44.2082H1.46494V30.5823H9.94004H21.9556H28.0446H40.0602H48.5352V44.2082ZM12.3813 21.0171H13.8462V20.3829H17.3377V18.918H12.3813V21.0171ZM19.0347 18.918H20.4958V20.3829H19.0347V18.918ZM36.1535 22.5253H37.6184V18.918H33.5508V20.3829H36.1535V22.5253ZM36.1538 24.2695H37.6188V25.6835H36.1538V24.2695ZM12.3161 34.9753L11.2802 33.9395L9.52139 35.6984V33.2109H8.05645V35.6983L6.29746 33.9395L5.26172 34.9753L7.02061 36.7342H4.5332V38.1991H7.02061L5.26172 39.9579L6.29746 40.9937L8.05645 39.2349V41.7224H9.52139V39.2349L11.2802 40.9937L12.3161 39.9579L10.5571 38.1991H13.0446V36.7342H10.5571L12.3161 34.9753ZM22.0878 33.9395L23.1237 34.9753L21.3648 36.7342H23.8522V38.1991H21.3648L23.1237 39.9579L22.0878 40.9937L20.329 39.2349V41.7224H18.8641V39.2349L17.1052 40.9937L16.0693 39.9579L17.8283 38.1991H15.3408V36.7342H17.8283L16.0693 34.9753L17.1052 33.9395L18.8641 35.6983V33.2109H20.329V35.6983L22.0878 33.9395ZM33.9314 34.9753L32.8955 33.9395L31.1366 35.6983V33.2109H29.6717V35.6983L27.9128 33.9395L26.8769 34.9753L28.6357 36.7342H26.1484V38.1991H28.6357L26.8769 39.9579L27.9128 40.9937L29.6717 39.2349V41.7224H31.1366V39.235L32.8955 40.9937L33.9314 39.9579L32.1724 38.1991H34.6598V36.7342H32.1724L33.9314 34.9753ZM36.9556 40.3223H45.4666V41.7872H36.9556V40.3223Z" fill="url(#paint0_linear)"/>
<defs>
<linearGradient id="paint0_linear" x1="25" y1="0.324219" x2="25" y2="45.673" gradientUnits="userSpaceOnUse">
<stop stop-color="#D935FD"/>
<stop offset="1" stop-color="#3559FD"/>
</linearGradient>
</defs>
</svg>
