<svg width="30" height="30" viewBox="0 0 30 30" fill="none" xmlns="http://www.w3.org/2000/svg">
<circle cx="12.5" cy="12.5" r="12.5" fill="#FDD935"/>
<g clip-path="url(#clip0)">
<path d="M26.0001 23.2943L24.9813 22.684C24.6708 22.4982 24.3155 22.4002 23.9536 22.4H22.4204C22.1065 22.3994 21.794 22.4398 21.4905 22.5199L16.871 23.76C16.3659 23.8994 15.9602 24.2756 15.7833 24.7688L11.72 22.5705C11.3905 22.383 11.0048 22.3193 10.6325 22.3908C10.4921 22.4156 10.356 22.4604 10.228 22.5236C9.93916 22.6619 9.69951 22.8854 9.54091 23.1637C9.40224 23.4061 9.32939 23.6805 9.32939 23.9596C9.32509 24.5295 9.62705 25.0576 10.12 25.3432L17.4024 29.7004C17.7188 29.8963 18.0833 30 18.4554 30H24.0913C24.3431 30.0002 24.5925 29.9526 24.8265 29.86L26.0001 29.3965V30H30.0001V22H26.0001V23.2943ZM24.5325 29.116C24.3925 29.1713 24.2431 29.1998 24.0925 29.2H18.4554C18.23 29.1998 18.0091 29.1363 17.8181 29.0168L10.5257 24.6545C10.2778 24.5113 10.1261 24.2461 10.128 23.96C10.1286 23.8197 10.1655 23.6818 10.2353 23.56C10.3149 23.4219 10.4349 23.3111 10.5788 23.2428C10.6423 23.2119 10.7095 23.19 10.7788 23.1779C10.8294 23.1686 10.8808 23.1637 10.9321 23.1637C11.0696 23.1633 11.2048 23.1992 11.3241 23.2676L15.7302 25.6484C15.7352 25.6729 15.7352 25.6969 15.7417 25.7213C15.9311 26.4195 16.5645 26.9045 17.2882 26.9053C17.5108 26.885 17.7313 26.8455 17.9474 26.7877L22.1032 25.6756L21.897 24.9027L17.7546 26.01C17.5722 26.052 17.3368 26.1 17.2882 26.1041C16.9269 26.1047 16.6101 25.8633 16.5149 25.5149C16.502 25.4664 16.4944 25.4168 16.4917 25.3668C16.4917 25.3668 16.4886 25.2699 16.4917 25.2359C16.5222 24.9014 16.7565 24.6205 17.0802 24.5305L21.6977 23.2951C21.9335 23.232 22.1765 23.2 22.4204 23.2H23.9536C24.1708 23.2 24.3839 23.259 24.57 23.3705L26.0001 24.2268V28.5359L24.5325 29.116ZM26.8001 22.8H29.2001V29.2H26.8001V22.8Z" fill="black"/>
<path d="M22.4977 9.19953L20.352 7.05402C19.6783 6.37648 18.7617 5.99679 17.8064 5.99953H12.7775C12.4672 5.99992 12.1611 6.07238 11.8832 6.21066L10.9867 6.6591C10.807 6.74953 10.6074 6.79269 10.4064 6.78468L10 6.77042V5.99953H6V14.7995H10V13.5995H10.6801L10.9221 13.7595C11.5992 14.2091 12.3877 14.463 13.2 14.4927V19.5995H30V9.19953H22.4977ZM9.2 13.9995H6.8V6.79953H9.2V13.9995ZM11.3648 13.0939L10.9199 12.7995H10V7.57082L10.3771 7.58429C10.7121 7.59621 11.0445 7.52414 11.3443 7.37472L12.24 6.92628C12.4068 6.84289 12.591 6.79953 12.7775 6.79953H17.8064C18.5494 6.79738 19.2625 7.09269 19.7863 7.61945L21.3664 9.19953H18.0656L17.0947 8.22882L16.5293 8.79425L19.3549 11.62C19.6687 11.9325 19.6697 12.4403 19.3572 12.7544C19.0445 13.0683 18.5367 13.0693 18.2229 12.7568L15.8629 10.3968L15.5828 10.6368C14.8096 11.2935 13.6793 11.3103 12.8867 10.6767L12.6549 10.4888L12.1508 11.1103L12.3852 11.3003C12.6303 11.4962 12.9055 11.6513 13.2 11.7595V13.6923C12.5453 13.6632 11.9107 13.4564 11.3648 13.0939ZM17.0549 12.7194L17.6584 13.3232C18.285 13.9403 19.2908 13.9413 19.9184 13.3251C19.3313 14.2343 19.5629 15.4443 20.4443 16.0722C21.3258 16.7001 22.5451 16.5237 23.2125 15.672C23.8799 14.82 23.7594 13.5939 22.9387 12.8884C22.1182 12.1829 20.8877 12.2476 20.1457 13.0351C20.4189 12.606 20.4678 12.0712 20.2768 11.5995H25.6332C25.8053 12.606 26.5936 13.3943 27.6 13.5663V15.2327C26.5936 15.4048 25.8053 16.1931 25.6332 17.1995H17.5668C17.3947 16.1931 16.6064 15.4048 15.6 15.2327V13.5663C16.1717 13.47 16.6887 13.1691 17.0549 12.7194ZM20.4 14.3995C20.4 13.7368 20.9373 13.1995 21.6 13.1995C22.2627 13.1995 22.8 13.7368 22.8 14.3995C22.8 15.0622 22.2627 15.5995 21.6 15.5995C20.9373 15.5995 20.4 15.0622 20.4 14.3995ZM29.2 18.7995H14V11.9271C14.6342 11.9747 15.2664 11.813 15.8 11.4671L16.4824 12.1495C16.1822 12.5573 15.7064 12.7985 15.2 12.7995H14.8V15.9995H15.2C16.0836 15.9995 16.8 16.7159 16.8 17.5995V17.9995H26.4V17.5995C26.4 16.7159 27.1164 15.9995 28 15.9995H28.4V12.7995H28C27.1164 12.7995 26.4 12.0831 26.4 11.1995V10.7995H19.6656L18.8656 9.99953H29.2V18.7995Z" fill="black"/>
</g>
<defs>
<clipPath id="clip0">
<rect x="6" y="6" width="24" height="24" fill="white"/>
</clipPath>
</defs>
</svg>
