<svg width="10" height="15" viewBox="0 0 10 15" fill="none" xmlns="http://www.w3.org/2000/svg">
<path d="M2.94699 11.041H1.4961V12.6395H0.226562V14.0904H4.21652V12.6395H2.94699V11.041Z" fill="#292930"/>
<path d="M5.8014 0H0V1.74107H1.49515V6.65612H0V8.3972H1.49515V8.7193H2.94604V8.3972H5.8014C8.11659 8.3972 10 6.51379 10 4.1986C10 1.88341 8.11659 0 5.8014 0ZM5.8014 6.65627H2.94604V1.74107H5.8014C7.15654 1.74107 8.25893 2.84361 8.25893 4.1986C8.25893 5.55359 7.15639 6.65627 5.8014 6.65627Z" fill="#292930"/>
<path d="M7.83323 9.00977H0V10.7508H7.83323V9.00977Z" fill="#292930"/>
</svg>
