<svg width="20" height="20" viewBox="0 0 20 20" fill="none" xmlns="http://www.w3.org/2000/svg">
<path d="M16.0286 6.25C14.3062 6.25 12.9036 4.84833 12.9036 3.125C12.9036 1.40167 14.3062 0 16.0286 0C17.7511 0 19.1536 1.40167 19.1536 3.125C19.1536 4.84833 17.7511 6.25 16.0286 6.25ZM16.0286 1.25C14.9952 1.25 14.1536 2.09076 14.1536 3.125C14.1536 4.15924 14.9952 5 16.0286 5C17.0619 5 17.9036 4.15924 17.9036 3.125C17.9036 2.09076 17.0619 1.25 16.0286 1.25Z" fill="#D4D4D5"/>
<path d="M16.0286 20C14.3062 20 12.9036 18.5983 12.9036 16.875C12.9036 15.1517 14.3062 13.75 16.0286 13.75C17.7511 13.75 19.1536 15.1517 19.1536 16.875C19.1536 18.5983 17.7511 20 16.0286 20ZM16.0286 15C14.9952 15 14.1536 15.8408 14.1536 16.875C14.1536 17.9092 14.9952 18.75 16.0286 18.75C17.0619 18.75 17.9036 17.9092 17.9036 16.875C17.9036 15.8408 17.0619 15 16.0286 15Z" fill="#D4D4D5"/>
<path d="M3.94531 13.125C2.22275 13.125 0.820312 11.7233 0.820312 10C0.820312 8.27667 2.22275 6.875 3.94531 6.875C5.66788 6.875 7.07031 8.27667 7.07031 10C7.07031 11.7233 5.66788 13.125 3.94531 13.125ZM3.94531 8.125C2.91199 8.125 2.07031 8.96576 2.07031 10C2.07031 11.0342 2.91199 11.875 3.94531 11.875C4.97864 11.875 5.82031 11.0342 5.82031 10C5.82031 8.96576 4.97864 8.125 3.94531 8.125Z" fill="#D4D4D5"/>
<path d="M6.12114 9.3913C5.90355 9.3913 5.69191 9.27793 5.57778 9.07636C5.40688 8.77637 5.5111 8.39459 5.81109 8.22385L13.5436 3.81543C13.8427 3.64301 14.2252 3.74799 14.3952 4.04889C14.5661 4.34888 14.4619 4.7305 14.1619 4.9014L6.42937 9.30966C6.33187 9.3646 6.22612 9.3913 6.12114 9.3913Z" fill="#D4D4D5"/>
<path d="M13.8529 16.2667C13.7479 16.2667 13.642 16.24 13.5445 16.1843L5.81199 11.7759C5.51201 11.6052 5.40794 11.2234 5.57869 10.9234C5.74867 10.6227 6.13045 10.5184 6.43043 10.6901L14.1628 15.0984C14.4628 15.2693 14.567 15.6509 14.3963 15.9509C14.2812 16.1533 14.0696 16.2667 13.8529 16.2667Z" fill="#D4D4D5"/>
</svg>
