<svg width="15" height="15" viewBox="0 0 15 15" fill="none" xmlns="http://www.w3.org/2000/svg">
<path d="M11.8546 9.29172C11.5475 8.97197 11.1771 8.80101 10.7845 8.80101C10.3951 8.80101 10.0215 8.9688 9.70178 9.28856L8.70137 10.2858C8.61906 10.2415 8.53675 10.2003 8.4576 10.1592C8.34363 10.1022 8.23599 10.0484 8.14418 9.99138C7.20709 9.3962 6.35547 8.62056 5.53868 7.61698C5.14295 7.11678 4.87702 6.69572 4.6839 6.26833C4.9435 6.03089 5.18411 5.78395 5.41838 5.54651C5.50703 5.45787 5.59567 5.36606 5.68431 5.27741C6.34914 4.61258 6.34914 3.75147 5.68431 3.08664L4.82004 2.22236C4.72189 2.12422 4.62059 2.02291 4.52561 1.9216C4.33566 1.72532 4.13621 1.5227 3.93043 1.33275C3.62334 1.02883 3.2561 0.867371 2.86987 0.867371C2.48364 0.867371 2.11007 1.02883 1.79348 1.33275C1.79032 1.33592 1.79032 1.33592 1.78715 1.33908L0.710759 2.42497C0.30553 2.8302 0.0744228 3.32408 0.0237692 3.8971C-0.0522113 4.82153 0.220052 5.68264 0.428998 6.24617C0.941866 7.62965 1.708 8.91182 2.85088 10.2858C4.23752 11.9415 5.90592 13.249 7.81177 14.1703C8.53991 14.5154 9.51183 14.9238 10.5977 14.9934C10.6642 14.9966 10.7338 14.9998 10.7972 14.9998C11.5285 14.9998 12.1427 14.737 12.6239 14.2146C12.627 14.2083 12.6334 14.2051 12.6365 14.1988C12.8012 13.9994 12.9911 13.8189 13.1906 13.6258C13.3267 13.496 13.466 13.3599 13.6021 13.2174C13.9155 12.8913 14.0802 12.5114 14.0802 12.122C14.0802 11.7294 13.9124 11.3527 13.5926 11.0361L11.8546 9.29172ZM12.9879 12.6254C12.9848 12.6254 12.9848 12.6285 12.9879 12.6254C12.8645 12.7583 12.7378 12.8786 12.6017 13.0116C12.3959 13.2079 12.187 13.4137 11.9907 13.6448C11.6709 13.9867 11.2942 14.1482 10.8003 14.1482C10.7528 14.1482 10.7022 14.1482 10.6547 14.145C9.71444 14.0848 8.84067 13.7176 8.18534 13.4042C6.39347 12.5367 4.82004 11.3052 3.51254 9.74444C2.43298 8.44327 1.71117 7.24025 1.23312 5.94858C0.938701 5.16028 0.831062 4.5461 0.878549 3.96675C0.910208 3.59634 1.05267 3.28925 1.31544 3.02649L2.39499 1.94693C2.55012 1.8013 2.71474 1.72215 2.8762 1.72215C3.07565 1.72215 3.23711 1.84246 3.33842 1.94376C3.34158 1.94693 3.34475 1.95009 3.34791 1.95326C3.54103 2.13371 3.72465 2.3205 3.91777 2.51995C4.01591 2.62126 4.11722 2.72256 4.21852 2.82704L5.0828 3.69132C5.41838 4.0269 5.41838 4.33715 5.0828 4.67273C4.99099 4.76454 4.90235 4.85635 4.81054 4.945C4.54461 5.21726 4.29134 5.47053 4.01591 5.71747C4.00958 5.7238 4.00325 5.72696 4.00008 5.7333C3.72782 6.00556 3.77847 6.27149 3.83546 6.45195C3.83862 6.46144 3.84179 6.47094 3.84495 6.48044C4.06973 7.02497 4.38631 7.53784 4.86752 8.14885L4.87069 8.15201C5.74446 9.2284 6.66573 10.0674 7.68197 10.71C7.81177 10.7923 7.94473 10.8588 8.07137 10.9221C8.18534 10.9791 8.29298 11.0329 8.38479 11.0899C8.39745 11.0963 8.41011 11.1058 8.42278 11.1121C8.53042 11.1659 8.63172 11.1912 8.7362 11.1912C8.99896 11.1912 9.16359 11.0266 9.21741 10.9728L10.3001 9.89007C10.4078 9.78243 10.5787 9.65263 10.7782 9.65263C10.9745 9.65263 11.1359 9.7761 11.2341 9.88374C11.2372 9.8869 11.2372 9.8869 11.2404 9.89007L12.9848 11.6345C13.3109 11.9574 13.3109 12.2898 12.9879 12.6254Z" fill="#FDD935"/>
<path d="M8.10631 3.56763C8.93576 3.70692 9.68923 4.09949 10.2907 4.701C10.8923 5.30251 11.2817 6.05599 11.4241 6.88544C11.4589 7.09439 11.6394 7.24002 11.8452 7.24002C11.8705 7.24002 11.8927 7.23685 11.918 7.23368C12.1523 7.19569 12.3074 6.97408 12.2694 6.73981C12.0984 5.73624 11.6236 4.8213 10.8986 4.09632C10.1736 3.37134 9.25868 2.89647 8.25511 2.72551C8.02083 2.68752 7.80239 2.84265 7.76124 3.07375C7.72008 3.30486 7.87204 3.52964 8.10631 3.56763Z" fill="#FDD935"/>
<path d="M14.9826 6.617C14.7008 4.96442 13.922 3.46064 12.7253 2.26395C11.5286 1.06726 10.0249 0.28846 8.37228 0.0066989C8.14117 -0.0344572 7.92273 0.123835 7.88157 0.354943C7.84358 0.589216 7.99871 0.80766 8.23298 0.848816C9.70827 1.09892 11.0538 1.79857 12.1238 2.86546C13.1939 3.93552 13.8904 5.28101 14.1405 6.7563C14.1753 6.96524 14.3557 7.11087 14.5615 7.11087C14.5868 7.11087 14.609 7.10771 14.6343 7.10454C14.8654 7.06972 15.0237 6.84811 14.9826 6.617Z" fill="#FDD935"/>
</svg>
