<svg width="30" height="30" viewBox="0 0 30 30" fill="none" xmlns="http://www.w3.org/2000/svg">
<circle cx="15" cy="15" r="15" fill="#FDD935"/>
<path d="M20.4306 12.3533C19.6097 9.7903 17.2134 8.02539 14.5 8.02539C11.7866 8.02539 9.39044 9.7903 8.56944 12.3533C7.6768 12.5242 7 13.3104 7 14.2521C7 15.1937 7.6768 15.9799 8.56944 16.1508C8.91288 17.2229 9.53944 18.1789 10.3945 18.9302C11.269 19.6985 12.3248 20.2006 13.4618 20.392C13.6642 20.7572 14.0537 21.0051 14.5 21.0051C15.1543 21.0051 15.6865 20.4728 15.6865 19.8185C15.6865 19.1643 15.1543 18.632 14.5 18.632C13.964 18.632 13.5101 18.9894 13.3634 19.4783C12.4809 19.2869 11.6627 18.8744 10.9746 18.2699C10.3214 17.696 9.82326 16.9834 9.51358 16.1857H9.92328V12.3185H9.51358C10.3037 10.2823 12.2781 8.9043 14.5 8.9043C16.722 8.9043 18.6963 10.2823 19.4864 12.3185H19.0767V16.1857H20.0664C21.1327 16.1857 22 15.3183 22 14.2521C22 13.3104 21.3232 12.5242 20.4306 12.3533ZM14.5 19.5109C14.6696 19.5109 14.8076 19.6488 14.8076 19.8185C14.8076 19.9881 14.6696 20.1261 14.5 20.1261C14.3304 20.1261 14.1924 19.9881 14.1924 19.8185C14.1924 19.6488 14.3304 19.5109 14.5 19.5109ZM7.87891 14.2521C7.87891 13.6705 8.35201 13.1974 8.93359 13.1974H9.04437V15.3068H8.93359C8.35201 15.3068 7.87891 14.8336 7.87891 14.2521ZM20.0664 15.3068H19.9556V13.1974H20.0664C20.648 13.1974 21.1211 13.6705 21.1211 14.2521C21.1211 14.8337 20.648 15.3068 20.0664 15.3068Z" fill="#40404C"/>
<path d="M14.5 10.1004C12.2107 10.1004 10.3483 11.9628 10.3483 14.2521C10.3483 16.5413 12.2107 18.4037 14.5 18.4037C16.7892 18.4037 18.6516 16.5413 18.6516 14.2521C18.6516 11.9628 16.7892 10.1004 14.5 10.1004ZM14.5 17.5248C12.6953 17.5248 11.2272 16.0567 11.2272 14.2521C11.2272 12.4475 12.6953 10.9793 14.5 10.9793C16.3046 10.9793 17.7727 12.4475 17.7727 14.2521C17.7727 16.0566 16.3046 17.5248 14.5 17.5248Z" fill="#40404C"/>
<path d="M14.5 15.7669C13.6646 15.7669 12.985 15.0874 12.985 14.2521H12.1061C12.1061 15.572 13.18 16.6458 14.5 16.6458C15.8199 16.6458 16.8938 15.572 16.8938 14.2521H16.0149C16.0149 15.0874 15.3353 15.7669 14.5 15.7669Z" fill="#40404C"/>
</svg>
