<svg width="30" height="30" viewBox="0 0 30 30" fill="none" xmlns="http://www.w3.org/2000/svg">
<circle cx="15" cy="15" r="15" fill="#FDD935"/>
<path d="M15.5 7C11.3645 7 8 10.3645 8 14.5C8 18.6355 11.3645 22 15.5 22C19.6355 22 23 18.6355 23 14.5C23 10.3645 19.6355 7 15.5 7ZM15.5 20.4041C12.2445 20.4041 9.59572 17.7557 9.59572 14.5C9.59572 11.2443 12.2445 8.59587 15.5 8.59587C18.7555 8.59587 21.4043 11.2443 21.4043 14.5C21.4043 17.7557 18.7555 20.4041 15.5 20.4041Z" fill="#40404C"/>
<path d="M19.4087 14.2684H16.0382V10.2158C16.0382 9.87477 15.7617 9.59827 15.4206 9.59827C15.0796 9.59827 14.8031 9.87477 14.8031 10.2158V14.8859C14.8031 15.227 15.0796 15.5035 15.4206 15.5035H19.4087C19.7497 15.5035 20.0262 15.227 20.0262 14.8859C20.0262 14.5449 19.7497 14.2684 19.4087 14.2684Z" fill="#40404C"/>
</svg>
