<svg width="15" height="9" viewBox="0 0 15 9" fill="none" xmlns="http://www.w3.org/2000/svg">
<path d="M12.0087 5.02501L14.991 0.516174H10.4173L10.3319 0.847022C10.1128 1.6964 9.70146 2.84756 8.98678 3.50833C8.89843 3.58993 8.81478 3.65551 8.73776 3.70803V0.516174H4.7542V1.39805H5.12636V3.39676C4.67981 3.004 4.11871 2.25453 3.97177 0.909277L3.92886 0.516174H0L0.134925 1.06274C0.620038 3.02837 1.34777 4.63866 2.29808 5.84887C3.07387 6.83695 3.99786 7.56239 5.04431 8.00493C5.97883 8.40021 6.83931 8.49714 7.45843 8.49714C8.02788 8.49714 8.39306 8.41508 8.42373 8.40799L8.75962 8.32971L8.77701 7.11824L10.2729 8.41955H15.0001L12.0087 5.02501ZM7.92226 5.20594L7.88815 7.595C7.39572 7.63883 6.42011 7.64055 5.34345 7.17375C4.4443 6.78385 3.64562 6.14539 2.96962 5.27598C2.19543 4.28035 1.57951 2.97767 1.13525 1.39805H3.1502C3.58634 3.92742 5.34105 4.5819 5.41921 4.60971L6.00824 4.81982V1.39805H7.85599V4.82417L8.31994 4.79991C8.37636 4.79693 8.88871 4.75608 9.49375 4.23755C10.1812 3.6483 10.7192 2.69409 11.0952 1.39805H13.3504L10.9007 5.10146L13.0475 7.53755H10.6027L7.92226 5.20594Z" fill="#40404C"/>
</svg>
