<svg width="25" height="42" viewBox="0 0 25 42" fill="none" xmlns="http://www.w3.org/2000/svg">
<path d="M9.73525 1.6848C4.08939 -2.53784 -2.36302 3.00437 0.86318 8.54657C3.01398 11.1857 5.43364 11.4496 7.31559 10.9218L10.2729 20.6866C7.31559 28.868 12.4237 41.5359 12.4237 41.5359C12.4237 41.5359 17.5319 28.868 14.5745 20.6866L17.5319 10.9218C19.4138 11.4496 21.2958 11.1857 23.4466 9.0744C27.2105 3.26828 20.4892 -2.80175 14.8434 1.6848C12.1549 5.3796 13.4991 9.33832 16.4565 10.6579L12.1549 19.8949L7.85328 10.6579C11.0795 9.07441 12.4237 5.11569 9.73525 1.6848ZM21.5646 3.00437C24.522 6.69917 20.2204 10.9218 16.4565 8.01875C13.4991 4.58786 17.8007 0.365225 21.5646 3.00437ZM3.01399 8.28266C0.0566378 4.58786 4.35823 0.365221 8.12213 3.26828C10.8106 6.69917 6.77789 10.9218 3.01399 8.28266Z" fill="#40404C"/>
</svg>
