<svg width="15" height="15" viewBox="0 0 15 15" fill="none" xmlns="http://www.w3.org/2000/svg">
<circle cx="7.5" cy="7.5" r="7" stroke="#40404C"/>
<path d="M10.682 8.81801C10.1919 8.32789 9.60848 7.96506 8.97197 7.74543C9.65369 7.2759 10.1016 6.4901 10.1016 5.60156C10.1016 4.16706 8.9345 3 7.5 3C6.0655 3 4.89844 4.16706 4.89844 5.60156C4.89844 6.4901 5.34631 7.2759 6.02804 7.74543C5.39154 7.96506 4.80816 8.32789 4.31803 8.81801C3.46809 9.66796 3 10.798 3 12H3.70312C3.70312 9.90639 5.40639 8.20312 7.5 8.20312C9.59361 8.20312 11.2969 9.90639 11.2969 12H12C12 10.798 11.5319 9.66796 10.682 8.81801ZM7.5 7.5C6.45321 7.5 5.60156 6.64838 5.60156 5.60156C5.60156 4.55475 6.45321 3.70312 7.5 3.70312C8.54679 3.70312 9.39844 4.55475 9.39844 5.60156C9.39844 6.64838 8.54679 7.5 7.5 7.5Z" fill="#40404C"/>
</svg>
