<?xml version="1.0" encoding="UTF-8"?>
<svg width="30px" height="31px" viewBox="0 0 30 31" version="1.1" xmlns="http://www.w3.org/2000/svg" xmlns:xlink="http://www.w3.org/1999/xlink">
    <!-- Generator: Sketch 55.2 (78181) - https://sketchapp.com -->
    <title>Untitled</title>
    <desc>Created with Sketch.</desc>
    <g id="Page-1" stroke="none" stroke-width="1" fill="none" fill-rule="evenodd">
        <g id="Ellipse-58" fill-rule="nonzero">
            <circle id="Oval" fill="#FFFFFF" cx="15" cy="15.1797" r="15"></circle>
            <g id="dude" transform="translate(5.000000, 5.000000)" fill="#FDD935">
                <path d="M17.0711,13.1086 C15.9819,12.0195 14.6855,11.2132 13.2711,10.7251 C14.786,9.68168 15.7812,7.93547 15.7812,5.96094 C15.7812,2.77316 13.1878,0.179688 10,0.179688 C6.81223,0.179688 4.21875,2.77316 4.21875,5.96094 C4.21875,7.93547 5.21402,9.68168 6.72898,10.7251 C5.31453,11.2132 4.01813,12.0195 2.92895,13.1086 C1.0402,14.9974 0,17.5086 0,20.1797 L1.5625,20.1797 C1.5625,15.5272 5.34754,11.7422 10,11.7422 C14.6525,11.7422 18.4375,15.5272 18.4375,20.1797 L20,20.1797 C20,17.5086 18.9598,14.9974 17.0711,13.1086 Z M10,10.1797 C7.67379,10.1797 5.78125,8.28719 5.78125,5.96094 C5.78125,3.63469 7.67379,1.74219 10,1.74219 C12.3262,1.74219 14.2188,3.63469 14.2188,5.96094 C14.2188,8.28719 12.3262,10.1797 10,10.1797 Z" id="Shape"></path>
            </g>
        </g>
    </g>
</svg>