<svg width="15" height="15" viewBox="0 0 15 15" fill="none" xmlns="http://www.w3.org/2000/svg">
<circle cx="7.5" cy="7.5" r="7" stroke="#40404C"/>
<path d="M7.5 3C5.75534 3 4.33594 4.4194 4.33594 6.16406C4.33594 6.75353 4.49922 7.32879 4.80824 7.82787L7.31989 11.8754C7.36801 11.9529 7.45277 12 7.54393 12C7.54463 12 7.54532 12 7.54602 12C7.63797 11.9993 7.72291 11.9507 7.77014 11.8718L10.2178 7.78512C10.5097 7.29659 10.6641 6.73604 10.6641 6.16406C10.6641 4.4194 9.24466 3 7.5 3ZM9.76522 7.51438L7.53994 11.2298L5.25645 7.55003C4.99923 7.13462 4.85977 6.65537 4.85977 6.16406C4.85977 4.71018 6.04611 3.52383 7.5 3.52383C8.95389 3.52383 10.1385 4.71018 10.1385 6.16406C10.1385 6.6408 10.0082 7.1078 9.76522 7.51438Z" fill="#40404C"/>
<path d="M7.5 4.58203C6.62767 4.58203 5.91797 5.29173 5.91797 6.16406C5.91797 7.03082 6.61612 7.74609 7.5 7.74609C8.39478 7.74609 9.08203 7.02129 9.08203 6.16406C9.08203 5.29173 8.37233 4.58203 7.5 4.58203ZM7.5 7.22227C6.9154 7.22227 6.4418 6.74708 6.4418 6.16406C6.4418 5.58251 6.91845 5.10586 7.5 5.10586C8.08155 5.10586 8.55645 5.58251 8.55645 6.16406C8.55645 6.73857 8.09386 7.22227 7.5 7.22227Z" fill="#40404C"/>
</svg>
