<svg width="270" height="270" viewBox="0 0 270 270" fill="none" xmlns="http://www.w3.org/2000/svg">
<rect width="270" height="270" fill="#FDD935"/>
<mask id="mask0" mask-type="alpha" maskUnits="userSpaceOnUse" x="0" y="0" width="270" height="270">
<rect width="270" height="270" fill="#D935FD"/>
</mask>
<g mask="url(#mask0)">
<path d="M48.6014 203.976L48.6612 167.932L80.3174 184.622C80.3174 184.622 89.9976 174.722 115.075 180.937C115.075 180.937 122.48 180.098 128.277 177.706C134.182 175.247 145.493 171.688 148.926 170.611C152.428 169.641 157.551 169.767 159.831 174.505C162.003 179.311 156.58 182.521 152.48 184.462C148.27 186.471 126.086 193.317 124.118 197.387C122.869 199.961 123.085 208.379 128.309 212.943C133.534 217.507 139.8 219.175 146.364 210.607C152.818 202.106 156.94 186.649 161.531 180.954C166.23 175.191 174.038 175.453 177.831 178.503C177.831 178.503 168.319 201.502 162.156 214.023C155.844 226.786 144.358 237.205 140.799 237.61C132.094 238.804 96.5594 230.818 81.1944 221.886C69.6059 215.265 54.0849 208.23 48.6014 203.976Z" fill="#FFD5B3"/>
<path d="M140.401 216C137.956 211.492 138.503 202.874 138.503 202.874C133.352 204.103 123.507 202.065 123.507 202.065C123.478 200.126 123.587 198.402 124.073 197.5C124.935 195.762 129.462 193.564 134.633 191.418C141.616 191.615 148.618 192.552 150.758 193.035C152.54 193.437 153.749 193.894 154.62 195.011C152.202 200.722 149.635 206.675 146.316 210.987C144.433 213.506 142.283 215.137 140.401 216Z" fill="#F4C29D"/>
<path d="M138.469 202.897C138.469 202.897 137.922 211.506 140.365 216.011C136.06 218.072 131.875 216.3 128.294 213.101C125.099 210.266 123.724 206.003 123.478 202.546C123.696 202.411 123.27 202.223 123.488 202.088C125.912 202.544 134.184 204.044 138.469 202.897Z" fill="#EAAE86"/>
<g clip-path="url(#clip0)">
<path d="M190.931 176.325L202.427 165.245C202.444 163.912 202.453 163.18 202.469 161.847L183.094 141.742C181.761 141.709 181.03 141.691 179.697 141.658L168.2 152.737C168.183 154.07 168.174 154.802 168.158 156.136L187.533 176.241C188.866 176.274 189.611 176.279 190.931 176.325Z" fill="white"/>
<path d="M181.404 143.112L176.774 147.574L196.407 167.947L201.037 163.485L181.404 143.112Z" fill="white"/>
<path d="M198.774 162.566L195.585 165.639L195.831 165.893L199.019 162.821L198.774 162.566Z" fill="#333333"/>
<path d="M199.445 163.263L196.256 166.336L196.502 166.59L199.69 163.518L199.445 163.263Z" fill="#333333"/>
<path d="M198.348 162.123L195.159 165.195L195.404 165.45L198.593 162.377L198.348 162.123Z" fill="#333333"/>
<path d="M197.651 161.4L194.462 164.473L194.708 164.727L197.896 161.655L197.651 161.4Z" fill="#333333"/>
<path d="M197.199 160.931L194.011 164.004L194.256 164.258L197.444 161.186L197.199 160.931Z" fill="#333333"/>
<path d="M194.682 158.32L191.494 161.393L191.739 161.647L194.927 158.574L194.682 158.32Z" fill="#333333"/>
<path d="M194.23 157.851L191.042 160.924L191.287 161.178L194.476 158.106L194.23 157.851Z" fill="#333333"/>
<path d="M193.791 157.396L190.603 160.469L190.848 160.723L194.037 157.651L193.791 157.396Z" fill="#333333"/>
<path d="M193.107 156.685L189.919 159.758L190.164 160.012L193.353 156.94L193.107 156.685Z" fill="#333333"/>
<path d="M192.668 156.23L189.48 159.303L189.725 159.557L192.914 156.485L192.668 156.23Z" fill="#333333"/>
<path d="M188.718 152.131L185.53 155.203L185.775 155.458L188.963 152.385L188.718 152.131Z" fill="#333333"/>
<path d="M188.28 151.675L185.091 154.748L185.337 155.003L188.525 151.93L188.28 151.675Z" fill="#333333"/>
<path d="M187.828 151.207L184.639 154.279L184.884 154.534L188.073 151.461L187.828 151.207Z" fill="#333333"/>
<path d="M187.157 150.511L183.969 153.584L184.214 153.838L187.402 150.766L187.157 150.511Z" fill="#333333"/>
<path d="M186.705 150.043L183.517 153.115L183.762 153.37L186.951 150.297L186.705 150.043Z" fill="#333333"/>
<path d="M182.561 145.742L179.373 148.814L179.618 149.069L182.807 145.996L182.561 145.742Z" fill="#333333"/>
<path d="M182.11 145.273L178.921 148.346L179.167 148.6L182.355 145.528L182.11 145.273Z" fill="#333333"/>
<path d="M185.079 148.355L181.89 151.428L182.135 151.682L185.324 148.61L185.079 148.355Z" fill="#333333"/>
<path d="M181.322 144.457L178.134 147.529L178.379 147.784L181.567 144.711L181.322 144.457Z" fill="#333333"/>
<path d="M191.042 154.543L187.854 157.615L188.099 157.87L191.287 154.797L191.042 154.543Z" fill="#333333"/>
<path d="M196.399 160.101L193.21 163.174L193.74 163.723L196.928 160.65L196.399 160.101Z" fill="#333333"/>
<path d="M191.662 155.185L188.474 158.258L189.003 158.807L192.191 155.734L191.662 155.185Z" fill="#333333"/>
<path d="M190.203 153.672L187.015 156.744L187.544 157.293L190.732 154.221L190.203 153.672Z" fill="#333333"/>
<path d="M189.441 152.881L186.253 155.953L186.782 156.502L189.971 153.43L189.441 152.881Z" fill="#333333"/>
<path d="M185.737 149.037L182.549 152.109L183.078 152.659L186.266 149.586L185.737 149.037Z" fill="#333333"/>
<path d="M184.124 147.363L180.936 150.436L181.465 150.985L184.653 147.912L184.124 147.363Z" fill="#333333"/>
<path d="M183.194 146.398L180.006 149.471L180.535 150.02L183.723 146.947L183.194 146.398Z" fill="#333333"/>
<path d="M195.456 159.123L192.268 162.195L192.797 162.744L195.986 159.672L195.456 159.123Z" fill="#333333"/>
<path d="M192.411 171.799L172.778 151.426" stroke="#40404C" stroke-width="0.5" stroke-miterlimit="10" stroke-linecap="round" stroke-linejoin="round"/>
<path d="M187.491 179.64L153.451 212.444C152.118 212.411 151.386 212.393 150.053 212.36L130.678 192.255C130.694 190.922 130.703 190.19 130.72 188.856L164.76 156.052C166.093 156.085 166.825 156.103 168.158 156.136L187.533 176.241C187.53 177.562 187.508 178.306 187.491 179.64Z" fill="white"/>
<path d="M160.606 202.499L152.377 210.429C151.907 210.417 151.645 210.411 151.149 210.398L132.677 191.231C132.683 190.761 132.686 190.499 132.693 190.002L165.847 158.052C166.317 158.064 166.578 158.07 167.075 158.083L185.559 177.263C185.553 177.734 185.55 177.995 185.544 178.492L177.103 186.626" stroke="#40404C" stroke-width="0.5" stroke-miterlimit="10"/>
<path d="M160.5 202.602L177.104 186.601" stroke="#40404C" stroke-width="0.5" stroke-miterlimit="10"/>
<path d="M187.584 176.294L187.262 175.959" stroke="#40404C" stroke-width="0.5" stroke-linecap="round" stroke-linejoin="round"/>
<path d="M186.617 175.29L168.752 156.752" stroke="#40404C" stroke-width="0.5" stroke-linecap="round" stroke-linejoin="round" stroke-dasharray="5.03 5.03"/>
<path d="M168.43 156.417L168.107 156.082" stroke="#40404C" stroke-width="0.5" stroke-linecap="round" stroke-linejoin="round"/>
<path d="M174.763 163.385C174.003 163.471 173.94 164.385 174.603 164.624C174.982 164.672 175.18 164.533 175.274 164.339L176.273 164.9C176.668 165.786 178.059 166.409 178.059 166.409C178.059 166.409 177.475 165.008 176.604 164.581L176.081 163.562C176.252 163.474 176.385 163.295 176.402 162.968C176.254 162.232 175.26 162.234 175.146 163.016C175.218 163.514 175.621 163.72 175.976 163.611L176.355 164.667L175.314 164.249C175.436 163.873 175.259 163.45 174.763 163.385ZM175.805 162.613C176.314 162.691 176.306 163.345 175.795 163.398C175.286 163.32 175.294 162.666 175.805 162.613ZM174.75 164.405C174.241 164.327 174.249 163.673 174.76 163.621C175.269 163.699 175.248 164.339 174.75 164.405Z" fill="#303038"/>
</g>
<path d="M152.568 184.626C150.249 185.76 142.339 188.394 135.43 191.162C128.076 189.685 117.938 182.7 115.253 180.897C116.512 180.72 122.984 179.88 128.267 177.666C134.165 175.222 145.465 171.696 148.895 170.628C152.394 169.669 157.518 169.813 159.816 174.568C162.005 179.39 156.662 182.696 152.568 184.626Z" fill="#FFD5B3"/>
<path d="M144.553 174.496C144.553 174.496 153.459 170.341 155.617 174.877C157.736 179.588 150.901 182.462 148.691 183.527C148.691 183.527 146.284 183.812 144.542 179.922C142.691 176.099 144.553 174.496 144.553 174.496Z" fill="#F7F5F6"/>
<path d="M84.0319 172.664L-3.99794 156.07L-3.78511 209.37L74.0677 224.582L84.0319 172.664Z" fill="#DFDFDF"/>
<path d="M33.0717 216.624L74.0977 224.484L84.1092 172.667L43.0833 164.807L33.0717 216.624Z" fill="#F7F5F6"/>
<path d="M61.3583 209.593C61.2899 206.174 58.5577 203.35 55.013 203.286C51.5375 203.329 48.6852 205.996 48.6447 209.482C48.7131 212.901 51.4452 215.726 54.99 215.79C58.5347 215.854 61.3178 213.079 61.3583 209.593Z" fill="#DFDFDF"/>
</g>
<line x1="20" y1="63.5" x2="250" y2="63.5" stroke="white"/>
<path d="M26.0995 126H27.1075L24.4435 122.748L26.9275 119.688H26.0035L23.7835 122.46H22.3315V119.688H21.4795V126H22.3315V123.192H23.7715L26.0995 126ZM32.8529 119.688L30.4769 125.052L28.1009 119.688H27.2129L30.0329 125.988L29.7569 126.6C29.3969 127.392 29.0129 127.656 28.4489 127.656C27.9929 127.656 27.6089 127.488 27.2969 127.176L26.9009 127.812C27.2849 128.196 27.8489 128.388 28.4369 128.388C29.3369 128.388 30.0089 127.992 30.5369 126.756L33.6929 119.688H32.8529ZM35.2603 119.688V126H36.1123V120.444H40.0723V126H40.9243V119.688H35.2603ZM46.1902 126.06C48.0382 126.06 49.3942 124.716 49.3942 122.844C49.3942 120.972 48.0382 119.64 46.1902 119.64C44.3422 119.64 42.9742 120.972 42.9742 122.844C42.9742 124.716 44.3422 126.06 46.1902 126.06ZM46.1902 125.304C44.8462 125.304 43.8382 124.32 43.8382 122.844C43.8382 121.368 44.8462 120.384 46.1902 120.384C47.5342 120.384 48.5302 121.368 48.5302 122.844C48.5302 124.32 47.5342 125.304 46.1902 125.304ZM51.4551 126H52.3071V123.216H56.2791V126H57.1311V119.688H56.2791V122.484H52.3071V119.688H51.4551V126ZM62.3968 126.06C64.2448 126.06 65.6008 124.716 65.6008 122.844C65.6008 120.972 64.2448 119.64 62.3968 119.64C60.5488 119.64 59.1808 120.972 59.1808 122.844C59.1808 124.716 60.5488 126.06 62.3968 126.06ZM62.3968 125.304C61.0528 125.304 60.0448 124.32 60.0448 122.844C60.0448 121.368 61.0528 120.384 62.3968 120.384C63.7408 120.384 64.7368 121.368 64.7368 122.844C64.7368 124.32 63.7408 125.304 62.3968 125.304ZM71.6817 122.736C72.3417 122.496 72.7497 122.016 72.7497 121.308C72.7497 120.264 71.8737 119.688 70.4457 119.688H67.6617V126H70.5297C72.1737 126 72.9657 125.376 72.9657 124.284C72.9657 123.456 72.5577 122.94 71.6817 122.736ZM68.4897 120.36H70.3857C71.3577 120.36 71.8977 120.708 71.8977 121.416C71.8977 122.124 71.3577 122.496 70.3857 122.496H68.4897V120.36ZM70.4937 125.328H68.4897V123.132H70.5777C71.6457 123.132 72.1257 123.48 72.1257 124.236C72.1257 124.992 71.5617 125.328 70.4937 125.328ZM81.7391 118.428L81.4631 117.912L79.9631 118.8V117.096H79.4111L79.4231 118.8L77.9231 117.912L77.6351 118.428L79.1351 119.268L77.6351 120.108L77.9231 120.612L79.4231 119.736L79.4111 121.44H79.9631V119.736L81.4631 120.612L81.7391 120.108L80.2511 119.268L81.7391 118.428Z" fill="#292930"/>
<path d="M40.4129 100.248V105H21.3689V101.22L31.0889 92.04C32.1209 91.056 32.8169 90.216 33.1769 89.52C33.5369 88.8 33.7169 88.092 33.7169 87.396C33.7169 86.388 33.3689 85.62 32.6729 85.092C32.0009 84.54 31.0049 84.264 29.6849 84.264C28.5809 84.264 27.5849 84.48 26.6969 84.912C25.8089 85.32 25.0649 85.944 24.4649 86.784L20.2169 84.048C21.2009 82.584 22.5569 81.444 24.2849 80.628C26.0129 79.788 27.9929 79.368 30.2249 79.368C32.0969 79.368 33.7289 79.68 35.1209 80.304C36.5369 80.904 37.6289 81.768 38.3969 82.896C39.1889 84 39.5849 85.308 39.5849 86.82C39.5849 88.188 39.2969 89.472 38.7209 90.672C38.1449 91.872 37.0289 93.24 35.3729 94.776L29.5769 100.248H40.4129ZM50.9553 79.368C54.4833 79.368 57.2433 80.448 59.2353 82.608C61.2273 84.744 62.2233 87.828 62.2233 91.86C62.2233 94.716 61.6833 97.164 60.6033 99.204C59.5473 101.244 58.0473 102.792 56.1033 103.848C54.1593 104.904 51.9153 105.432 49.3713 105.432C48.0273 105.432 46.7433 105.288 45.5193 105C44.2953 104.688 43.2513 104.256 42.3873 103.704L44.5473 99.42C45.7713 100.26 47.3433 100.68 49.2633 100.68C51.3993 100.68 53.0913 100.056 54.3393 98.808C55.5873 97.536 56.2593 95.712 56.3553 93.336C54.8433 94.848 52.7553 95.604 50.0913 95.604C48.4833 95.604 47.0193 95.28 45.6993 94.632C44.3793 93.984 43.3353 93.072 42.5673 91.896C41.7993 90.696 41.4153 89.316 41.4153 87.756C41.4153 86.076 41.8353 84.6 42.6753 83.328C43.5153 82.056 44.6553 81.084 46.0953 80.412C47.5593 79.716 49.1793 79.368 50.9553 79.368ZM51.3873 91.248C52.6593 91.248 53.6913 90.9 54.4833 90.204C55.2993 89.484 55.7073 88.572 55.7073 87.468C55.7073 86.364 55.3113 85.464 54.5193 84.768C53.7513 84.072 52.6833 83.724 51.3153 83.724C50.0673 83.724 49.0473 84.06 48.2553 84.732C47.4873 85.404 47.1033 86.316 47.1033 87.468C47.1033 88.62 47.4873 89.544 48.2553 90.24C49.0473 90.912 50.0913 91.248 51.3873 91.248ZM73.1572 79.368C76.6852 79.368 79.4452 80.448 81.4372 82.608C83.4292 84.744 84.4252 87.828 84.4252 91.86C84.4252 94.716 83.8852 97.164 82.8052 99.204C81.7492 101.244 80.2492 102.792 78.3052 103.848C76.3612 104.904 74.1172 105.432 71.5732 105.432C70.2292 105.432 68.9452 105.288 67.7212 105C66.4972 104.688 65.4532 104.256 64.5892 103.704L66.7492 99.42C67.9732 100.26 69.5452 100.68 71.4652 100.68C73.6012 100.68 75.2932 100.056 76.5412 98.808C77.7892 97.536 78.4612 95.712 78.5572 93.336C77.0452 94.848 74.9572 95.604 72.2932 95.604C70.6852 95.604 69.2212 95.28 67.9012 94.632C66.5812 93.984 65.5372 93.072 64.7692 91.896C64.0012 90.696 63.6172 89.316 63.6172 87.756C63.6172 86.076 64.0372 84.6 64.8772 83.328C65.7172 82.056 66.8572 81.084 68.2972 80.412C69.7612 79.716 71.3812 79.368 73.1572 79.368ZM73.5892 91.248C74.8612 91.248 75.8932 90.9 76.6852 90.204C77.5012 89.484 77.9092 88.572 77.9092 87.468C77.9092 86.364 77.5132 85.464 76.7212 84.768C75.9532 84.072 74.8852 83.724 73.5172 83.724C72.2692 83.724 71.2492 84.06 70.4572 84.732C69.6892 85.404 69.3052 86.316 69.3052 87.468C69.3052 88.62 69.6892 89.544 70.4572 90.24C71.2492 90.912 72.2932 91.248 73.5892 91.248Z" fill="#292930"/>
<path d="M27.596 28.412C28.928 27.998 29.72 26.99 29.72 25.64C29.72 23.48 27.596 22.22 25.076 22.22C23.744 22.22 22.322 22.562 21.026 23.336L21.476 24.434C22.61 23.714 23.888 23.39 25.04 23.39C26.876 23.39 28.388 24.254 28.388 25.784C28.388 27.134 27.344 27.926 25.562 27.926H22.934V29.006H25.634C27.704 29.006 28.928 29.816 28.928 31.292C28.928 33.002 27.164 33.974 25.148 33.974C23.762 33.974 22.25 33.506 21.116 32.534L20.63 33.488C21.962 34.604 23.69 35.108 25.292 35.108C27.92 35.108 30.26 33.758 30.26 31.472C30.26 29.942 29.252 28.826 27.596 28.412ZM36.8794 25.46C35.3854 25.46 33.9814 25.928 33.0274 26.738L33.6034 27.692C34.3774 27.008 35.5294 26.576 36.7534 26.576C38.5174 26.576 39.4354 27.458 39.4354 29.078V29.654H36.4294C33.7114 29.654 32.7754 30.878 32.7754 32.336C32.7754 33.974 34.0894 35.09 36.2314 35.09C37.7974 35.09 38.9134 34.496 39.4894 33.524V35H40.7134V29.132C40.7134 26.684 39.3274 25.46 36.8794 25.46ZM36.4294 34.082C34.9174 34.082 34.0354 33.398 34.0354 32.3C34.0354 31.328 34.6294 30.608 36.4654 30.608H39.4354V32.156C38.9314 33.398 37.8694 34.082 36.4294 34.082ZM52.1204 25.46C50.5544 25.46 49.1864 25.946 48.2684 26.9L49.0244 27.638C49.8524 26.864 50.8784 26.504 52.0664 26.504C54.0824 26.504 55.6484 27.818 55.9004 29.708H50.8604V30.68H55.9184C55.7204 32.624 54.1364 34.046 52.0664 34.046C50.8784 34.046 49.8524 33.686 49.0244 32.912L48.2684 33.668C49.1864 34.622 50.5544 35.108 52.1204 35.108C54.9824 35.108 57.1424 33.056 57.1424 30.266C57.1424 27.476 54.9824 25.46 52.1204 25.46ZM66.4981 25.532H58.0561V26.666H61.6381V35H62.9161V26.666H66.4981V25.532ZM72.1724 35.09C74.9444 35.09 76.9784 33.074 76.9784 30.266C76.9784 27.458 74.9444 25.46 72.1724 25.46C69.4004 25.46 67.3484 27.458 67.3484 30.266C67.3484 33.074 69.4004 35.09 72.1724 35.09ZM72.1724 33.956C70.1564 33.956 68.6444 32.48 68.6444 30.266C68.6444 28.052 70.1564 26.576 72.1724 26.576C74.1884 26.576 75.6824 28.052 75.6824 30.266C75.6824 32.48 74.1884 33.956 72.1724 33.956ZM94.5367 25.532L90.4507 32.354L86.4367 25.532H85.1407V35H86.3107V27.494L90.1447 33.848H90.7207L94.5547 27.512V35H95.7247V25.532H94.5367ZM103.699 28.88L100.999 28.844V25.532H99.7214V35L103.465 35.018C105.967 35.054 107.353 33.92 107.353 31.904C107.353 29.96 106.075 28.898 103.699 28.88ZM108.937 35H110.215V25.532H108.937V35ZM103.393 34.046L100.999 34.01V29.798L103.393 29.834C105.157 29.852 106.057 30.5 106.057 31.904C106.057 33.326 105.139 34.064 103.393 34.046ZM125.315 30.104C126.305 29.744 126.917 29.024 126.917 27.962C126.917 26.396 125.603 25.532 123.461 25.532H119.285V35H123.587C126.053 35 127.241 34.064 127.241 32.426C127.241 31.184 126.629 30.41 125.315 30.104ZM120.527 26.54H123.371C124.829 26.54 125.639 27.062 125.639 28.124C125.639 29.186 124.829 29.744 123.371 29.744H120.527V26.54ZM123.533 33.992H120.527V30.698H123.659C125.261 30.698 125.981 31.22 125.981 32.354C125.981 33.488 125.135 33.992 123.533 33.992ZM133.854 25.46C132.36 25.46 130.956 25.928 130.002 26.738L130.578 27.692C131.352 27.008 132.504 26.576 133.728 26.576C135.492 26.576 136.41 27.458 136.41 29.078V29.654H133.404C130.686 29.654 129.75 30.878 129.75 32.336C129.75 33.974 131.064 35.09 133.206 35.09C134.772 35.09 135.888 34.496 136.464 33.524V35H137.688V29.132C137.688 26.684 136.302 25.46 133.854 25.46ZM133.404 34.082C131.892 34.082 131.01 33.398 131.01 32.3C131.01 31.328 131.604 30.608 133.44 30.608H136.41V32.156C135.906 33.398 134.844 34.082 133.404 34.082ZM150.847 25.532L146.761 32.354L142.746 25.532H141.45V35H142.62V27.494L146.454 33.848H147.03L150.864 27.512V35H152.034V25.532H150.847ZM21.512 43.388H23.762V47.294H28.604V43.388H30.854V53H28.604V49.202H23.762V53H21.512V43.388ZM37.8114 43.28C39.2274 43.28 40.3074 43.622 41.0514 44.306C41.8074 44.978 42.1854 45.998 42.1854 47.366V53H40.0614V51.83C39.7854 52.25 39.3894 52.574 38.8734 52.802C38.3694 53.018 37.7574 53.126 37.0374 53.126C36.3174 53.126 35.6874 53.006 35.1474 52.766C34.6074 52.514 34.1874 52.172 33.8874 51.74C33.5994 51.296 33.4554 50.798 33.4554 50.246C33.4554 49.382 33.7734 48.692 34.4094 48.176C35.0574 47.648 36.0714 47.384 37.4514 47.384H39.9354V47.24C39.9354 46.568 39.7314 46.052 39.3234 45.692C38.9274 45.332 38.3334 45.152 37.5414 45.152C37.0014 45.152 36.4674 45.236 35.9394 45.404C35.4234 45.572 34.9854 45.806 34.6254 46.106L33.7434 44.468C34.2474 44.084 34.8534 43.79 35.5614 43.586C36.2694 43.382 37.0194 43.28 37.8114 43.28ZM37.5054 51.488C38.0694 51.488 38.5674 51.362 38.9994 51.11C39.4434 50.846 39.7554 50.474 39.9354 49.994V48.878H37.6134C36.3174 48.878 35.6694 49.304 35.6694 50.156C35.6694 50.564 35.8314 50.888 36.1554 51.128C36.4794 51.368 36.9294 51.488 37.5054 51.488ZM53.4837 43.388V53H51.2337V49.274C50.3097 49.718 49.3437 49.94 48.3357 49.94C47.0997 49.94 46.1517 49.658 45.4917 49.094C44.8317 48.518 44.5017 47.642 44.5017 46.466V43.388H46.7517V46.322C46.7517 46.934 46.9317 47.39 47.2917 47.69C47.6517 47.99 48.1617 48.14 48.8217 48.14C49.6617 48.14 50.4657 47.96 51.2337 47.6V43.388H53.4837ZM56.8693 43.388H59.1193V49.724L64.4293 43.388H66.4813V53H64.2313V46.664L58.9393 53H56.8693V43.388ZM74.242 53.126C73.246 53.126 72.352 52.916 71.56 52.496C70.768 52.076 70.15 51.494 69.706 50.75C69.262 49.994 69.04 49.142 69.04 48.194C69.04 47.246 69.262 46.4 69.706 45.656C70.15 44.912 70.762 44.33 71.542 43.91C72.334 43.49 73.234 43.28 74.242 43.28C75.19 43.28 76.018 43.472 76.726 43.856C77.446 44.24 77.986 44.792 78.346 45.512L76.618 46.52C76.342 46.076 75.994 45.746 75.574 45.53C75.166 45.302 74.716 45.188 74.224 45.188C73.384 45.188 72.688 45.464 72.136 46.016C71.584 46.556 71.308 47.282 71.308 48.194C71.308 49.106 71.578 49.838 72.118 50.39C72.67 50.93 73.372 51.2 74.224 51.2C74.716 51.2 75.166 51.092 75.574 50.876C75.994 50.648 76.342 50.312 76.618 49.868L78.346 50.876C77.974 51.596 77.428 52.154 76.708 52.55C76 52.934 75.178 53.126 74.242 53.126ZM89.1881 43.388V53H86.9381V45.296H83.3381L83.2481 47.204C83.1881 48.476 83.0681 49.544 82.8881 50.408C82.7201 51.26 82.4261 51.938 82.0061 52.442C81.5981 52.934 81.0341 53.18 80.3141 53.18C79.9781 53.18 79.5641 53.114 79.0721 52.982L79.1801 51.092C79.3481 51.128 79.4921 51.146 79.6121 51.146C80.0681 51.146 80.4101 50.966 80.6381 50.606C80.8661 50.234 81.0101 49.796 81.0701 49.292C81.1421 48.776 81.2021 48.044 81.2501 47.096L81.4121 43.388H89.1881ZM92.5783 43.388H94.8283V49.724L100.138 43.388H102.19V53H99.9403V46.664L94.6483 53H92.5783V43.388ZM114.289 43.388V53H112.039V45.296H108.439L108.349 47.204C108.289 48.476 108.169 49.544 107.989 50.408C107.821 51.26 107.527 51.938 107.107 52.442C106.699 52.934 106.135 53.18 105.415 53.18C105.079 53.18 104.665 53.114 104.173 52.982L104.281 51.092C104.449 51.128 104.593 51.146 104.713 51.146C105.169 51.146 105.511 50.966 105.739 50.606C105.967 50.234 106.111 49.796 106.171 49.292C106.243 48.776 106.303 48.044 106.351 47.096L106.513 43.388H114.289ZM117.679 43.388H119.929V49.724L125.239 43.388H127.291V53H125.041V46.664L119.749 53H117.679V43.388Z" fill="#292930"/>
<defs>
<clipPath id="clip0">
<rect x="129" y="190.514" width="72.7947" height="32.7576" transform="rotate(-43.9405 129 190.514)" fill="white"/>
</clipPath>
</defs>
</svg>
