<svg width="270" height="271" viewBox="0 0 270 271" fill="none" xmlns="http://www.w3.org/2000/svg">
<rect y="0.716797" width="270" height="270" fill="#FDD935"/>
<line x1="20" y1="74.2168" x2="250" y2="74.2168" stroke="white"/>
<mask id="mask0" mask-type="alpha" maskUnits="userSpaceOnUse" x="0" y="0" width="270" height="271">
<rect y="0.716797" width="270" height="270" fill="#FD7535"/>
</mask>
<g mask="url(#mask0)">
<path d="M217.299 -4.0625L241.939 11.1989L217.094 24.9543C217.094 24.9543 219.752 35.4967 204.927 49.3525C204.927 49.3525 202.371 54.5735 201.553 59.3929C200.735 64.3127 198.384 73.2487 197.668 75.9596C196.85 78.6705 194.601 81.9839 190.409 81.4819C186.217 80.8794 186.319 75.9596 186.728 72.4455C187.137 68.8309 191.84 51.3606 189.897 48.3485C188.67 46.4408 182.843 43.0271 177.526 44.5331C172.209 46.0392 168.426 49.4529 171.494 57.3849C174.561 65.2164 183.354 74.4536 185.296 79.8754C187.239 85.3976 183.763 90.4178 180.082 91.6227C180.082 91.6227 168.426 75.6584 162.496 66.3208C156.464 56.7824 154.214 44.8343 155.441 42.3242C158.304 36.0992 178.753 16.1187 191.329 9.79328C200.735 4.97388 212.084 -2.25522 217.299 -4.0625Z" fill="#FFD5B3"/>
<path d="M170.369 51.1643C174.459 51.4655 180.082 55.4817 180.082 55.4817C181.411 51.5659 186.932 45.9434 186.932 45.9434C188.262 46.7466 189.386 47.5498 189.795 48.2526C190.613 49.5579 190.204 53.4736 189.489 57.791C186.421 62.3091 182.843 66.526 181.616 67.7309C180.593 68.7349 179.775 69.3373 178.651 69.4377C175.788 65.4216 172.823 61.2047 171.289 57.1885C170.369 54.8793 170.062 52.7708 170.369 51.1643Z" fill="#F4C29D"/>
<path d="M180.082 55.4795C180.082 55.4795 174.458 51.4634 170.369 51.1622C170.88 47.4472 173.743 45.4392 177.423 44.4352C180.695 43.5315 184.171 44.4352 186.625 45.7404C186.625 45.9412 186.932 45.7404 186.932 45.9412C185.603 47.3468 181.104 52.1662 180.082 55.4795Z" fill="#EAAE86"/>
<path d="M217.912 123.153C217.912 123.153 233.964 113.012 237.747 114.518C241.53 116.124 236.929 135.703 236.929 135.703C236.929 135.703 224.456 125.362 217.912 123.153Z" fill="#EF8F6A"/>
<path d="M179.673 207.594V222.755C179.673 225.968 177.014 228.578 173.742 228.578H163.825C160.553 228.578 157.895 225.968 157.895 222.755V207.594H179.673Z" fill="#FFC1A9"/>
<path d="M226.603 207.594V222.755C226.603 225.968 223.944 228.578 220.672 228.578H210.755C207.483 228.578 204.825 225.968 204.825 222.755V207.594H226.603Z" fill="#FFC1A9"/>
<path d="M259.627 152.671H248.585C242.246 130.181 219.752 113.514 193.067 113.514C161.371 113.514 135.708 136.908 135.708 165.824C135.708 194.741 161.371 218.135 193.067 218.135C218.73 218.135 240.508 202.773 247.767 181.588H259.627C262.183 181.588 264.228 179.58 264.228 177.07V157.39C264.228 154.78 262.183 152.671 259.627 152.671Z" fill="#FFC1A9"/>
<path d="M234.476 149.055C234.272 144.637 231 141.525 226.603 141.324C222.105 141.123 218.935 145.039 218.731 149.055C218.628 150.661 221.184 150.661 221.287 149.055C221.696 142.328 231.613 142.328 232.022 149.055C232.022 150.661 234.578 150.661 234.476 149.055Z" fill="#EF8F6A"/>
<path d="M214.742 126.466C200.837 121.948 185.092 121.848 171.289 126.466C168.528 127.37 167.404 123.153 170.062 122.249C184.581 117.43 201.246 117.43 215.867 122.249C218.628 123.153 217.503 127.27 214.742 126.466Z" fill="#EF8F6A"/>
<path d="M212.799 118.735C212.799 118.735 228.238 107.691 232.123 108.996C236.009 110.402 232.635 130.181 232.635 130.181C232.635 130.181 219.445 120.542 212.799 118.735Z" fill="#FFC1A9"/>
<path d="M140.82 159.598C136.731 158.594 132.743 157.189 129.165 155.181C128.04 154.578 127.018 153.775 126.302 152.771C124.052 149.458 132.436 147.55 130.494 152.369C128.347 157.49 120.883 154.98 118.225 152.269C116.486 150.462 113.828 153.173 115.566 154.98C120.372 160 128.244 160.803 133.152 155.281C136.935 151.064 132.232 144.839 127.018 145.944C120.985 147.249 121.496 154.277 125.382 157.39C129.369 160.502 134.992 162.209 139.9 163.414C142.252 163.815 143.172 160.201 140.82 159.598Z" fill="#FFC1A9"/>
<path d="M208.097 70.1426H179.469V121.349H208.097V70.1426Z" fill="#5FBA75"/>
<path d="M183.456 78.9788V112.413C186.114 112.413 188.261 114.522 188.261 117.132V117.233H199.406V117.132C199.406 114.522 201.553 112.413 204.211 112.413V78.9788C201.553 78.9788 199.406 76.8703 199.406 74.2598H188.159C188.159 76.8703 186.012 78.9788 183.456 78.9788Z" fill="#8FE5A1"/>
<path d="M186.626 72.4456C186.83 70.4375 188.364 64.1121 189.386 58.3891C193.476 54.1721 202.473 50.4572 204.825 49.4531C204.416 50.3568 202.269 54.9753 201.553 59.3931C200.735 64.3129 198.384 73.2488 197.668 75.9597C196.85 78.6706 194.601 81.9839 190.409 81.4819C186.217 80.8795 186.217 75.9597 186.626 72.4456Z" fill="#FFD5B3"/>
<path d="M196.85 71.4408C196.85 71.4408 195.93 79.0716 191.942 78.5695C187.853 77.9671 188.773 72.244 188.977 70.3363C188.977 70.3363 189.795 68.6295 193.169 69.1315C196.543 69.5331 196.85 71.4408 196.85 71.4408Z" fill="#F7F5F6"/>
<path d="M223.741 32.5875L272 -18.4177L235.602 -40.9082L192.659 3.97235L223.741 32.5875Z" fill="#DFDFDF"/>
<path d="M215.142 -19.6701L192.626 3.91797L223.733 32.5519L246.248 8.9638L215.142 -19.6701Z" fill="#F7F5F6"/>
<path d="M208.097 1.96374C210.448 3.36937 213.515 2.76696 215.049 0.457697C216.48 -1.85156 215.867 -4.86364 213.515 -6.36968C211.164 -7.77532 208.097 -7.1729 206.563 -4.86364C205.029 -2.55438 205.745 0.457697 208.097 1.96374Z" fill="#DFDFDF"/>
</g>
<path d="M30.7059 110.085C34.2339 110.085 36.9939 111.165 38.9859 113.325C40.9779 115.461 41.9739 118.545 41.9739 122.577C41.9739 125.433 41.4339 127.881 40.3539 129.921C39.2979 131.961 37.7979 133.509 35.8539 134.565C33.9099 135.621 31.6659 136.149 29.1219 136.149C27.7779 136.149 26.4939 136.005 25.2699 135.717C24.0459 135.405 23.0019 134.973 22.1379 134.421L24.2979 130.137C25.5219 130.977 27.0939 131.397 29.0139 131.397C31.1499 131.397 32.8419 130.773 34.0899 129.525C35.3379 128.253 36.0099 126.429 36.1059 124.053C34.5939 125.565 32.5059 126.321 29.8419 126.321C28.2339 126.321 26.7699 125.997 25.4499 125.349C24.1299 124.701 23.0859 123.789 22.3179 122.613C21.5499 121.413 21.1659 120.033 21.1659 118.473C21.1659 116.793 21.5859 115.317 22.4259 114.045C23.2659 112.773 24.4059 111.801 25.8459 111.129C27.3099 110.433 28.9299 110.085 30.7059 110.085ZM31.1379 121.965C32.4099 121.965 33.4419 121.617 34.2339 120.921C35.0499 120.201 35.4579 119.289 35.4579 118.185C35.4579 117.081 35.0619 116.181 34.2699 115.485C33.5019 114.789 32.4339 114.441 31.0659 114.441C29.8179 114.441 28.7979 114.777 28.0059 115.449C27.2379 116.121 26.8539 117.033 26.8539 118.185C26.8539 119.337 27.2379 120.261 28.0059 120.957C28.7979 121.629 29.8419 121.965 31.1379 121.965ZM61.2957 122.469C62.5437 123.093 63.4917 123.909 64.1397 124.917C64.8117 125.925 65.1477 127.089 65.1477 128.409C65.1477 129.969 64.7037 131.337 63.8157 132.513C62.9277 133.665 61.6797 134.565 60.0717 135.213C58.4637 135.837 56.6037 136.149 54.4917 136.149C52.3797 136.149 50.5197 135.837 48.9117 135.213C47.3277 134.565 46.0917 133.665 45.2037 132.513C44.3397 131.337 43.9077 129.969 43.9077 128.409C43.9077 127.089 44.2317 125.925 44.8797 124.917C45.5517 123.909 46.4997 123.093 47.7237 122.469C46.7877 121.893 46.0677 121.173 45.5637 120.309C45.0597 119.421 44.8077 118.413 44.8077 117.285C44.8077 115.821 45.2157 114.549 46.0317 113.469C46.8477 112.389 47.9877 111.561 49.4517 110.985C50.9157 110.385 52.5957 110.085 54.4917 110.085C56.4117 110.085 58.1037 110.385 59.5677 110.985C61.0557 111.561 62.2077 112.389 63.0237 113.469C63.8397 114.549 64.2477 115.821 64.2477 117.285C64.2477 118.413 63.9957 119.421 63.4917 120.309C62.9877 121.173 62.2557 121.893 61.2957 122.469ZM54.4917 114.369C53.3157 114.369 52.3677 114.657 51.6477 115.233C50.9517 115.785 50.6037 116.553 50.6037 117.537C50.6037 118.497 50.9517 119.253 51.6477 119.805C52.3437 120.357 53.2917 120.633 54.4917 120.633C55.6917 120.633 56.6517 120.357 57.3717 119.805C58.0917 119.253 58.4517 118.497 58.4517 117.537C58.4517 116.553 58.0917 115.785 57.3717 115.233C56.6517 114.657 55.6917 114.369 54.4917 114.369ZM54.4917 131.865C55.9557 131.865 57.1077 131.541 57.9477 130.893C58.8117 130.221 59.2437 129.333 59.2437 128.229C59.2437 127.125 58.8117 126.249 57.9477 125.601C57.1077 124.953 55.9557 124.629 54.4917 124.629C53.0517 124.629 51.9117 124.953 51.0717 125.601C50.2317 126.249 49.8117 127.125 49.8117 128.229C49.8117 129.357 50.2317 130.245 51.0717 130.893C51.9117 131.541 53.0517 131.865 54.4917 131.865ZM77.8974 136.149C75.8094 136.149 73.9494 135.633 72.3174 134.601C70.6854 133.569 69.4014 132.081 68.4654 130.137C67.5534 128.169 67.0974 125.829 67.0974 123.117C67.0974 120.405 67.5534 118.077 68.4654 116.133C69.4014 114.165 70.6854 112.665 72.3174 111.633C73.9494 110.601 75.8094 110.085 77.8974 110.085C79.9854 110.085 81.8454 110.601 83.4774 111.633C85.1094 112.665 86.3814 114.165 87.2934 116.133C88.2294 118.077 88.6974 120.405 88.6974 123.117C88.6974 125.829 88.2294 128.169 87.2934 130.137C86.3814 132.081 85.1094 133.569 83.4774 134.601C81.8454 135.633 79.9854 136.149 77.8974 136.149ZM77.8974 131.217C79.4334 131.217 80.6334 130.557 81.4974 129.237C82.3854 127.917 82.8294 125.877 82.8294 123.117C82.8294 120.357 82.3854 118.317 81.4974 116.997C80.6334 115.677 79.4334 115.017 77.8974 115.017C76.3854 115.017 75.1854 115.677 74.2974 116.997C73.4334 118.317 73.0014 120.357 73.0014 123.117C73.0014 125.877 73.4334 127.917 74.2974 129.237C75.1854 130.557 76.3854 131.217 77.8974 131.217ZM101.611 136.149C99.523 136.149 97.663 135.633 96.031 134.601C94.399 133.569 93.115 132.081 92.179 130.137C91.267 128.169 90.811 125.829 90.811 123.117C90.811 120.405 91.267 118.077 92.179 116.133C93.115 114.165 94.399 112.665 96.031 111.633C97.663 110.601 99.523 110.085 101.611 110.085C103.699 110.085 105.559 110.601 107.191 111.633C108.823 112.665 110.095 114.165 111.007 116.133C111.943 118.077 112.411 120.405 112.411 123.117C112.411 125.829 111.943 128.169 111.007 130.137C110.095 132.081 108.823 133.569 107.191 134.601C105.559 135.633 103.699 136.149 101.611 136.149ZM101.611 131.217C103.147 131.217 104.347 130.557 105.211 129.237C106.099 127.917 106.543 125.877 106.543 123.117C106.543 120.357 106.099 118.317 105.211 116.997C104.347 115.677 103.147 115.017 101.611 115.017C100.099 115.017 98.899 115.677 98.011 116.997C97.147 118.317 96.715 120.357 96.715 123.117C96.715 125.877 97.147 127.917 98.011 129.237C98.899 130.557 100.099 131.217 101.611 131.217ZM125.325 136.149C123.237 136.149 121.377 135.633 119.745 134.601C118.113 133.569 116.829 132.081 115.893 130.137C114.981 128.169 114.525 125.829 114.525 123.117C114.525 120.405 114.981 118.077 115.893 116.133C116.829 114.165 118.113 112.665 119.745 111.633C121.377 110.601 123.237 110.085 125.325 110.085C127.413 110.085 129.273 110.601 130.905 111.633C132.537 112.665 133.809 114.165 134.721 116.133C135.657 118.077 136.125 120.405 136.125 123.117C136.125 125.829 135.657 128.169 134.721 130.137C133.809 132.081 132.537 133.569 130.905 134.601C129.273 135.633 127.413 136.149 125.325 136.149ZM125.325 131.217C126.861 131.217 128.061 130.557 128.925 129.237C129.813 127.917 130.257 125.877 130.257 123.117C130.257 120.357 129.813 118.317 128.925 116.997C128.061 115.677 126.861 115.017 125.325 115.017C123.813 115.017 122.613 115.677 121.725 116.997C120.861 118.317 120.429 120.357 120.429 123.117C120.429 125.877 120.861 127.917 121.725 129.237C122.613 130.557 123.813 131.217 125.325 131.217Z" fill="#292930"/>
<path d="M30.062 29.1648C30.866 29.3808 31.478 29.7528 31.898 30.2808C32.318 30.7968 32.528 31.4448 32.528 32.2248C32.528 33.3288 32.12 34.1868 31.304 34.7988C30.488 35.4108 29.306 35.7168 27.758 35.7168H21.782V23.1168H27.416C28.832 23.1168 29.936 23.3988 30.728 23.9628C31.52 24.5268 31.916 25.3248 31.916 26.3568C31.916 27.0168 31.754 27.5868 31.43 28.0668C31.118 28.5468 30.662 28.9128 30.062 29.1648ZM24.086 28.4988H27.218C27.974 28.4988 28.55 28.3488 28.946 28.0488C29.342 27.7488 29.54 27.3048 29.54 26.7168C29.54 26.1288 29.342 25.6848 28.946 25.3848C28.55 25.0728 27.974 24.9168 27.218 24.9168H24.086V28.4988ZM27.686 33.9168C29.342 33.9168 30.17 33.2928 30.17 32.0448C30.17 30.8208 29.342 30.2088 27.686 30.2088H24.086V33.9168H27.686ZM39.9817 29.2728C41.2057 29.2728 42.1417 29.5488 42.7897 30.1008C43.4377 30.6528 43.7617 31.4328 43.7617 32.4408C43.7617 33.4968 43.4017 34.3128 42.6817 34.8888C41.9737 35.4648 40.9657 35.7468 39.6577 35.7348L35.3017 35.7168V26.1048H37.5517V29.2548L39.9817 29.2728ZM45.0037 26.1048H47.2537V35.7168H45.0037V26.1048ZM39.4597 34.0788C40.1197 34.0908 40.6237 33.9528 40.9717 33.6648C41.3197 33.3768 41.4937 32.9568 41.4937 32.4048C41.4937 31.8648 41.3257 31.4688 40.9897 31.2168C40.6537 30.9648 40.1437 30.8328 39.4597 30.8208L37.5517 30.8028V34.0608L39.4597 34.0788ZM25.886 53.8428C24.89 53.8428 23.996 53.6328 23.204 53.2128C22.412 52.7928 21.794 52.2108 21.35 51.4668C20.906 50.7108 20.684 49.8588 20.684 48.9108C20.684 47.9628 20.906 47.1168 21.35 46.3728C21.794 45.6288 22.406 45.0468 23.186 44.6268C23.978 44.2068 24.878 43.9968 25.886 43.9968C26.834 43.9968 27.662 44.1888 28.37 44.5728C29.09 44.9568 29.63 45.5088 29.99 46.2288L28.262 47.2368C27.986 46.7928 27.638 46.4628 27.218 46.2468C26.81 46.0188 26.36 45.9048 25.868 45.9048C25.028 45.9048 24.332 46.1808 23.78 46.7328C23.228 47.2728 22.952 47.9988 22.952 48.9108C22.952 49.8228 23.222 50.5548 23.762 51.1068C24.314 51.6468 25.016 51.9168 25.868 51.9168C26.36 51.9168 26.81 51.8088 27.218 51.5928C27.638 51.3648 27.986 51.0288 28.262 50.5848L29.99 51.5928C29.618 52.3128 29.072 52.8708 28.352 53.2668C27.644 53.6508 26.822 53.8428 25.886 53.8428ZM35.0026 43.9608C36.0106 43.9608 36.9166 44.1768 37.7206 44.6088C38.5246 45.0288 39.1546 45.6168 39.6106 46.3728C40.0666 47.1168 40.2946 47.9628 40.2946 48.9108C40.2946 49.8588 40.0666 50.7108 39.6106 51.4668C39.1546 52.2228 38.5246 52.8168 37.7206 53.2488C36.9166 53.6688 36.0106 53.8788 35.0026 53.8788C34.1266 53.8788 33.3346 53.7348 32.6266 53.4468C31.9186 53.1588 31.3186 52.7448 30.8266 52.2048L32.1226 50.9448C32.8786 51.7008 33.8086 52.0788 34.9126 52.0788C35.7286 52.0788 36.4246 51.8628 37.0006 51.4308C37.5886 50.9868 37.9666 50.3988 38.1346 49.6668H33.6886V48.0468H38.1166C37.9366 47.3388 37.5586 46.7808 36.9826 46.3728C36.4066 45.9528 35.7166 45.7428 34.9126 45.7428C33.8086 45.7428 32.8786 46.1268 32.1226 46.8948L30.8266 45.6348C31.3066 45.0828 31.9006 44.6688 32.6086 44.3928C33.3286 44.1048 34.1266 43.9608 35.0026 43.9608ZM46.8296 49.8648H45.0836V53.7168H42.8336V44.1048H45.0836V47.9928H46.8836L49.7276 44.1048H52.1396L48.6476 48.7308L52.3736 53.7168H49.7276L46.8296 49.8648ZM58.2881 53.8428C57.3161 53.8428 56.4401 53.6328 55.6601 53.2128C54.8801 52.7928 54.2681 52.2108 53.8241 51.4668C53.3921 50.7108 53.1761 49.8588 53.1761 48.9108C53.1761 47.9628 53.3921 47.1168 53.8241 46.3728C54.2681 45.6288 54.8801 45.0468 55.6601 44.6268C56.4401 44.2068 57.3161 43.9968 58.2881 43.9968C59.2721 43.9968 60.1541 44.2068 60.9341 44.6268C61.7141 45.0468 62.3201 45.6288 62.7521 46.3728C63.1961 47.1168 63.4181 47.9628 63.4181 48.9108C63.4181 49.8588 63.1961 50.7108 62.7521 51.4668C62.3201 52.2108 61.7141 52.7928 60.9341 53.2128C60.1541 53.6328 59.2721 53.8428 58.2881 53.8428ZM58.2881 51.9168C59.1161 51.9168 59.8001 51.6408 60.3401 51.0888C60.8801 50.5368 61.1501 49.8108 61.1501 48.9108C61.1501 48.0108 60.8801 47.2848 60.3401 46.7328C59.8001 46.1808 59.1161 45.9048 58.2881 45.9048C57.4601 45.9048 56.7761 46.1808 56.2361 46.7328C55.7081 47.2848 55.4441 48.0108 55.4441 48.9108C55.4441 49.8108 55.7081 50.5368 56.2361 51.0888C56.7761 51.6408 57.4601 51.9168 58.2881 51.9168ZM66.0008 44.1048H68.2508V48.0108H73.0928V44.1048H75.3428V53.7168H73.0928V49.9188H68.2508V53.7168H66.0008V44.1048ZM83.0022 53.8428C82.0302 53.8428 81.1542 53.6328 80.3742 53.2128C79.5942 52.7928 78.9822 52.2108 78.5382 51.4668C78.1062 50.7108 77.8902 49.8588 77.8902 48.9108C77.8902 47.9628 78.1062 47.1168 78.5382 46.3728C78.9822 45.6288 79.5942 45.0468 80.3742 44.6268C81.1542 44.2068 82.0302 43.9968 83.0022 43.9968C83.9862 43.9968 84.8682 44.2068 85.6482 44.6268C86.4282 45.0468 87.0343 45.6288 87.4663 46.3728C87.9103 47.1168 88.1323 47.9628 88.1323 48.9108C88.1323 49.8588 87.9103 50.7108 87.4663 51.4668C87.0343 52.2108 86.4282 52.7928 85.6482 53.2128C84.8682 53.6328 83.9862 53.8428 83.0022 53.8428ZM83.0022 51.9168C83.8302 51.9168 84.5142 51.6408 85.0542 51.0888C85.5942 50.5368 85.8642 49.8108 85.8642 48.9108C85.8642 48.0108 85.5942 47.2848 85.0542 46.7328C84.5142 46.1808 83.8302 45.9048 83.0022 45.9048C82.1742 45.9048 81.4902 46.1808 80.9502 46.7328C80.4222 47.2848 80.1582 48.0108 80.1582 48.9108C80.1582 49.8108 80.4222 50.5368 80.9502 51.0888C81.4902 51.6408 82.1742 51.9168 83.0022 51.9168ZM100.165 53.7168V47.3448L96.925 52.7088H95.953L92.767 47.3268V53.7168H90.715V44.1048H93.073L96.493 50.1168L100.075 44.1048H102.181L102.199 53.7168H100.165ZM105.577 44.1048H107.827V50.4408L113.137 44.1048H115.189V53.7168H112.939V47.3808L107.647 53.7168H105.577V44.1048ZM127.288 44.1048V53.7168H125.038V46.0128H121.438L121.348 47.9208C121.288 49.1928 121.168 50.2608 120.988 51.1248C120.82 51.9768 120.526 52.6548 120.106 53.1588C119.698 53.6508 119.134 53.8968 118.414 53.8968C118.078 53.8968 117.664 53.8308 117.172 53.6988L117.28 51.8088C117.448 51.8448 117.592 51.8628 117.712 51.8628C118.168 51.8628 118.51 51.6828 118.738 51.3228C118.966 50.9508 119.11 50.5128 119.17 50.0088C119.242 49.4928 119.302 48.7608 119.35 47.8128L119.512 44.1048H127.288ZM130.678 44.1048H132.928V50.4408L138.238 44.1048H140.29V53.7168H138.04V47.3808L132.748 53.7168H130.678V44.1048Z" fill="#292930"/>
<path d="M144.945 135.143H143.495V136.712H142.225V138.137H146.215V136.712H144.945V135.143Z" fill="#292930"/>
<path d="M147.801 124.301H142V126.011H143.495V130.837H142V132.547H143.495V132.863H144.946V132.547H147.801C150.117 132.547 152 130.697 152 128.424C152 126.15 150.117 124.301 147.801 124.301ZM147.801 130.837H144.946V126.011H147.801C149.157 126.011 150.259 127.093 150.259 128.424C150.259 129.754 149.156 130.837 147.801 130.837Z" fill="#292930"/>
<path d="M149.833 133.148H142V134.858H149.833V133.148Z" fill="#292930"/>
</svg>
