<svg width="470" height="200" viewBox="0 0 470 200" fill="none" xmlns="http://www.w3.org/2000/svg">
<rect width="470" height="200" fill="#D4D4D5"/>
<path d="M179.622 65.798L182.358 67.31L181.422 68.942L178.638 67.31L178.662 70.406H176.838L176.862 67.334L174.102 68.942L173.142 67.31L175.902 65.798L173.142 64.286L174.102 62.63L176.862 64.262L176.838 61.19H178.662L178.638 64.286L181.422 62.63L182.358 64.286L179.622 65.798ZM196.239 62.198V78.998H193.119V64.814H189.567V62.198H196.239ZM213.692 71.918H210.572V78.998H207.5V62.198H210.572V69.23H213.788L218.612 62.198H221.924L216.188 70.334L222.14 78.998H218.612L213.692 71.918ZM238.893 62.198L231.597 75.758C230.957 76.958 230.189 77.862 229.293 78.47C228.413 79.062 227.453 79.358 226.413 79.358C225.581 79.358 224.757 79.182 223.941 78.83L224.709 76.382C225.365 76.59 225.909 76.694 226.341 76.694C227.349 76.694 228.181 76.174 228.837 75.134L229.101 74.726L222.405 62.198H225.741L230.709 72.062L235.821 62.198H238.893ZM255.943 62.198V78.998H252.871V64.838H244.159V78.998H241.087V62.198H255.943ZM268.456 79.238C266.744 79.238 265.2 78.87 263.824 78.134C262.448 77.382 261.368 76.35 260.584 75.038C259.8 73.71 259.408 72.23 259.408 70.598C259.408 68.966 259.8 67.494 260.584 66.182C261.368 64.854 262.448 63.822 263.824 63.086C265.2 62.334 266.744 61.958 268.456 61.958C270.168 61.958 271.712 62.334 273.088 63.086C274.464 63.822 275.544 64.846 276.328 66.158C277.112 67.47 277.504 68.95 277.504 70.598C277.504 72.246 277.112 73.726 276.328 75.038C275.544 76.35 274.464 77.382 273.088 78.134C271.712 78.87 270.168 79.238 268.456 79.238ZM268.456 76.502C269.576 76.502 270.584 76.254 271.48 75.758C272.376 75.246 273.08 74.542 273.592 73.646C274.104 72.734 274.36 71.718 274.36 70.598C274.36 69.478 274.104 68.47 273.592 67.574C273.08 66.662 272.376 65.958 271.48 65.462C270.584 64.95 269.576 64.694 268.456 64.694C267.336 64.694 266.328 64.95 265.432 65.462C264.536 65.958 263.832 66.662 263.32 67.574C262.808 68.47 262.552 69.478 262.552 70.598C262.552 71.718 262.808 72.734 263.32 73.646C263.832 74.542 264.536 75.246 265.432 75.758C266.328 76.254 267.336 76.502 268.456 76.502ZM295.882 62.198V78.998H292.762V71.798H284.074V78.998H280.954V62.198H284.074V69.134H292.762V62.198H295.882ZM134.18 106.462V91.198H122.852L122.66 96.646C122.492 101.998 121.964 106.318 119.564 106.462H118.724L118.7 111.766H120.356L120.38 107.998H135.044V111.766H136.7V106.462H134.18ZM124.244 96.814L124.388 92.734H132.428V106.462H122.084C123.692 105.238 124.1 101.182 124.244 96.814ZM154.097 107.998H155.969L148.289 91.198H146.537L138.857 107.998H140.705L142.721 103.51H152.081L154.097 107.998ZM143.369 102.07L147.401 93.046L151.433 102.07H143.369ZM161.925 106.462V100.222H170.613V98.71H161.925V92.734H171.669V91.198H160.149V107.998H172.029V106.462H161.925ZM187.921 91.198H174.361V92.734H180.265V107.998H182.017V92.734H187.921V91.198ZM206.584 108.142C209.056 108.142 211.264 107.302 212.752 105.67L211.624 104.542C210.256 105.958 208.576 106.558 206.656 106.558C202.6 106.558 199.552 103.582 199.552 99.598C199.552 95.614 202.6 92.638 206.656 92.638C208.576 92.638 210.256 93.238 211.624 94.63L212.752 93.502C211.264 91.87 209.056 91.054 206.608 91.054C201.544 91.054 197.8 94.678 197.8 99.598C197.8 104.518 201.544 108.142 206.584 108.142ZM228.875 107.998H230.915L224.315 99.358L230.555 91.198H228.635L222.947 98.734H219.107V91.198H217.379V107.998H219.107V100.294H222.947L228.875 107.998ZM234.605 107.998H236.213L246.965 94.102V107.998H248.717V91.198H247.109L236.357 105.118V91.198H234.605V107.998ZM268 106.462V91.198H256.672L256.48 96.646C256.312 101.998 255.784 106.318 253.384 106.462H252.544L252.52 111.766H254.176L254.2 107.998H268.864V111.766H270.52V106.462H268ZM258.064 96.814L258.208 92.734H266.248V106.462H255.904C257.512 105.238 257.92 101.182 258.064 96.814ZM286.599 107.998H288.639L282.039 99.358L288.279 91.198H286.359L280.671 98.734H276.831V91.198H275.103V107.998H276.831V100.294H280.671L286.599 107.998ZM303.776 91.198L297.776 102.574L291.92 91.198H290.024L296.84 104.134L296.36 104.95C295.592 106.246 294.656 106.75 293.648 106.75C293.144 106.75 292.616 106.63 292.064 106.414L291.56 107.854C292.256 108.142 292.952 108.31 293.624 108.31C295.28 108.31 296.816 107.398 297.92 105.334L305.552 91.198H303.776ZM329.154 91.198V98.686H318.642V91.198H316.866V107.998H318.642V100.246H329.154V107.998H330.906V91.198H329.154ZM350.305 107.998H352.177L344.497 91.198H342.745L335.065 107.998H336.913L338.929 103.51H348.289L350.305 107.998ZM339.577 102.07L343.609 93.046L347.641 102.07H339.577ZM160.497 117.198V133.998H157.377V119.814H153.825V117.198H160.497ZM177.95 126.918H174.83V133.998H171.758V117.198H174.83V124.23H178.046L182.87 117.198H186.182L180.446 125.334L186.398 133.998H182.87L177.95 126.918ZM199.371 130.11H190.971L189.315 133.998H186.099L193.659 117.198H196.731L204.315 133.998H201.051L199.371 130.11ZM198.339 127.662L195.171 120.318L192.027 127.662H198.339ZM213.803 117.198C215.259 117.198 216.523 117.438 217.595 117.918C218.683 118.398 219.515 119.086 220.091 119.982C220.667 120.878 220.955 121.942 220.955 123.174C220.955 124.39 220.667 125.454 220.091 126.366C219.515 127.262 218.683 127.95 217.595 128.43C216.523 128.91 215.259 129.15 213.803 129.15H210.011V133.998H206.891V117.198H213.803ZM213.659 126.51C215.019 126.51 216.051 126.222 216.755 125.646C217.459 125.07 217.811 124.246 217.811 123.174C217.811 122.102 217.459 121.278 216.755 120.702C216.051 120.126 215.019 119.838 213.659 119.838H210.011V126.51H213.659ZM235.607 119.838H230.039V133.998H226.943V119.838H221.399V117.198H235.607V119.838ZM245.209 117.198C246.665 117.198 247.929 117.438 249.001 117.918C250.089 118.398 250.921 119.086 251.497 119.982C252.073 120.878 252.361 121.942 252.361 123.174C252.361 124.39 252.073 125.454 251.497 126.366C250.921 127.262 250.089 127.95 249.001 128.43C247.929 128.91 246.665 129.15 245.209 129.15H241.417V133.998H238.297V117.198H245.209ZM245.065 126.51C246.425 126.51 247.457 126.222 248.161 125.646C248.865 125.07 249.217 124.246 249.217 123.174C249.217 122.102 248.865 121.278 248.161 120.702C247.457 120.126 246.425 119.838 245.065 119.838H241.417V126.51H245.065ZM255.337 117.198H258.409V129.126L267.433 117.198H270.337V133.998H267.265V122.094L258.241 133.998H255.337V117.198ZM291.539 131.358V137.574H288.659V133.998H275.771V137.574H272.867L272.891 131.358H273.611C274.667 131.31 275.403 130.534 275.819 129.03C276.251 127.51 276.515 125.342 276.611 122.526L276.803 117.198H289.115V131.358H291.539ZM279.347 122.814C279.267 124.99 279.091 126.806 278.819 128.262C278.547 129.702 278.115 130.734 277.523 131.358H286.043V119.838H279.467L279.347 122.814ZM309.165 126.918H306.285V133.998H303.237V126.918H300.357L296.109 133.998H292.509L297.789 125.238L292.869 117.198H296.181L300.285 124.23H303.237V117.198H306.285V124.23H309.189L313.317 117.198H316.629L311.733 125.262L316.989 133.998H313.389L309.165 126.918Z" fill="#292930"/>
</svg>
