<svg width="15" height="15" viewBox="0 0 15 15" fill="none" xmlns="http://www.w3.org/2000/svg">
<circle cx="7.5" cy="7.5" r="7" stroke="#40404C"/>
<g clip-path="url(#clip0)">
<path d="M7.79587 11.8774L10.4741 9.19918C10.6375 9.03578 10.6375 8.77076 10.4741 8.60736C10.3107 8.44392 10.0457 8.44392 9.8823 8.60736L7.91844 10.5712L7.91844 3.41848C7.91844 3.18738 7.73106 3 7.49996 3C7.26889 3 7.08148 3.18738 7.08148 3.41848L7.08148 10.5712L5.11762 8.60742C4.95418 8.44398 4.68923 8.44398 4.52579 8.60742C4.44414 8.68911 4.40323 8.79624 4.40323 8.90334C4.40323 9.01043 4.44414 9.11753 4.52579 9.19925L7.20404 11.8774C7.36749 12.0409 7.63243 12.0409 7.79587 11.8774Z" fill="#40404C"/>
</g>
<defs>
<clipPath id="clip0">
<rect x="12" y="3" width="9" height="9" transform="rotate(90 12 3)" fill="white"/>
</clipPath>
</defs>
</svg>
