<svg width="285" height="270" viewBox="0 0 285 270" fill="none" xmlns="http://www.w3.org/2000/svg">
<rect width="270" height="270" fill="#35FDD9"/>
<mask id="mask0" mask-type="alpha" maskUnits="userSpaceOnUse" x="0" y="0" width="270" height="270">
<rect width="270" height="270" fill="#3559FD"/>
</mask>
<g mask="url(#mask0)">
<path d="M226.467 210.207L317 229.274V285.139L215.267 264.74L226.467 210.207Z" fill="#D4D4D5"/>
<path d="M149.8 258.072C163.8 260.205 202.6 250.472 206.333 250.338C216.733 249.805 234.466 256.872 234.466 256.872V224.872L216.333 219.405C216.333 219.405 208.066 206.472 191.533 206.738C175 207.005 167.8 215.538 163.666 216.338C159.533 217.138 128.2 222.605 128.2 222.605L111 212.205C111 212.205 104.6 207.272 101.267 214.072C101.267 214.072 88.6 202.605 83 217.672C83 217.805 128.467 254.872 149.8 258.072Z" fill="#FFD5B3"/>
<path d="M101.267 214.077C101.267 214.077 101 213.81 100.467 213.41L101.267 214.077Z" fill="#F9AB64"/>
<path d="M164.333 232.875C156.733 233.542 149.267 234.475 141.667 235.542C136.6 236.342 130.867 237.942 125.667 237.542C121 237.142 118.6 232.075 120.2 228.208C120.467 228.075 120.6 227.675 120.6 227.408C120.867 226.875 121.267 226.475 121.667 226.075C123.267 224.608 126.2 222.875 128.333 222.475C128.067 222.475 127.933 222.608 127.933 222.608L126.067 221.408C123.4 221.942 120.733 223.542 119 225.675C113.267 221.542 107.533 217.008 101.8 212.875C101.533 213.275 101.267 213.675 101.133 214.075C107 218.208 112.333 223.142 118.067 227.408C117.533 228.608 117.4 229.942 117.667 231.408C119 240.208 127 240.075 133.933 238.742C140.733 237.408 147.533 236.608 154.333 235.808C158.867 235.275 163.533 234.742 168.066 234.475C169.933 234.342 173.933 233.542 175.666 234.742C176.733 235.542 177.933 233.808 176.866 233.008C173.933 231.142 167.533 232.608 164.333 232.875Z" fill="#F4C29D"/>
<path d="M132.866 234.47C132.866 234.47 123.266 236.603 122.2 231.537C121.266 226.47 128.6 225.137 130.866 224.604C130.866 224.604 133.266 224.87 134.066 229.004C135 233.404 132.866 234.47 132.866 234.47Z" fill="#F7F5F6"/>
<path d="M226.535 210.258L215.271 264.707L257.315 273.405L268.58 218.956L226.535 210.258Z" fill="#F7F5F6"/>
<path d="M233.267 255.274C234.6 251.941 238.467 250.341 241.8 251.808C245.133 253.141 246.733 257.008 245.267 260.341C243.933 263.674 240.067 265.274 236.733 263.808C233.4 262.474 231.8 258.608 233.267 255.274Z" fill="#DFDFDF"/>
<path d="M106.6 216.34C106.6 216.34 115.267 187.406 145.267 187.406C175.267 187.406 185.267 207.273 185.267 207.273C185.267 207.273 177.267 208.473 169.667 213.14C162.2 217.806 164.333 216.206 156.333 217.673C148.2 219.14 130.467 222.206 128.067 222.606C128.067 222.606 123.8 223.273 120.733 227.406C120.733 227.406 109.267 218.34 106.6 216.34Z" fill="#BF8255"/>
<path d="M164.067 124.605C164.067 124.605 164.067 124.338 163.934 123.805C163.934 123.272 163.8 122.472 163.8 121.538C163.8 119.672 163.934 117.138 164.6 114.338C165.134 111.672 166.2 108.738 167.534 105.938C168.867 103.138 170.734 100.472 173 98.0716C175.134 95.6716 177.667 93.6716 180.334 91.9383C183 90.3383 185.8 89.1383 188.467 88.2049C191.134 87.4049 193.667 87.0049 195.534 86.8716C196.467 86.7383 197.267 86.7383 197.8 86.7383C198.334 86.7383 198.734 86.7383 198.734 86.7383C198.734 86.7383 198.734 87.0049 198.867 87.5383C198.867 88.0716 199 88.8716 199 89.8049C199 91.6716 198.867 94.2049 198.2 97.0049C197.667 99.6716 196.6 102.605 195.267 105.405C193.8 108.205 191.934 110.872 189.8 113.138C187.667 115.538 185.134 117.538 182.467 119.138C179.8 120.738 177 121.938 174.334 122.872C171.667 123.672 169.134 124.072 167.267 124.205C166.334 124.338 165.534 124.338 165 124.338C164.467 124.605 164.067 124.605 164.067 124.605Z" fill="#B8F4C1"/>
<path d="M145.134 111.935C145.134 111.935 144.867 111.935 144.334 112.069C143.8 112.069 143 112.202 142.067 112.202C140.2 112.202 137.667 112.069 134.867 111.402C132.2 110.869 129.267 109.802 126.467 108.469C123.667 107.135 121 105.269 118.6 103.002C116.2 100.869 114.2 98.3352 112.467 95.6686C110.867 93.0019 109.534 90.2019 108.734 87.5353C107.934 84.8686 107.534 82.3353 107.4 80.4686C107.267 79.5353 107.267 78.7353 107.267 78.202C107.267 77.6686 107.267 77.2686 107.267 77.2686C107.267 77.2686 107.534 77.2686 108.067 77.1353C108.6 77.1353 109.4 77.002 110.334 77.002C112.334 77.1353 114.867 77.2686 117.667 77.9353C120.334 78.4686 123.267 79.5353 126.067 80.8686C128.867 82.2019 131.534 84.0686 133.8 86.3353C136.2 88.4686 138.2 91.0019 139.934 93.6686C141.534 96.3352 142.734 99.1352 143.667 101.802C144.467 104.469 144.867 107.002 145 108.869C145.134 109.802 145.134 110.602 145.134 111.135C145.134 111.669 145.134 111.935 145.134 111.935Z" fill="#B8F4C1"/>
<path d="M133.534 154.734C133.534 154.734 133.267 154.734 132.734 154.867C132.2 154.867 131.4 155.001 130.467 155.001C128.6 155.001 126.067 154.867 123.267 154.201C120.6 153.667 117.667 152.601 114.867 151.267C112.067 149.934 109.4 148.067 107 145.801C104.6 143.667 102.6 141.134 100.867 138.467C99.267 135.801 97.9337 133.001 97.1337 130.334C96.3337 127.667 95.9337 125.134 95.8003 123.267C95.667 122.334 95.667 121.534 95.667 121.001C95.667 120.467 95.667 120.067 95.667 120.067C95.667 120.067 95.9337 120.067 96.467 119.934C97.0003 119.934 97.8003 119.801 98.7337 119.801C100.6 119.801 103.134 119.934 105.934 120.601C108.6 121.134 111.534 122.201 114.334 123.534C117.134 124.867 119.8 126.734 122.067 129.001C124.467 131.134 126.467 133.667 128.2 136.334C129.8 139.001 131 141.801 131.934 144.467C132.734 147.134 133.134 149.667 133.267 151.534C133.4 152.467 133.4 153.267 133.4 153.801C133.667 154.334 133.534 154.734 133.534 154.734Z" fill="#B8F4C1"/>
<path d="M157.8 139.802C162.733 129.935 169.266 120.735 176.466 113.135C178.333 111.268 175.4 108.335 173.533 110.202C167.133 117.135 161.266 125.135 156.466 133.668C151.666 117.802 141.533 102.868 128.466 92.8684C126.333 91.2684 124.333 94.8683 126.466 96.335C139 106.068 149.666 122.735 153.666 139.002C148.866 148.868 145.4 159.535 143.933 170.202C137.8 155.002 126.6 141.535 114.333 132.068C112.333 130.468 109.4 133.402 111.4 135.002C125.8 146.068 138.733 162.868 143.266 181.135C143.266 181.535 143.266 181.935 143.266 182.335C143.266 183.001 143.533 183.401 143.8 183.668C144.466 186.735 144.733 189.935 144.866 193.135C144.866 195.801 149 195.801 149 193.135C148.866 189.001 148.333 184.735 147.4 180.735C147.533 167.002 151.266 153.135 157.533 140.468C157.533 140.335 157.666 140.068 157.8 139.802Z" fill="#8FE5A1"/>
</g>
<line x1="20" y1="63.5" x2="250" y2="63.5" stroke="white"/>
<path d="M285 134L270 151.321L270 116.679L285 134Z" fill="#35FDD9"/>
<path d="M30.2991 79.368C33.8271 79.368 36.5871 80.448 38.5791 82.608C40.5711 84.744 41.5671 87.828 41.5671 91.86C41.5671 94.716 41.0271 97.164 39.9471 99.204C38.8911 101.244 37.3911 102.792 35.4471 103.848C33.5031 104.904 31.2591 105.432 28.7151 105.432C27.3711 105.432 26.0871 105.288 24.8631 105C23.6391 104.688 22.5951 104.256 21.7311 103.704L23.8911 99.42C25.1151 100.26 26.6871 100.68 28.6071 100.68C30.7431 100.68 32.4351 100.056 33.6831 98.808C34.9311 97.536 35.6031 95.712 35.6991 93.336C34.1871 94.848 32.0991 95.604 29.4351 95.604C27.8271 95.604 26.3631 95.28 25.0431 94.632C23.7231 93.984 22.6791 93.072 21.9111 91.896C21.1431 90.696 20.7591 89.316 20.7591 87.756C20.7591 86.076 21.1791 84.6 22.0191 83.328C22.8591 82.056 23.9991 81.084 25.4391 80.412C26.9031 79.716 28.5231 79.368 30.2991 79.368ZM30.7311 91.248C32.0031 91.248 33.0351 90.9 33.8271 90.204C34.6431 89.484 35.0511 88.572 35.0511 87.468C35.0511 86.364 34.6551 85.464 33.8631 84.768C33.0951 84.072 32.0271 83.724 30.6591 83.724C29.4111 83.724 28.3911 84.06 27.5991 84.732C26.8311 85.404 26.4471 86.316 26.4471 87.468C26.4471 88.62 26.8311 89.544 27.5991 90.24C28.3911 90.912 29.4351 91.248 30.7311 91.248Z" fill="#292930"/>
<path d="M30.062 28.448C30.866 28.664 31.478 29.036 31.898 29.564C32.318 30.08 32.528 30.728 32.528 31.508C32.528 32.612 32.12 33.47 31.304 34.082C30.488 34.694 29.306 35 27.758 35H21.782V22.4H27.416C28.832 22.4 29.936 22.682 30.728 23.246C31.52 23.81 31.916 24.608 31.916 25.64C31.916 26.3 31.754 26.87 31.43 27.35C31.118 27.83 30.662 28.196 30.062 28.448ZM24.086 27.782H27.218C27.974 27.782 28.55 27.632 28.946 27.332C29.342 27.032 29.54 26.588 29.54 26C29.54 25.412 29.342 24.968 28.946 24.668C28.55 24.356 27.974 24.2 27.218 24.2H24.086V27.782ZM27.686 33.2C29.342 33.2 30.17 32.576 30.17 31.328C30.17 30.104 29.342 29.492 27.686 29.492H24.086V33.2H27.686ZM39.9817 28.556C41.2057 28.556 42.1417 28.832 42.7897 29.384C43.4377 29.936 43.7617 30.716 43.7617 31.724C43.7617 32.78 43.4017 33.596 42.6817 34.172C41.9737 34.748 40.9657 35.03 39.6577 35.018L35.3017 35V25.388H37.5517V28.538L39.9817 28.556ZM45.0037 25.388H47.2537V35H45.0037V25.388ZM39.4597 33.362C40.1197 33.374 40.6237 33.236 40.9717 32.948C41.3197 32.66 41.4937 32.24 41.4937 31.688C41.4937 31.148 41.3257 30.752 40.9897 30.5C40.6537 30.248 40.1437 30.116 39.4597 30.104L37.5517 30.086V33.344L39.4597 33.362ZM60.3469 35.126C59.3509 35.126 58.4569 34.916 57.6649 34.496C56.8729 34.076 56.2549 33.494 55.8109 32.75C55.3669 31.994 55.1449 31.142 55.1449 30.194C55.1449 29.246 55.3669 28.4 55.8109 27.656C56.2549 26.912 56.8669 26.33 57.6469 25.91C58.4389 25.49 59.3389 25.28 60.3469 25.28C61.2949 25.28 62.1229 25.472 62.8309 25.856C63.5509 26.24 64.0909 26.792 64.4509 27.512L62.7229 28.52C62.4469 28.076 62.0989 27.746 61.6789 27.53C61.2709 27.302 60.8209 27.188 60.3289 27.188C59.4889 27.188 58.7929 27.464 58.2409 28.016C57.6889 28.556 57.4129 29.282 57.4129 30.194C57.4129 31.106 57.6829 31.838 58.2229 32.39C58.7749 32.93 59.4769 33.2 60.3289 33.2C60.8209 33.2 61.2709 33.092 61.6789 32.876C62.0989 32.648 62.4469 32.312 62.7229 31.868L64.4509 32.876C64.0789 33.596 63.5329 34.154 62.8129 34.55C62.1049 34.934 61.2829 35.126 60.3469 35.126ZM76.0078 25.388V35H73.7758V27.296H69.0418V35H66.7918V25.388H76.0078ZM82.9858 25.28C84.4018 25.28 85.4818 25.622 86.2258 26.306C86.9818 26.978 87.3598 27.998 87.3598 29.366V35H85.2358V33.83C84.9598 34.25 84.5638 34.574 84.0478 34.802C83.5438 35.018 82.9318 35.126 82.2118 35.126C81.4918 35.126 80.8618 35.006 80.3218 34.766C79.7818 34.514 79.3618 34.172 79.0618 33.74C78.7738 33.296 78.6298 32.798 78.6298 32.246C78.6298 31.382 78.9478 30.692 79.5838 30.176C80.2318 29.648 81.2458 29.384 82.6258 29.384H85.1098V29.24C85.1098 28.568 84.9058 28.052 84.4978 27.692C84.1018 27.332 83.5078 27.152 82.7158 27.152C82.1758 27.152 81.6418 27.236 81.1138 27.404C80.5978 27.572 80.1598 27.806 79.7998 28.106L78.9178 26.468C79.4218 26.084 80.0278 25.79 80.7358 25.586C81.4438 25.382 82.1938 25.28 82.9858 25.28ZM82.6798 33.488C83.2438 33.488 83.7418 33.362 84.1738 33.11C84.6178 32.846 84.9298 32.474 85.1098 31.994V30.878H82.7878C81.4918 30.878 80.8438 31.304 80.8438 32.156C80.8438 32.564 81.0058 32.888 81.3298 33.128C81.6538 33.368 82.1038 33.488 82.6798 33.488ZM94.878 35.126C93.882 35.126 92.988 34.916 92.196 34.496C91.404 34.076 90.786 33.494 90.342 32.75C89.898 31.994 89.676 31.142 89.676 30.194C89.676 29.246 89.898 28.4 90.342 27.656C90.786 26.912 91.398 26.33 92.178 25.91C92.97 25.49 93.87 25.28 94.878 25.28C95.826 25.28 96.654 25.472 97.362 25.856C98.082 26.24 98.622 26.792 98.982 27.512L97.254 28.52C96.978 28.076 96.63 27.746 96.21 27.53C95.802 27.302 95.352 27.188 94.86 27.188C94.02 27.188 93.324 27.464 92.772 28.016C92.22 28.556 91.944 29.282 91.944 30.194C91.944 31.106 92.214 31.838 92.754 32.39C93.306 32.93 94.008 33.2 94.86 33.2C95.352 33.2 95.802 33.092 96.21 32.876C96.63 32.648 96.978 32.312 97.254 31.868L98.982 32.876C98.61 33.596 98.064 34.154 97.344 34.55C96.636 34.934 95.814 35.126 94.878 35.126ZM109.824 25.388V35H107.574V27.296H103.974L103.884 29.204C103.824 30.476 103.704 31.544 103.524 32.408C103.356 33.26 103.062 33.938 102.642 34.442C102.234 34.934 101.67 35.18 100.95 35.18C100.614 35.18 100.2 35.114 99.7081 34.982L99.8161 33.092C99.9841 33.128 100.128 33.146 100.248 33.146C100.704 33.146 101.046 32.966 101.274 32.606C101.502 32.234 101.646 31.796 101.706 31.292C101.778 30.776 101.838 30.044 101.886 29.096L102.048 25.388H109.824ZM113.214 25.388H115.464V31.724L120.774 25.388H122.826V35H120.576V28.664L115.284 35H113.214V25.388Z" fill="#292930"/>
<path d="M27.0438 125.256V119.688H22.3878L22.3038 121.8C22.2198 123.504 22.0638 125.196 21.1278 125.256H20.7678V127.524H21.5718V126H27.2238V127.524H28.0278V125.256H27.0438ZM23.0838 121.848L23.1558 120.444H26.1918V125.256H22.2558C22.8918 124.776 23.0238 123.288 23.0838 121.848ZM35.4602 122.844C35.4602 120.948 34.1762 119.64 32.4002 119.64C30.6242 119.64 29.3162 120.972 29.3162 122.844C29.3162 124.716 30.6602 126.06 32.6282 126.06C33.6242 126.06 34.5002 125.7 35.0642 125.028L34.5842 124.476C34.1042 125.028 33.4202 125.304 32.6522 125.304C31.2722 125.304 30.2642 124.428 30.1682 123.108H35.4483C35.4483 123.012 35.4602 122.916 35.4602 122.844ZM32.4002 120.372C33.6362 120.372 34.5362 121.236 34.6442 122.472H30.1682C30.2762 121.236 31.1762 120.372 32.4002 120.372ZM40.8382 119.64C39.7942 119.64 38.9182 120.096 38.4022 120.936V119.688H37.5862V128.328H38.4382V124.812C38.9662 125.628 39.8302 126.06 40.8382 126.06C42.6382 126.06 43.9822 124.764 43.9822 122.844C43.9822 120.936 42.6382 119.64 40.8382 119.64ZM40.7782 125.304C39.4342 125.304 38.4262 124.32 38.4262 122.844C38.4262 121.38 39.4342 120.384 40.7782 120.384C42.1102 120.384 43.1302 121.38 43.1302 122.844C43.1302 124.32 42.1102 125.304 40.7782 125.304ZM51.5848 122.844C51.5848 120.948 50.3008 119.64 48.5248 119.64C46.7488 119.64 45.4408 120.972 45.4408 122.844C45.4408 124.716 46.7848 126.06 48.7528 126.06C49.7488 126.06 50.6248 125.7 51.1888 125.028L50.7088 124.476C50.2288 125.028 49.5448 125.304 48.7768 125.304C47.3968 125.304 46.3888 124.428 46.2928 123.108H51.5728C51.5728 123.012 51.5848 122.916 51.5848 122.844ZM48.5248 120.372C49.7608 120.372 50.6608 121.236 50.7688 122.472H46.2928C46.4008 121.236 47.3008 120.372 48.5248 120.372ZM57.7307 122.736C58.3907 122.496 58.7987 122.016 58.7987 121.308C58.7987 120.264 57.9227 119.688 56.4947 119.688H53.7107V126H56.5787C58.2227 126 59.0147 125.376 59.0147 124.284C59.0147 123.456 58.6067 122.94 57.7307 122.736ZM54.5387 120.36H56.4347C57.4067 120.36 57.9467 120.708 57.9467 121.416C57.9467 122.124 57.4067 122.496 56.4347 122.496H54.5387V120.36ZM56.5427 125.328H54.5387V123.132H56.6267C57.6947 123.132 58.1747 123.48 58.1747 124.236C58.1747 124.992 57.6107 125.328 56.5427 125.328ZM63.9635 121.92L62.1035 121.896V119.688H61.2515V126L63.7955 126.012C65.4755 126.036 66.3875 125.28 66.3875 123.936C66.3875 122.64 65.5475 121.932 63.9635 121.92ZM63.7475 125.364L62.1035 125.34V122.532L63.7475 122.556C64.9235 122.568 65.5235 123 65.5235 123.936C65.5235 124.884 64.9115 125.376 63.7475 125.364ZM73.7852 122.844C73.7852 120.948 72.5012 119.64 70.7252 119.64C68.9492 119.64 67.6412 120.972 67.6412 122.844C67.6412 124.716 68.9852 126.06 70.9532 126.06C71.9492 126.06 72.8252 125.7 73.3892 125.028L72.9092 124.476C72.4292 125.028 71.7452 125.304 70.9772 125.304C69.5972 125.304 68.5892 124.428 68.4932 123.108H73.7732C73.7732 123.012 73.7852 122.916 73.7852 122.844ZM70.7252 120.372C71.9612 120.372 72.8612 121.236 72.9692 122.472H68.4932C68.6012 121.236 69.5012 120.372 70.7252 120.372ZM79.9312 122.736C80.5912 122.496 80.9992 122.016 80.9992 121.308C80.9992 120.264 80.1232 119.688 78.6952 119.688H75.9112V126H78.7792C80.4232 126 81.2152 125.376 81.2152 124.284C81.2152 123.456 80.8072 122.94 79.9312 122.736ZM76.7392 120.36H78.6352C79.6072 120.36 80.1472 120.708 80.1472 121.416C80.1472 122.124 79.6072 122.496 78.6352 122.496H76.7392V120.36ZM78.7432 125.328H76.7392V123.132H78.8272C79.8952 123.132 80.3752 123.48 80.3752 124.236C80.3752 124.992 79.8112 125.328 78.7432 125.328Z" fill="#292930"/>
</svg>
