<svg width="285" height="271" viewBox="0 0 285 271" fill="none" xmlns="http://www.w3.org/2000/svg">
<rect y="0.716797" width="270" height="270" fill="#3559FD"/>
<line x1="18" y1="74.2168" x2="248" y2="74.2168" stroke="white"/>
<mask id="mask0" mask-type="alpha" maskUnits="userSpaceOnUse" x="0" y="0" width="270" height="271">
<rect y="0.716797" width="270" height="270" fill="#BDFD35"/>
</mask>
<g mask="url(#mask0)">
<path d="M149.652 224.688L119.149 212.058L144.333 192.209C144.333 192.209 139.329 180.903 153.345 162.734C153.345 162.734 155.22 156.435 155.218 150.899C155.196 145.25 156.131 134.835 156.417 131.675C156.818 128.496 158.713 124.385 163.522 124.189C168.35 124.106 169.175 129.625 169.388 133.628C169.619 137.743 167.673 158.125 170.433 161.141C172.177 163.053 179.381 165.817 185.07 163.173C190.759 160.528 194.358 156.028 189.393 147.714C184.448 139.512 172.797 130.773 169.576 125.062C166.336 119.239 169.284 112.998 173.191 110.986C173.191 110.986 189.347 126.73 197.799 136.098C206.405 145.673 211.218 158.625 210.319 161.653C208.291 169.13 189.124 195.163 176.197 204.506C166.544 211.594 155.168 221.726 149.652 224.688Z" fill="#FFD5B3"/>
<path d="M191.826 154.527C187.189 154.913 180.111 151.406 180.111 151.406C179.386 156.032 174.301 163.315 174.301 163.315C172.656 162.65 171.24 161.948 170.646 161.233C169.476 159.914 169.171 155.45 169.131 150.482C171.685 144.872 174.869 139.509 176.008 137.94C176.957 136.633 177.756 135.813 178.995 135.501C182.982 139.498 187.123 143.702 189.622 147.934C191.102 150.361 191.742 152.689 191.826 154.527Z" fill="#F4C29D"/>
<path d="M180.087 151.361C180.087 151.361 187.175 154.874 191.819 154.487C192.085 158.733 189.153 161.514 185.222 163.295C181.73 164.89 177.657 164.492 174.651 163.461C174.612 163.235 174.307 163.515 174.268 163.29C175.484 161.475 179.587 155.264 180.087 151.361Z" fill="#EAAE86"/>
<path d="M153.736 57.4116L153 57.4116L153 80.1103C154.906 80.1103 156.465 81.6437 156.465 83.5659C156.465 85.4664 154.927 87.0214 153 87.0214L153 151.316L153.736 151.316C153.736 150.582 154.321 149.999 155.057 149.999C155.794 149.999 156.378 150.582 156.378 151.316L157.05 151.316C157.05 150.582 157.634 149.999 158.371 149.999C159.107 149.999 159.713 150.582 159.713 151.316L160.385 151.316C160.385 150.582 160.969 149.999 161.706 149.999C162.442 149.999 163.027 150.582 163.027 151.316L163.698 151.316C163.698 150.582 164.283 149.999 165.019 149.999C165.755 149.999 166.34 150.582 166.34 151.316L167.011 151.316C167.011 150.582 167.596 149.999 168.332 149.999C169.069 149.999 169.697 150.582 169.697 151.316L170.368 151.316C170.368 150.582 170.953 149.999 171.689 149.999C172.425 149.999 173.01 150.582 173.01 151.316L173.682 151.316C173.682 150.582 174.266 149.999 175.003 149.999C175.739 149.999 176.324 150.582 176.324 151.316L176.995 151.316C176.995 150.582 177.58 149.999 178.316 149.999C179.052 149.999 179.637 150.582 179.637 151.316L180.308 151.316C180.308 150.582 180.893 149.999 181.629 149.999C182.366 149.999 182.95 150.582 182.95 151.316L183.622 151.316C183.622 150.582 184.206 149.999 184.943 149.999C185.679 149.999 186.264 150.582 186.264 151.316L187 151.316L187 86.9998C185.094 86.9998 183.535 85.4664 183.535 83.5443C183.535 81.6437 185.073 80.0887 187 80.0887L187 57.3684L186.264 57.3684C186.264 58.1027 185.679 58.6858 184.943 58.6858C184.206 58.6858 183.622 58.1027 183.622 57.3684L182.95 57.3684C182.95 58.1027 182.366 58.6858 181.629 58.6858C180.893 58.6858 180.308 58.1027 180.308 57.3684L179.637 57.3684C179.637 58.1027 179.052 58.6858 178.316 58.6858C177.58 58.6858 176.995 58.1027 176.995 57.3684L176.324 57.3684C176.324 58.1027 175.739 58.6858 175.003 58.6858C174.266 58.6858 173.682 58.1027 173.682 57.3684L173.01 57.3684C173.01 58.1027 172.425 58.6858 171.689 58.6858C170.953 58.6858 170.368 58.1027 170.368 57.3684L169.697 57.3684C169.697 58.1027 169.112 58.6858 168.376 58.6858C167.639 58.6858 167.055 58.1027 167.055 57.3684L166.383 57.3684C166.383 58.1027 165.799 58.6858 165.062 58.6858C164.326 58.6858 163.741 58.1027 163.741 57.3684L163.07 57.3684C163.07 58.1027 162.485 58.6858 161.749 58.6858C161.013 58.6858 160.428 58.1027 160.428 57.3684L159.713 57.3684C159.713 58.1027 159.129 58.6858 158.392 58.6858C157.656 58.6858 157.071 58.1027 157.071 57.3684L156.4 57.3684C156.4 58.1027 155.815 58.6858 155.079 58.6858C154.321 58.729 153.736 58.1243 153.736 57.4116Z" fill="#F5FFE7"/>
<path d="M154 87.7059L154 149.359L186 149.359L186 87.7059" stroke="#D4D4D5" stroke-width="0.5" stroke-miterlimit="10" stroke-linecap="round" stroke-linejoin="round"/>
<path d="M156.709 83.5645L157.322 83.5645" stroke="#D4D4D5" stroke-width="0.5" stroke-linecap="round" stroke-linejoin="round"/>
<path d="M158.526 83.5645L181.825 83.5645" stroke="#D4D4D5" stroke-width="0.5" stroke-linecap="round" stroke-linejoin="round" stroke-dasharray="5.46 5.46"/>
<path d="M182.416 83.5645L183.05 83.5645" stroke="#D4D4D5" stroke-width="0.5" stroke-linecap="round" stroke-linejoin="round"/>
<path d="M154 78.9634C155.675 79.2166 157.023 80.3353 157.589 81.834L182.845 81.834C183.367 80.462 184.542 79.4277 186 79.0478L186 60.3043L154 60.3043L154 78.9634Z" stroke="#D4D4D5" stroke-width="0.5" stroke-miterlimit="10" stroke-linecap="round" stroke-linejoin="round"/>
<path d="M169.424 133.623C169.586 135.91 169.102 143.268 169.072 149.862C165.32 155.311 155.985 161.065 153.551 162.606C153.832 161.522 155.334 155.967 155.275 150.89C155.232 145.233 156.123 134.804 156.396 131.64C156.783 128.458 158.653 124.347 163.437 124.168C168.24 124.101 169.197 129.613 169.424 133.623Z" fill="#FFD5B3"/>
<path d="M158.228 136.57C158.228 136.57 157.772 127.85 162.334 127.707C167.029 127.658 167.114 134.239 167.257 136.414C167.257 136.414 166.674 138.473 162.799 138.508C158.943 138.655 158.228 136.57 158.228 136.57Z" fill="#F7F5F6"/>
<path d="M135.126 184.691L91.2332 250.495L136.253 269.43L175.524 211.425L135.126 184.691Z" fill="#DFDFDF"/>
<path d="M155.251 241.756L175.848 211.498L135.223 184.903L114.626 215.16L155.251 241.756Z" fill="#F7F5F6"/>
<path d="M158.818 216.283C155.91 215.122 152.592 216.342 151.324 219.204C150.171 222.049 151.445 225.32 154.373 226.593C157.281 227.753 160.599 226.534 161.867 223.671C163.135 220.809 161.746 217.556 158.818 216.283Z" fill="#DFDFDF"/>
</g>
<path d="M285 134.717L270 152.037L270 117.396L285 134.717Z" fill="#3559FD"/>
<path d="M39.2205 110.517V114.297L29.8605 135.717H23.5245L32.5605 115.269H24.2085V119.373H19.0245V110.517H39.2205ZM52.5256 119.913C54.1336 119.913 55.5976 120.237 56.9176 120.885C58.2376 121.533 59.2816 122.457 60.0496 123.657C60.8176 124.833 61.2016 126.201 61.2016 127.761C61.2016 129.441 60.7816 130.917 59.9416 132.189C59.1016 133.461 57.9496 134.445 56.4856 135.141C55.0456 135.813 53.4376 136.149 51.6616 136.149C48.1336 136.149 45.3736 135.069 43.3816 132.909C41.3896 130.749 40.3936 127.665 40.3936 123.657C40.3936 120.801 40.9336 118.353 42.0136 116.313C43.0936 114.273 44.5936 112.725 46.5136 111.669C48.4576 110.613 50.7016 110.085 53.2456 110.085C54.5896 110.085 55.8736 110.241 57.0976 110.553C58.3456 110.841 59.4016 111.261 60.2656 111.813L58.1056 116.097C56.8576 115.257 55.2856 114.837 53.3896 114.837C51.2536 114.837 49.5616 115.461 48.3136 116.709C47.0656 117.957 46.3936 119.769 46.2976 122.145C47.7856 120.657 49.8616 119.913 52.5256 119.913ZM51.3376 131.793C52.5856 131.793 53.5936 131.457 54.3616 130.785C55.1536 130.113 55.5496 129.201 55.5496 128.049C55.5496 126.897 55.1536 125.985 54.3616 125.313C53.5936 124.617 52.5616 124.269 51.2656 124.269C49.9936 124.269 48.9496 124.629 48.1336 125.349C47.3176 126.045 46.9096 126.945 46.9096 128.049C46.9096 129.153 47.3056 130.053 48.0976 130.749C48.8896 131.445 49.9696 131.793 51.3376 131.793Z" fill="white"/>
<path d="M32.924 23.1168V35.7168H30.62V25.0968H24.086V35.7168H21.782V23.1168H32.924ZM40.8689 35.8428C39.8969 35.8428 39.0209 35.6328 38.2409 35.2128C37.4609 34.7928 36.8489 34.2108 36.4049 33.4668C35.9729 32.7108 35.7569 31.8588 35.7569 30.9108C35.7569 29.9628 35.9729 29.1168 36.4049 28.3728C36.8489 27.6288 37.4609 27.0468 38.2409 26.6268C39.0209 26.2068 39.8969 25.9968 40.8689 25.9968C41.8529 25.9968 42.7349 26.2068 43.5149 26.6268C44.2949 27.0468 44.9009 27.6288 45.3329 28.3728C45.7769 29.1168 45.9989 29.9628 45.9989 30.9108C45.9989 31.8588 45.7769 32.7108 45.3329 33.4668C44.9009 34.2108 44.2949 34.7928 43.5149 35.2128C42.7349 35.6328 41.8529 35.8428 40.8689 35.8428ZM40.8689 33.9168C41.6969 33.9168 42.3809 33.6408 42.9209 33.0888C43.4609 32.5368 43.7309 31.8108 43.7309 30.9108C43.7309 30.0108 43.4609 29.2848 42.9209 28.7328C42.3809 28.1808 41.6969 27.9048 40.8689 27.9048C40.0409 27.9048 39.3569 28.1808 38.8169 28.7328C38.2889 29.2848 38.0249 30.0108 38.0249 30.9108C38.0249 31.8108 38.2889 32.5368 38.8169 33.0888C39.3569 33.6408 40.0409 33.9168 40.8689 33.9168ZM55.844 28.0128H52.478V35.7168H50.228V28.0128H46.844V26.1048H55.844V28.0128ZM63.1641 25.9968C64.1001 25.9968 64.9341 26.2008 65.6661 26.6088C66.4101 27.0168 66.9921 27.5928 67.4121 28.3368C67.8321 29.0808 68.0421 29.9388 68.0421 30.9108C68.0421 31.8828 67.8321 32.7468 67.4121 33.5028C66.9921 34.2468 66.4101 34.8228 65.6661 35.2308C64.9341 35.6388 64.1001 35.8428 63.1641 35.8428C61.8681 35.8428 60.8421 35.4108 60.0861 34.5468V39.2088H57.8361V26.1048H59.9781V27.3648C60.3501 26.9088 60.8061 26.5668 61.3461 26.3388C61.8981 26.1108 62.5041 25.9968 63.1641 25.9968ZM62.9121 33.9168C63.7401 33.9168 64.4181 33.6408 64.9461 33.0888C65.4861 32.5368 65.7561 31.8108 65.7561 30.9108C65.7561 30.0108 65.4861 29.2848 64.9461 28.7328C64.4181 28.1808 63.7401 27.9048 62.9121 27.9048C62.3721 27.9048 61.8861 28.0308 61.4541 28.2828C61.0221 28.5228 60.6801 28.8708 60.4281 29.3268C60.1761 29.7828 60.0501 30.3108 60.0501 30.9108C60.0501 31.5108 60.1761 32.0388 60.4281 32.4948C60.6801 32.9508 61.0221 33.3048 61.4541 33.5568C61.8861 33.7968 62.3721 33.9168 62.9121 33.9168ZM74.1004 25.9968C75.5164 25.9968 76.5964 26.3388 77.3404 27.0228C78.0964 27.6948 78.4744 28.7148 78.4744 30.0828V35.7168H76.3504V34.5468C76.0744 34.9668 75.6784 35.2908 75.1624 35.5188C74.6584 35.7348 74.0464 35.8428 73.3264 35.8428C72.6064 35.8428 71.9764 35.7228 71.4364 35.4828C70.8964 35.2308 70.4764 34.8888 70.1764 34.4568C69.8884 34.0128 69.7444 33.5148 69.7444 32.9628C69.7444 32.0988 70.0624 31.4088 70.6984 30.8928C71.3464 30.3648 72.3604 30.1008 73.7404 30.1008H76.2244V29.9568C76.2244 29.2848 76.0204 28.7688 75.6124 28.4088C75.2164 28.0488 74.6224 27.8688 73.8304 27.8688C73.2904 27.8688 72.7564 27.9528 72.2284 28.1208C71.7124 28.2888 71.2744 28.5228 70.9144 28.8228L70.0324 27.1848C70.5364 26.8008 71.1424 26.5068 71.8504 26.3028C72.5584 26.0988 73.3084 25.9968 74.1004 25.9968ZM73.7944 34.2048C74.3584 34.2048 74.8564 34.0788 75.2884 33.8268C75.7324 33.5628 76.0444 33.1908 76.2244 32.7108V31.5948H73.9024C72.6064 31.5948 71.9584 32.0208 71.9584 32.8728C71.9584 33.2808 72.1204 33.6048 72.4444 33.8448C72.7684 34.0848 73.2184 34.2048 73.7944 34.2048ZM89.2326 28.0128H85.8666V35.7168H83.6166V28.0128H80.2326V26.1048H89.2326V28.0128ZM91.2247 26.1048H93.4747V32.4408L98.7847 26.1048H100.837V35.7168H98.5867V29.3808L93.2947 35.7168H91.2247V26.1048ZM111.189 30.7128C112.377 31.0728 112.971 31.8408 112.971 33.0168C112.971 33.8808 112.647 34.5468 111.999 35.0148C111.351 35.4828 110.391 35.7168 109.119 35.7168H104.223V26.1048H108.921C110.097 26.1048 111.015 26.3208 111.675 26.7528C112.335 27.1848 112.665 27.7968 112.665 28.5888C112.665 29.0808 112.533 29.5068 112.269 29.8668C112.017 30.2268 111.657 30.5088 111.189 30.7128ZM106.365 30.1188H108.723C109.887 30.1188 110.469 29.7168 110.469 28.9128C110.469 28.1328 109.887 27.7428 108.723 27.7428H106.365V30.1188ZM108.939 34.0788C110.175 34.0788 110.793 33.6768 110.793 32.8728C110.793 32.4528 110.649 32.1408 110.361 31.9368C110.073 31.7208 109.623 31.6128 109.011 31.6128H106.365V34.0788H108.939Z" fill="white"/>
<path d="M26.349 156.717H27.357L24.693 153.465L27.177 150.405H26.253L24.033 153.177H22.581V150.405H21.729V156.717H22.581V153.909H24.021L26.349 156.717ZM33.1024 150.405L30.7264 155.769L28.3504 150.405H27.4624L30.2824 156.705L30.0064 157.317C29.6464 158.109 29.2624 158.373 28.6984 158.373C28.2424 158.373 27.8584 158.205 27.5464 157.893L27.1504 158.529C27.5344 158.913 28.0984 159.105 28.6864 159.105C29.5864 159.105 30.2584 158.709 30.7864 157.473L33.9424 150.405H33.1024ZM35.5098 150.405V156.717H36.3618V151.161H40.3218V156.717H41.1738V150.405H35.5098ZM46.4398 156.777C48.2878 156.777 49.6438 155.433 49.6438 153.561C49.6438 151.689 48.2878 150.357 46.4398 150.357C44.5918 150.357 43.2238 151.689 43.2238 153.561C43.2238 155.433 44.5918 156.777 46.4398 156.777ZM46.4398 156.021C45.0958 156.021 44.0878 155.037 44.0878 153.561C44.0878 152.085 45.0958 151.101 46.4398 151.101C47.7838 151.101 48.7798 152.085 48.7798 153.561C48.7798 155.037 47.7838 156.021 46.4398 156.021ZM51.7047 156.717H52.5567V153.933H56.5287V156.717H57.3807V150.405H56.5287V153.201H52.5567V150.405H51.7047V156.717ZM62.6463 156.777C64.4943 156.777 65.8503 155.433 65.8503 153.561C65.8503 151.689 64.4943 150.357 62.6463 150.357C60.7983 150.357 59.4303 151.689 59.4303 153.561C59.4303 155.433 60.7983 156.777 62.6463 156.777ZM62.6463 156.021C61.3023 156.021 60.2943 155.037 60.2943 153.561C60.2943 152.085 61.3023 151.101 62.6463 151.101C63.9903 151.101 64.9863 152.085 64.9863 153.561C64.9863 155.037 63.9903 156.021 62.6463 156.021ZM71.9312 153.453C72.5912 153.213 72.9992 152.733 72.9992 152.025C72.9992 150.981 72.1232 150.405 70.6952 150.405H67.9112V156.717H70.7792C72.4232 156.717 73.2152 156.093 73.2152 155.001C73.2152 154.173 72.8072 153.657 71.9312 153.453ZM68.7392 151.077H70.6352C71.6072 151.077 72.1472 151.425 72.1472 152.133C72.1472 152.841 71.6072 153.213 70.6352 153.213H68.7392V151.077ZM70.7432 156.045H68.7392V153.849H70.8272C71.8952 153.849 72.3752 154.197 72.3752 154.953C72.3752 155.709 71.8112 156.045 70.7432 156.045Z" fill="white"/>
</svg>
