<svg width="285" height="270" viewBox="0 0 285 270" fill="none" xmlns="http://www.w3.org/2000/svg">
<rect width="270" height="270" fill="#D935FD"/>
<path d="M285 134L270 151.321L270 116.679L285 134Z" fill="#D935FD"/>
<line x1="20" y1="63.5" x2="250" y2="63.5" stroke="white"/>
<mask id="mask0" mask-type="alpha" maskUnits="userSpaceOnUse" x="0" y="0" width="270" height="270">
<rect width="270" height="270" fill="#FDD935"/>
</mask>
<g mask="url(#mask0)">
<path d="M60.496 223.073L80.204 253.92L98.2287 222.804C98.2287 222.804 111.929 226.161 129.898 207.498C129.898 207.498 136.613 204.262 142.974 203.365C149.265 202.359 161.002 199.507 164.541 198.534C168.08 197.562 172.362 194.616 171.673 189.438C170.984 184.26 164.538 184.301 159.892 184.745C155.245 185.19 132.491 191.056 128.502 188.672C125.939 187.073 121.58 179.768 123.503 173.13C125.425 166.491 129.937 161.737 140.223 165.536C150.397 169.403 162.289 180.539 169.501 182.903C176.602 185.336 183.273 181.067 184.854 176.305C184.854 176.305 164.226 161.625 151.941 154.214C139.477 146.763 124.131 143.967 120.759 145.443C112.731 149.035 86.6438 174.526 78.4204 190.354C72.1116 202.425 62.8473 216.624 60.496 223.073Z" fill="#FFD5B3"/>
<path d="M132.217 164.362C132.633 169.576 137.857 176.537 137.857 176.537C132.75 178.164 125.489 185.07 125.489 185.07C126.425 186.772 127.621 188.162 128.551 188.653C130.298 189.703 135.412 189.287 141.007 188.423C146.819 184.538 152.353 180.216 153.948 178.626C155.282 177.348 155.995 176.301 156.099 175.022C150.866 171.408 145.384 167.645 140.257 165.638C137.029 164.436 134.358 164.106 132.217 164.362Z" fill="#F4C29D"/>
<path d="M137.856 176.568C137.856 176.568 132.743 169.54 132.217 164.395C127.354 164.961 124.804 168.659 123.571 173.216C122.35 177.311 123.619 181.694 125.281 184.772C125.571 184.745 125.27 185.234 125.56 185.208C127.265 183.549 133.551 178.005 137.856 176.568Z" fill="#EAAE86"/>
<path fill-rule="evenodd" clip-rule="evenodd" d="M142.998 240.189V156.695H256.784V222.49H195.324V240.189H142.998Z" fill="#2C3A3D"/>
<path d="M249.085 165.035H150.827V218.517H249.085V165.035Z" fill="#DBF3FF"/>
<path d="M249.085 194.916H150.827V218.387H249.085V194.916Z" fill="#89C3E0"/>
<path d="M264.483 151.693H139.735V156.695H264.483V151.693Z" fill="#0282C1"/>
<path fill-rule="evenodd" clip-rule="evenodd" d="M172.096 151.696L184.362 138.357H217.376L235.383 151.696H172.096Z" fill="#0282C1"/>
<path d="M184.754 240.191H145.085V251.478H184.754V240.191Z" fill="#232E30"/>
<path d="M158.787 240.191H145.085V251.478H158.787V240.191Z" fill="#232E30"/>
<path fill-rule="evenodd" clip-rule="evenodd" d="M180.708 245.836C180.708 244.553 179.664 243.527 178.36 243.527C177.055 243.527 176.011 244.553 176.011 245.836C176.011 247.118 177.055 248.145 178.36 248.145C179.534 248.145 180.708 247.118 180.708 245.836Z" fill="black"/>
<path fill-rule="evenodd" clip-rule="evenodd" d="M166.225 173.242C166.225 171.703 165.05 170.549 163.484 170.549C161.919 170.549 160.744 171.703 160.744 173.242C160.744 174.781 161.919 175.936 163.484 175.936C164.92 176.064 166.225 174.781 166.225 173.242Z" fill="#E43031"/>
<path fill-rule="evenodd" clip-rule="evenodd" d="M178.49 173.242C178.49 171.703 177.316 170.549 175.75 170.549C174.184 170.549 173.01 171.703 173.01 173.242C173.01 174.781 174.184 175.936 175.75 175.936C177.185 176.064 178.49 174.781 178.49 173.242Z" fill="#0282C1"/>
<path fill-rule="evenodd" clip-rule="evenodd" d="M172.096 182.477C172.096 180.937 170.922 179.783 169.356 179.783C167.79 179.783 166.616 180.937 166.616 182.477C166.616 184.016 167.79 185.17 169.356 185.17C170.791 185.17 172.096 184.016 172.096 182.477Z" fill="#E5D911"/>
<path fill-rule="evenodd" clip-rule="evenodd" d="M232.905 185.427H223.379V182.862L229.251 176.193C229.773 175.551 230.034 174.91 230.034 174.397C230.034 173.115 229.381 172.473 228.207 172.473C226.902 172.473 226.25 173.115 226.25 174.397H223.379C223.379 172.986 223.77 171.96 224.684 171.191C225.597 170.421 226.772 169.908 228.077 169.908C229.512 169.908 230.686 170.293 231.469 171.062C232.383 171.832 232.774 172.986 232.774 174.269C232.774 174.91 232.644 175.551 232.383 176.064C232.122 176.449 231.73 177.09 231.208 177.732L226.902 182.734H232.905V185.427ZM244.779 180.81C244.779 182.221 244.388 183.375 243.474 184.273C242.561 185.17 241.386 185.555 239.951 185.555C238.516 185.555 237.341 185.17 236.428 184.273C235.514 183.375 235.123 182.221 235.123 180.81C235.123 179.784 235.514 178.501 236.428 176.706L239.69 170.036H242.822L239.56 176.321C239.82 176.193 240.212 176.064 240.734 176.064C241.908 176.064 242.952 176.577 243.735 177.475C244.388 178.501 244.779 179.527 244.779 180.81ZM241.908 180.81C241.908 180.168 241.778 179.655 241.386 179.271C240.995 178.886 240.473 178.629 239.951 178.629C239.299 178.629 238.777 178.886 238.516 179.271C238.124 179.655 237.994 180.168 237.994 180.938C237.994 181.579 238.124 182.092 238.516 182.477C238.907 182.862 239.429 183.118 240.081 183.118C240.734 183.118 241.256 182.862 241.647 182.477C241.778 181.964 241.908 181.451 241.908 180.81Z" fill="#232E30"/>
<path fill-rule="evenodd" clip-rule="evenodd" d="M185.667 184.016C185.145 184.658 184.362 184.914 183.449 184.914C182.535 184.914 181.753 184.658 181.231 184.016C180.709 183.375 180.578 182.605 180.578 181.708C180.578 180.682 180.839 179.912 181.231 179.399C181.753 178.758 182.535 178.501 183.449 178.501C184.362 178.501 185.015 178.758 185.667 179.399L184.623 180.425C184.362 180.04 183.971 179.912 183.579 179.912C182.666 179.912 182.274 180.553 182.274 181.708C182.274 182.99 182.666 183.503 183.579 183.503C183.971 183.503 184.362 183.375 184.623 182.99L185.667 184.016ZM192.192 181.579C192.192 182.092 192.192 182.605 192.061 182.862C191.931 183.375 191.8 183.76 191.409 184.016C190.887 184.529 190.234 184.786 189.321 184.786C187.494 184.786 186.581 183.631 186.581 181.451C186.581 180.425 186.842 179.656 187.233 179.143C187.755 178.501 188.407 178.117 189.321 178.117C190.234 178.117 191.017 178.501 191.539 179.143C191.931 179.784 192.192 180.553 192.192 181.579ZM190.495 181.579C190.495 181.066 190.495 180.682 190.365 180.297C190.234 179.912 189.843 179.656 189.451 179.656C188.668 179.656 188.277 180.297 188.277 181.451C188.277 181.964 188.277 182.477 188.407 182.734C188.538 183.118 188.929 183.375 189.321 183.375C189.843 183.375 190.104 183.118 190.234 182.734C190.495 182.477 190.495 182.092 190.495 181.579ZM196.498 184.786H195.584C195.062 184.786 194.54 184.658 194.149 184.273C193.757 183.888 193.627 183.503 193.627 182.99V176.064H195.323V182.99C195.323 183.375 195.454 183.631 195.845 183.631H196.498V184.786ZM203.153 181.579C203.153 182.092 203.153 182.605 203.022 182.862C202.892 183.375 202.761 183.76 202.37 184.016C201.848 184.529 201.195 184.786 200.282 184.786C198.455 184.786 197.542 183.631 197.542 181.451C197.542 180.425 197.803 179.656 198.194 179.143C198.716 178.501 199.368 178.117 200.282 178.117C201.195 178.117 201.978 178.501 202.5 179.143C202.892 179.784 203.153 180.553 203.153 181.579ZM201.456 181.579C201.456 181.066 201.456 180.682 201.326 180.297C201.195 179.912 200.804 179.656 200.412 179.656C199.629 179.656 199.238 180.297 199.238 181.451C199.238 181.964 199.238 182.477 199.369 182.734C199.499 183.118 199.89 183.375 200.282 183.375C200.804 183.375 201.065 183.118 201.195 182.734C201.456 182.477 201.456 182.092 201.456 181.579ZM209.416 178.886L208.242 180.169C207.981 179.912 207.72 179.784 207.328 179.784C206.937 179.784 206.806 179.912 206.545 180.169C206.415 180.425 206.284 180.682 206.284 181.066V184.914H204.588V178.501H206.154V179.143C206.545 178.63 207.067 178.501 207.85 178.501C208.503 178.245 209.025 178.501 209.416 178.886Z" fill="#232E30"/>
<path fill-rule="evenodd" clip-rule="evenodd" d="M142.998 240.19V194.916H150.827V218.515H249.085V194.916H256.784V222.491H195.324V240.19H184.754H158.787H145.085H142.998Z" fill="#232E30"/>
<path d="M249.085 194.916H150.827V218.387H249.085V194.916Z" fill="#89C3E0"/>
<path fill-rule="evenodd" clip-rule="evenodd" d="M158.787 251.478H184.754V240.191H158.787V251.478ZM175.881 245.835C175.881 244.552 176.925 243.526 178.23 243.526C179.535 243.526 180.579 244.552 180.579 245.835C180.579 247.117 179.535 248.143 178.23 248.143C176.925 248.143 175.881 247.117 175.881 245.835Z" fill="#232E30"/>
<path d="M158.787 240.191H145.085V251.478H158.787V240.191Z" fill="#232E30"/>
<path fill-rule="evenodd" clip-rule="evenodd" d="M175.88 245.836C175.88 244.553 176.924 243.527 178.229 243.527C179.534 243.527 180.578 244.553 180.578 245.836C180.578 247.118 179.534 248.145 178.229 248.145C176.924 248.145 175.88 247.118 175.88 245.836Z" fill="black"/>
<path fill-rule="evenodd" clip-rule="evenodd" d="M185.667 184.016C185.145 184.658 184.362 184.914 183.449 184.914C182.535 184.914 181.753 184.658 181.231 184.016C180.709 183.375 180.578 182.605 180.578 181.708C180.578 180.682 180.839 179.912 181.231 179.399C181.753 178.758 182.535 178.501 183.449 178.501C184.362 178.501 185.015 178.758 185.667 179.399L184.623 180.425C184.362 180.04 183.971 179.912 183.579 179.912C182.666 179.912 182.274 180.553 182.274 181.708C182.274 182.99 182.666 183.503 183.579 183.503C183.971 183.503 184.362 183.375 184.623 182.99L185.667 184.016ZM192.192 181.579C192.192 182.092 192.192 182.605 192.061 182.862C191.931 183.375 191.8 183.76 191.409 184.016C190.887 184.529 190.234 184.786 189.321 184.786C187.494 184.786 186.581 183.631 186.581 181.451C186.581 180.425 186.842 179.656 187.233 179.143C187.755 178.501 188.407 178.117 189.321 178.117C190.234 178.117 191.017 178.501 191.539 179.143C191.931 179.784 192.192 180.553 192.192 181.579ZM190.495 181.579C190.495 181.066 190.495 180.682 190.365 180.297C190.234 179.912 189.843 179.656 189.451 179.656C188.668 179.656 188.277 180.297 188.277 181.451C188.277 181.964 188.277 182.477 188.407 182.734C188.538 183.118 188.929 183.375 189.321 183.375C189.843 183.375 190.104 183.118 190.234 182.734C190.495 182.477 190.495 182.092 190.495 181.579ZM196.498 184.786H195.584C195.062 184.786 194.54 184.658 194.149 184.273C193.757 183.888 193.627 183.503 193.627 182.99V176.064H195.323V182.99C195.323 183.375 195.454 183.631 195.845 183.631H196.498V184.786ZM203.153 181.579C203.153 182.092 203.153 182.605 203.022 182.862C202.892 183.375 202.761 183.76 202.37 184.016C201.848 184.529 201.195 184.786 200.282 184.786C198.455 184.786 197.542 183.631 197.542 181.451C197.542 180.425 197.803 179.656 198.194 179.143C198.716 178.501 199.368 178.117 200.282 178.117C201.195 178.117 201.978 178.501 202.5 179.143C202.892 179.784 203.153 180.553 203.153 181.579ZM201.456 181.579C201.456 181.066 201.456 180.682 201.326 180.297C201.195 179.912 200.804 179.656 200.412 179.656C199.629 179.656 199.238 180.297 199.238 181.451C199.238 181.964 199.238 182.477 199.369 182.734C199.499 183.118 199.89 183.375 200.282 183.375C200.804 183.375 201.065 183.118 201.195 182.734C201.456 182.477 201.456 182.092 201.456 181.579ZM209.416 178.886L208.242 180.169C207.981 179.912 207.72 179.784 207.328 179.784C206.937 179.784 206.806 179.912 206.545 180.169C206.415 180.425 206.284 180.682 206.284 181.066V184.914H204.588V178.501H206.154V179.143C206.545 178.63 207.067 178.501 207.85 178.501C208.503 178.245 209.025 178.501 209.416 178.886Z" fill="#232E30"/>
<path d="M159.816 184.927C157.202 185.169 149.077 187.134 141.584 188.406C136.064 193.481 131.298 204.783 130.069 207.67C131.242 207.099 137.246 204.463 142.915 203.707C149.206 202.72 160.938 199.901 164.474 198.938C168.011 197.975 172.284 195.037 171.577 189.846C170.841 184.368 164.503 184.319 159.816 184.927Z" fill="#FFD5B3"/>
<path d="M158.613 197.656C158.613 197.656 168.519 196.566 167.882 191.489C167.066 186.371 159.621 187.465 157.189 187.747C157.189 187.747 155.066 188.752 155.615 192.971C156.234 197.299 158.613 197.656 158.613 197.656Z" fill="#F7F5F6"/>
<path d="M107.96 231.508L76.8244 259.711L-3.72261 260.632L70.6925 192.258L107.96 231.508Z" fill="#DFDFDF"/>
<path d="M70.6489 192.248L40.0664 220.316L77.3324 259.523L107.915 231.455L70.6489 192.248Z" fill="#F7F5F6"/>
<path d="M96.2144 230.241C98.0966 233.182 97.2063 237.072 94.2312 238.905C91.2562 240.738 87.2983 239.835 85.416 236.894C83.5337 233.953 84.4241 230.063 87.3992 228.23C90.3742 226.397 94.3321 227.3 96.2144 230.241Z" fill="#DFDFDF"/>
</g>
<path d="M31.525 79.8V105H25.693V84.48H20.653V79.8H31.525ZM58.2587 99.708H54.1547V105H48.4667V99.708H34.8947V95.784L46.7747 79.8H52.8947L41.8787 94.956H48.6467V90.24H54.1547V94.956H58.2587V99.708Z" fill="#FDD935"/>
<path d="M27.56 35.18C26.288 35.18 25.136 34.904 24.104 34.352C23.084 33.788 22.28 33.014 21.692 32.03C21.116 31.046 20.828 29.936 20.828 28.7C20.828 27.464 21.122 26.354 21.71 25.37C22.298 24.386 23.102 23.618 24.122 23.066C25.154 22.502 26.306 22.22 27.578 22.22C28.61 22.22 29.552 22.4 30.404 22.76C31.256 23.12 31.976 23.642 32.564 24.326L31.052 25.748C30.14 24.764 29.018 24.272 27.686 24.272C26.822 24.272 26.048 24.464 25.364 24.848C24.68 25.22 24.146 25.742 23.762 26.414C23.378 27.086 23.186 27.848 23.186 28.7C23.186 29.552 23.378 30.314 23.762 30.986C24.146 31.658 24.68 32.186 25.364 32.57C26.048 32.942 26.822 33.128 27.686 33.128C29.018 33.128 30.14 32.63 31.052 31.634L32.564 33.074C31.976 33.758 31.25 34.28 30.386 34.64C29.534 35 28.592 35.18 27.56 35.18ZM44.7179 33.092V37.142H42.6119V35H35.1959V37.142H33.1079V33.092H33.5579C34.1699 33.068 34.5839 32.678 34.7999 31.922C35.0279 31.154 35.1779 30.074 35.2499 28.682L35.3759 25.388H43.2959V33.092H44.7179ZM37.3019 28.844C37.2539 29.948 37.1639 30.848 37.0319 31.544C36.8999 32.24 36.6599 32.756 36.3119 33.092H41.0459V27.296H37.3559L37.3019 28.844ZM50.6695 25.28C52.0855 25.28 53.1655 25.622 53.9095 26.306C54.6655 26.978 55.0435 27.998 55.0435 29.366V35H52.9195V33.83C52.6435 34.25 52.2475 34.574 51.7315 34.802C51.2275 35.018 50.6155 35.126 49.8955 35.126C49.1755 35.126 48.5455 35.006 48.0055 34.766C47.4655 34.514 47.0455 34.172 46.7455 33.74C46.4575 33.296 46.3135 32.798 46.3135 32.246C46.3135 31.382 46.6315 30.692 47.2675 30.176C47.9155 29.648 48.9295 29.384 50.3095 29.384H52.7935V29.24C52.7935 28.568 52.5895 28.052 52.1815 27.692C51.7855 27.332 51.1915 27.152 50.3995 27.152C49.8595 27.152 49.3255 27.236 48.7975 27.404C48.2815 27.572 47.8435 27.806 47.4835 28.106L46.6015 26.468C47.1055 26.084 47.7115 25.79 48.4195 25.586C49.1275 25.382 49.8775 25.28 50.6695 25.28ZM50.3635 33.488C50.9275 33.488 51.4255 33.362 51.8575 33.11C52.3015 32.846 52.6135 32.474 52.7935 31.994V30.878H50.4715C49.1755 30.878 48.5275 31.304 48.5275 32.156C48.5275 32.564 48.6895 32.888 49.0135 33.128C49.3375 33.368 49.7875 33.488 50.3635 33.488ZM65.1537 29.996C66.3417 30.356 66.9357 31.124 66.9357 32.3C66.9357 33.164 66.6117 33.83 65.9637 34.298C65.3157 34.766 64.3557 35 63.0837 35H58.1877V25.388H62.8857C64.0617 25.388 64.9797 25.604 65.6397 26.036C66.2997 26.468 66.6297 27.08 66.6297 27.872C66.6297 28.364 66.4977 28.79 66.2337 29.15C65.9817 29.51 65.6217 29.792 65.1537 29.996ZM60.3297 29.402H62.6877C63.8517 29.402 64.4337 29 64.4337 28.196C64.4337 27.416 63.8517 27.026 62.6877 27.026H60.3297V29.402ZM62.9037 33.362C64.1397 33.362 64.7577 32.96 64.7577 32.156C64.7577 31.736 64.6137 31.424 64.3257 31.22C64.0377 31.004 63.5877 30.896 62.9757 30.896H60.3297V33.362H62.9037Z" fill="white"/>
<path d="M26.4806 126H27.4886L24.8246 122.748L27.3086 119.688H26.3846L24.1646 122.46H22.7126V119.688H21.8606V126H22.7126V123.192H24.1526L26.4806 126ZM31.1281 119.64C30.1321 119.64 29.1961 119.952 28.5601 120.492L28.9441 121.128C29.4601 120.672 30.2281 120.384 31.0441 120.384C32.2201 120.384 32.8321 120.972 32.8321 122.052V122.436H30.8281C29.0161 122.436 28.3921 123.252 28.3921 124.224C28.3921 125.316 29.2681 126.06 30.6961 126.06C31.7401 126.06 32.4841 125.664 32.8681 125.016V126H33.6841V122.088C33.6841 120.456 32.7601 119.64 31.1281 119.64ZM30.8281 125.388C29.8201 125.388 29.2321 124.932 29.2321 124.2C29.2321 123.552 29.6281 123.072 30.8521 123.072H32.8321V124.104C32.4961 124.932 31.7881 125.388 30.8281 125.388ZM39.4442 119.64C38.4002 119.64 37.5242 120.096 37.0082 120.936V119.688H36.1922V128.328H37.0442V124.812C37.5722 125.628 38.4362 126.06 39.4442 126.06C41.2442 126.06 42.5882 124.764 42.5882 122.844C42.5882 120.936 41.2442 119.64 39.4442 119.64ZM39.3842 125.304C38.0402 125.304 37.0322 124.32 37.0322 122.844C37.0322 121.38 38.0402 120.384 39.3842 120.384C40.7162 120.384 41.7362 121.38 41.7362 122.844C41.7362 124.32 40.7162 125.304 39.3842 125.304ZM48.8643 119.688H43.2363V120.444H45.6243V126H46.4763V120.444H48.8643V119.688ZM53.5882 119.64C52.5442 119.64 51.6682 120.096 51.1522 120.936V119.688H50.3362V128.328H51.1882V124.812C51.7162 125.628 52.5802 126.06 53.5882 126.06C55.3882 126.06 56.7322 124.764 56.7322 122.844C56.7322 120.936 55.3882 119.64 53.5882 119.64ZM53.5282 125.304C52.1842 125.304 51.1762 124.32 51.1762 122.844C51.1762 121.38 52.1842 120.384 53.5282 120.384C54.8602 120.384 55.8802 121.38 55.8802 122.844C55.8802 124.32 54.8602 125.304 53.5282 125.304ZM58.8028 126H59.5708L63.7708 120.984V126H64.6228V119.688H63.8668L59.6548 124.704V119.688H58.8028V126ZM72.4765 125.256V119.688H67.8205L67.7365 121.8C67.6525 123.504 67.4965 125.196 66.5605 125.256H66.2005V127.524H67.0045V126H72.6565V127.524H73.4605V125.256H72.4765ZM68.5165 121.848L68.5885 120.444H71.6245V125.256H67.6885C68.3245 124.776 68.4565 123.288 68.5165 121.848ZM82.8369 126H83.8569L81.5889 122.76L83.6769 119.688H82.7529L80.8929 122.46H79.5249V119.688H78.6729V122.46H77.3049L75.4569 119.688H74.5329L76.6209 122.748L74.3529 126H75.3729L77.3049 123.192H78.6729V126H79.5249V123.192H80.8929L82.8369 126ZM90.8243 122.844C90.8243 120.948 89.5403 119.64 87.7643 119.64C85.9883 119.64 84.6803 120.972 84.6803 122.844C84.6803 124.716 86.0243 126.06 87.9923 126.06C88.9883 126.06 89.8643 125.7 90.4283 125.028L89.9483 124.476C89.4683 125.028 88.7843 125.304 88.0163 125.304C86.6363 125.304 85.6283 124.428 85.5323 123.108H90.8123C90.8123 123.012 90.8243 122.916 90.8243 122.844ZM87.7643 120.372C89.0003 120.372 89.9003 121.236 90.0083 122.472H85.5323C85.6403 121.236 86.5403 120.372 87.7643 120.372ZM95.8183 118.788C96.8863 118.788 97.5943 118.236 97.6183 117.228H97.0063C96.9823 117.864 96.5023 118.26 95.8183 118.26C95.1343 118.26 94.6543 117.864 94.6423 117.228H94.0303C94.0543 118.236 94.7503 118.788 95.8183 118.788ZM92.9503 126H93.7183L97.9183 120.984V126H98.7703V119.688H98.0143L93.8023 124.704V119.688H92.9503V126Z" fill="white"/>
</svg>
