<svg width="300" height="350" viewBox="0 0 300 350" fill="none" xmlns="http://www.w3.org/2000/svg">
<rect width="300" height="350" fill="#F0EFEB"/>
<g clip-path="url(#clip0)">
<path d="M131.111 164.153C130.577 164.26 130.043 164.475 129.617 164.904C129.296 165.332 128.976 165.869 128.976 166.512V187.956C128.976 188.599 129.296 189.136 129.617 189.564C130.043 189.993 130.577 190.208 131.217 190.208H168.569C169.209 190.208 169.743 189.886 170.17 189.564C170.597 189.136 170.81 188.599 170.81 187.956V166.512C170.81 165.869 170.597 165.332 170.17 164.904C169.85 164.475 169.316 164.26 168.676 164.153H158.751H158.431L158.324 163.831L157.684 160.293C157.577 159.864 157.364 159.543 157.043 159.328C156.723 159.114 156.403 158.899 155.976 158.899H149.573H143.277C142.85 158.899 142.53 159.006 142.209 159.328C141.889 159.543 141.676 159.971 141.569 160.293L140.929 163.831L140.822 164.153H140.502H131.111ZM129.083 164.367C129.617 163.831 130.257 163.51 131.004 163.402H140.609L141.249 160.186C141.356 159.65 141.676 159.114 142.103 158.792C142.53 158.47 143.063 158.256 143.704 158.256H150H156.403C156.937 158.256 157.47 158.47 157.897 158.792C158.324 159.114 158.644 159.65 158.751 160.186L159.391 163.402H168.996C169.743 163.51 170.49 163.831 171.024 164.367C171.557 164.904 171.771 165.654 171.771 166.405V187.849C171.771 188.707 171.451 189.457 170.917 189.993C170.383 190.529 169.636 190.851 168.783 190.851H131.431C130.577 190.851 129.83 190.529 129.296 189.993C128.763 189.457 128.443 188.707 128.443 187.849V166.405C128.336 165.547 128.549 164.904 129.083 164.367ZM150 167.048C150.64 167.048 151.281 167.155 151.921 167.262C152.561 167.37 153.202 167.584 153.842 167.799L154.162 167.906C154.696 168.12 155.123 168.442 155.549 168.656C156.083 168.978 156.617 169.407 157.043 169.943C157.47 170.372 157.897 170.908 158.324 171.444C158.644 171.873 158.858 172.409 159.071 172.838L159.178 173.16C159.391 173.803 159.605 174.446 159.711 175.09C159.818 175.733 159.925 176.376 159.925 177.02C159.925 177.663 159.818 178.306 159.711 178.95C159.605 179.593 159.391 180.236 159.178 180.879L159.071 181.201C158.858 181.737 158.538 182.166 158.324 182.595C158.004 183.131 157.577 183.667 157.043 184.096C156.617 184.525 156.083 184.954 155.549 185.383C155.123 185.704 154.589 185.919 154.162 186.133L153.842 186.455C153.202 186.669 152.561 186.884 151.921 186.991C151.281 187.098 150.64 187.206 150 187.206C149.36 187.206 148.719 187.098 148.079 186.991C147.439 186.884 146.798 186.669 146.158 186.455L145.838 186.348C145.304 186.133 144.877 185.812 144.451 185.597C143.917 185.276 143.383 184.847 142.957 184.311C142.53 183.882 142.103 183.346 141.676 182.809C141.356 182.381 141.142 181.952 140.929 181.416L140.822 181.094C140.609 180.451 140.395 179.807 140.289 179.164C140.182 178.521 140.075 177.877 140.075 177.234C140.075 176.591 140.182 175.947 140.289 175.304C140.395 174.661 140.609 174.017 140.822 173.374L140.929 173.052C141.142 172.516 141.462 172.087 141.676 171.658C141.996 171.122 142.423 170.586 142.957 170.157C143.383 169.729 143.917 169.3 144.451 168.871C144.877 168.549 145.411 168.335 145.838 168.12L146.158 168.013C146.798 167.799 147.439 167.584 148.079 167.477C148.719 167.048 149.36 167.048 150 167.048ZM151.814 167.906C151.281 167.799 150.64 167.691 150 167.691C149.36 167.691 148.719 167.799 148.186 167.906C147.652 168.013 147.119 168.12 146.692 168.335L146.478 168.442C145.945 168.656 145.411 168.978 144.877 169.3C144.344 169.621 143.917 170.05 143.49 170.479C143.063 170.908 142.636 171.337 142.316 171.873C141.996 172.409 141.676 172.945 141.462 173.481L141.356 173.696C141.142 174.232 141.036 174.661 140.929 175.197C140.822 175.84 140.715 176.376 140.715 177.02C140.715 177.663 140.822 178.306 140.929 178.842C141.036 179.378 141.142 179.915 141.356 180.343L141.462 180.558C141.676 181.094 141.996 181.63 142.316 182.166C142.636 182.702 143.063 183.131 143.49 183.56C143.917 183.989 144.344 184.418 144.877 184.739C145.411 185.061 145.945 185.383 146.478 185.597L146.692 185.704C147.225 185.919 147.652 186.026 148.186 186.133C148.719 186.241 149.36 186.348 150 186.348C150.64 186.348 151.281 186.241 151.814 186.133C152.348 186.026 152.881 185.919 153.415 185.704L153.628 185.597C154.162 185.383 154.696 185.061 155.229 184.739C155.763 184.418 156.19 183.989 156.617 183.56C157.043 183.131 157.47 182.702 157.791 182.166C158.111 181.63 158.431 181.094 158.644 180.558L158.751 180.343C158.964 179.807 159.071 179.378 159.178 178.842C159.285 178.199 159.391 177.663 159.391 177.02C159.391 176.376 159.285 175.84 159.178 175.197C159.071 174.661 158.964 174.125 158.751 173.696L158.644 173.588C158.431 173.052 158.111 172.516 157.791 171.98C157.47 171.444 157.043 171.015 156.617 170.586C156.19 170.157 155.763 169.729 155.229 169.407C154.696 169.085 154.162 168.764 153.628 168.549L153.415 168.442C152.881 168.227 152.348 168.013 151.814 167.906ZM134.632 165.547C135.273 165.547 135.806 165.761 136.126 166.19C136.553 166.619 136.767 167.155 136.767 167.691C136.767 168.335 136.553 168.871 136.126 169.192C135.7 169.621 135.166 169.836 134.632 169.836C133.992 169.836 133.459 169.621 133.032 169.192C132.605 168.764 132.391 168.227 132.391 167.691C132.391 167.048 132.605 166.512 133.032 166.19C133.459 165.761 133.992 165.547 134.632 165.547ZM135.593 166.726C135.379 166.512 134.953 166.297 134.526 166.297C134.099 166.297 133.779 166.512 133.459 166.726C133.138 167.048 133.032 167.37 133.032 167.799C133.032 168.227 133.245 168.549 133.459 168.871C133.672 169.085 134.099 169.3 134.526 169.3C134.953 169.3 135.273 169.192 135.593 168.871C135.806 168.549 136.02 168.227 136.02 167.799C136.02 167.37 135.913 166.941 135.593 166.726ZM154.376 172.731C154.055 172.409 153.735 172.195 153.415 171.98C153.095 171.766 152.775 171.551 152.348 171.444C152.028 171.337 151.601 171.122 151.174 171.122C150.747 171.015 150.32 171.015 150 171.015C149.573 171.015 149.146 171.015 148.826 171.122C148.399 171.23 148.079 171.337 147.652 171.444C147.225 171.551 146.905 171.766 146.585 171.98C146.265 172.195 145.945 172.516 145.625 172.731C145.304 173.052 145.091 173.374 144.877 173.696C144.664 174.017 144.451 174.446 144.344 174.768C144.237 175.09 144.024 175.518 144.024 175.947C143.917 176.376 143.917 176.698 143.917 177.127C143.917 177.556 143.917 177.985 144.024 178.306C144.13 178.735 144.237 179.057 144.344 179.486C144.451 179.807 144.664 180.236 144.877 180.558C145.091 180.879 145.304 181.201 145.625 181.523C145.945 181.844 146.265 182.059 146.585 182.273C146.905 182.488 147.225 182.702 147.652 182.809C147.972 182.917 148.399 183.131 148.826 183.131C149.253 183.238 149.573 183.238 150 183.238C150.427 183.238 150.854 183.238 151.174 183.131C151.601 183.024 151.921 182.917 152.348 182.809C152.775 182.702 153.095 182.488 153.415 182.273C153.735 182.059 154.055 181.737 154.376 181.523C154.696 181.201 154.909 180.879 155.123 180.558C155.336 180.236 155.549 179.915 155.656 179.486C155.763 179.164 155.976 178.735 155.976 178.306C156.083 177.877 156.083 177.448 156.083 177.127C156.083 176.698 156.083 176.269 155.976 175.947C155.87 175.518 155.763 175.197 155.656 174.768C155.443 174.446 155.336 174.017 155.123 173.696C154.909 173.374 154.696 173.052 154.376 172.731ZM153.842 171.337C154.269 171.551 154.589 171.873 154.909 172.195C155.229 172.516 155.549 172.838 155.763 173.267C155.976 173.588 156.19 174.017 156.403 174.446C156.617 174.875 156.723 175.304 156.83 175.733C156.937 176.162 156.937 176.591 156.937 177.127C156.937 177.556 156.937 178.092 156.83 178.521C156.723 178.95 156.617 179.378 156.403 179.807C156.19 180.236 155.976 180.665 155.763 180.987C155.549 181.416 155.229 181.737 154.909 182.059C154.589 182.381 154.269 182.702 153.842 182.917C153.522 183.131 153.095 183.346 152.668 183.56C152.241 183.774 151.814 183.882 151.387 183.989C150.96 184.096 150.534 184.096 150 184.096C149.466 184.096 149.04 184.096 148.613 183.989C148.186 183.882 147.759 183.774 147.332 183.56C146.905 183.346 146.478 183.131 146.158 182.917C145.838 182.702 145.411 182.381 145.091 182.059C144.771 181.737 144.451 181.416 144.237 180.987C144.024 180.665 143.81 180.236 143.597 179.807C143.383 179.378 143.277 178.95 143.17 178.521C143.063 178.092 143.063 177.663 143.063 177.127C143.063 176.698 143.063 176.269 143.17 175.733C143.277 175.304 143.383 174.875 143.597 174.446C143.81 174.017 144.024 173.588 144.237 173.267C144.451 172.838 144.771 172.516 145.091 172.195C145.411 171.873 145.731 171.551 146.158 171.337C146.585 171.122 146.905 170.908 147.332 170.693C147.759 170.479 148.186 170.372 148.613 170.265C149.04 170.157 149.466 170.157 150 170.157C150.534 170.157 150.96 170.157 151.387 170.265C151.814 170.372 152.241 170.479 152.668 170.693C153.095 170.908 153.415 171.122 153.842 171.337Z" fill="#40404C"/>
<path d="M126.842 150H136.66V150.751H126.842C125.988 150.751 125.241 151.072 124.601 151.608C124.067 152.252 123.747 153.002 123.747 153.86V161.044H123V153.86C123 152.788 123.427 151.823 124.174 151.072C124.814 150.429 125.775 150 126.842 150ZM123.747 187.956V195.14C123.747 195.998 124.067 196.856 124.708 197.392C125.241 197.928 125.988 198.249 126.842 198.249H136.66V199H126.842C125.775 199 124.814 198.571 124.067 197.821C123.427 197.177 123 196.212 123 195.14V187.956H123.747ZM163.34 150H173.158C174.225 150 175.186 150.429 175.933 151.179C176.68 151.93 177.107 152.895 177.107 153.967V161.151H176.36V153.86C176.36 153.002 176.04 152.144 175.399 151.608C174.759 151.072 174.012 150.751 173.158 150.751H163.34V150ZM177 187.956V195.14C177 196.212 176.573 197.177 175.826 197.928C175.079 198.678 174.119 199.107 173.051 199.107H163.233V198.249H173.158C174.012 198.249 174.866 197.928 175.399 197.284C175.933 196.748 176.36 195.891 176.36 195.033V187.849H177V187.956Z" fill="#40404C"/>
</g>
<path d="M105.52 217.608C106.408 217.332 106.936 216.66 106.936 215.76C106.936 214.32 105.52 213.48 103.84 213.48C102.952 213.48 102.004 213.708 101.14 214.224L101.44 214.956C102.196 214.476 103.048 214.26 103.816 214.26C105.04 214.26 106.048 214.836 106.048 215.856C106.048 216.756 105.352 217.284 104.164 217.284H102.412V218.004H104.212C105.592 218.004 106.408 218.544 106.408 219.528C106.408 220.668 105.232 221.316 103.888 221.316C102.964 221.316 101.956 221.004 101.2 220.356L100.876 220.992C101.764 221.736 102.916 222.072 103.984 222.072C105.736 222.072 107.296 221.172 107.296 219.648C107.296 218.628 106.624 217.884 105.52 217.608ZM111.709 215.64C110.713 215.64 109.777 215.952 109.141 216.492L109.525 217.128C110.041 216.672 110.809 216.384 111.625 216.384C112.801 216.384 113.413 216.972 113.413 218.052V218.436H111.409C109.597 218.436 108.973 219.252 108.973 220.224C108.973 221.316 109.849 222.06 111.277 222.06C112.321 222.06 113.065 221.664 113.449 221.016V222H114.265V218.088C114.265 216.456 113.341 215.64 111.709 215.64ZM111.409 221.388C110.401 221.388 109.813 220.932 109.813 220.2C109.813 219.552 110.209 219.072 111.433 219.072H113.413V220.104C113.077 220.932 112.369 221.388 111.409 221.388ZM121.237 215.688H116.773V222H117.625V216.444H121.237V215.688ZM125.96 215.64C124.916 215.64 124.04 216.096 123.524 216.936V215.688H122.708V224.328H123.56V220.812C124.088 221.628 124.952 222.06 125.96 222.06C127.76 222.06 129.104 220.764 129.104 218.844C129.104 216.936 127.76 215.64 125.96 215.64ZM125.9 221.304C124.556 221.304 123.548 220.32 123.548 218.844C123.548 217.38 124.556 216.384 125.9 216.384C127.232 216.384 128.252 217.38 128.252 218.844C128.252 220.32 127.232 221.304 125.9 221.304ZM135.523 215.688L133.147 221.052L130.771 215.688H129.883L132.703 221.988L132.427 222.6C132.067 223.392 131.683 223.656 131.119 223.656C130.663 223.656 130.279 223.488 129.967 223.176L129.571 223.812C129.955 224.196 130.519 224.388 131.107 224.388C132.007 224.388 132.679 223.992 133.207 222.756L136.363 215.688H135.523ZM140.838 218.712C141.57 218.472 142.062 217.968 142.062 217.308C142.062 216.276 140.958 215.616 139.518 215.616C138.75 215.616 137.958 215.796 137.178 216.204L137.418 216.864C138.09 216.516 138.786 216.348 139.434 216.348C140.442 216.348 141.186 216.732 141.186 217.428C141.186 218.052 140.538 218.424 139.614 218.424H138.582V219.048H139.662C140.718 219.048 141.366 219.444 141.366 220.116C141.366 220.884 140.514 221.34 139.374 221.34C138.606 221.34 137.79 221.1 137.202 220.656L136.914 221.292C137.586 221.808 138.51 222.072 139.41 222.072C140.982 222.072 142.242 221.328 142.242 220.188C142.242 219.444 141.726 218.916 140.838 218.712ZM144.416 222H145.184L149.384 216.984V222H150.236V215.688H149.48L145.268 220.704V215.688H144.416V222ZM157.358 215.688H151.73V216.444H154.118V222H154.97V216.444H157.358V215.688ZM161.542 217.92L159.682 217.896V215.688H158.83V222L161.374 222.012C163.054 222.036 163.966 221.28 163.966 219.936C163.966 218.64 163.126 217.932 161.542 217.92ZM161.326 221.364L159.682 221.34V218.532L161.326 218.556C162.502 218.568 163.102 219 163.102 219.936C163.102 220.884 162.49 221.376 161.326 221.364ZM176.832 218.832C176.832 216.888 175.464 215.748 173.112 215.64V213.096H172.284V215.64C169.932 215.736 168.588 216.876 168.588 218.832C168.588 220.812 169.944 221.976 172.284 222.072V224.328H173.112V222.06C175.464 221.964 176.832 220.812 176.832 218.832ZM169.428 218.832C169.428 217.368 170.412 216.492 172.284 216.396V221.316C170.412 221.208 169.428 220.332 169.428 218.832ZM173.112 221.316V216.396C174.996 216.492 175.992 217.356 175.992 218.832C175.992 220.344 174.996 221.22 173.112 221.316ZM181.478 222.06C183.326 222.06 184.682 220.716 184.682 218.844C184.682 216.972 183.326 215.64 181.478 215.64C179.63 215.64 178.262 216.972 178.262 218.844C178.262 220.716 179.63 222.06 181.478 222.06ZM181.478 221.304C180.134 221.304 179.126 220.32 179.126 218.844C179.126 217.368 180.134 216.384 181.478 216.384C182.822 216.384 183.818 217.368 183.818 218.844C183.818 220.32 182.822 221.304 181.478 221.304ZM190.949 215.688H185.321V216.444H187.709V222H188.561V216.444H190.949V215.688ZM194.731 222.06C196.579 222.06 197.935 220.716 197.935 218.844C197.935 216.972 196.579 215.64 194.731 215.64C192.883 215.64 191.515 216.972 191.515 218.844C191.515 220.716 192.883 222.06 194.731 222.06ZM194.731 221.304C193.387 221.304 192.379 220.32 192.379 218.844C192.379 217.368 193.387 216.384 194.731 216.384C196.075 216.384 197.071 217.368 197.071 218.844C197.071 220.32 196.075 221.304 194.731 221.304Z" fill="#40404C"/>
<defs>
<clipPath id="clip0">
<rect x="123" y="150" width="54" height="49" fill="white"/>
</clipPath>
</defs>
</svg>
