<svg width="30" height="30" viewBox="0 0 30 30" fill="none" xmlns="http://www.w3.org/2000/svg">
<g clip-path="url(#clip0)">
<path d="M17.1104 22.5781H22.6667V30.0362H17.1104V22.5781Z" fill="#40404C"/>
<path d="M24.4238 22.5781H29.9422V30.0362H24.4238V22.5781Z" fill="#40404C"/>
<path d="M6.36719 5.63576L8.01239 0.0585938L14.8926 2.08809L13.2476 7.66525L6.36719 5.63576Z" fill="#40404C"/>
<path d="M2.33197 20.8227L9.12885 15.9056L3.80368 14.3359L1.8916 20.8227H2.33197Z" fill="#40404C"/>
<path d="M18.4482 11.3298L22.9192 8.0957L27.1238 13.9079L22.6528 17.142L18.4482 11.3298Z" fill="#40404C"/>
<path d="M9.79688 22.5781H15.3532V30.0362H9.79688V22.5781Z" fill="#40404C"/>
<path d="M11.1003 16.6465L5.32812 20.8222H14.1211L11.1003 16.6465Z" fill="#40404C"/>
<path d="M10.9266 14.6036L11.278 14.3495L12.752 9.34889L5.87108 7.32031L4.2998 12.6501L10.9266 14.6036Z" fill="#40404C"/>
<path d="M17.0251 12.3594L12.5234 15.6159L16.289 20.8213H17.5673L21.2299 18.1716L17.0251 12.3594Z" fill="#40404C"/>
<path d="M8.04085 22.5781H-0.0585938V30.0362H8.04085V22.5781ZM3.31741 27.3038V25.5474H5.07385V27.3038H3.31741Z" fill="#40404C"/>
</g>
<defs>
<clipPath id="clip0">
<rect width="30" height="30" fill="white"/>
</clipPath>
</defs>
</svg>
