<svg width="50" height="50" viewBox="0 0 50 50" fill="none" xmlns="http://www.w3.org/2000/svg">
<path d="M25 50C21.625 50 18.351 49.3387 15.2686 48.0353C12.2917 46.776 9.61814 44.9735 7.32206 42.6779C5.02647 40.3824 3.22353 37.7088 1.96471 34.7314C0.661275 31.649 0 28.375 0 25C0 21.625 0.661275 18.351 1.96471 15.2686C3.22402 12.2917 5.02647 9.61814 7.32206 7.32206C9.61765 5.02647 12.2912 3.22353 15.2686 1.96471C18.351 0.661275 21.625 0 25 0C28.375 0 31.649 0.661275 34.7314 1.96471C37.7083 3.22402 40.3819 5.02647 42.6779 7.32206C44.9735 9.61765 46.7765 12.2912 48.0353 15.2686C49.3387 18.351 50 21.625 50 25C50 28.375 49.3387 31.649 48.0353 34.7314C46.776 37.7083 44.9735 40.3819 42.6779 42.6779C40.3824 44.9735 37.7088 46.7765 34.7314 48.0353C31.649 49.3387 28.375 50 25 50ZM25 0.980392C21.7574 0.980392 18.6118 1.6152 15.6505 2.86765C12.7902 4.07745 10.2216 5.80931 8.0152 8.01569C5.80882 10.2221 4.07745 12.7907 2.86765 15.6505C1.6152 18.6118 0.980392 21.7574 0.980392 25C0.980392 28.2426 1.6152 31.3882 2.86765 34.3495C4.07745 37.2098 5.80931 39.7784 8.01569 41.9843C10.2221 44.1902 12.7907 45.9226 15.651 47.1319C18.6118 48.3843 21.7574 49.0191 25.0005 49.0191C28.2431 49.0191 31.3887 48.3843 34.35 47.1319C37.2103 45.9221 39.7789 44.1902 41.9848 41.9843C44.1907 39.7784 45.923 37.2093 47.1324 34.3495C48.3848 31.3887 49.0196 28.2431 49.0196 25C49.0196 21.7574 48.3848 18.6118 47.1324 15.6505C45.9226 12.7902 44.1907 10.2216 41.9848 8.0152C39.7789 5.80882 37.2098 4.07745 34.3495 2.86765C31.3882 1.6152 28.2426 0.980392 25 0.980392Z" fill="#40404C"/>
<path d="M25.8044 35.7245C25.6019 35.5774 25.2813 35.5039 24.8436 35.5039H23.1377V37.298H24.7749C25.2196 37.298 25.5529 37.226 25.7749 37.0823C25.997 36.9387 26.1083 36.7132 26.1083 36.4059C26.1083 36.0985 26.0068 35.8716 25.8044 35.7245Z" fill="#40404C"/>
<path d="M31.0201 35.3176C30.7779 35.1347 30.4152 35.0397 29.9319 35.0333L28.6279 35.0137V37.3078L29.9319 37.3274C30.4088 37.3338 30.7701 37.2377 31.0152 37.0382C31.2603 36.8387 31.3828 36.5465 31.3828 36.1607C31.3828 35.7818 31.2618 35.5004 31.0201 35.3176Z" fill="#40404C"/>
<path d="M25.6034 34.7579C25.8156 34.6074 25.922 34.3888 25.922 34.101C25.922 33.8133 25.8156 33.5976 25.6034 33.454C25.3911 33.3103 25.0852 33.2383 24.6867 33.2383H23.1377V34.9834H24.6867C25.0852 34.9834 25.3911 34.9079 25.6034 34.7579Z" fill="#40404C"/>
<path d="M19.8287 33.5098C19.5381 33.3431 19.2096 33.2598 18.8434 33.2598C18.4773 33.2598 18.1488 33.3431 17.8581 33.5098C17.5675 33.6764 17.3385 33.9132 17.1719 34.2206C17.0052 34.5279 16.9219 34.8774 16.9219 35.2696C16.9219 35.6617 17.0052 36.0112 17.1719 36.3186C17.3385 36.6259 17.5675 36.8627 17.8581 37.0294C18.1488 37.196 18.4773 37.2794 18.8434 37.2794C19.2091 37.2794 19.5381 37.196 19.8287 37.0294C20.1194 36.8627 20.3469 36.6259 20.5101 36.3186C20.6733 36.0112 20.7552 35.6617 20.7552 35.2696C20.7552 34.8774 20.6733 34.5279 20.5101 34.2206C20.3469 33.9132 20.1199 33.6764 19.8287 33.5098Z" fill="#40404C"/>
<path d="M0.490234 25C0.490234 38.5363 11.4638 49.5098 25 49.5098C38.5363 49.5098 49.5098 38.5363 49.5098 25H0.490234ZM36.5196 30.6706C36.526 30.9255 36.6177 31.1299 36.7942 31.2833C36.9706 31.4368 37.1995 31.5137 37.4804 31.5137C37.7613 31.5137 37.9917 31.4368 38.1716 31.2833C38.3515 31.1299 38.4446 30.9255 38.451 30.6706H38.951C38.9446 31.076 38.8089 31.3897 38.5442 31.6118C38.2794 31.8338 37.925 31.9451 37.4804 31.9451C37.0358 31.9451 36.6829 31.8338 36.4216 31.6118C36.1603 31.3897 36.026 31.076 36.0196 30.6706H36.5196ZM15.226 37.8471H14.5299V35.5725H11.2848V37.8471H10.5888V32.6902H11.2848V34.9745H14.5299V32.6902H15.226V37.8471ZM21.1226 36.6216C20.8971 37.0201 20.5848 37.3324 20.1863 37.5578C19.7878 37.7833 19.3397 37.8961 18.8432 37.8961C18.3466 37.8961 17.8986 37.7833 17.5 37.5578C17.1015 37.3324 16.7878 37.0206 16.5589 36.6216C16.3299 36.223 16.2157 35.7721 16.2157 35.2686C16.2157 34.7652 16.3299 34.3142 16.5589 33.9157C16.7878 33.5172 17.1015 33.2064 17.5 32.9843C17.8986 32.7623 18.3466 32.651 18.8432 32.651C19.3397 32.651 19.7878 32.7623 20.1863 32.9843C20.5848 33.2064 20.8971 33.5172 21.1226 33.9157C21.3481 34.3142 21.4608 34.7652 21.4608 35.2686C21.4608 35.7721 21.3481 36.223 21.1226 36.6216ZM26.2942 37.4843C25.9608 37.726 25.4643 37.8471 24.804 37.8471H22.4608V32.6902H24.7353C25.3236 32.6902 25.7844 32.8044 26.1177 33.0333C26.451 33.2623 26.6177 33.5887 26.6177 34.0137C26.6177 34.2946 26.5407 34.5348 26.3873 34.7343C26.2339 34.9338 26.0196 35.0824 25.7451 35.1804C26.4446 35.3436 26.7942 35.7652 26.7942 36.4451C26.7942 36.8961 26.6275 37.2426 26.2942 37.4843ZM31.5393 37.4255C31.1731 37.7196 30.6505 37.8632 29.9706 37.8569L27.9314 37.8471V32.6902H28.6275V34.4941L30.0981 34.5137C30.7451 34.5201 31.2388 34.6642 31.5785 34.9451C31.9182 35.226 32.0883 35.6314 32.0883 36.1608C32.0883 36.7098 31.9049 37.1314 31.5393 37.4255ZM33.6471 37.8471H32.951V32.6902H33.6471V37.8471ZM39.8922 37.8471H39.1961V33.749L35.7647 37.8471H35.1373V32.6902H35.8334V36.7882L39.2745 32.6902H39.8922V37.8471Z" fill="#40404C"/>
<path d="M13.7872 13.3848V21.9632H12.9049V14.1691H10.8828V13.3848H13.7872Z" fill="#40404C"/>
<path d="M16.8692 21.5101C16.3501 21.1591 15.9457 20.6542 15.656 19.9963C15.3658 19.339 15.2207 18.5645 15.2207 17.6738C15.2207 16.7836 15.3658 16.0091 15.656 15.3512C15.9457 14.6939 16.3501 14.189 16.8692 13.8375C17.3879 13.4865 17.9781 13.3105 18.6398 13.3105C19.3016 13.3105 19.8918 13.4865 20.4104 13.8375C20.929 14.189 21.3359 14.6934 21.63 15.3512C21.9241 16.0091 22.0712 16.7831 22.0712 17.6738C22.0712 18.5645 21.9241 19.3385 21.63 19.9963C21.3359 20.6542 20.9295 21.1586 20.4104 21.5101C19.8913 21.8615 19.3016 22.037 18.6398 22.037C17.9781 22.037 17.3879 21.861 16.8692 21.5101ZM19.9575 20.8115C20.3374 20.5341 20.6334 20.1297 20.8457 19.5983C21.058 19.0674 21.1643 18.4262 21.1643 17.6743C21.1643 16.9228 21.058 16.2816 20.8457 15.7503C20.633 15.2194 20.3369 14.815 19.9575 14.537C19.5776 14.2596 19.1384 14.1204 18.6398 14.1204C18.1413 14.1204 17.7026 14.2596 17.3222 14.537C16.9423 14.815 16.6462 15.2194 16.4339 15.7503C16.2212 16.2816 16.1153 16.9228 16.1153 17.6743C16.1153 18.4262 16.2212 19.0674 16.4339 19.5983C16.6462 20.1297 16.9428 20.5341 17.3222 20.8115C17.7021 21.0895 18.1413 21.2282 18.6398 21.2282C19.1384 21.2282 19.5776 21.089 19.9575 20.8115Z" fill="#40404C"/>
<path d="M24.3692 21.5101C23.8501 21.1591 23.4457 20.6542 23.156 19.9963C22.8658 19.339 22.7207 18.5645 22.7207 17.6738C22.7207 16.7836 22.8658 16.0091 23.156 15.3512C23.4457 14.6939 23.8501 14.189 24.3692 13.8375C24.8879 13.4865 25.4781 13.3105 26.1398 13.3105C26.8016 13.3105 27.3918 13.4865 27.9104 13.8375C28.429 14.189 28.8359 14.6934 29.1295 15.3512C29.4236 16.0091 29.5707 16.7831 29.5707 17.6738C29.5707 18.5645 29.4236 19.3385 29.1295 19.9963C28.8354 20.6542 28.429 21.1586 27.9104 21.5101C27.3913 21.8615 26.8016 22.037 26.1398 22.037C25.4781 22.037 24.8879 21.861 24.3692 21.5101ZM27.4575 20.8115C27.8374 20.5341 28.1334 20.1297 28.3457 19.5983C28.558 19.0674 28.6643 18.4262 28.6643 17.6743C28.6643 16.9228 28.558 16.2816 28.3457 15.7503C28.133 15.2194 27.8369 14.815 27.4575 14.537C27.0776 14.2596 26.6384 14.1204 26.1398 14.1204C25.6413 14.1204 25.2026 14.2596 24.8222 14.537C24.4423 14.815 24.1462 15.2194 23.9339 15.7503C23.7212 16.2816 23.6153 16.9228 23.6153 17.6743C23.6153 18.4262 23.7212 19.0674 23.9339 19.5983C24.1462 20.1297 24.4428 20.5341 24.8222 20.8115C25.2021 21.0895 25.6413 21.2282 26.1398 21.2282C26.6384 21.2282 27.0776 21.089 27.4575 20.8115Z" fill="#40404C"/>
<path d="M30.631 17.3379C30.2756 16.909 30.0977 16.3473 30.0977 15.6527C30.0977 14.9585 30.2751 14.3968 30.631 13.9674C30.9869 13.5379 31.454 13.3242 32.0339 13.3242C32.6055 13.3242 33.0712 13.537 33.431 13.9615C33.7903 14.3865 33.9702 14.9502 33.9702 15.6527C33.9702 16.3556 33.7903 16.9193 33.431 17.3438C33.0712 17.7688 32.6055 17.9811 32.0339 17.9811C31.454 17.9816 30.9864 17.7669 30.631 17.3379ZM32.9962 16.958C33.2369 16.6438 33.358 16.2085 33.358 15.6531C33.358 15.0977 33.2374 14.6625 32.9962 14.3482C32.755 14.034 32.4344 13.8767 32.0344 13.8767C31.6256 13.8767 31.303 14.036 31.0663 14.3546C30.829 14.6732 30.7109 15.1066 30.7109 15.6536C30.7109 16.2012 30.829 16.634 31.0663 16.9526C31.303 17.2713 31.6256 17.4306 32.0344 17.4306C32.4344 17.4301 32.755 17.2727 32.9962 16.958ZM37.2305 13.386H37.9535L32.0957 21.9644H31.3727L37.2305 13.386ZM35.8947 21.3821C35.5349 20.9531 35.3555 20.3914 35.3555 19.6968C35.3555 19.0027 35.5349 18.4409 35.8947 18.0115C36.254 17.5826 36.7197 17.3683 37.2918 17.3683C37.8717 17.3683 38.3398 17.583 38.6947 18.0115C39.0496 18.4399 39.228 19.0022 39.228 19.6968C39.228 20.3914 39.0506 20.9527 38.6947 21.3821C38.3388 21.8115 37.8717 22.0252 37.2918 22.0252C36.7197 22.0257 36.254 21.811 35.8947 21.3821ZM38.2599 20.9963C38.4967 20.6776 38.6153 20.2448 38.6153 19.6973C38.6153 19.1502 38.4967 18.7169 38.2599 18.3982C38.0227 18.0796 37.7001 17.9203 37.2918 17.9203C36.8913 17.9203 36.5707 18.0777 36.33 18.3919C36.0888 18.7066 35.9682 19.1414 35.9682 19.6968C35.9682 20.2527 36.0888 20.6875 36.33 21.0017C36.5707 21.3164 36.8918 21.4732 37.2918 21.4732C37.7001 21.4742 38.0227 21.3149 38.2599 20.9963Z" fill="#40404C"/>
</svg>
