<svg width="130" height="96" viewBox="0 0 130 96" fill="none" xmlns="http://www.w3.org/2000/svg">
<path d="M64.9249 68.4922C62.0232 68.4922 59.0965 67.8859 56.2949 66.5724C51.267 64.2232 47.4399 60.0553 45.5137 54.8264C43.5876 49.5723 43.8128 43.8887 46.1391 38.8367C50.9168 28.3537 63.2489 23.7564 73.6299 28.5811C78.6578 30.9303 82.485 35.0982 84.4111 40.3271C86.3372 45.5812 86.112 51.2647 83.7857 56.3168C80.2837 63.9706 72.7544 68.4922 64.9249 68.4922ZM64.9749 30.0714C58.4212 30.0714 52.1425 33.8352 49.2159 40.2513C47.2898 44.495 47.0896 49.2439 48.6906 53.6392C50.2915 58.0092 53.4933 61.5204 57.6957 63.4654C66.3757 67.507 76.6816 63.6422 80.6589 54.9022C82.585 50.6585 82.7851 45.9096 81.1842 41.5143C79.5833 37.1443 76.3814 33.6331 72.179 31.6881C69.8527 30.5766 67.4013 30.0714 64.9749 30.0714Z" fill="#D4D4D5"/>
<path d="M108.55 47.5765H108.4C63.2992 -4.40899 24.1768 44.2674 21.6003 47.5765H21.4502C21.4752 47.6018 21.5002 47.627 21.5252 47.6523C21.4752 47.7028 21.4502 47.7533 21.4502 47.7533H21.6003C66.7011 99.7388 105.824 51.0624 108.4 47.7533H108.525C108.5 47.7281 108.475 47.7028 108.45 47.6775C108.525 47.6018 108.55 47.5765 108.55 47.5765ZM103.397 47.7281H103.272C101.021 50.6582 66.501 93.5501 26.7532 47.7281H26.6282C26.6282 47.7281 26.6532 47.7028 26.7032 47.6523C26.6782 47.627 26.6532 47.6018 26.6282 47.5765H26.7532C29.0045 44.6463 63.5243 1.7545 103.272 47.5765H103.397C103.397 47.5765 103.372 47.6018 103.322 47.6523C103.347 47.6775 103.372 47.7028 103.397 47.7281Z" fill="#D4D4D5" stroke="white" stroke-miterlimit="10"/>
<path d="M1 79.4648V94.2881H15.3658" stroke="#D4D4D5" stroke-width="2"/>
<path d="M15.3658 1H1V15.8232" stroke="#D4D4D5" stroke-width="2"/>
<path d="M114.635 94.2881H128.961V79.4648" stroke="#D4D4D5" stroke-width="2"/>
<path d="M128.961 15.8232V1H114.635" stroke="#D4D4D5" stroke-width="2"/>
</svg>
