<svg width="50" height="50" viewBox="0 0 50 50" fill="none" xmlns="http://www.w3.org/2000/svg">
<circle cx="25" cy="25" r="24.5" stroke="#40404C"/>
<path d="M34.4464 13H16.5547V38H34.4464V13ZM31.928 15.5279L32.5649 16.1647L29.3063 19.4234L28.6694 18.7866L31.928 15.5279ZM25.5008 16.7237L27.8857 20.1831L32.0125 21.4543L29.2591 24.8017L29.5256 29.1083L25.5012 27.456L21.4772 29.1083L21.7428 24.8017L18.9898 21.4543L23.1164 20.1831L25.5008 16.7237ZM19.137 15.5279L22.3954 18.7866L21.7584 19.4234L18.4999 16.1647L19.137 15.5279ZM20.4872 24.8499L21.1242 25.4867L17.8658 28.7454L17.2287 28.1086L20.4872 24.8499ZM33.8361 37.3115H17.1656V30.9555H33.8361V37.3115ZM33.1992 28.7455L29.9406 25.4868L30.5774 24.85L33.836 28.1086L33.1992 28.7455Z" fill="#40404C"/>
<path d="M31.5971 32.4375H19.4043V34.1324H31.5971V32.4375Z" fill="#40404C"/>
<path d="M28.6698 34.9277H22.332V36.093H28.6698V34.9277Z" fill="#40404C"/>
</svg>
