<svg width="50" height="50" viewBox="0 0 50 50" fill="none" xmlns="http://www.w3.org/2000/svg">
<circle cx="25" cy="25" r="24.5" stroke="#40404C"/>
<path d="M30.4997 30.916H20.4997C20.2693 30.916 20.083 31.1023 20.083 31.3327C20.083 31.5631 20.2693 31.7494 20.4997 31.7494H30.4997C30.7301 31.7494 30.9163 31.5631 30.9163 31.3327C30.9163 31.1023 30.7301 30.916 30.4997 30.916Z" fill="#40404C"/>
<path d="M30.4997 33H20.4997C20.2693 33 20.083 33.1862 20.083 33.4167C20.083 33.6471 20.2693 33.8333 20.4997 33.8333H30.4997C30.7301 33.8333 30.9163 33.6471 30.9163 33.4167C30.9163 33.1862 30.7301 33 30.4997 33Z" fill="#40404C"/>
<path d="M34.25 20.0833V13H16.75V20.0833H13V34.25H15.5V35.5H16.75V38H34.25V35.5H35.5V34.25H38V20.0833H34.25ZM17.5833 13.8333H33.4167V20.0833H17.5833V13.8333ZM33.4167 35.5V37.1667H17.5833V35.5V28.4167H33.4167V35.5ZM33.8333 26.3333C32.6846 26.3333 31.75 25.3987 31.75 24.25C31.75 23.1012 32.6846 22.1667 33.8333 22.1667C34.9821 22.1667 35.9167 23.1012 35.9167 24.25C35.9167 25.3987 34.9821 26.3333 33.8333 26.3333Z" fill="#40404C"/>
<path d="M33.833 25.5C34.5234 25.5 35.083 24.9404 35.083 24.25C35.083 23.5596 34.5234 23 33.833 23C33.1426 23 32.583 23.5596 32.583 24.25C32.583 24.9404 33.1426 25.5 33.833 25.5Z" fill="#40404C"/>
</svg>
