<svg width="643" height="571" viewBox="0 0 643 571" fill="none" xmlns="http://www.w3.org/2000/svg">
<rect y="221" width="643" height="216" rx="30" fill="#40404C"/>
<path d="M81 418C81 401.431 94.4315 388 111 388H533C549.569 388 563 401.431 563 418V438H81V418Z" fill="#D4D4D5"/>
<path opacity="0.6" d="M35 201C35 184.431 48.4315 171 65 171H578C594.569 171 608 184.431 608 201V221H35V201Z" fill="#292930"/>
<rect x="72" y="171" width="500" height="50" fill="#D4D4D5"/>
<rect x="107" width="430" height="221" fill="white"/>
<rect x="107" y="193" width="430" height="28" fill="url(#paint0_linear)"/>
<rect x="111" y="388" width="38" height="148" fill="white"/>
<rect x="111" y="388" width="38" height="30" fill="#E9E9EA"/>
<rect x="159" y="388" width="38" height="183" fill="white"/>
<rect x="159" y="388" width="38" height="30" fill="#E9E9EA"/>
<rect x="207" y="388" width="38" height="148" fill="white"/>
<rect x="207" y="388" width="38" height="30" fill="#E9E9EA"/>
<rect x="255" y="388" width="38" height="183" fill="white"/>
<rect x="255" y="388" width="38" height="30" fill="#E9E9EA"/>
<rect x="303" y="388" width="38" height="148" fill="white"/>
<rect x="303" y="388" width="38" height="30" fill="#E9E9EA"/>
<rect x="351" y="388" width="38" height="183" fill="white"/>
<rect x="351" y="388" width="38" height="30" fill="#E9E9EA"/>
<rect x="399" y="388" width="38" height="148" fill="white"/>
<rect x="399" y="388" width="38" height="30" fill="#E9E9EA"/>
<rect x="447" y="388" width="38" height="183" fill="white"/>
<rect x="447" y="388" width="38" height="30" fill="#E9E9EA"/>
<rect x="495" y="388" width="38" height="148" fill="white"/>
<rect x="495" y="388" width="38" height="30" fill="#E9E9EA"/>
<rect x="72" y="263" width="103" height="20" rx="10" fill="#FDD935"/>
<circle cx="527" cy="273" r="10" fill="#E34A02"/>
<circle cx="487" cy="273" r="10" fill="#D935FD"/>
<circle cx="447" cy="273" r="10" fill="#3559FD"/>
<path d="M274.92 140.832H258.504V162H235.752V140.832H181.464V125.136L228.984 61.2H253.464L209.4 121.824H236.472V102.96H258.504V121.824H274.92V140.832ZM322.217 163.728C313.865 163.728 306.425 161.664 299.897 157.536C293.369 153.408 288.233 147.456 284.489 139.68C280.841 131.808 279.017 122.448 279.017 111.6C279.017 100.752 280.841 91.44 284.489 83.664C288.233 75.792 293.369 69.792 299.897 65.664C306.425 61.536 313.865 59.472 322.217 59.472C330.569 59.472 338.009 61.536 344.537 65.664C351.065 69.792 356.153 75.792 359.801 83.664C363.545 91.44 365.417 100.752 365.417 111.6C365.417 122.448 363.545 131.808 359.801 139.68C356.153 147.456 351.065 153.408 344.537 157.536C338.009 161.664 330.569 163.728 322.217 163.728ZM322.217 144C328.361 144 333.161 141.36 336.617 136.08C340.169 130.8 341.945 122.64 341.945 111.6C341.945 100.56 340.169 92.4 336.617 87.12C333.161 81.84 328.361 79.2 322.217 79.2C316.169 79.2 311.369 81.84 307.817 87.12C304.361 92.4 302.633 100.56 302.633 111.6C302.633 122.64 304.361 130.8 307.817 136.08C311.369 141.36 316.169 144 322.217 144ZM466.176 140.832H449.76V162H427.008V140.832H372.72V125.136L420.24 61.2H444.72L400.656 121.824H427.728V102.96H449.76V121.824H466.176V140.832Z" fill="#E34A02"/>
<path d="M220.56 208.18C219.288 208.18 218.136 207.904 217.104 207.352C216.084 206.788 215.28 206.014 214.692 205.03C214.116 204.046 213.828 202.936 213.828 201.7C213.828 200.464 214.122 199.354 214.71 198.37C215.298 197.386 216.102 196.618 217.122 196.066C218.154 195.502 219.306 195.22 220.578 195.22C221.61 195.22 222.552 195.4 223.404 195.76C224.256 196.12 224.976 196.642 225.564 197.326L224.052 198.748C223.14 197.764 222.018 197.272 220.686 197.272C219.822 197.272 219.048 197.464 218.364 197.848C217.68 198.22 217.146 198.742 216.762 199.414C216.378 200.086 216.186 200.848 216.186 201.7C216.186 202.552 216.378 203.314 216.762 203.986C217.146 204.658 217.68 205.186 218.364 205.57C219.048 205.942 219.822 206.128 220.686 206.128C222.018 206.128 223.14 205.63 224.052 204.634L225.564 206.074C224.976 206.758 224.25 207.28 223.386 207.64C222.534 208 221.592 208.18 220.56 208.18ZM235.195 200.296H231.829V208H229.579V200.296H226.195V198.388H235.195V200.296ZM242.515 198.28C243.451 198.28 244.285 198.484 245.017 198.892C245.761 199.3 246.343 199.876 246.763 200.62C247.183 201.364 247.393 202.222 247.393 203.194C247.393 204.166 247.183 205.03 246.763 205.786C246.343 206.53 245.761 207.106 245.017 207.514C244.285 207.922 243.451 208.126 242.515 208.126C241.219 208.126 240.193 207.694 239.437 206.83V211.492H237.187V198.388H239.329V199.648C239.701 199.192 240.157 198.85 240.697 198.622C241.249 198.394 241.855 198.28 242.515 198.28ZM242.263 206.2C243.091 206.2 243.769 205.924 244.297 205.372C244.837 204.82 245.107 204.094 245.107 203.194C245.107 202.294 244.837 201.568 244.297 201.016C243.769 200.464 243.091 200.188 242.263 200.188C241.723 200.188 241.237 200.314 240.805 200.566C240.373 200.806 240.031 201.154 239.779 201.61C239.527 202.066 239.401 202.594 239.401 203.194C239.401 203.794 239.527 204.322 239.779 204.778C240.031 205.234 240.373 205.588 240.805 205.84C241.237 206.08 241.723 206.2 242.263 206.2ZM253.451 198.28C254.867 198.28 255.947 198.622 256.691 199.306C257.447 199.978 257.825 200.998 257.825 202.366V208H255.701V206.83C255.425 207.25 255.029 207.574 254.513 207.802C254.009 208.018 253.397 208.126 252.677 208.126C251.957 208.126 251.327 208.006 250.787 207.766C250.247 207.514 249.827 207.172 249.527 206.74C249.239 206.296 249.095 205.798 249.095 205.246C249.095 204.382 249.413 203.692 250.049 203.176C250.697 202.648 251.711 202.384 253.091 202.384H255.575V202.24C255.575 201.568 255.371 201.052 254.963 200.692C254.567 200.332 253.973 200.152 253.181 200.152C252.641 200.152 252.107 200.236 251.579 200.404C251.063 200.572 250.625 200.806 250.265 201.106L249.383 199.468C249.887 199.084 250.493 198.79 251.201 198.586C251.909 198.382 252.659 198.28 253.451 198.28ZM253.145 206.488C253.709 206.488 254.207 206.362 254.639 206.11C255.083 205.846 255.395 205.474 255.575 204.994V203.878H253.253C251.957 203.878 251.309 204.304 251.309 205.156C251.309 205.564 251.471 205.888 251.795 206.128C252.119 206.368 252.569 206.488 253.145 206.488ZM260.97 198.388H263.22V202.294H268.062V198.388H270.312V208H268.062V204.202H263.22V208H260.97V198.388ZM273.687 198.388H275.937V204.724L281.247 198.388H283.299V208H281.049V201.664L275.757 208H273.687V198.388ZM297.234 206.092V210.214H295.128V208H286.686V198.388H288.936V206.092H293.526V198.388H295.776V206.092H297.234ZM303.178 198.28C304.594 198.28 305.674 198.622 306.418 199.306C307.174 199.978 307.552 200.998 307.552 202.366V208H305.428V206.83C305.152 207.25 304.756 207.574 304.24 207.802C303.736 208.018 303.124 208.126 302.404 208.126C301.684 208.126 301.054 208.006 300.514 207.766C299.974 207.514 299.554 207.172 299.254 206.74C298.966 206.296 298.822 205.798 298.822 205.246C298.822 204.382 299.14 203.692 299.776 203.176C300.424 202.648 301.438 202.384 302.818 202.384H305.302V202.24C305.302 201.568 305.098 201.052 304.69 200.692C304.294 200.332 303.7 200.152 302.908 200.152C302.368 200.152 301.834 200.236 301.306 200.404C300.79 200.572 300.352 200.806 299.992 201.106L299.11 199.468C299.614 199.084 300.22 198.79 300.928 198.586C301.636 198.382 302.386 198.28 303.178 198.28ZM302.872 206.488C303.436 206.488 303.934 206.362 304.366 206.11C304.81 205.846 305.122 205.474 305.302 204.994V203.878H302.98C301.684 203.878 301.036 204.304 301.036 205.156C301.036 205.564 301.198 205.888 301.522 206.128C301.846 206.368 302.296 206.488 302.872 206.488ZM316.031 198.388H318.281V202.294H323.123V198.388H325.373V208H323.123V204.202H318.281V208H316.031V198.388ZM337.749 203.248C337.749 203.404 337.737 203.626 337.713 203.914H330.171C330.303 204.622 330.645 205.186 331.197 205.606C331.761 206.014 332.457 206.218 333.285 206.218C334.341 206.218 335.211 205.87 335.895 205.174L337.101 206.56C336.669 207.076 336.123 207.466 335.463 207.73C334.803 207.994 334.059 208.126 333.231 208.126C332.175 208.126 331.245 207.916 330.441 207.496C329.637 207.076 329.013 206.494 328.569 205.75C328.137 204.994 327.921 204.142 327.921 203.194C327.921 202.258 328.131 201.418 328.551 200.674C328.983 199.918 329.577 199.33 330.333 198.91C331.089 198.49 331.941 198.28 332.889 198.28C333.825 198.28 334.659 198.49 335.391 198.91C336.135 199.318 336.711 199.9 337.119 200.656C337.539 201.4 337.749 202.264 337.749 203.248ZM332.889 200.08C332.169 200.08 331.557 200.296 331.053 200.728C330.561 201.148 330.261 201.712 330.153 202.42H335.607C335.511 201.724 335.217 201.16 334.725 200.728C334.233 200.296 333.621 200.08 332.889 200.08ZM345.904 198.388H348.154V202.294H352.996V198.388H355.246V208H352.996V204.202H348.154V208H345.904V198.388ZM362.204 198.28C363.62 198.28 364.7 198.622 365.444 199.306C366.2 199.978 366.578 200.998 366.578 202.366V208H364.454V206.83C364.178 207.25 363.782 207.574 363.266 207.802C362.762 208.018 362.15 208.126 361.43 208.126C360.71 208.126 360.08 208.006 359.54 207.766C359 207.514 358.58 207.172 358.28 206.74C357.992 206.296 357.848 205.798 357.848 205.246C357.848 204.382 358.166 203.692 358.802 203.176C359.45 202.648 360.464 202.384 361.844 202.384H364.328V202.24C364.328 201.568 364.124 201.052 363.716 200.692C363.32 200.332 362.726 200.152 361.934 200.152C361.394 200.152 360.86 200.236 360.332 200.404C359.816 200.572 359.378 200.806 359.018 201.106L358.136 199.468C358.64 199.084 359.246 198.79 359.954 198.586C360.662 198.382 361.412 198.28 362.204 198.28ZM361.898 206.488C362.462 206.488 362.96 206.362 363.392 206.11C363.836 205.846 364.148 205.474 364.328 204.994V203.878H362.006C360.71 203.878 360.062 204.304 360.062 205.156C360.062 205.564 360.224 205.888 360.548 206.128C360.872 206.368 361.322 206.488 361.898 206.488ZM369.722 198.388H371.972V204.724L377.282 198.388H379.334V208H377.084V201.664L371.792 208H369.722V198.388ZM374.384 197.254C373.412 197.254 372.668 197.032 372.152 196.588C371.648 196.132 371.39 195.472 371.378 194.608H372.872C372.884 195.04 373.016 195.382 373.268 195.634C373.532 195.886 373.898 196.012 374.366 196.012C374.822 196.012 375.182 195.886 375.446 195.634C375.722 195.382 375.866 195.04 375.878 194.608H377.408C377.396 195.472 377.132 196.132 376.616 196.588C376.1 197.032 375.356 197.254 374.384 197.254ZM392.981 206.092V210.142H390.875V208H383.459V210.142H381.371V206.092H381.821C382.433 206.068 382.847 205.678 383.063 204.922C383.291 204.154 383.441 203.074 383.513 201.682L383.639 198.388H391.559V206.092H392.981ZM385.565 201.844C385.517 202.948 385.427 203.848 385.295 204.544C385.163 205.24 384.923 205.756 384.575 206.092H389.309V200.296H385.619L385.565 201.844ZM404.35 203.248C404.35 203.404 404.338 203.626 404.314 203.914H396.772C396.904 204.622 397.246 205.186 397.798 205.606C398.362 206.014 399.058 206.218 399.886 206.218C400.942 206.218 401.812 205.87 402.496 205.174L403.702 206.56C403.27 207.076 402.724 207.466 402.064 207.73C401.404 207.994 400.66 208.126 399.832 208.126C398.776 208.126 397.846 207.916 397.042 207.496C396.238 207.076 395.614 206.494 395.17 205.75C394.738 204.994 394.522 204.142 394.522 203.194C394.522 202.258 394.732 201.418 395.152 200.674C395.584 199.918 396.178 199.33 396.934 198.91C397.69 198.49 398.542 198.28 399.49 198.28C400.426 198.28 401.26 198.49 401.992 198.91C402.736 199.318 403.312 199.9 403.72 200.656C404.14 201.4 404.35 202.264 404.35 203.248ZM399.49 200.08C398.77 200.08 398.158 200.296 397.654 200.728C397.162 201.148 396.862 201.712 396.754 202.42H402.208C402.112 201.724 401.818 201.16 401.326 200.728C400.834 200.296 400.222 200.08 399.49 200.08ZM407.171 198.388H409.421V202.294H414.263V198.388H416.513V208H414.263V204.202H409.421V208H407.171V198.388ZM423.47 198.28C424.886 198.28 425.966 198.622 426.71 199.306C427.466 199.978 427.844 200.998 427.844 202.366V208H425.72V206.83C425.444 207.25 425.048 207.574 424.532 207.802C424.028 208.018 423.416 208.126 422.696 208.126C421.976 208.126 421.346 208.006 420.806 207.766C420.266 207.514 419.846 207.172 419.546 206.74C419.258 206.296 419.114 205.798 419.114 205.246C419.114 204.382 419.432 203.692 420.068 203.176C420.716 202.648 421.73 202.384 423.11 202.384H425.594V202.24C425.594 201.568 425.39 201.052 424.982 200.692C424.586 200.332 423.992 200.152 423.2 200.152C422.66 200.152 422.126 200.236 421.598 200.404C421.082 200.572 420.644 200.806 420.284 201.106L419.402 199.468C419.906 199.084 420.512 198.79 421.22 198.586C421.928 198.382 422.678 198.28 423.47 198.28ZM423.164 206.488C423.728 206.488 424.226 206.362 424.658 206.11C425.102 205.846 425.414 205.474 425.594 204.994V203.878H423.272C421.976 203.878 421.328 204.304 421.328 205.156C421.328 205.564 421.49 205.888 421.814 206.128C422.138 206.368 422.588 206.488 423.164 206.488Z" fill="black"/>
<line x1="136" y1="109" x2="506" y2="109" stroke="#E34A02" stroke-width="12"/>
<defs>
<linearGradient id="paint0_linear" x1="322" y1="198.5" x2="322" y2="221" gradientUnits="userSpaceOnUse">
<stop stop-color="white" stop-opacity="0"/>
<stop offset="1" stop-color="#D4D4D5"/>
</linearGradient>
</defs>
</svg>
