<svg width="424" height="419" viewBox="0 0 424 419" fill="none" xmlns="http://www.w3.org/2000/svg">
<path d="M423.708 89.0684H0L1.04619 93.2885C18.8314 150.787 32.4319 228.332 38.186 305.876H34.0012C27.7241 305.876 23.0162 306.931 20.4007 309.569C17.7853 312.206 16.216 315.899 16.216 321.701C16.216 327.504 17.7853 331.197 20.4007 333.834C23.5393 335.944 27.7241 336.999 34.0012 336.999H389.183C395.46 336.999 399.645 335.944 402.784 333.307C405.399 330.669 406.969 326.977 406.969 321.174C406.969 315.371 405.399 311.679 402.784 309.041C400.168 306.404 395.46 305.349 389.183 305.349H384.999C390.753 228.332 404.353 150.787 422.138 92.7609L423.708 89.0684ZM378.721 305.349C378.198 311.679 377.675 318.009 377.675 324.339H46.0324C45.5093 318.009 44.9862 311.679 44.9862 305.349C38.7091 229.387 25.6317 152.897 8.36953 95.3985H414.815C397.553 152.897 384.475 229.387 378.721 305.349ZM185.699 177.69H167.391V244.157H182.037C186.222 244.157 188.838 244.685 190.407 246.267C191.976 247.85 193.022 250.487 193.022 253.652C193.022 257.345 191.976 259.455 190.407 261.037C188.838 262.62 185.699 263.148 182.037 263.148H129.728C126.066 263.148 122.928 262.62 121.358 261.037C119.789 259.455 118.743 256.817 118.743 253.652C118.743 249.96 119.789 247.85 121.358 246.267C122.928 244.685 125.543 244.157 129.728 244.157H144.374V177.69H126.066L125.543 195.626V197.736C125.543 200.374 124.497 203.011 123.451 204.594C121.881 206.176 119.789 207.231 117.173 207.231C114.035 207.231 111.419 206.176 109.85 204.594C108.281 203.011 107.758 200.374 107.758 196.681V196.153L108.804 169.778C108.804 164.503 109.85 161.338 110.896 160.283C111.943 159.228 114.558 158.7 118.743 158.7H194.592C198.253 158.7 200.869 159.228 202.438 160.283C203.484 161.338 204.53 164.503 204.53 169.778L205.577 196.153V196.681C205.577 200.374 205.054 203.011 203.484 204.594C201.915 206.176 199.823 207.231 196.161 207.231C193.022 207.231 190.93 206.176 189.361 204.594C187.791 203.011 187.268 199.846 187.268 195.626L185.699 177.69ZM253.701 243.102H285.61V242.575C285.61 239.409 286.656 237.299 288.226 235.717C289.795 234.134 292.411 233.607 295.549 233.607C298.165 233.607 300.257 234.134 301.826 235.717C303.396 237.299 303.919 239.409 303.919 242.047V243.102L303.396 257.345C303.396 259.982 302.872 262.093 302.349 262.62C301.303 263.148 300.257 263.675 298.165 263.675H232.778C229.116 263.675 226.5 263.148 224.931 261.565C222.839 259.982 221.793 257.872 221.793 255.235C221.793 253.125 222.316 250.487 223.362 248.377C224.408 246.267 226.5 243.63 229.116 241.52L266.256 205.649C270.441 201.956 273.056 197.736 275.148 194.043C277.241 190.351 278.287 186.131 278.287 182.438C278.287 177.163 277.241 172.943 274.102 170.305C271.487 167.668 267.302 166.085 262.071 166.085C258.932 166.085 256.317 166.613 253.701 167.668C251.086 168.723 249.517 169.778 247.947 171.888C247.424 172.943 246.378 173.998 245.332 175.58C242.193 180.328 239.055 182.966 235.916 182.966C232.778 182.966 230.685 181.911 229.116 179.801C227.547 177.69 227.024 175.053 227.024 170.833C227.024 166.613 227.547 163.975 228.593 161.865C229.639 159.755 231.731 157.645 234.347 156.062C239.055 152.897 243.763 150.787 248.994 149.205C254.225 147.622 259.979 147.095 265.733 147.095C277.241 147.095 286.133 150.26 292.934 156.59C299.734 162.92 302.872 171.36 302.872 181.383C302.872 188.241 301.303 195.098 297.642 201.429C293.98 207.759 288.749 214.089 281.426 220.419L253.701 243.102Z" fill="#292930"/>
<g clip-path="url(#clip0)">
<path d="M73.5725 265.414L210.381 188.184C217.545 184.165 226.281 184.165 233.444 188.184L370.428 265.239C371.476 265.764 372 266.987 372 268.035V335.655C372 336.704 371.476 337.752 370.428 338.451L232.221 416.38C225.931 419.875 218.243 419.875 211.953 416.38L73.5725 338.626C72.5242 338.101 72 336.878 72 335.83V268.21C72 267.161 72.5242 266.113 73.5725 265.414Z" fill="#D4D4D5"/>
<path d="M210.381 188.184C217.545 184.165 226.281 184.165 233.444 188.184L370.427 265.239C372.524 266.463 372.524 269.433 370.427 270.656L232.221 348.585C225.931 352.08 218.243 352.08 211.953 348.585L73.5725 270.831C71.4758 269.608 71.4758 266.637 73.5725 265.414L210.381 188.184Z" fill="#E9E9EA"/>
<path d="M73.5726 267.861L211.954 345.79C218.244 349.284 225.931 349.284 232.221 345.79L370.428 267.861C370.952 267.511 371.301 267.162 371.651 266.638C372.524 268.035 372 269.957 370.428 271.006L232.221 348.935C225.931 352.429 218.244 352.429 211.954 348.935L73.5726 270.831C72.0001 269.957 71.4759 268.035 72.3496 266.463C72.699 267.162 73.0485 267.511 73.5726 267.861Z" fill="#40404C"/>
<path d="M219.467 233.613L219.292 234.312L219.117 233.788C219.117 233.788 218.069 237.283 218.942 239.205C219.816 240.952 221.214 243.223 223.136 245.67C225.058 248.116 228.203 253.358 229.076 254.406C229.95 255.454 234.667 259.298 240.608 259.823C246.549 260.347 248.121 257.027 247.597 255.28C247.073 253.532 243.928 248.815 240.433 244.796C236.939 240.952 234.318 235.885 234.318 235.885L219.467 233.613Z" fill="#292930"/>
<path d="M237.288 217.887C237.288 217.887 237.113 221.557 237.463 223.129C237.812 224.702 246.548 225.051 249.693 225.575C252.838 225.925 258.255 228.196 259.827 228.895C261.574 229.769 272.757 230.817 274.154 226.798C275.552 222.78 268.563 219.285 263.671 218.237C258.954 217.188 251.091 214.742 251.091 214.742L237.288 217.887Z" fill="#292930"/>
<path d="M207.062 144.152C207.062 144.152 206.712 154.636 210.381 168.964C213.876 183.292 213.526 193.426 213.526 193.426C213.526 193.426 209.857 209.676 213.002 220.858C216.322 232.041 219.118 235.011 219.118 235.011C219.118 235.011 225.582 243.398 234.319 235.885C234.319 235.885 229.426 220.684 228.902 208.452C228.902 208.452 233.095 199.541 234.668 191.504C234.668 191.504 235.891 204.084 236.59 209.326C236.59 209.326 235.891 216.839 237.813 219.81C239.91 222.78 249.17 223.654 251.966 218.412C254.936 213.17 249.519 215.791 251.092 191.504C251.092 191.504 259.653 181.195 260.876 162.149C262.1 143.104 261.925 135.591 260.876 131.746C259.828 128.077 240.958 114.623 240.958 114.623L230.3 127.902L207.062 144.152Z" fill="#40404C"/>
<path d="M235.017 196.394C235.541 194.647 236.065 192.9 236.414 191.152C236.414 191.152 237.637 203.733 238.336 208.975C238.336 208.975 237.637 216.488 239.559 219.458C240.957 221.38 245.151 222.429 248.82 221.555C244.801 223.477 239.21 222.254 237.812 219.983C235.715 217.012 236.589 209.499 236.589 209.499C236.065 206.354 235.366 200.588 235.017 196.394Z" fill="#292930"/>
<path d="M207.061 144.151L230.299 128.076L240.957 114.797C240.957 114.797 241.307 114.972 241.831 115.321L232.221 127.552L208.983 143.627C208.983 143.627 208.634 154.111 212.303 168.439C215.797 182.766 215.448 192.901 215.448 192.901C215.448 192.901 211.779 209.151 214.924 220.333C218.243 231.516 221.039 234.486 221.039 234.486C221.039 234.486 225.058 239.728 230.998 238.33C224.184 241.475 219.292 235.185 219.292 235.185C219.292 235.185 216.496 232.04 213.176 221.032C209.857 209.849 213.7 193.6 213.7 193.6C213.7 193.6 214.05 183.465 210.555 169.138C206.712 154.635 207.061 144.151 207.061 144.151Z" fill="#292930"/>
<path d="M248.995 165.469C252.14 161.8 253.713 150.617 253.713 150.617C253.713 150.617 248.995 160.053 245.501 162.848C242.006 165.644 239.036 171.06 238.512 174.73C237.813 178.399 234.493 191.678 234.493 191.678C234.493 191.678 235.716 204.259 236.415 209.501C236.415 209.501 235.716 217.014 237.638 219.985C237.988 220.684 238.687 221.033 239.735 221.557C239.735 221.382 239.211 204.783 239.735 197.794C240.434 190.63 246.025 169.138 248.995 165.469Z" fill="#292930"/>
<path d="M178.756 67.4453C178.756 67.4453 170.719 82.9962 169.845 84.2193C168.972 85.4424 153.771 104.313 152.373 115.321C152.373 115.321 151.15 119.515 156.391 123.359C161.633 127.028 188.016 143.452 189.589 143.802C191.161 143.977 200.771 139.434 201.121 129.299C201.121 129.299 180.503 119.864 175.96 115.146C175.96 115.146 183.998 101.867 188.016 98.0229C189.065 96.9745 189.589 95.2272 189.938 93.1305C191.161 84.394 187.667 75.6576 181.027 69.8915L178.756 67.4453Z" fill="#40404C"/>
<path d="M239.56 31.1024C239.56 31.1024 252.14 35.6454 256.508 34.0728C260.876 32.5002 271.359 31.2771 278.523 27.2584C285.687 23.2396 317.311 15.3768 322.029 15.0273C322.029 15.0273 322.029 15.2021 321.33 15.5515C320.631 15.901 317.311 16.0757 316.438 19.745C315.564 23.4143 317.486 27.6078 318.01 27.9573C318.535 28.3067 318.884 26.9089 321.854 25.6858C324.825 24.288 326.747 24.4627 326.747 24.4627L327.97 25.8605L328.668 26.9089C328.668 26.9089 327.096 31.2771 323.077 31.6266C319.059 31.9761 293.025 42.4598 291.452 42.984C289.88 43.5082 268.039 52.5941 263.846 54.1666C259.827 55.5645 256.508 57.4865 256.508 57.4865C256.508 57.4865 243.753 48.9248 243.403 48.9248C243.054 48.9248 239.56 31.1024 239.56 31.1024Z" fill="#40404C"/>
<path d="M354.179 6.98985C353.131 5.94148 341.424 9.26133 341.424 9.26133C341.424 9.26133 339.327 8.73714 337.405 8.73714C335.484 8.73714 330.067 12.7559 328.32 13.6296C326.398 14.5032 322.03 14.8527 322.03 14.8527C311.546 16.9494 317.487 28.1321 317.836 28.1321C318.186 27.9573 321.156 26.0353 322.03 25.6858C322.903 25.1617 324.476 24.9869 324.476 24.9869C325 25.1617 327.097 26.21 328.495 26.7342C329.892 27.2584 333.562 26.7342 335.134 25.6858C336.707 24.6375 341.424 24.288 341.599 24.4627C341.774 24.6375 342.472 24.9869 342.472 24.9869C342.472 24.9869 342.822 26.21 343.696 26.3848C344.569 26.7342 345.617 24.4627 346.142 24.1133C346.491 23.9386 347.889 23.0649 348.064 22.5407C348.238 22.1913 349.112 15.5516 348.762 14.5032C348.588 13.2801 345.967 12.057 345.967 12.057C345.967 12.057 352.606 9.96024 353.131 9.78551C353.829 9.61078 355.227 8.03822 354.179 6.98985ZM342.472 19.0461C341.948 19.2209 341.075 19.2209 340.201 19.5703C339.327 19.9198 338.279 20.444 337.405 20.2693C337.405 20.2693 336.182 18.3472 337.056 17.6483C337.93 16.9494 338.629 16.4252 338.629 16.4252C338.629 16.4252 340.201 16.0758 340.201 15.901C340.201 15.901 341.075 16.5999 341.948 16.0758C341.948 16.0758 342.997 17.4736 344.394 17.4736C344.744 17.4736 343.171 18.6967 342.472 19.0461Z" fill="#FCD1C5"/>
<path d="M260.876 131.92C259.828 128.251 240.958 114.797 240.958 114.797L235.716 121.437L231.173 138.735L207.062 146.073C207.062 146.073 208.285 157.78 228.028 156.557C247.597 155.159 249.869 140.307 249.869 140.307C249.869 140.307 251.965 145.2 261.75 146.423C261.925 138.385 261.75 134.367 260.876 131.92Z" fill="#292930"/>
<path d="M202.693 40.7126L199.373 48.9248C199.373 48.9248 183.473 62.3789 178.756 67.2714C178.756 67.2714 186.618 82.1233 188.191 97.6742C188.191 97.6742 195.529 103.44 197.626 106.236C199.897 108.857 205.489 121.263 207.236 125.456C208.983 129.475 204.091 141.881 204.091 141.881C204.091 141.881 210.905 154.112 221.738 153.762C232.571 153.413 240.084 146.773 241.482 135.241C242.879 123.709 242.53 121.962 242.53 121.962C242.53 121.962 247.422 136.115 254.935 136.115C262.448 136.115 274.155 123.709 274.155 123.709C274.155 123.709 282.192 116.72 281.318 113.4C280.62 110.255 262.623 82.4728 261.575 77.9298C260.526 73.3869 256.508 57.1371 256.508 57.1371L239.56 30.9277L229.251 31.4519L202.693 40.7126Z" fill="#40404C"/>
<path d="M222.262 150.618C232.745 150.268 239.909 144.153 241.656 133.494C241.656 134.018 241.482 134.543 241.482 135.067C240.084 146.599 232.571 153.239 221.738 153.588C210.905 153.937 204.091 141.706 204.091 141.706C204.091 141.706 204.44 140.833 204.964 139.435C206.537 141.881 212.827 150.967 222.262 150.618Z" fill="#292930"/>
<path d="M202.693 40.7129C202.693 40.7129 202.693 45.6053 204.615 50.4977C206.537 55.3901 213.177 83.172 228.028 92.6074L233.794 96.102V78.6291C233.794 78.6291 233.619 67.7959 231.173 60.9815C228.552 54.167 228.727 45.78 228.727 45.78L224.534 44.7317C224.359 44.5569 202.693 40.7129 202.693 40.7129Z" fill="#F0F6FF"/>
<path d="M220.864 53.6413C220.864 53.6413 223.485 54.6897 224.708 52.9424C225.757 51.1951 226.98 47.8753 226.63 46.3027C226.63 46.3027 233.619 46.6522 235.017 42.9828C236.415 39.3135 234.842 38.4399 234.668 37.3915C234.493 36.3431 234.318 33.3728 233.27 31.276L233.095 30.4024C233.095 30.4024 234.493 29.1793 233.794 27.9562C233.095 26.7331 229.251 22.7143 228.902 22.1901C228.727 21.3165 229.251 16.424 227.853 13.9778C226.281 11.5316 223.485 8.21179 223.485 8.21179C223.485 8.21179 208.459 -3.14559 196.753 8.21179C185.046 19.5692 202.693 40.5366 202.693 40.5366C202.693 40.5366 204.091 47.3511 207.586 49.972C210.905 52.9424 220.864 53.6413 220.864 53.6413Z" fill="#FCD1C5"/>
<path d="M210.032 25.8604C210.032 25.511 210.032 24.9868 209.857 24.6373C209.333 23.4142 208.634 20.0944 212.303 17.4734C216.846 14.3283 224.708 11.3579 224.534 8.21282C224.359 5.0677 211.779 -2.96984 202.518 1.39839C193.258 5.59188 184.522 16.4251 190.987 27.6077C197.277 38.9651 202.868 40.7124 202.868 40.7124C202.868 40.7124 204.79 40.3629 203.043 38.4409C201.295 36.5189 198.325 31.8012 200.771 30.2287C203.392 28.6561 207.76 31.976 208.284 32.6749C208.459 33.0243 208.808 33.3738 208.983 33.5485C209.333 34.0727 210.032 34.2474 210.556 34.0727L210.73 33.898C211.255 33.5485 211.604 33.0243 211.429 32.3254L210.206 29.7045C210.032 29.1803 210.032 28.8308 210.032 28.3066V25.8604Z" fill="#40404C"/>
<path d="M220.515 56.7871C220.515 56.7871 217.195 59.0586 215.273 63.6015C215.273 63.6015 218.768 59.9322 220.865 59.2333C220.865 59.2333 224.709 60.9806 224.709 62.2037C224.709 63.4268 225.058 70.5907 225.932 74.4347C226.805 78.2788 226.805 91.9076 226.805 91.9076L229.251 93.4802L230.474 87.5394L229.95 74.7842L227.679 63.2521C227.679 63.2521 227.329 58.8839 226.98 58.7091C226.98 58.3597 220.515 56.7871 220.515 56.7871Z" fill="#C4CCD6"/>
<path d="M220.516 56.7863C220.516 56.7863 224.36 52.7676 226.282 52.7676C228.204 52.7676 229.252 53.6412 229.252 53.9907C229.252 54.3401 231.174 60.4556 231.174 60.4556C231.174 60.4556 234.843 71.2888 234.319 83.8693C233.969 96.4498 233.62 96.2751 233.62 96.2751L228.902 93.3047C228.902 93.3047 230.125 84.2188 227.679 73.9098C225.059 63.426 227.33 61.8535 226.107 60.8051C224.884 59.7567 219.992 58.0094 220.516 56.7863Z" fill="#E34A02"/>
<path d="M197.626 106.236C199.898 108.856 205.314 121.262 207.062 125.281C207.411 125.98 207.586 126.854 207.586 127.902C208.11 128.251 208.285 128.426 208.285 128.426L210.731 126.155C210.731 126.155 208.634 118.641 205.14 109.206C201.645 99.7706 188.191 97.6738 188.191 97.6738C188.191 97.6738 195.53 103.615 197.626 106.236Z" fill="#292930"/>
<path d="M201.295 129.3C201.295 129.3 205.139 123.709 206.362 123.01C206.362 123.01 206.013 124.582 208.284 125.456C210.556 126.33 222.087 130.873 222.437 131.222C222.786 131.746 222.437 132.445 221.738 132.445C221.738 132.445 224.184 133.319 225.058 133.144C226.106 133.144 227.329 134.367 226.63 135.416C225.931 136.464 225.407 136.289 225.407 136.289C225.407 136.289 225.757 137.512 225.058 137.687C224.359 137.862 222.612 138.036 222.612 138.036C222.612 138.036 222.961 139.26 221.913 139.609C221.039 140.133 216.322 140.483 216.322 140.483C216.322 140.483 212.652 140.133 211.604 140.133C210.556 140.133 205.838 141.182 203.742 141.007C201.645 140.657 195.005 138.386 194.306 138.036C193.782 138.036 201.295 129.3 201.295 129.3Z" fill="#FCD1C5"/>
<path d="M198.5 51.7207L199.024 59.234L203.217 60.4571L200.422 62.7286C200.422 62.7286 211.604 87.5401 225.757 95.2282C225.757 95.2282 212.128 90.5105 199.374 62.9034C199.374 62.9034 200.771 61.3308 201.121 60.9813L198.325 59.7582L198.5 51.7207Z" fill="#292930"/>
<path d="M235.018 50.8457C235.018 50.8457 240.085 76.1814 235.716 95.0521C235.716 95.0521 240.958 85.9662 236.241 50.8457H235.018Z" fill="#292930"/>
<path d="M348.762 13.9787C348.064 12.9303 346.142 12.0566 346.142 12.0566C346.142 12.0566 340.725 14.1534 339.852 14.6776C339.852 14.6776 345.268 14.1534 348.762 13.9787Z" fill="#E2B1A6"/>
<path d="M317.836 28.1322C318.011 28.1322 318.884 27.4332 319.758 26.9091C316.263 22.1914 320.107 15.377 320.107 15.377C312.245 18.5221 317.486 28.3069 317.836 28.1322Z" fill="#E2B1A6"/>
<path d="M194.481 138.387C195.006 138.736 198.85 139.959 201.47 140.833C201.47 140.833 203.218 134.018 202.868 131.747C202.519 129.475 201.47 128.951 201.47 128.951C201.47 129.126 201.296 129.301 201.296 129.301C201.296 129.301 193.783 138.037 194.481 138.387Z" fill="#E2B1A6"/>
<path d="M201.295 128.951C201.295 128.951 202.519 132.97 199.723 135.94C196.927 138.911 196.753 139.435 196.753 139.435H193.608C193.608 139.435 192.035 134.542 192.21 134.542C192.559 134.368 201.295 128.951 201.295 128.951Z" fill="#292930"/>
<path d="M230.474 58.3594C230.474 58.3594 233.444 75.6575 232.745 81.9478C232.046 88.238 232.396 95.2272 232.396 95.2272L233.269 96.1008L233.619 96.2756C233.619 96.2756 233.968 96.4503 234.318 83.8698C234.667 71.2893 231.173 60.4561 231.173 60.4561C231.173 60.4561 230.823 59.4077 230.474 58.3594Z" fill="#292930"/>
<path d="M231.523 237.981C232.397 237.457 233.27 236.933 234.144 236.059C234.144 236.059 229.252 220.857 228.727 208.626C228.727 208.626 232.921 199.715 234.493 191.678C234.144 193.25 229.077 201.812 226.98 210.548C224.709 219.285 231.523 237.981 231.523 237.981Z" fill="#292930"/>
<path d="M209.507 37.916C209.682 38.2655 210.905 44.5557 213.351 47.3514C215.972 50.3218 218.068 53.2922 218.068 53.2922C219.641 53.4669 220.864 53.6416 220.864 53.6416C220.864 53.6416 223.485 54.69 224.708 52.9427C225.756 51.1954 226.979 47.8756 226.63 46.303C226.63 46.303 217.195 45.4294 213.525 42.8084C210.206 40.5369 209.682 38.2655 209.507 37.916Z" fill="#E2B1A6"/>
<path d="M206.188 123.184L206.712 124.233C206.886 124.233 206.886 123.359 206.886 123.359L206.537 122.66L206.188 123.184Z" fill="#1B2B3A"/>
<path d="M233.619 96.1016C233.619 96.1016 240.259 116.72 242.355 121.787L242.181 126.679C242.355 126.679 233.969 101.169 233.619 96.1016Z" fill="#292930"/>
<path d="M240.084 103.44C240.433 104.663 239.909 105.886 238.686 106.236C237.463 106.585 236.24 105.886 235.89 104.838C235.541 103.615 236.065 102.392 237.288 102.042C238.511 101.693 239.734 102.392 240.084 103.44Z" fill="#292930"/>
<path d="M243.403 112.351C243.753 113.574 243.228 114.797 242.005 115.147C240.782 115.496 239.559 114.797 239.21 113.574C238.86 112.351 239.385 111.128 240.608 110.779C241.831 110.604 243.054 111.303 243.403 112.351Z" fill="#292930"/>
<path d="M210.207 29.7042C210.032 29.18 210.032 28.8305 210.032 28.3063V25.8601C210.032 25.5107 210.032 24.9865 209.857 24.637C209.683 24.2876 209.508 23.7634 209.508 23.0645C209.508 23.0645 199.199 30.4031 192.734 30.7525C198.151 39.3142 202.694 40.8868 202.694 40.8868C202.694 40.8868 204.616 40.5373 202.868 38.6153C201.121 36.6933 198.151 31.9756 200.597 30.4031C203.218 28.8305 207.586 32.1504 208.11 32.8493C208.285 33.1987 208.634 33.5482 208.809 33.7229C209.158 34.2471 209.857 34.4218 210.381 34.2471L210.556 34.0724C211.08 33.7229 211.43 33.1987 211.255 32.4998L210.207 29.7042Z" fill="#292930"/>
<path d="M190.637 299.484C190.637 299.484 195.355 300.533 199.723 300.707C204.266 300.882 216.496 303.328 216.147 307.697C215.797 312.24 209.507 318.53 201.47 319.578C193.433 320.452 183.124 318.355 177.882 318.355C172.641 318.53 169.146 313.288 171.068 308.221C173.34 303.503 190.637 299.484 190.637 299.484Z" fill="#292930"/>
<path d="M163.73 287.43C163.73 287.43 161.982 290.051 162.856 291.798C163.73 293.37 166.001 297.564 173.339 293.545C180.678 289.526 194.656 283.935 194.656 283.935C194.656 283.935 202.693 279.742 202.343 274.849C201.819 269.957 194.481 270.656 194.481 270.656L163.73 287.43Z" fill="#292930"/>
<path d="M211.254 217.189C211.254 217.189 208.109 249.339 201.47 261.57C194.83 273.976 192.908 296.691 191.51 300.884C190.113 305.252 185.745 311.543 178.93 312.766C172.116 314.164 170.893 309.621 171.243 306.825C171.592 304.029 173.514 299.661 173.514 296.691C173.514 293.72 172.815 292.322 172.815 290.925C172.815 290.925 164.953 293.196 163.729 287.255C163.729 287.255 164.428 285.508 164.428 284.634C164.603 283.761 163.729 262.269 163.555 259.648C163.38 257.027 164.778 243.049 167.049 236.06C169.146 229.245 168.447 214.568 168.447 214.568L190.812 211.598L211.254 217.189Z" fill="#40404C"/>
<path d="M167.049 236.234C169.146 229.419 168.447 214.742 168.447 214.742L170.369 214.393C170.369 216.489 170.893 229.245 168.971 235.535C166.874 242.524 165.302 256.502 165.651 259.123C165.826 261.744 166.699 283.236 166.525 284.109C166.35 284.983 165.826 286.73 165.826 286.73C167.049 292.671 174.911 290.4 174.911 290.4C175.086 291.798 175.785 293.195 175.785 296.166C175.785 299.136 173.863 303.504 173.514 306.3C173.164 309.096 174.387 313.639 181.201 312.241C181.376 312.241 181.551 312.066 181.9 312.066C181.027 312.416 180.153 312.765 179.279 312.94C172.465 314.338 171.242 309.795 171.592 306.999C171.941 304.203 173.863 299.835 173.863 296.865C173.863 293.894 173.164 292.322 172.989 290.924C172.989 290.924 165.127 293.37 163.904 287.429C163.904 287.429 164.603 285.682 164.603 284.808C164.777 283.935 163.904 262.443 163.729 259.822C163.38 257.201 164.777 243.223 167.049 236.234Z" fill="#292930"/>
<path d="M175.087 217.013C175.087 217.013 175.262 222.08 177.358 226.274C177.358 226.274 177.358 243.397 179.106 251.959C179.106 251.959 176.135 269.257 174.388 274.848C172.466 280.44 172.815 291.098 172.815 291.098C172.815 291.098 171.942 291.447 170.719 291.447C169.496 291.447 169.321 270.131 171.243 266.461C173.165 262.792 174.737 246.193 173.864 241.126C173.165 236.058 173.34 221.731 172.466 219.11C171.418 216.663 173.689 215.266 173.689 215.266L175.087 217.013Z" fill="#292930"/>
<path d="M193.957 101.168C193.957 101.168 200.422 105.711 200.072 113.748L195.18 112.7C195.18 112.7 196.753 103.789 193.957 101.168Z" fill="#E34A02"/>
<path d="M191.336 224.002C176.484 224.527 168.447 218.062 168.447 218.062C168.447 215.965 168.272 214.742 168.272 214.742L190.637 211.771L211.08 217.363C211.08 217.363 210.381 223.653 209.158 231.865C205.489 232.215 201.994 223.478 201.994 223.478L191.86 224.177C192.035 224.003 206.187 223.653 191.336 224.002Z" fill="#292930"/>
<path d="M208.459 217.711C208.459 217.711 176.135 230.641 160.585 206.179C160.06 205.48 159.886 204.607 159.886 203.733L160.06 197.967C160.06 197.268 160.06 196.569 159.711 195.87C159.187 194.472 159.187 192.9 159.362 191.327C160.585 185.037 163.904 167.739 164.603 162.846C165.477 157.08 162.332 133.667 157.09 123.532C151.848 113.573 165.302 91.0328 165.302 91.0328C165.302 91.0328 168.622 85.7909 175.087 87.5382C175.087 87.5382 168.971 91.7317 172.291 96.2747C175.786 100.818 185.92 104.312 185.92 104.312C185.92 104.312 204.964 114.097 211.254 125.804C211.254 125.804 213.526 131.919 213.701 139.433C213.875 147.121 213.002 165.642 213.351 168.263C213.701 170.884 214.749 188.532 214.574 189.405C214.574 190.279 208.459 217.711 208.459 217.711Z" fill="#40404C"/>
<path d="M172.291 91.0336C171.767 89.8105 171.942 88.5874 172.466 87.5391C173.339 87.5391 174.388 87.5391 175.436 87.8885C175.261 87.7138 173.339 89.1116 172.291 91.0336Z" fill="#292930"/>
<path d="M198.675 220.333C198.675 220.333 179.63 170.186 180.678 152.014C181.377 134.367 208.285 188.009 208.285 188.009L208.459 217.712C208.459 217.712 202.344 219.984 198.675 220.333Z" fill="#292930"/>
<path d="M160.411 191.153C160.585 191.852 160.76 192.551 160.76 193.25L160.585 198.841C160.585 199.715 160.76 200.589 161.284 201.288C176.835 225.575 208.984 212.82 208.984 212.82C208.984 212.82 213.352 193.075 214.75 186.785C214.75 188.358 214.924 189.406 214.75 189.581C214.575 190.454 208.46 217.887 208.46 217.887C208.46 217.887 176.136 230.642 160.585 206.18C160.061 205.481 159.886 204.607 159.886 203.734L160.061 197.968C160.061 197.269 160.061 196.57 159.712 195.871C159.188 194.473 159.188 192.901 159.362 191.328C159.537 190.629 159.712 189.93 159.886 189.057C160.061 189.756 160.061 190.454 160.411 191.153Z" fill="#292930"/>
<path d="M157.615 119.164C163.031 129.299 166.176 152.538 165.128 158.304C165.128 158.828 164.953 159.527 164.778 160.4C164.778 152.013 161.808 132.618 157.091 123.707C155.693 120.912 155.693 117.068 156.392 113.049C156.392 115.32 156.741 117.592 157.615 119.164Z" fill="#292930"/>
<path d="M208.809 161.101C208.11 157.082 207.76 152.889 207.76 148.87C207.76 141.706 205.664 129.999 192.385 131.921C173.689 134.891 181.727 160.402 183.823 164.77C185.92 169.313 193.957 189.407 194.481 190.63C194.831 191.678 207.76 217.014 212.303 222.955C212.653 223.479 213.526 223.654 214.05 223.13C215.972 221.557 220.166 217.888 220.69 215.616C221.389 212.646 218.768 201.638 218.768 201.638C218.768 201.638 211.43 174.38 210.905 173.157C210.206 172.283 210.032 167.741 208.809 161.101Z" fill="#40404C"/>
<path d="M193.607 101.691C193.607 101.691 195.005 98.3715 198.5 98.022C201.994 97.6726 203.916 96.7989 204.265 95.5758C204.615 94.3527 204.615 92.7802 205.489 91.0329C206.362 89.1108 207.061 84.7426 207.061 84.5679C207.061 84.3932 209.682 83.6942 209.857 82.6459C210.031 81.5975 208.634 77.5787 208.808 77.2293C208.983 76.8798 210.381 74.4336 210.206 72.5116C210.031 70.5896 209.682 67.7939 208.808 65.5224C207.76 63.251 200.596 49.0979 181.726 56.2618C162.681 63.6004 177.183 79.326 175.261 89.4603C175.261 89.4603 173.514 91.5571 176.659 95.2264C179.28 98.8957 188.366 99.5946 193.607 101.691Z" fill="#FCD1C5"/>
<path d="M176.31 95.2267C173.165 91.5574 174.913 89.4607 174.913 89.4607C175.262 88.0629 175.087 86.4903 174.913 84.9177L182.426 86.3156C182.426 86.3156 193.433 76.7055 192.734 81.9473C191.861 87.1892 194.656 88.0629 194.656 88.0629L192.385 90.8585C191.861 91.5574 192.21 92.4311 192.56 93.3047C195.705 98.5466 203.393 96.974 203.393 96.974C202.519 97.4982 200.946 98.0224 198.675 98.1971C195.181 98.5466 193.783 101.866 193.783 101.866C188.366 99.595 179.281 98.896 176.31 95.2267Z" fill="#E2B1A6"/>
<path d="M209.157 60.1068C209.157 60.1068 210.555 63.9508 208.284 65.5234C206.187 67.096 204.265 68.6685 204.265 68.6685V73.3862C204.265 74.0851 204.09 74.784 203.741 75.3082L201.12 79.327C200.596 80.0259 200.247 81.0743 200.247 81.9479V83.8699C200.247 84.3941 199.722 84.9183 199.198 84.9183H198.499C197.8 84.9183 197.276 84.5689 197.276 83.8699L196.927 81.0743C196.927 81.0743 195.529 78.8028 192.384 81.4237L189.588 82.4721C188.889 82.8216 188.191 83.3458 187.841 84.2194C187.142 86.3162 185.395 90.5097 184.172 91.2086C182.425 92.0822 175.96 88.7624 175.086 87.3645C174.213 85.9667 171.941 76.1819 170.718 71.6389C169.32 67.096 170.194 55.7386 184.172 52.7682C198.325 50.1473 207.235 55.9133 209.157 60.1068Z" fill="#40404C"/>
<path d="M175.262 87.7149C174.388 86.3171 172.117 76.5323 170.894 71.9893C170.894 71.9893 176.31 75.4839 183.299 76.5323C190.288 77.5806 204.266 69.8926 204.266 69.8926V73.3872C204.266 74.0861 204.091 74.785 203.742 75.3092L201.121 79.3279C200.597 80.0269 200.247 81.0752 200.247 81.9489V83.8709C200.247 84.3951 199.723 84.9193 199.199 84.9193H198.5C197.801 84.9193 197.277 84.5698 197.277 83.8709L196.927 81.0752C196.927 81.0752 195.53 78.8037 192.385 81.4247L188.366 82.9972C188.366 82.9972 185.92 90.1611 184.173 91.2095C182.6 92.6073 176.135 89.2875 175.262 87.7149Z" fill="#292930"/>
<path d="M174.912 88.2383C174.912 88.2383 169.496 91.5581 172.116 96.2758C174.912 100.993 194.656 109.38 195.704 110.604C195.704 110.604 196.403 103.614 193.782 101.168C193.782 101.168 178.581 98.1978 176.31 94.5285C174.038 90.6845 174.912 88.2383 174.912 88.2383Z" fill="#F0F6FF"/>
<path d="M174.912 88.2383C174.912 88.2383 174.038 90.6845 176.31 94.3538C178.057 97.1495 187.143 99.5957 191.511 100.469C191.511 100.469 189.938 101.343 187.143 105.886C181.027 102.741 173.689 98.8967 172.116 96.1011C169.496 91.5581 174.912 88.2383 174.912 88.2383Z" fill="#C4CCD6"/>
<path d="M171.243 103.09C171.243 103.09 179.979 107.982 184.347 110.254C188.716 112.525 193.433 115.496 193.433 115.496L195.006 113.923L196.927 118.117C196.927 118.117 203.742 122.135 206.887 125.455C210.032 128.775 212.478 133.143 212.827 134.192C212.827 134.192 204.441 123.358 197.626 120.213L195.879 119.34L194.831 116.02L193.258 117.767C193.258 117.592 174.039 106.06 171.243 103.09Z" fill="#292930"/>
<path d="M193.957 249.336C194.307 248.637 194.656 247.938 195.18 247.414L231.523 217.71C232.396 217.011 233.445 217.535 233.619 219.108L237.813 253.704C237.987 255.277 237.288 257.199 236.415 258.072L206.013 283.758L207.061 293.717L197.976 289.698C197.626 289.524 197.277 288.825 197.102 287.951L193.782 251.782C193.608 251.083 193.782 250.21 193.957 249.336Z" fill="#777777"/>
<path d="M241.307 221.205L232.746 217.536L232.396 217.361C232.047 217.361 231.697 217.361 231.348 217.711L195.005 247.415C194.481 247.764 194.132 248.463 193.782 249.337L195.005 250.036L202.344 253.53L234.493 226.971L241.307 221.205Z" fill="#40404C"/>
<path d="M245.326 262.091L208.285 293.717C207.236 294.59 206.363 293.891 206.188 292.319L202.519 255.975C202.344 254.403 203.043 252.481 204.091 251.607L240.259 221.728C241.133 220.855 242.181 221.554 242.356 223.126L246.899 257.897C246.899 259.295 246.374 261.217 245.326 262.091Z" fill="#292930"/>
<path d="M201.47 290.05L197.976 253.706C197.801 252.133 198.5 250.211 199.548 249.338L235.716 219.459C236.066 219.284 236.24 219.11 236.59 219.11C236.24 218.935 235.891 219.11 235.367 219.459L199.199 249.338C198.151 250.211 197.452 252.133 197.626 253.706L201.121 290.05C201.296 291.273 201.645 291.972 202.344 291.972C201.82 291.622 201.47 290.923 201.47 290.05Z" fill="#292930"/>
<path d="M214.749 236.582L212.827 235.708C212.478 235.533 211.954 235.359 211.604 235.533H211.43C211.255 235.533 211.08 235.708 211.255 236.058V236.407L216.671 239.028V238.678C216.671 238.329 216.497 238.154 216.322 237.805L216.147 237.63C215.623 237.106 215.099 236.756 214.749 236.582Z" fill="#292930"/>
<path d="M214.05 241.125L216.671 239.028L211.255 235.533L208.809 237.63L214.05 241.125Z" fill="#292930"/>
<path d="M212.128 238.677L210.206 237.804C209.857 237.629 209.333 237.454 208.983 237.629H208.809C208.634 237.629 208.459 237.804 208.634 238.153V238.503L214.05 241.124V240.774C214.05 240.425 213.876 240.25 213.701 239.9L213.526 239.726C213.002 239.202 212.653 238.852 212.128 238.677Z" fill="#777777"/>
<path d="M211.08 239.551L210.905 237.979L211.08 238.153L211.255 239.726L211.08 239.551Z" fill="#722318"/>
<path d="M210.905 237.981L213.526 236.059H213.701L211.08 238.155L210.905 237.981Z" fill="#722318"/>
<path d="M226.281 227.146L224.359 226.273C224.009 226.098 223.485 225.923 223.136 226.098H222.961C222.786 226.098 222.612 226.272 222.786 226.622V226.971L228.028 229.592V229.243C228.028 228.893 227.853 228.719 227.679 228.369L227.504 228.195C227.154 227.67 226.63 227.321 226.281 227.146Z" fill="#292930"/>
<path d="M225.582 231.514L228.202 229.418L222.786 226.098L220.34 228.194L225.582 231.514Z" fill="#292930"/>
<path d="M223.66 229.242L221.738 228.368C221.388 228.193 220.864 228.019 220.515 228.193H220.34C220.165 228.193 219.99 228.368 220.165 228.718V229.067L225.582 231.688V231.339C225.582 230.989 225.407 230.814 225.232 230.465L225.057 230.29C224.533 229.766 224.184 229.417 223.66 229.242Z" fill="#777777"/>
<path d="M222.611 230.116L222.437 228.543L222.611 228.718L222.786 230.116H222.611Z" fill="#722318"/>
<path d="M222.437 228.544L225.057 226.447L225.232 226.622L222.611 228.719L222.437 228.544Z" fill="#722318"/>
<path d="M209.857 230.815L210.556 237.28L212.303 235.882L211.604 229.592C211.429 228.718 211.954 227.495 212.652 226.971L219.991 220.856C220.69 220.331 221.214 220.681 221.389 221.555L222.088 227.845L223.835 226.447L223.136 220.157C222.961 218.235 221.563 217.536 220.166 218.759L212.303 225.224C210.73 226.097 209.682 228.718 209.857 230.815Z" fill="#40404C"/>
<path d="M222.612 220.506L219.641 220.156L210.905 228.194L210.556 233.086L210.73 237.28L212.652 238.328V233.261L212.827 229.766L214.574 227.145L217.894 224.524C217.894 224.175 222.612 220.506 222.612 220.506Z" fill="#40404C"/>
<g filter="url(#filter0_d)">
<path d="M224.01 228.72L222.088 227.847L221.563 223.129L223.485 223.304L224.01 223.478V228.72Z" fill="#40404C"/>
</g>
<path d="M224.01 219.109L221.913 218.061L222.437 219.109L223.136 219.284C223.136 219.458 224.01 219.109 224.01 219.109Z" fill="#40404C"/>
<path d="M211.779 231.689L212.478 238.154L214.225 236.756L213.526 230.466C213.351 229.592 213.875 228.369 214.574 227.845L221.913 221.73C222.612 221.205 223.136 221.555 223.31 222.428L224.009 228.719L225.757 227.321L225.058 220.856C224.883 218.934 223.485 218.235 222.087 219.458L214.225 225.923C212.652 227.146 211.604 229.767 211.779 231.689Z" fill="#292930"/>
<path d="M219.99 215.441C219.99 215.441 221.213 221.732 220.864 223.304C220.514 224.877 217.369 228.022 215.622 228.546C213.7 229.07 214.574 226.973 214.05 225.576C213.7 224.178 213.7 221.207 213.7 221.207L219.99 215.441Z" fill="#FCD1C5"/>
<path d="M213.876 221.207L220.166 215.441C220.166 215.441 220.34 216.665 220.69 218.237C220.69 218.237 218.419 222.955 214.05 224.877C213.701 223.479 213.876 221.207 213.876 221.207Z" fill="#E2B1A6"/>
<path d="M220.515 215.964C220.515 215.964 218.243 222.779 212.652 223.478L214.574 215.964C214.574 215.964 219.292 214.741 219.467 214.566C219.641 214.566 220.515 215.964 220.515 215.964Z" fill="#292930"/>
<path d="M184.172 135.939C178.93 151.316 192.035 175.253 193.782 182.243C195.704 189.232 215.448 221.906 215.448 221.906C215.622 222.081 215.622 222.256 215.622 222.256C215.273 222.605 214.749 222.954 214.399 223.129C213.875 223.304 214.05 223.304 213.526 223.479C213.176 223.479 212.652 223.479 212.477 222.954C207.934 216.839 195.005 191.678 194.656 190.63C194.306 189.407 186.094 169.313 183.997 164.77C182.075 161.275 176.659 144.152 184.172 135.939Z" fill="#292930"/>
</g>
<defs>
<filter id="filter0_d" x="217.563" y="223.129" width="10.4461" height="13.5913" filterUnits="userSpaceOnUse" color-interpolation-filters="sRGB">
<feFlood flood-opacity="0" result="BackgroundImageFix"/>
<feColorMatrix in="SourceAlpha" type="matrix" values="0 0 0 0 0 0 0 0 0 0 0 0 0 0 0 0 0 0 127 0"/>
<feOffset dy="4"/>
<feGaussianBlur stdDeviation="2"/>
<feColorMatrix type="matrix" values="0 0 0 0 0 0 0 0 0 0 0 0 0 0 0 0 0 0 0.25 0"/>
<feBlend mode="normal" in2="BackgroundImageFix" result="effect1_dropShadow"/>
<feBlend mode="normal" in="SourceGraphic" in2="effect1_dropShadow" result="shape"/>
</filter>
<clipPath id="clip0">
<rect x="72" width="300" height="419" fill="white"/>
</clipPath>
</defs>
</svg>
