<svg width="40" height="40" viewBox="0 0 40 40" fill="none" xmlns="http://www.w3.org/2000/svg">
<path d="M39.7723 35.3306L30.6463 26.1718L36.1051 24.3393C36.4238 24.2323 36.6383 23.9334 36.6375 23.5971C36.6367 23.2609 36.421 22.9629 36.1019 22.8573L17.8429 16.8149C17.5627 16.7222 17.254 16.7955 17.0452 17.0041C16.8364 17.2128 16.7632 17.5215 16.856 17.8018L22.8984 36.0601C23.0041 36.3793 23.302 36.5951 23.6382 36.5958C23.6388 36.5958 23.6393 36.5958 23.6399 36.5958C23.9754 36.5958 24.2735 36.3815 24.3803 36.0633L26.2113 30.61L35.3345 39.7653C35.481 39.9122 35.6797 39.9948 35.887 39.995C35.8873 39.995 35.8874 39.995 35.8877 39.995C36.0948 39.995 36.2935 39.9126 36.44 39.7662L39.7713 36.4341C40.0759 36.1295 40.0763 35.6358 39.7723 35.3306ZM35.8887 38.1083L26.4262 28.6126C26.2779 28.4638 26.0781 28.3829 25.873 28.3829C25.8138 28.3829 25.754 28.3896 25.6951 28.4035C25.4316 28.4652 25.2187 28.6589 25.1326 28.9154L23.6452 33.345L18.8271 18.7862L33.3864 23.6043L28.9563 25.0916C28.7002 25.1777 28.5066 25.3898 28.4447 25.6528C28.3827 25.9157 28.4609 26.192 28.6516 26.3834L38.1154 35.8812L35.8887 38.1083Z" fill="#40404C"/>
<path d="M11.4873 5.70135C11.1823 5.39643 10.6877 5.39643 10.3826 5.70135L7.02965 9.0544L5.23871 7.26361C4.93371 6.95869 4.4391 6.95869 4.13402 7.26361C3.82902 7.56861 3.82902 8.06322 4.13402 8.3683L6.47731 10.7114C6.62989 10.8639 6.82973 10.9402 7.02958 10.9402C7.22942 10.9402 7.42942 10.8639 7.58184 10.7114L11.4872 6.80611C11.7923 6.50104 11.7923 6.00643 11.4873 5.70135Z" fill="#3559FD"/>
<path d="M7.81072 0.00390625C3.50383 0.00390625 0 3.50766 0 7.81455C0 12.1214 3.50383 15.6253 7.81072 15.6253C12.1176 15.6253 15.6214 12.1214 15.6214 7.81455C15.6214 3.50766 12.1175 0.00390625 7.81072 0.00390625ZM7.81072 14.0631C4.36524 14.0631 1.56219 11.2599 1.56219 7.81455C1.56219 4.36915 4.36532 1.56602 7.81072 1.56602C11.2561 1.56602 14.0592 4.36915 14.0592 7.81455C14.0592 11.2599 11.2561 14.0631 7.81072 14.0631Z" fill="#40404C"/>
<path d="M32.1799 0.00390625C27.8731 0.00390625 24.3691 3.50766 24.3691 7.81463C24.3691 12.1216 27.873 15.6253 32.1799 15.6253C36.4867 15.6253 39.9906 12.1215 39.9906 7.81463C39.9906 3.50774 36.4867 0.00390625 32.1799 0.00390625ZM32.1799 14.0631C28.7344 14.0631 25.9313 11.2599 25.9313 7.81455C25.9313 4.36915 28.7345 1.56602 32.1799 1.56602C35.6253 1.56602 38.4284 4.36915 38.4284 7.81455C38.4284 11.2599 35.6253 14.0631 32.1799 14.0631Z" fill="#40404C"/>
<path d="M35.0755 9.60659L33.2846 7.81565L35.0755 6.02471C35.3805 5.71971 35.3805 5.2251 35.0755 4.9201C34.7705 4.61518 34.2759 4.61518 33.9708 4.9201L32.18 6.71096L30.3891 4.9201C30.0841 4.61518 29.5895 4.61518 29.2844 4.9201C28.9794 5.2251 28.9794 5.71971 29.2844 6.02479L31.0754 7.81573L29.2844 9.60659C28.9794 9.91159 28.9794 10.4062 29.2844 10.7113C29.437 10.8638 29.6368 10.94 29.8367 10.94C30.0365 10.94 30.2365 10.8637 30.3889 10.7113L32.18 8.92034L33.9709 10.7113C34.1235 10.8638 34.3233 10.94 34.5232 10.94C34.723 10.94 34.923 10.8637 35.0754 10.7113C35.3805 10.4062 35.3805 9.91167 35.0755 9.60659Z" fill="#E34A02"/>
</svg>
