<svg width="1920" height="121" viewBox="0 0 1920 121" fill="none" xmlns="http://www.w3.org/2000/svg">
<rect width="1920" height="121" fill="#292930"/>
<mask id="mask0" mask-type="alpha" maskUnits="userSpaceOnUse" x="0" y="0" width="1920" height="121">
<rect width="1920" height="121" fill="white"/>
</mask>
<g mask="url(#mask0)">
<path opacity="0.05" d="M1061.46 17.8V85H1048.98V28.264H1034.77V17.8H1061.46ZM1102.82 85.96C1097.44 85.96 1092.64 84.616 1088.42 81.928C1084.19 79.176 1080.87 75.208 1078.43 70.024C1076 64.776 1074.79 58.568 1074.79 51.4C1074.79 44.232 1076 38.056 1078.43 32.872C1080.87 27.624 1084.19 23.656 1088.42 20.968C1092.64 18.216 1097.44 16.84 1102.82 16.84C1108.19 16.84 1112.99 18.216 1117.22 20.968C1121.51 23.656 1124.87 27.624 1127.3 32.872C1129.73 38.056 1130.95 44.232 1130.95 51.4C1130.95 58.568 1129.73 64.776 1127.3 70.024C1124.87 75.208 1121.51 79.176 1117.22 81.928C1112.99 84.616 1108.19 85.96 1102.82 85.96ZM1102.82 75.112C1107.62 75.112 1111.39 73.128 1114.15 69.16C1116.96 65.192 1118.37 59.272 1118.37 51.4C1118.37 43.528 1116.96 37.608 1114.15 33.64C1111.39 29.672 1107.62 27.688 1102.82 27.688C1098.08 27.688 1094.31 29.672 1091.49 33.64C1088.74 37.608 1087.36 43.528 1087.36 51.4C1087.36 59.272 1088.74 65.192 1091.49 69.16C1094.31 73.128 1098.08 75.112 1102.82 75.112Z" fill="white"/>
<path opacity="0.05" d="M1077.63 97.184V110H1074.63V99.728H1069.83L1069.71 102.272C1069.63 103.968 1069.47 105.392 1069.23 106.544C1069.01 107.68 1068.62 108.584 1068.06 109.256C1067.51 109.912 1066.76 110.24 1065.8 110.24C1065.35 110.24 1064.8 110.152 1064.14 109.976L1064.29 107.456C1064.51 107.504 1064.7 107.528 1064.86 107.528C1065.47 107.528 1065.93 107.288 1066.23 106.808C1066.54 106.312 1066.73 105.728 1066.81 105.056C1066.9 104.368 1066.98 103.392 1067.05 102.128L1067.26 97.184H1077.63ZM1093.67 103.664C1093.67 103.872 1093.66 104.168 1093.62 104.552H1083.57C1083.74 105.496 1084.2 106.248 1084.94 106.808C1085.69 107.352 1086.62 107.624 1087.72 107.624C1089.13 107.624 1090.29 107.16 1091.2 106.232L1092.81 108.08C1092.23 108.768 1091.5 109.288 1090.62 109.64C1089.74 109.992 1088.75 110.168 1087.65 110.168C1086.24 110.168 1085 109.888 1083.93 109.328C1082.86 108.768 1082.02 107.992 1081.43 107C1080.86 105.992 1080.57 104.856 1080.57 103.592C1080.57 102.344 1080.85 101.224 1081.41 100.232C1081.98 99.224 1082.78 98.44 1083.78 97.88C1084.79 97.32 1085.93 97.04 1087.19 97.04C1088.44 97.04 1089.55 97.32 1090.53 97.88C1091.52 98.424 1092.29 99.2 1092.83 100.208C1093.39 101.2 1093.67 102.352 1093.67 103.664ZM1087.19 99.44C1086.23 99.44 1085.42 99.728 1084.74 100.304C1084.09 100.864 1083.69 101.616 1083.54 102.56H1090.82C1090.69 101.632 1090.3 100.88 1089.64 100.304C1088.98 99.728 1088.17 99.44 1087.19 99.44ZM1106.64 99.728H1102.15V110H1099.15V99.728H1094.64V97.184H1106.64V99.728Z" fill="white"/>
<path opacity="0.1" d="M1173.46 17.8V85H1160.98V28.264H1146.77V17.8H1173.46ZM1214.82 85.96C1209.44 85.96 1204.64 84.616 1200.42 81.928C1196.19 79.176 1192.87 75.208 1190.43 70.024C1188 64.776 1186.79 58.568 1186.79 51.4C1186.79 44.232 1188 38.056 1190.43 32.872C1192.87 27.624 1196.19 23.656 1200.42 20.968C1204.64 18.216 1209.44 16.84 1214.82 16.84C1220.19 16.84 1224.99 18.216 1229.22 20.968C1233.51 23.656 1236.87 27.624 1239.3 32.872C1241.73 38.056 1242.95 44.232 1242.95 51.4C1242.95 58.568 1241.73 64.776 1239.3 70.024C1236.87 75.208 1233.51 79.176 1229.22 81.928C1224.99 84.616 1220.19 85.96 1214.82 85.96ZM1214.82 75.112C1219.62 75.112 1223.39 73.128 1226.15 69.16C1228.96 65.192 1230.37 59.272 1230.37 51.4C1230.37 43.528 1228.96 37.608 1226.15 33.64C1223.39 29.672 1219.62 27.688 1214.82 27.688C1210.08 27.688 1206.31 29.672 1203.49 33.64C1200.74 37.608 1199.36 43.528 1199.36 51.4C1199.36 59.272 1200.74 65.192 1203.49 69.16C1206.31 73.128 1210.08 75.112 1214.82 75.112Z" fill="white"/>
<path opacity="0.1" d="M1189.63 97.184V110H1186.63V99.728H1181.83L1181.71 102.272C1181.63 103.968 1181.47 105.392 1181.23 106.544C1181.01 107.68 1180.62 108.584 1180.06 109.256C1179.51 109.912 1178.76 110.24 1177.8 110.24C1177.35 110.24 1176.8 110.152 1176.14 109.976L1176.29 107.456C1176.51 107.504 1176.7 107.528 1176.86 107.528C1177.47 107.528 1177.93 107.288 1178.23 106.808C1178.54 106.312 1178.73 105.728 1178.81 105.056C1178.9 104.368 1178.98 103.392 1179.05 102.128L1179.26 97.184H1189.63ZM1205.67 103.664C1205.67 103.872 1205.66 104.168 1205.62 104.552H1195.57C1195.74 105.496 1196.2 106.248 1196.94 106.808C1197.69 107.352 1198.62 107.624 1199.72 107.624C1201.13 107.624 1202.29 107.16 1203.2 106.232L1204.81 108.08C1204.23 108.768 1203.5 109.288 1202.62 109.64C1201.74 109.992 1200.75 110.168 1199.65 110.168C1198.24 110.168 1197 109.888 1195.93 109.328C1194.86 108.768 1194.02 107.992 1193.43 107C1192.86 105.992 1192.57 104.856 1192.57 103.592C1192.57 102.344 1192.85 101.224 1193.41 100.232C1193.98 99.224 1194.78 98.44 1195.78 97.88C1196.79 97.32 1197.93 97.04 1199.19 97.04C1200.44 97.04 1201.55 97.32 1202.53 97.88C1203.52 98.424 1204.29 99.2 1204.83 100.208C1205.39 101.2 1205.67 102.352 1205.67 103.664ZM1199.19 99.44C1198.23 99.44 1197.42 99.728 1196.74 100.304C1196.09 100.864 1195.69 101.616 1195.54 102.56H1202.82C1202.69 101.632 1202.3 100.88 1201.64 100.304C1200.98 99.728 1200.17 99.44 1199.19 99.44ZM1218.64 99.728H1214.15V110H1211.15V99.728H1206.64V97.184H1218.64V99.728Z" fill="white"/>
<path opacity="0.15" d="M1285.46 17.8V85H1272.98V28.264H1258.77V17.8H1285.46ZM1326.82 85.96C1321.44 85.96 1316.64 84.616 1312.42 81.928C1308.19 79.176 1304.87 75.208 1302.43 70.024C1300 64.776 1298.79 58.568 1298.79 51.4C1298.79 44.232 1300 38.056 1302.43 32.872C1304.87 27.624 1308.19 23.656 1312.42 20.968C1316.64 18.216 1321.44 16.84 1326.82 16.84C1332.19 16.84 1336.99 18.216 1341.22 20.968C1345.51 23.656 1348.87 27.624 1351.3 32.872C1353.73 38.056 1354.95 44.232 1354.95 51.4C1354.95 58.568 1353.73 64.776 1351.3 70.024C1348.87 75.208 1345.51 79.176 1341.22 81.928C1336.99 84.616 1332.19 85.96 1326.82 85.96ZM1326.82 75.112C1331.62 75.112 1335.39 73.128 1338.15 69.16C1340.96 65.192 1342.37 59.272 1342.37 51.4C1342.37 43.528 1340.96 37.608 1338.15 33.64C1335.39 29.672 1331.62 27.688 1326.82 27.688C1322.08 27.688 1318.31 29.672 1315.49 33.64C1312.74 37.608 1311.36 43.528 1311.36 51.4C1311.36 59.272 1312.74 65.192 1315.49 69.16C1318.31 73.128 1322.08 75.112 1326.82 75.112Z" fill="white"/>
<path opacity="0.15" d="M1301.63 97.184V110H1298.63V99.728H1293.83L1293.71 102.272C1293.63 103.968 1293.47 105.392 1293.23 106.544C1293.01 107.68 1292.62 108.584 1292.06 109.256C1291.51 109.912 1290.76 110.24 1289.8 110.24C1289.35 110.24 1288.8 110.152 1288.14 109.976L1288.29 107.456C1288.51 107.504 1288.7 107.528 1288.86 107.528C1289.47 107.528 1289.93 107.288 1290.23 106.808C1290.54 106.312 1290.73 105.728 1290.81 105.056C1290.9 104.368 1290.98 103.392 1291.05 102.128L1291.26 97.184H1301.63ZM1317.67 103.664C1317.67 103.872 1317.66 104.168 1317.62 104.552H1307.57C1307.74 105.496 1308.2 106.248 1308.94 106.808C1309.69 107.352 1310.62 107.624 1311.72 107.624C1313.13 107.624 1314.29 107.16 1315.2 106.232L1316.81 108.08C1316.23 108.768 1315.5 109.288 1314.62 109.64C1313.74 109.992 1312.75 110.168 1311.65 110.168C1310.24 110.168 1309 109.888 1307.93 109.328C1306.86 108.768 1306.02 107.992 1305.43 107C1304.86 105.992 1304.57 104.856 1304.57 103.592C1304.57 102.344 1304.85 101.224 1305.41 100.232C1305.98 99.224 1306.78 98.44 1307.78 97.88C1308.79 97.32 1309.93 97.04 1311.19 97.04C1312.44 97.04 1313.55 97.32 1314.53 97.88C1315.52 98.424 1316.29 99.2 1316.83 100.208C1317.39 101.2 1317.67 102.352 1317.67 103.664ZM1311.19 99.44C1310.23 99.44 1309.42 99.728 1308.74 100.304C1308.09 100.864 1307.69 101.616 1307.54 102.56H1314.82C1314.69 101.632 1314.3 100.88 1313.64 100.304C1312.98 99.728 1312.17 99.44 1311.19 99.44ZM1330.64 99.728H1326.15V110H1323.15V99.728H1318.64V97.184H1330.64V99.728Z" fill="white"/>
<path opacity="0.2" d="M1397.46 17.8V85H1384.98V28.264H1370.77V17.8H1397.46ZM1438.82 85.96C1433.44 85.96 1428.64 84.616 1424.42 81.928C1420.19 79.176 1416.87 75.208 1414.43 70.024C1412 64.776 1410.79 58.568 1410.79 51.4C1410.79 44.232 1412 38.056 1414.43 32.872C1416.87 27.624 1420.19 23.656 1424.42 20.968C1428.64 18.216 1433.44 16.84 1438.82 16.84C1444.19 16.84 1448.99 18.216 1453.22 20.968C1457.51 23.656 1460.87 27.624 1463.3 32.872C1465.73 38.056 1466.95 44.232 1466.95 51.4C1466.95 58.568 1465.73 64.776 1463.3 70.024C1460.87 75.208 1457.51 79.176 1453.22 81.928C1448.99 84.616 1444.19 85.96 1438.82 85.96ZM1438.82 75.112C1443.62 75.112 1447.39 73.128 1450.15 69.16C1452.96 65.192 1454.37 59.272 1454.37 51.4C1454.37 43.528 1452.96 37.608 1450.15 33.64C1447.39 29.672 1443.62 27.688 1438.82 27.688C1434.08 27.688 1430.31 29.672 1427.49 33.64C1424.74 37.608 1423.36 43.528 1423.36 51.4C1423.36 59.272 1424.74 65.192 1427.49 69.16C1430.31 73.128 1434.08 75.112 1438.82 75.112Z" fill="white"/>
<path opacity="0.2" d="M1413.63 97.184V110H1410.63V99.728H1405.83L1405.71 102.272C1405.63 103.968 1405.47 105.392 1405.23 106.544C1405.01 107.68 1404.62 108.584 1404.06 109.256C1403.51 109.912 1402.76 110.24 1401.8 110.24C1401.35 110.24 1400.8 110.152 1400.14 109.976L1400.29 107.456C1400.51 107.504 1400.7 107.528 1400.86 107.528C1401.47 107.528 1401.93 107.288 1402.23 106.808C1402.54 106.312 1402.73 105.728 1402.81 105.056C1402.9 104.368 1402.98 103.392 1403.05 102.128L1403.26 97.184H1413.63ZM1429.67 103.664C1429.67 103.872 1429.66 104.168 1429.62 104.552H1419.57C1419.74 105.496 1420.2 106.248 1420.94 106.808C1421.69 107.352 1422.62 107.624 1423.72 107.624C1425.13 107.624 1426.29 107.16 1427.2 106.232L1428.81 108.08C1428.23 108.768 1427.5 109.288 1426.62 109.64C1425.74 109.992 1424.75 110.168 1423.65 110.168C1422.24 110.168 1421 109.888 1419.93 109.328C1418.86 108.768 1418.02 107.992 1417.43 107C1416.86 105.992 1416.57 104.856 1416.57 103.592C1416.57 102.344 1416.85 101.224 1417.41 100.232C1417.98 99.224 1418.78 98.44 1419.78 97.88C1420.79 97.32 1421.93 97.04 1423.19 97.04C1424.44 97.04 1425.55 97.32 1426.53 97.88C1427.52 98.424 1428.29 99.2 1428.83 100.208C1429.39 101.2 1429.67 102.352 1429.67 103.664ZM1423.19 99.44C1422.23 99.44 1421.42 99.728 1420.74 100.304C1420.09 100.864 1419.69 101.616 1419.54 102.56H1426.82C1426.69 101.632 1426.3 100.88 1425.64 100.304C1424.98 99.728 1424.17 99.44 1423.19 99.44ZM1442.64 99.728H1438.15V110H1435.15V99.728H1430.64V97.184H1442.64V99.728Z" fill="white"/>
<path opacity="0.25" d="M1509.46 17.8V85H1496.98V28.264H1482.77V17.8H1509.46ZM1550.82 85.96C1545.44 85.96 1540.64 84.616 1536.42 81.928C1532.19 79.176 1528.87 75.208 1526.43 70.024C1524 64.776 1522.79 58.568 1522.79 51.4C1522.79 44.232 1524 38.056 1526.43 32.872C1528.87 27.624 1532.19 23.656 1536.42 20.968C1540.64 18.216 1545.44 16.84 1550.82 16.84C1556.19 16.84 1560.99 18.216 1565.22 20.968C1569.51 23.656 1572.87 27.624 1575.3 32.872C1577.73 38.056 1578.95 44.232 1578.95 51.4C1578.95 58.568 1577.73 64.776 1575.3 70.024C1572.87 75.208 1569.51 79.176 1565.22 81.928C1560.99 84.616 1556.19 85.96 1550.82 85.96ZM1550.82 75.112C1555.62 75.112 1559.39 73.128 1562.15 69.16C1564.96 65.192 1566.37 59.272 1566.37 51.4C1566.37 43.528 1564.96 37.608 1562.15 33.64C1559.39 29.672 1555.62 27.688 1550.82 27.688C1546.08 27.688 1542.31 29.672 1539.49 33.64C1536.74 37.608 1535.36 43.528 1535.36 51.4C1535.36 59.272 1536.74 65.192 1539.49 69.16C1542.31 73.128 1546.08 75.112 1550.82 75.112Z" fill="white"/>
<path opacity="0.25" d="M1525.63 97.184V110H1522.63V99.728H1517.83L1517.71 102.272C1517.63 103.968 1517.47 105.392 1517.23 106.544C1517.01 107.68 1516.62 108.584 1516.06 109.256C1515.51 109.912 1514.76 110.24 1513.8 110.24C1513.35 110.24 1512.8 110.152 1512.14 109.976L1512.29 107.456C1512.51 107.504 1512.7 107.528 1512.86 107.528C1513.47 107.528 1513.93 107.288 1514.23 106.808C1514.54 106.312 1514.73 105.728 1514.81 105.056C1514.9 104.368 1514.98 103.392 1515.05 102.128L1515.26 97.184H1525.63ZM1541.67 103.664C1541.67 103.872 1541.66 104.168 1541.62 104.552H1531.57C1531.74 105.496 1532.2 106.248 1532.94 106.808C1533.69 107.352 1534.62 107.624 1535.72 107.624C1537.13 107.624 1538.29 107.16 1539.2 106.232L1540.81 108.08C1540.23 108.768 1539.5 109.288 1538.62 109.64C1537.74 109.992 1536.75 110.168 1535.65 110.168C1534.24 110.168 1533 109.888 1531.93 109.328C1530.86 108.768 1530.02 107.992 1529.43 107C1528.86 105.992 1528.57 104.856 1528.57 103.592C1528.57 102.344 1528.85 101.224 1529.41 100.232C1529.98 99.224 1530.78 98.44 1531.78 97.88C1532.79 97.32 1533.93 97.04 1535.19 97.04C1536.44 97.04 1537.55 97.32 1538.53 97.88C1539.52 98.424 1540.29 99.2 1540.83 100.208C1541.39 101.2 1541.67 102.352 1541.67 103.664ZM1535.19 99.44C1534.23 99.44 1533.42 99.728 1532.74 100.304C1532.09 100.864 1531.69 101.616 1531.54 102.56H1538.82C1538.69 101.632 1538.3 100.88 1537.64 100.304C1536.98 99.728 1536.17 99.44 1535.19 99.44ZM1554.64 99.728H1550.15V110H1547.15V99.728H1542.64V97.184H1554.64V99.728Z" fill="white"/>
<path opacity="0.3" d="M1621.46 17.8V85H1608.98V28.264H1594.77V17.8H1621.46ZM1662.82 85.96C1657.44 85.96 1652.64 84.616 1648.42 81.928C1644.19 79.176 1640.87 75.208 1638.43 70.024C1636 64.776 1634.79 58.568 1634.79 51.4C1634.79 44.232 1636 38.056 1638.43 32.872C1640.87 27.624 1644.19 23.656 1648.42 20.968C1652.64 18.216 1657.44 16.84 1662.82 16.84C1668.19 16.84 1672.99 18.216 1677.22 20.968C1681.51 23.656 1684.87 27.624 1687.3 32.872C1689.73 38.056 1690.95 44.232 1690.95 51.4C1690.95 58.568 1689.73 64.776 1687.3 70.024C1684.87 75.208 1681.51 79.176 1677.22 81.928C1672.99 84.616 1668.19 85.96 1662.82 85.96ZM1662.82 75.112C1667.62 75.112 1671.39 73.128 1674.15 69.16C1676.96 65.192 1678.37 59.272 1678.37 51.4C1678.37 43.528 1676.96 37.608 1674.15 33.64C1671.39 29.672 1667.62 27.688 1662.82 27.688C1658.08 27.688 1654.31 29.672 1651.49 33.64C1648.74 37.608 1647.36 43.528 1647.36 51.4C1647.36 59.272 1648.74 65.192 1651.49 69.16C1654.31 73.128 1658.08 75.112 1662.82 75.112Z" fill="white"/>
<path opacity="0.3" d="M1637.63 97.184V110H1634.63V99.728H1629.83L1629.71 102.272C1629.63 103.968 1629.47 105.392 1629.23 106.544C1629.01 107.68 1628.62 108.584 1628.06 109.256C1627.51 109.912 1626.76 110.24 1625.8 110.24C1625.35 110.24 1624.8 110.152 1624.14 109.976L1624.29 107.456C1624.51 107.504 1624.7 107.528 1624.86 107.528C1625.47 107.528 1625.93 107.288 1626.23 106.808C1626.54 106.312 1626.73 105.728 1626.81 105.056C1626.9 104.368 1626.98 103.392 1627.05 102.128L1627.26 97.184H1637.63ZM1653.67 103.664C1653.67 103.872 1653.66 104.168 1653.62 104.552H1643.57C1643.74 105.496 1644.2 106.248 1644.94 106.808C1645.69 107.352 1646.62 107.624 1647.72 107.624C1649.13 107.624 1650.29 107.16 1651.2 106.232L1652.81 108.08C1652.23 108.768 1651.5 109.288 1650.62 109.64C1649.74 109.992 1648.75 110.168 1647.65 110.168C1646.24 110.168 1645 109.888 1643.93 109.328C1642.86 108.768 1642.02 107.992 1641.43 107C1640.86 105.992 1640.57 104.856 1640.57 103.592C1640.57 102.344 1640.85 101.224 1641.41 100.232C1641.98 99.224 1642.78 98.44 1643.78 97.88C1644.79 97.32 1645.93 97.04 1647.19 97.04C1648.44 97.04 1649.55 97.32 1650.53 97.88C1651.52 98.424 1652.29 99.2 1652.83 100.208C1653.39 101.2 1653.67 102.352 1653.67 103.664ZM1647.19 99.44C1646.23 99.44 1645.42 99.728 1644.74 100.304C1644.09 100.864 1643.69 101.616 1643.54 102.56H1650.82C1650.69 101.632 1650.3 100.88 1649.64 100.304C1648.98 99.728 1648.17 99.44 1647.19 99.44ZM1666.64 99.728H1662.15V110H1659.15V99.728H1654.64V97.184H1666.64V99.728Z" fill="white"/>
<path opacity="0.35" d="M1733.46 17.8V85H1720.98V28.264H1706.77V17.8H1733.46ZM1774.82 85.96C1769.44 85.96 1764.64 84.616 1760.42 81.928C1756.19 79.176 1752.87 75.208 1750.43 70.024C1748 64.776 1746.79 58.568 1746.79 51.4C1746.79 44.232 1748 38.056 1750.43 32.872C1752.87 27.624 1756.19 23.656 1760.42 20.968C1764.64 18.216 1769.44 16.84 1774.82 16.84C1780.19 16.84 1784.99 18.216 1789.22 20.968C1793.51 23.656 1796.87 27.624 1799.3 32.872C1801.73 38.056 1802.95 44.232 1802.95 51.4C1802.95 58.568 1801.73 64.776 1799.3 70.024C1796.87 75.208 1793.51 79.176 1789.22 81.928C1784.99 84.616 1780.19 85.96 1774.82 85.96ZM1774.82 75.112C1779.62 75.112 1783.39 73.128 1786.15 69.16C1788.96 65.192 1790.37 59.272 1790.37 51.4C1790.37 43.528 1788.96 37.608 1786.15 33.64C1783.39 29.672 1779.62 27.688 1774.82 27.688C1770.08 27.688 1766.31 29.672 1763.49 33.64C1760.74 37.608 1759.36 43.528 1759.36 51.4C1759.36 59.272 1760.74 65.192 1763.49 69.16C1766.31 73.128 1770.08 75.112 1774.82 75.112Z" fill="white"/>
<path opacity="0.35" d="M1749.63 97.184V110H1746.63V99.728H1741.83L1741.71 102.272C1741.63 103.968 1741.47 105.392 1741.23 106.544C1741.01 107.68 1740.62 108.584 1740.06 109.256C1739.51 109.912 1738.76 110.24 1737.8 110.24C1737.35 110.24 1736.8 110.152 1736.14 109.976L1736.29 107.456C1736.51 107.504 1736.7 107.528 1736.86 107.528C1737.47 107.528 1737.93 107.288 1738.23 106.808C1738.54 106.312 1738.73 105.728 1738.81 105.056C1738.9 104.368 1738.98 103.392 1739.05 102.128L1739.26 97.184H1749.63ZM1765.67 103.664C1765.67 103.872 1765.66 104.168 1765.62 104.552H1755.57C1755.74 105.496 1756.2 106.248 1756.94 106.808C1757.69 107.352 1758.62 107.624 1759.72 107.624C1761.13 107.624 1762.29 107.16 1763.2 106.232L1764.81 108.08C1764.23 108.768 1763.5 109.288 1762.62 109.64C1761.74 109.992 1760.75 110.168 1759.65 110.168C1758.24 110.168 1757 109.888 1755.93 109.328C1754.86 108.768 1754.02 107.992 1753.43 107C1752.86 105.992 1752.57 104.856 1752.57 103.592C1752.57 102.344 1752.85 101.224 1753.41 100.232C1753.98 99.224 1754.78 98.44 1755.78 97.88C1756.79 97.32 1757.93 97.04 1759.19 97.04C1760.44 97.04 1761.55 97.32 1762.53 97.88C1763.52 98.424 1764.29 99.2 1764.83 100.208C1765.39 101.2 1765.67 102.352 1765.67 103.664ZM1759.19 99.44C1758.23 99.44 1757.42 99.728 1756.74 100.304C1756.09 100.864 1755.69 101.616 1755.54 102.56H1762.82C1762.69 101.632 1762.3 100.88 1761.64 100.304C1760.98 99.728 1760.17 99.44 1759.19 99.44ZM1778.64 99.728H1774.15V110H1771.15V99.728H1766.64V97.184H1778.64V99.728Z" fill="white"/>
<path opacity="0.4" d="M1845.46 17.8V85H1832.98V28.264H1818.77V17.8H1845.46ZM1886.82 85.96C1881.44 85.96 1876.64 84.616 1872.42 81.928C1868.19 79.176 1864.87 75.208 1862.43 70.024C1860 64.776 1858.79 58.568 1858.79 51.4C1858.79 44.232 1860 38.056 1862.43 32.872C1864.87 27.624 1868.19 23.656 1872.42 20.968C1876.64 18.216 1881.44 16.84 1886.82 16.84C1892.19 16.84 1896.99 18.216 1901.22 20.968C1905.51 23.656 1908.87 27.624 1911.3 32.872C1913.73 38.056 1914.95 44.232 1914.95 51.4C1914.95 58.568 1913.73 64.776 1911.3 70.024C1908.87 75.208 1905.51 79.176 1901.22 81.928C1896.99 84.616 1892.19 85.96 1886.82 85.96ZM1886.82 75.112C1891.62 75.112 1895.39 73.128 1898.15 69.16C1900.96 65.192 1902.37 59.272 1902.37 51.4C1902.37 43.528 1900.96 37.608 1898.15 33.64C1895.39 29.672 1891.62 27.688 1886.82 27.688C1882.08 27.688 1878.31 29.672 1875.49 33.64C1872.74 37.608 1871.36 43.528 1871.36 51.4C1871.36 59.272 1872.74 65.192 1875.49 69.16C1878.31 73.128 1882.08 75.112 1886.82 75.112Z" fill="white"/>
<path opacity="0.4" d="M1861.63 97.184V110H1858.63V99.728H1853.83L1853.71 102.272C1853.63 103.968 1853.47 105.392 1853.23 106.544C1853.01 107.68 1852.62 108.584 1852.06 109.256C1851.51 109.912 1850.76 110.24 1849.8 110.24C1849.35 110.24 1848.8 110.152 1848.14 109.976L1848.29 107.456C1848.51 107.504 1848.7 107.528 1848.86 107.528C1849.47 107.528 1849.93 107.288 1850.23 106.808C1850.54 106.312 1850.73 105.728 1850.81 105.056C1850.9 104.368 1850.98 103.392 1851.05 102.128L1851.26 97.184H1861.63ZM1877.67 103.664C1877.67 103.872 1877.66 104.168 1877.62 104.552H1867.57C1867.74 105.496 1868.2 106.248 1868.94 106.808C1869.69 107.352 1870.62 107.624 1871.72 107.624C1873.13 107.624 1874.29 107.16 1875.2 106.232L1876.81 108.08C1876.23 108.768 1875.5 109.288 1874.62 109.64C1873.74 109.992 1872.75 110.168 1871.65 110.168C1870.24 110.168 1869 109.888 1867.93 109.328C1866.86 108.768 1866.02 107.992 1865.43 107C1864.86 105.992 1864.57 104.856 1864.57 103.592C1864.57 102.344 1864.85 101.224 1865.41 100.232C1865.98 99.224 1866.78 98.44 1867.78 97.88C1868.79 97.32 1869.93 97.04 1871.19 97.04C1872.44 97.04 1873.55 97.32 1874.53 97.88C1875.52 98.424 1876.29 99.2 1876.83 100.208C1877.39 101.2 1877.67 102.352 1877.67 103.664ZM1871.19 99.44C1870.23 99.44 1869.42 99.728 1868.74 100.304C1868.09 100.864 1867.69 101.616 1867.54 102.56H1874.82C1874.69 101.632 1874.3 100.88 1873.64 100.304C1872.98 99.728 1872.17 99.44 1871.19 99.44ZM1890.64 99.728H1886.15V110H1883.15V99.728H1878.64V97.184H1890.64V99.728Z" fill="white"/>
<path opacity="0.4" d="M43.632 97.184V110H40.632V99.728H35.832L35.712 102.272C35.632 103.968 35.472 105.392 35.232 106.544C35.008 107.68 34.616 108.584 34.056 109.256C33.512 109.912 32.76 110.24 31.8 110.24C31.352 110.24 30.8 110.152 30.144 109.976L30.288 107.456C30.512 107.504 30.704 107.528 30.864 107.528C31.472 107.528 31.928 107.288 32.232 106.808C32.536 106.312 32.728 105.728 32.808 105.056C32.904 104.368 32.984 103.392 33.048 102.128L33.264 97.184H43.632ZM59.6723 103.664C59.6723 103.872 59.6563 104.168 59.6243 104.552H49.5683C49.7443 105.496 50.2003 106.248 50.9363 106.808C51.6883 107.352 52.6163 107.624 53.7203 107.624C55.1283 107.624 56.2883 107.16 57.2003 106.232L58.8083 108.08C58.2323 108.768 57.5043 109.288 56.6243 109.64C55.7443 109.992 54.7523 110.168 53.6483 110.168C52.2403 110.168 51.0003 109.888 49.9283 109.328C48.8563 108.768 48.0243 107.992 47.4323 107C46.8563 105.992 46.5683 104.856 46.5683 103.592C46.5683 102.344 46.8483 101.224 47.4083 100.232C47.9843 99.224 48.7763 98.44 49.7843 97.88C50.7923 97.32 51.9283 97.04 53.1923 97.04C54.4403 97.04 55.5523 97.32 56.5283 97.88C57.5203 98.424 58.2883 99.2 58.8323 100.208C59.3923 101.2 59.6723 102.352 59.6723 103.664ZM53.1923 99.44C52.2323 99.44 51.4163 99.728 50.7443 100.304C50.0883 100.864 49.6883 101.616 49.5443 102.56H56.8163C56.6883 101.632 56.2963 100.88 55.6403 100.304C54.9843 99.728 54.1683 99.44 53.1923 99.44ZM72.6368 99.728H68.1488V110H65.1488V99.728H60.6368V97.184H72.6368V99.728Z" fill="white"/>
<path opacity="0.4" d="M27.456 17.8V85H14.976V28.264H0.768V17.8H27.456ZM68.8185 85.96C63.4425 85.96 58.6425 84.616 54.4185 81.928C50.1945 79.176 46.8665 75.208 44.4345 70.024C42.0025 64.776 40.7865 58.568 40.7865 51.4C40.7865 44.232 42.0025 38.056 44.4345 32.872C46.8665 27.624 50.1945 23.656 54.4185 20.968C58.6425 18.216 63.4425 16.84 68.8185 16.84C74.1945 16.84 78.9945 18.216 83.2185 20.968C87.5065 23.656 90.8665 27.624 93.2985 32.872C95.7305 38.056 96.9465 44.232 96.9465 51.4C96.9465 58.568 95.7305 64.776 93.2985 70.024C90.8665 75.208 87.5065 79.176 83.2185 81.928C78.9945 84.616 74.1945 85.96 68.8185 85.96ZM68.8185 75.112C73.6185 75.112 77.3945 73.128 80.1465 69.16C82.9625 65.192 84.3705 59.272 84.3705 51.4C84.3705 43.528 82.9625 37.608 80.1465 33.64C77.3945 29.672 73.6185 27.688 68.8185 27.688C64.0825 27.688 60.3065 29.672 57.4905 33.64C54.7385 37.608 53.3625 43.528 53.3625 51.4C53.3625 59.272 54.7385 65.192 57.4905 69.16C60.3065 73.128 64.0825 75.112 68.8185 75.112Z" fill="white"/>
<path opacity="0.35" d="M155.632 97.184V110H152.632V99.728H147.832L147.712 102.272C147.632 103.968 147.472 105.392 147.232 106.544C147.008 107.68 146.616 108.584 146.056 109.256C145.512 109.912 144.76 110.24 143.8 110.24C143.352 110.24 142.8 110.152 142.144 109.976L142.288 107.456C142.512 107.504 142.704 107.528 142.864 107.528C143.472 107.528 143.928 107.288 144.232 106.808C144.536 106.312 144.728 105.728 144.808 105.056C144.904 104.368 144.984 103.392 145.048 102.128L145.264 97.184H155.632ZM171.672 103.664C171.672 103.872 171.656 104.168 171.624 104.552H161.568C161.744 105.496 162.2 106.248 162.936 106.808C163.688 107.352 164.616 107.624 165.72 107.624C167.128 107.624 168.288 107.16 169.2 106.232L170.808 108.08C170.232 108.768 169.504 109.288 168.624 109.64C167.744 109.992 166.752 110.168 165.648 110.168C164.24 110.168 163 109.888 161.928 109.328C160.856 108.768 160.024 107.992 159.432 107C158.856 105.992 158.568 104.856 158.568 103.592C158.568 102.344 158.848 101.224 159.408 100.232C159.984 99.224 160.776 98.44 161.784 97.88C162.792 97.32 163.928 97.04 165.192 97.04C166.44 97.04 167.552 97.32 168.528 97.88C169.52 98.424 170.288 99.2 170.832 100.208C171.392 101.2 171.672 102.352 171.672 103.664ZM165.192 99.44C164.232 99.44 163.416 99.728 162.744 100.304C162.088 100.864 161.688 101.616 161.544 102.56H168.816C168.688 101.632 168.296 100.88 167.64 100.304C166.984 99.728 166.168 99.44 165.192 99.44ZM184.637 99.728H180.149V110H177.149V99.728H172.637V97.184H184.637V99.728Z" fill="white"/>
<path opacity="0.35" d="M139.456 17.8V85H126.976V28.264H112.768V17.8H139.456ZM180.819 85.96C175.443 85.96 170.643 84.616 166.419 81.928C162.195 79.176 158.867 75.208 156.435 70.024C154.003 64.776 152.787 58.568 152.787 51.4C152.787 44.232 154.003 38.056 156.435 32.872C158.867 27.624 162.195 23.656 166.419 20.968C170.643 18.216 175.443 16.84 180.819 16.84C186.195 16.84 190.995 18.216 195.219 20.968C199.507 23.656 202.867 27.624 205.299 32.872C207.731 38.056 208.947 44.232 208.947 51.4C208.947 58.568 207.731 64.776 205.299 70.024C202.867 75.208 199.507 79.176 195.219 81.928C190.995 84.616 186.195 85.96 180.819 85.96ZM180.819 75.112C185.619 75.112 189.395 73.128 192.147 69.16C194.963 65.192 196.371 59.272 196.371 51.4C196.371 43.528 194.963 37.608 192.147 33.64C189.395 29.672 185.619 27.688 180.819 27.688C176.083 27.688 172.307 29.672 169.491 33.64C166.739 37.608 165.363 43.528 165.363 51.4C165.363 59.272 166.739 65.192 169.491 69.16C172.307 73.128 176.083 75.112 180.819 75.112Z" fill="white"/>
<path opacity="0.3" d="M267.632 97.184V110H264.632V99.728H259.832L259.712 102.272C259.632 103.968 259.472 105.392 259.232 106.544C259.008 107.68 258.616 108.584 258.056 109.256C257.512 109.912 256.76 110.24 255.8 110.24C255.352 110.24 254.8 110.152 254.144 109.976L254.288 107.456C254.512 107.504 254.704 107.528 254.864 107.528C255.472 107.528 255.928 107.288 256.232 106.808C256.536 106.312 256.728 105.728 256.808 105.056C256.904 104.368 256.984 103.392 257.048 102.128L257.264 97.184H267.632ZM283.672 103.664C283.672 103.872 283.656 104.168 283.624 104.552H273.568C273.744 105.496 274.2 106.248 274.936 106.808C275.688 107.352 276.616 107.624 277.72 107.624C279.128 107.624 280.288 107.16 281.2 106.232L282.808 108.08C282.232 108.768 281.504 109.288 280.624 109.64C279.744 109.992 278.752 110.168 277.648 110.168C276.24 110.168 275 109.888 273.928 109.328C272.856 108.768 272.024 107.992 271.432 107C270.856 105.992 270.568 104.856 270.568 103.592C270.568 102.344 270.848 101.224 271.408 100.232C271.984 99.224 272.776 98.44 273.784 97.88C274.792 97.32 275.928 97.04 277.192 97.04C278.44 97.04 279.552 97.32 280.528 97.88C281.52 98.424 282.288 99.2 282.832 100.208C283.392 101.2 283.672 102.352 283.672 103.664ZM277.192 99.44C276.232 99.44 275.416 99.728 274.744 100.304C274.088 100.864 273.688 101.616 273.544 102.56H280.816C280.688 101.632 280.296 100.88 279.64 100.304C278.984 99.728 278.168 99.44 277.192 99.44ZM296.637 99.728H292.149V110H289.149V99.728H284.637V97.184H296.637V99.728Z" fill="white"/>
<path opacity="0.3" d="M251.456 17.8V85H238.976V28.264H224.768V17.8H251.456ZM292.819 85.96C287.443 85.96 282.643 84.616 278.419 81.928C274.195 79.176 270.867 75.208 268.435 70.024C266.003 64.776 264.787 58.568 264.787 51.4C264.787 44.232 266.003 38.056 268.435 32.872C270.867 27.624 274.195 23.656 278.419 20.968C282.643 18.216 287.443 16.84 292.819 16.84C298.195 16.84 302.995 18.216 307.219 20.968C311.507 23.656 314.867 27.624 317.299 32.872C319.731 38.056 320.947 44.232 320.947 51.4C320.947 58.568 319.731 64.776 317.299 70.024C314.867 75.208 311.507 79.176 307.219 81.928C302.995 84.616 298.195 85.96 292.819 85.96ZM292.819 75.112C297.619 75.112 301.395 73.128 304.147 69.16C306.963 65.192 308.371 59.272 308.371 51.4C308.371 43.528 306.963 37.608 304.147 33.64C301.395 29.672 297.619 27.688 292.819 27.688C288.083 27.688 284.307 29.672 281.491 33.64C278.739 37.608 277.363 43.528 277.363 51.4C277.363 59.272 278.739 65.192 281.491 69.16C284.307 73.128 288.083 75.112 292.819 75.112Z" fill="white"/>
<path opacity="0.25" d="M379.632 97.184V110H376.632V99.728H371.832L371.712 102.272C371.632 103.968 371.472 105.392 371.232 106.544C371.008 107.68 370.616 108.584 370.056 109.256C369.512 109.912 368.76 110.24 367.8 110.24C367.352 110.24 366.8 110.152 366.144 109.976L366.288 107.456C366.512 107.504 366.704 107.528 366.864 107.528C367.472 107.528 367.928 107.288 368.232 106.808C368.536 106.312 368.728 105.728 368.808 105.056C368.904 104.368 368.984 103.392 369.048 102.128L369.264 97.184H379.632ZM395.672 103.664C395.672 103.872 395.656 104.168 395.624 104.552H385.568C385.744 105.496 386.2 106.248 386.936 106.808C387.688 107.352 388.616 107.624 389.72 107.624C391.128 107.624 392.288 107.16 393.2 106.232L394.808 108.08C394.232 108.768 393.504 109.288 392.624 109.64C391.744 109.992 390.752 110.168 389.648 110.168C388.24 110.168 387 109.888 385.928 109.328C384.856 108.768 384.024 107.992 383.432 107C382.856 105.992 382.568 104.856 382.568 103.592C382.568 102.344 382.848 101.224 383.408 100.232C383.984 99.224 384.776 98.44 385.784 97.88C386.792 97.32 387.928 97.04 389.192 97.04C390.44 97.04 391.552 97.32 392.528 97.88C393.52 98.424 394.288 99.2 394.832 100.208C395.392 101.2 395.672 102.352 395.672 103.664ZM389.192 99.44C388.232 99.44 387.416 99.728 386.744 100.304C386.088 100.864 385.688 101.616 385.544 102.56H392.816C392.688 101.632 392.296 100.88 391.64 100.304C390.984 99.728 390.168 99.44 389.192 99.44ZM408.637 99.728H404.149V110H401.149V99.728H396.637V97.184H408.637V99.728Z" fill="white"/>
<path opacity="0.25" d="M363.456 17.8V85H350.976V28.264H336.768V17.8H363.456ZM404.819 85.96C399.443 85.96 394.643 84.616 390.419 81.928C386.195 79.176 382.867 75.208 380.435 70.024C378.003 64.776 376.787 58.568 376.787 51.4C376.787 44.232 378.003 38.056 380.435 32.872C382.867 27.624 386.195 23.656 390.419 20.968C394.643 18.216 399.443 16.84 404.819 16.84C410.195 16.84 414.995 18.216 419.219 20.968C423.507 23.656 426.867 27.624 429.299 32.872C431.731 38.056 432.947 44.232 432.947 51.4C432.947 58.568 431.731 64.776 429.299 70.024C426.867 75.208 423.507 79.176 419.219 81.928C414.995 84.616 410.195 85.96 404.819 85.96ZM404.819 75.112C409.619 75.112 413.395 73.128 416.147 69.16C418.963 65.192 420.371 59.272 420.371 51.4C420.371 43.528 418.963 37.608 416.147 33.64C413.395 29.672 409.619 27.688 404.819 27.688C400.083 27.688 396.307 29.672 393.491 33.64C390.739 37.608 389.363 43.528 389.363 51.4C389.363 59.272 390.739 65.192 393.491 69.16C396.307 73.128 400.083 75.112 404.819 75.112Z" fill="white"/>
<path opacity="0.2" d="M491.632 97.184V110H488.632V99.728H483.832L483.712 102.272C483.632 103.968 483.472 105.392 483.232 106.544C483.008 107.68 482.616 108.584 482.056 109.256C481.512 109.912 480.76 110.24 479.8 110.24C479.352 110.24 478.8 110.152 478.144 109.976L478.288 107.456C478.512 107.504 478.704 107.528 478.864 107.528C479.472 107.528 479.928 107.288 480.232 106.808C480.536 106.312 480.728 105.728 480.808 105.056C480.904 104.368 480.984 103.392 481.048 102.128L481.264 97.184H491.632ZM507.672 103.664C507.672 103.872 507.656 104.168 507.624 104.552H497.568C497.744 105.496 498.2 106.248 498.936 106.808C499.688 107.352 500.616 107.624 501.72 107.624C503.128 107.624 504.288 107.16 505.2 106.232L506.808 108.08C506.232 108.768 505.504 109.288 504.624 109.64C503.744 109.992 502.752 110.168 501.648 110.168C500.24 110.168 499 109.888 497.928 109.328C496.856 108.768 496.024 107.992 495.432 107C494.856 105.992 494.568 104.856 494.568 103.592C494.568 102.344 494.848 101.224 495.408 100.232C495.984 99.224 496.776 98.44 497.784 97.88C498.792 97.32 499.928 97.04 501.192 97.04C502.44 97.04 503.552 97.32 504.528 97.88C505.52 98.424 506.288 99.2 506.832 100.208C507.392 101.2 507.672 102.352 507.672 103.664ZM501.192 99.44C500.232 99.44 499.416 99.728 498.744 100.304C498.088 100.864 497.688 101.616 497.544 102.56H504.816C504.688 101.632 504.296 100.88 503.64 100.304C502.984 99.728 502.168 99.44 501.192 99.44ZM520.637 99.728H516.149V110H513.149V99.728H508.637V97.184H520.637V99.728Z" fill="white"/>
<path opacity="0.2" d="M475.456 17.8V85H462.976V28.264H448.768V17.8H475.456ZM516.819 85.96C511.443 85.96 506.643 84.616 502.419 81.928C498.195 79.176 494.867 75.208 492.435 70.024C490.003 64.776 488.787 58.568 488.787 51.4C488.787 44.232 490.003 38.056 492.435 32.872C494.867 27.624 498.195 23.656 502.419 20.968C506.643 18.216 511.443 16.84 516.819 16.84C522.195 16.84 526.995 18.216 531.219 20.968C535.507 23.656 538.867 27.624 541.299 32.872C543.731 38.056 544.947 44.232 544.947 51.4C544.947 58.568 543.731 64.776 541.299 70.024C538.867 75.208 535.507 79.176 531.219 81.928C526.995 84.616 522.195 85.96 516.819 85.96ZM516.819 75.112C521.619 75.112 525.395 73.128 528.147 69.16C530.963 65.192 532.371 59.272 532.371 51.4C532.371 43.528 530.963 37.608 528.147 33.64C525.395 29.672 521.619 27.688 516.819 27.688C512.083 27.688 508.307 29.672 505.491 33.64C502.739 37.608 501.363 43.528 501.363 51.4C501.363 59.272 502.739 65.192 505.491 69.16C508.307 73.128 512.083 75.112 516.819 75.112Z" fill="white"/>
<path opacity="0.15" d="M603.632 97.184V110H600.632V99.728H595.832L595.712 102.272C595.632 103.968 595.472 105.392 595.232 106.544C595.008 107.68 594.616 108.584 594.056 109.256C593.512 109.912 592.76 110.24 591.8 110.24C591.352 110.24 590.8 110.152 590.144 109.976L590.288 107.456C590.512 107.504 590.704 107.528 590.864 107.528C591.472 107.528 591.928 107.288 592.232 106.808C592.536 106.312 592.728 105.728 592.808 105.056C592.904 104.368 592.984 103.392 593.048 102.128L593.264 97.184H603.632ZM619.672 103.664C619.672 103.872 619.656 104.168 619.624 104.552H609.568C609.744 105.496 610.2 106.248 610.936 106.808C611.688 107.352 612.616 107.624 613.72 107.624C615.128 107.624 616.288 107.16 617.2 106.232L618.808 108.08C618.232 108.768 617.504 109.288 616.624 109.64C615.744 109.992 614.752 110.168 613.648 110.168C612.24 110.168 611 109.888 609.928 109.328C608.856 108.768 608.024 107.992 607.432 107C606.856 105.992 606.568 104.856 606.568 103.592C606.568 102.344 606.848 101.224 607.408 100.232C607.984 99.224 608.776 98.44 609.784 97.88C610.792 97.32 611.928 97.04 613.192 97.04C614.44 97.04 615.552 97.32 616.528 97.88C617.52 98.424 618.288 99.2 618.832 100.208C619.392 101.2 619.672 102.352 619.672 103.664ZM613.192 99.44C612.232 99.44 611.416 99.728 610.744 100.304C610.088 100.864 609.688 101.616 609.544 102.56H616.816C616.688 101.632 616.296 100.88 615.64 100.304C614.984 99.728 614.168 99.44 613.192 99.44ZM632.637 99.728H628.149V110H625.149V99.728H620.637V97.184H632.637V99.728Z" fill="white"/>
<path opacity="0.15" d="M587.456 17.8V85H574.976V28.264H560.768V17.8H587.456ZM628.819 85.96C623.443 85.96 618.643 84.616 614.419 81.928C610.195 79.176 606.867 75.208 604.435 70.024C602.003 64.776 600.787 58.568 600.787 51.4C600.787 44.232 602.003 38.056 604.435 32.872C606.867 27.624 610.195 23.656 614.419 20.968C618.643 18.216 623.443 16.84 628.819 16.84C634.195 16.84 638.995 18.216 643.219 20.968C647.507 23.656 650.867 27.624 653.299 32.872C655.731 38.056 656.947 44.232 656.947 51.4C656.947 58.568 655.731 64.776 653.299 70.024C650.867 75.208 647.507 79.176 643.219 81.928C638.995 84.616 634.195 85.96 628.819 85.96ZM628.819 75.112C633.619 75.112 637.395 73.128 640.147 69.16C642.963 65.192 644.371 59.272 644.371 51.4C644.371 43.528 642.963 37.608 640.147 33.64C637.395 29.672 633.619 27.688 628.819 27.688C624.083 27.688 620.307 29.672 617.491 33.64C614.739 37.608 613.363 43.528 613.363 51.4C613.363 59.272 614.739 65.192 617.491 69.16C620.307 73.128 624.083 75.112 628.819 75.112Z" fill="white"/>
<path opacity="0.1" d="M715.632 97.184V110H712.632V99.728H707.832L707.712 102.272C707.632 103.968 707.472 105.392 707.232 106.544C707.008 107.68 706.616 108.584 706.056 109.256C705.512 109.912 704.76 110.24 703.8 110.24C703.352 110.24 702.8 110.152 702.144 109.976L702.288 107.456C702.512 107.504 702.704 107.528 702.864 107.528C703.472 107.528 703.928 107.288 704.232 106.808C704.536 106.312 704.728 105.728 704.808 105.056C704.904 104.368 704.984 103.392 705.048 102.128L705.264 97.184H715.632ZM731.672 103.664C731.672 103.872 731.656 104.168 731.624 104.552H721.568C721.744 105.496 722.2 106.248 722.936 106.808C723.688 107.352 724.616 107.624 725.72 107.624C727.128 107.624 728.288 107.16 729.2 106.232L730.808 108.08C730.232 108.768 729.504 109.288 728.624 109.64C727.744 109.992 726.752 110.168 725.648 110.168C724.24 110.168 723 109.888 721.928 109.328C720.856 108.768 720.024 107.992 719.432 107C718.856 105.992 718.568 104.856 718.568 103.592C718.568 102.344 718.848 101.224 719.408 100.232C719.984 99.224 720.776 98.44 721.784 97.88C722.792 97.32 723.928 97.04 725.192 97.04C726.44 97.04 727.552 97.32 728.528 97.88C729.52 98.424 730.288 99.2 730.832 100.208C731.392 101.2 731.672 102.352 731.672 103.664ZM725.192 99.44C724.232 99.44 723.416 99.728 722.744 100.304C722.088 100.864 721.688 101.616 721.544 102.56H728.816C728.688 101.632 728.296 100.88 727.64 100.304C726.984 99.728 726.168 99.44 725.192 99.44ZM744.637 99.728H740.149V110H737.149V99.728H732.637V97.184H744.637V99.728Z" fill="white"/>
<path opacity="0.1" d="M699.456 17.8V85H686.976V28.264H672.768V17.8H699.456ZM740.819 85.96C735.443 85.96 730.643 84.616 726.419 81.928C722.195 79.176 718.867 75.208 716.435 70.024C714.003 64.776 712.787 58.568 712.787 51.4C712.787 44.232 714.003 38.056 716.435 32.872C718.867 27.624 722.195 23.656 726.419 20.968C730.643 18.216 735.443 16.84 740.819 16.84C746.195 16.84 750.995 18.216 755.219 20.968C759.507 23.656 762.867 27.624 765.299 32.872C767.731 38.056 768.947 44.232 768.947 51.4C768.947 58.568 767.731 64.776 765.299 70.024C762.867 75.208 759.507 79.176 755.219 81.928C750.995 84.616 746.195 85.96 740.819 85.96ZM740.819 75.112C745.619 75.112 749.395 73.128 752.147 69.16C754.963 65.192 756.371 59.272 756.371 51.4C756.371 43.528 754.963 37.608 752.147 33.64C749.395 29.672 745.619 27.688 740.819 27.688C736.083 27.688 732.307 29.672 729.491 33.64C726.739 37.608 725.363 43.528 725.363 51.4C725.363 59.272 726.739 65.192 729.491 69.16C732.307 73.128 736.083 75.112 740.819 75.112Z" fill="white"/>
<path opacity="0.05" d="M823.632 97.184V110H820.632V99.728H815.832L815.712 102.272C815.632 103.968 815.472 105.392 815.232 106.544C815.008 107.68 814.616 108.584 814.056 109.256C813.512 109.912 812.76 110.24 811.8 110.24C811.352 110.24 810.8 110.152 810.144 109.976L810.288 107.456C810.512 107.504 810.704 107.528 810.864 107.528C811.472 107.528 811.928 107.288 812.232 106.808C812.536 106.312 812.728 105.728 812.808 105.056C812.904 104.368 812.984 103.392 813.048 102.128L813.264 97.184H823.632ZM839.672 103.664C839.672 103.872 839.656 104.168 839.624 104.552H829.568C829.744 105.496 830.2 106.248 830.936 106.808C831.688 107.352 832.616 107.624 833.72 107.624C835.128 107.624 836.288 107.16 837.2 106.232L838.808 108.08C838.232 108.768 837.504 109.288 836.624 109.64C835.744 109.992 834.752 110.168 833.648 110.168C832.24 110.168 831 109.888 829.928 109.328C828.856 108.768 828.024 107.992 827.432 107C826.856 105.992 826.568 104.856 826.568 103.592C826.568 102.344 826.848 101.224 827.408 100.232C827.984 99.224 828.776 98.44 829.784 97.88C830.792 97.32 831.928 97.04 833.192 97.04C834.44 97.04 835.552 97.32 836.528 97.88C837.52 98.424 838.288 99.2 838.832 100.208C839.392 101.2 839.672 102.352 839.672 103.664ZM833.192 99.44C832.232 99.44 831.416 99.728 830.744 100.304C830.088 100.864 829.688 101.616 829.544 102.56H836.816C836.688 101.632 836.296 100.88 835.64 100.304C834.984 99.728 834.168 99.44 833.192 99.44ZM852.637 99.728H848.149V110H845.149V99.728H840.637V97.184H852.637V99.728Z" fill="white"/>
<path opacity="0.05" d="M811.456 17.8V85H798.976V28.264H784.768V17.8H811.456ZM852.819 85.96C847.443 85.96 842.643 84.616 838.419 81.928C834.195 79.176 830.867 75.208 828.435 70.024C826.003 64.776 824.787 58.568 824.787 51.4C824.787 44.232 826.003 38.056 828.435 32.872C830.867 27.624 834.195 23.656 838.419 20.968C842.643 18.216 847.443 16.84 852.819 16.84C858.195 16.84 862.995 18.216 867.219 20.968C871.507 23.656 874.867 27.624 877.299 32.872C879.731 38.056 880.947 44.232 880.947 51.4C880.947 58.568 879.731 64.776 877.299 70.024C874.867 75.208 871.507 79.176 867.219 81.928C862.995 84.616 858.195 85.96 852.819 85.96ZM852.819 75.112C857.619 75.112 861.395 73.128 864.147 69.16C866.963 65.192 868.371 59.272 868.371 51.4C868.371 43.528 866.963 37.608 864.147 33.64C861.395 29.672 857.619 27.688 852.819 27.688C848.083 27.688 844.307 29.672 841.491 33.64C838.739 37.608 837.363 43.528 837.363 51.4C837.363 59.272 838.739 65.192 841.491 69.16C844.307 73.128 848.083 75.112 852.819 75.112Z" fill="white"/>
</g>
</svg>
