<svg width="172" height="103" viewBox="0 0 172 103" fill="none" xmlns="http://www.w3.org/2000/svg">
<g filter="url(#filter0_d)">
<path d="M46 74H125.31L121.136 85.8966L125.31 97.7931H46L50.1742 85.8966L46 74Z" fill="white"/>
<g clip-path="url(#clip0)">
<path d="M27.6777 12.3642C25.7244 12.6947 24.1045 13.7332 22.8658 14.819C22.7706 14.5358 22.58 14.2525 22.2941 14.1581C21.8654 14.0165 21.3889 14.1581 21.1507 14.5358C21.1031 12.9307 20.7696 11.0424 19.7215 9.43727C17.3393 5.84942 12.0987 5.04688 12.0987 5.04688C12.0987 5.04688 10.7647 10.0982 13.1468 13.686C14.9572 16.3769 18.3398 17.5099 19.912 17.8876C19.0068 20.6729 18.2922 23.5526 17.7681 26.4796C17.4346 25.441 16.9106 24.4024 16.1006 23.5054C13.2421 20.2008 8.00146 20.1064 8.00146 20.1064C8.00146 20.1064 7.38211 25.2993 10.2406 28.5567C12.1463 30.7755 15.1954 31.5309 16.9582 31.7669C16.5771 34.9299 16.3865 38.1873 16.3865 41.4447C16.3865 41.7751 16.3865 42.1056 16.3865 42.436C15.7671 41.2558 14.9096 40.0756 13.7185 39.2259C10.1454 36.6766 5 37.7624 5 37.7624C5 37.7624 5.57171 42.9553 9.09723 45.5046C11.5746 47.2985 14.8143 47.2985 16.5771 47.1097C16.8153 50.3199 17.2441 53.53 17.8634 56.6458C17.0535 55.6072 15.9577 54.6631 14.6237 54.0493C10.6694 52.2554 5.80992 54.3798 5.80992 54.3798C5.80992 54.3798 7.42975 59.3367 11.3841 61.1306C14.0997 62.358 17.1964 61.7443 18.9115 61.2722C19.7215 64.4352 20.7696 67.551 21.9606 70.5251C20.8172 69.4865 19.3403 68.5424 17.5776 68.1647C13.2898 67.3149 9.04959 70.4307 9.04959 70.4307C9.04959 70.4307 11.7176 74.9155 16.0054 75.7653C19.0545 76.379 22.0559 74.9627 23.5328 74.113C25.1527 77.512 27.0107 80.7694 29.0593 83.8379C29.2499 84.1212 29.5358 84.2628 29.8693 84.2628C30.0598 84.2628 30.2504 84.2156 30.3933 84.074C30.8221 83.7907 30.965 83.177 30.6315 82.7521C28.5353 79.6836 26.6772 76.4262 25.105 72.98C26.8202 72.5551 29.8216 71.5165 31.5844 69.1089C34.1094 65.5682 32.966 60.4697 32.966 60.4697C32.966 60.4697 27.7254 61.0834 25.2003 64.5768C24.1045 66.0875 23.7234 67.8814 23.5805 69.4865C22.3894 66.5596 21.4366 63.5383 20.6267 60.4225C22.3418 60.4225 25.6767 60.1392 28.0112 58.1093C31.2509 55.2296 31.2985 50.0366 31.2985 50.0366C31.2985 50.0366 26.0579 49.4701 22.7706 52.3026C21.1031 53.7661 20.2932 55.8433 19.8644 57.4956C19.1021 53.9549 18.6257 50.3671 18.3398 46.732C20.055 47.0625 23.2946 47.4401 25.9626 45.9295C29.7263 43.7579 30.8697 38.6594 30.8697 38.6594C30.8697 38.6594 25.9626 37.0543 22.1512 39.1787C20.2455 40.2645 19.0545 42.0584 18.2922 43.6163C18.2922 42.9081 18.2445 42.1528 18.2445 41.4447C18.2445 38.1873 18.4351 34.9771 18.8639 31.7669C20.3884 32.475 23.6281 33.6553 26.6296 32.7583C30.8221 31.4837 33.0613 26.7628 33.0613 26.7628C33.0613 26.7628 28.5353 24.0719 24.3904 25.2993C22.0559 26.0075 20.2932 27.8014 19.245 29.2649C19.8167 25.5354 20.6743 21.8531 21.8177 18.2653C23.3899 19.1622 26.1055 20.3897 28.9164 19.9648C33.2042 19.2566 36.0627 14.9135 36.0627 14.9135C36.0627 14.9135 31.9655 11.6561 27.6777 12.3642Z" fill="white"/>
<path d="M157.217 54.0493C155.883 54.6631 154.787 55.6072 153.977 56.6458C154.597 53.53 155.026 50.3199 155.264 47.1097C157.027 47.2513 160.266 47.2513 162.744 45.5046C166.269 42.9553 166.841 37.7624 166.841 37.7624C166.841 37.7624 161.695 36.6766 158.17 39.2259C156.979 40.0756 156.121 41.2558 155.502 42.436C155.502 42.1056 155.502 41.7751 155.502 41.4919C155.502 38.2345 155.311 35.0243 154.93 31.8141C156.693 31.5309 159.695 30.7755 161.648 28.6039C164.506 25.3465 163.887 20.1536 163.887 20.1536C163.887 20.1536 158.599 20.248 155.74 23.5054C154.93 24.4024 154.454 25.441 154.073 26.4796C153.501 23.5526 152.786 20.7201 151.929 17.8876C153.501 17.5099 156.884 16.3769 158.694 13.686C161.076 10.0982 159.742 5.04688 159.742 5.04688C159.742 5.04688 154.549 5.84942 152.119 9.43727C151.071 11.0424 150.738 12.9307 150.69 14.5358C150.452 14.1581 149.976 13.9693 149.547 14.1581C149.213 14.2525 149.023 14.5358 148.975 14.819C147.736 13.7332 146.116 12.6947 144.163 12.3642C139.875 11.7033 135.73 14.9607 135.73 14.9607C135.73 14.9607 138.589 19.3511 142.877 20.012C145.688 20.4369 148.403 19.2094 149.975 18.3125C151.119 21.9003 151.976 25.5354 152.548 29.3121C151.5 27.8486 149.737 26.0547 147.403 25.3465C143.21 24.0719 138.732 26.81 138.732 26.81C138.732 26.81 140.971 31.5309 145.164 32.8055C148.213 33.7025 151.452 32.5222 152.929 31.8141C153.31 34.9771 153.549 38.2345 153.549 41.4919C153.549 42.2 153.549 42.9553 153.501 43.6635C152.739 42.1056 151.548 40.3117 149.642 39.2259C145.878 37.1015 140.828 38.7066 140.828 38.7066C140.828 38.7066 141.924 43.8051 145.735 45.9767C148.403 47.4874 151.643 47.1097 153.358 46.7792C153.12 50.4143 152.596 54.0493 151.834 57.5428C151.405 55.8433 150.595 53.8133 148.927 52.3498C145.64 49.4701 140.399 50.0838 140.399 50.0838C140.399 50.0838 140.447 55.2768 143.687 58.1565C146.021 60.1865 149.356 60.4697 151.071 60.4697C150.261 63.5855 149.309 66.6068 148.117 69.5337C148.022 67.9759 147.593 66.1347 146.498 64.6241C143.973 61.1306 138.732 60.5169 138.732 60.5169C138.732 60.5169 137.589 65.6154 140.114 69.1561C141.876 71.5637 144.878 72.6023 146.593 73.0272C144.973 76.4734 143.115 79.7308 141.066 82.7993C140.781 83.2242 140.876 83.8379 141.305 84.1212C141.495 84.2156 141.686 84.31 141.829 84.31C142.162 84.31 142.448 84.1684 142.639 83.8851C144.735 80.8638 146.593 77.5592 148.165 74.1602C149.642 75.0099 152.691 76.4262 155.693 75.8125C159.98 74.9627 162.648 70.4779 162.648 70.4779C162.648 70.4779 158.408 67.3621 154.12 68.2119C152.358 68.5424 150.881 69.5337 149.737 70.5723C150.928 67.5982 151.976 64.4824 152.786 61.3195C154.502 61.8388 157.598 62.4053 160.314 61.1778C164.268 59.3839 165.888 54.427 165.888 54.427C165.888 54.427 161.219 52.3026 157.217 54.0493Z" fill="white"/>
</g>
<path d="M77.632 82.184V95H74.632V84.728H69.832L69.712 87.272C69.632 88.968 69.472 90.392 69.232 91.544C69.008 92.68 68.616 93.584 68.056 94.256C67.512 94.912 66.76 95.24 65.8 95.24C65.352 95.24 64.8 95.152 64.144 94.976L64.288 92.456C64.512 92.504 64.704 92.528 64.864 92.528C65.472 92.528 65.928 92.288 66.232 91.808C66.536 91.312 66.728 90.728 66.808 90.056C66.904 89.368 66.984 88.392 67.048 87.128L67.264 82.184H77.632ZM93.6723 88.664C93.6723 88.872 93.6563 89.168 93.6243 89.552H83.5683C83.7443 90.496 84.2003 91.248 84.9363 91.808C85.6883 92.352 86.6163 92.624 87.7203 92.624C89.1283 92.624 90.2883 92.16 91.2003 91.232L92.8083 93.08C92.2323 93.768 91.5043 94.288 90.6243 94.64C89.7443 94.992 88.7523 95.168 87.6483 95.168C86.2403 95.168 85.0003 94.888 83.9283 94.328C82.8563 93.768 82.0243 92.992 81.4323 92C80.8563 90.992 80.5683 89.856 80.5683 88.592C80.5683 87.344 80.8483 86.224 81.4083 85.232C81.9843 84.224 82.7763 83.44 83.7843 82.88C84.7923 82.32 85.9283 82.04 87.1923 82.04C88.4403 82.04 89.5523 82.32 90.5283 82.88C91.5203 83.424 92.2883 84.2 92.8323 85.208C93.3923 86.2 93.6723 87.352 93.6723 88.664ZM87.1923 84.44C86.2323 84.44 85.4163 84.728 84.7443 85.304C84.0883 85.864 83.6883 86.616 83.5443 87.56H90.8163C90.6883 86.632 90.2963 85.88 89.6403 85.304C88.9843 84.728 88.1683 84.44 87.1923 84.44ZM106.637 84.728H102.149V95H99.1488V84.728H94.6368V82.184H106.637V84.728Z" fill="#292930"/>
<path d="M70.304 22.2V67H61.984V29.176H52.512V22.2H70.304ZM97.879 67.64C94.295 67.64 91.095 66.744 88.279 64.952C85.463 63.1173 83.2443 60.472 81.623 57.016C80.0017 53.5173 79.191 49.3787 79.191 44.6C79.191 39.8213 80.0017 35.704 81.623 32.248C83.2443 28.7493 85.463 26.104 88.279 24.312C91.095 22.4773 94.295 21.56 97.879 21.56C101.463 21.56 104.663 22.4773 107.479 24.312C110.338 26.104 112.578 28.7493 114.199 32.248C115.82 35.704 116.631 39.8213 116.631 44.6C116.631 49.3787 115.82 53.5173 114.199 57.016C112.578 60.472 110.338 63.1173 107.479 64.952C104.663 66.744 101.463 67.64 97.879 67.64ZM97.879 60.408C101.079 60.408 103.596 59.0853 105.431 56.44C107.308 53.7947 108.247 49.848 108.247 44.6C108.247 39.352 107.308 35.4053 105.431 32.76C103.596 30.1147 101.079 28.792 97.879 28.792C94.7217 28.792 92.2043 30.1147 90.327 32.76C88.4923 35.4053 87.575 39.352 87.575 44.6C87.575 49.848 88.4923 53.7947 90.327 56.44C92.2043 59.0853 94.7217 60.408 97.879 60.408Z" fill="white"/>
</g>
<defs>
<filter id="filter0_d" x="0" y="0" width="171.793" height="102.793" filterUnits="userSpaceOnUse" color-interpolation-filters="sRGB">
<feFlood flood-opacity="0" result="BackgroundImageFix"/>
<feColorMatrix in="SourceAlpha" type="matrix" values="0 0 0 0 0 0 0 0 0 0 0 0 0 0 0 0 0 0 127 0"/>
<feOffset/>
<feGaussianBlur stdDeviation="2.5"/>
<feColorMatrix type="matrix" values="0 0 0 0 0 0 0 0 0 0 0 0 0 0 0 0 0 0 0.25 0"/>
<feBlend mode="normal" in2="BackgroundImageFix" result="effect1_dropShadow"/>
<feBlend mode="normal" in="SourceGraphic" in2="effect1_dropShadow" result="shape"/>
</filter>
<clipPath id="clip0">
<rect x="5" y="5" width="161.793" height="79.3103" fill="white"/>
</clipPath>
</defs>
</svg>
