<svg width="86" height="86" viewBox="0 0 86 86" fill="none" xmlns="http://www.w3.org/2000/svg">
<path d="M43 86C66.7482 86 86 66.7482 86 43C86 19.2518 66.7482 0 43 0C19.2518 0 0 19.2518 0 43C0 66.7482 19.2518 86 43 86Z" fill="#FDD935"/>
<g clip-path="url(#clip0)">
<path d="M27.2439 52.4179C27.2439 52.4179 24.8475 51.9013 25.6341 50.0932C26.4207 48.3035 28.1402 50.0747 28.1402 50.0747L27.2439 52.4179Z" fill="#FDDBBB"/>
<path d="M28.707 50.3156L28.1765 50.002L27.207 52.5112L27.7924 52.8248L28.707 50.3156Z" fill="#F5F5F5"/>
<path d="M43.232 45.3703C43.232 45.3703 40.8905 58.9681 27.5186 52.898L28.5247 50.0013C28.5247 50.0013 37.2503 55.2781 40.9271 44.8906L43.232 45.3703Z" fill="#414042"/>
<path d="M29.9873 53.3964C29.8592 53.3226 29.8043 53.1566 29.8775 53.009C29.9507 52.8798 30.1153 52.8245 30.2616 52.8983C30.3897 52.9721 30.4446 53.1381 30.3714 53.2857C30.2982 53.4333 30.1336 53.4887 29.9873 53.3964Z" fill="#6D6E71"/>
<path d="M29.0732 53.082C28.9451 53.0082 28.8903 52.8421 28.9634 52.6945C29.0366 52.5654 29.2012 52.51 29.3476 52.5838C29.4756 52.6576 29.5305 52.8237 29.4573 52.9713C29.3842 53.1004 29.2012 53.1558 29.0732 53.082Z" fill="#6D6E71"/>
<path d="M28.1767 52.7695C28.0487 52.6957 27.9938 52.5296 28.067 52.382C28.1401 52.2529 28.3048 52.1975 28.4511 52.2713C28.5792 52.3451 28.634 52.5112 28.5609 52.6588C28.4877 52.8064 28.3048 52.8433 28.1767 52.7695Z" fill="#6D6E71"/>
<path d="M49.8167 79.983C58.0908 79.983 64.7984 78.6944 64.7984 77.1048C64.7984 75.5152 58.0908 74.2266 49.8167 74.2266C41.5425 74.2266 34.835 75.5152 34.835 77.1048C34.835 78.6944 41.5425 79.983 49.8167 79.983Z" fill="#F1F2F2"/>
<path d="M63.4812 46.2191C63.4812 46.2191 67.2861 26.5143 55.3044 23.8575C40.03 20.4811 41.0361 44.1158 41.0361 44.1158L63.4812 46.2191Z" fill="#FDDBBB"/>
<path d="M39.9935 60.9229L40.7801 68.7273L41.9325 74.8896C41.9325 74.8896 39.3898 73.4321 38.4203 75.4247C37.0667 78.2476 43.7069 76.3288 43.7069 76.3288L42.5727 68.4321L42.7374 63.5059C42.7374 63.5059 48.6093 65.314 57.3532 65.0741L57.4996 68.9856L58.9081 76.255C58.9081 76.255 57.2801 73.9118 55.4874 75.9598C53.0728 78.6904 60.4996 76.993 60.4996 76.993L59.5484 68.8749L60.1154 63.9118C60.1337 63.8749 52.6154 60.8122 39.9935 60.9229Z" fill="#414042"/>
<path d="M56.6581 44.761L48.6459 53.2296L42.7922 43.285L40.78 43.082L40.0117 60.9234C40.0117 60.9234 42.0056 61.9566 45.9934 62.713C47.6581 63.0636 50.219 63.3588 50.219 63.3588C52.8349 63.6171 56.402 63.8385 60.1337 63.8754L64.0849 45.6651L56.6581 44.761Z" fill="#414042"/>
<path d="M42.7744 43.2852L48.6281 53.2298L56.6586 44.7612L42.7744 43.2852Z" fill="#F5F5F5"/>
<path d="M42.7742 43.2852L42.2803 47.215L44.4388 47.8977L43.8352 50.8866L48.6278 53.2298L42.7742 43.2852Z" fill="#6D6E71"/>
<path d="M48.6279 53.2304L53.7133 51.3669L53.7499 49.1529L56.1828 48.544L56.6584 44.7617L48.6279 53.2304Z" fill="#6D6E71"/>
<path d="M47.4025 45.7207L48.244 44.6875L50.1464 44.8167L50.6952 46.2189L49.8537 47.0307L50.4391 51.3296L48.6281 53.2299L47.0732 50.5916L48.1708 46.9015L47.4025 45.7207Z" fill="#414042"/>
<path d="M49.0479 55.1304C48.9382 55.4625 48.5723 55.647 48.2431 55.5548C47.9138 55.4441 47.7309 55.0751 47.8223 54.743C47.9321 54.4109 48.2979 54.2264 48.6272 54.3186C48.9748 54.4293 49.1577 54.7983 49.0479 55.1304Z" fill="#6D6E71"/>
<path d="M48.8652 58.064C48.7554 58.3961 48.3896 58.5806 48.0603 58.4884C47.7311 58.3777 47.5481 58.0087 47.6579 57.6766C47.7676 57.3445 48.1335 57.16 48.4628 57.2522C48.7737 57.3629 48.975 57.7319 48.8652 58.064Z" fill="#6D6E71"/>
<path d="M40.8354 16.3848C40.8354 16.3848 36.7195 30.6652 59.4756 30.0748L59.5122 34.7796C59.5122 34.7796 61.6524 32.6947 61.9634 34.9826C62.311 37.6025 59.9146 36.6615 59.9146 36.6615C59.9146 36.6615 61.4878 43.1929 63.5732 45.6099C63.9207 45.2593 73.4878 23.525 63.3354 23.7464C63.3354 23.7464 63.2256 18.894 56.8049 17.4733C47.8598 15.4807 45.9939 23.3958 40.8354 16.3848Z" fill="#4F423A"/>
<path d="M53.969 35.0207C53.841 35.9063 54.1153 36.6627 54.5727 36.7365C55.03 36.7919 55.4873 36.1461 55.6153 35.2605C55.7434 34.3749 55.469 33.6185 55.0117 33.5447C54.5544 33.4709 54.0788 34.1351 53.969 35.0207Z" fill="#4F423A"/>
<path d="M43.9631 33.5246C43.8351 34.4102 44.1095 35.1667 44.5668 35.2405C45.0241 35.2958 45.4814 34.65 45.6095 33.7644C45.7375 32.8788 45.4631 32.1224 45.0058 32.0486C44.5485 31.9748 44.0729 32.639 43.9631 33.5246Z" fill="#4F423A"/>
<path d="M60.9941 62.712C60.9941 62.712 59.0002 64.4279 58.0673 62.712C57.1344 60.9962 59.7502 60.6641 59.7502 60.6641L60.9941 62.712Z" fill="#FDDBBB"/>
<path d="M60.0065 60.3691L59.4395 60.6274L60.9029 62.8784L61.3785 62.4725L60.0065 60.3691Z" fill="#F5F5F5"/>
<path d="M63.9757 46.0703C63.9757 46.0703 73.8538 54.8895 61.3782 62.8415L59.6221 60.3508C59.6221 60.3508 68.8965 56.015 63.2806 48.9301L63.9757 46.0703Z" fill="#414042"/>
<path d="M63.2436 61.088C63.0972 61.1618 62.9326 61.088 62.8777 60.9589C62.8045 60.8113 62.8777 60.6452 63.0057 60.5899C63.1521 60.5161 63.3167 60.5899 63.3716 60.719C63.4265 60.8666 63.3716 61.0327 63.2436 61.088Z" fill="#6D6E71"/>
<path d="M62.4389 61.6603C62.2925 61.7341 62.1279 61.6603 62.073 61.5311C61.9998 61.3835 62.073 61.2175 62.2011 61.1621C62.3474 61.0883 62.512 61.1621 62.5669 61.2913C62.6401 61.4204 62.5852 61.6049 62.4389 61.6603Z" fill="#6D6E71"/>
<path d="M61.6713 62.2325C61.5249 62.3063 61.3603 62.2325 61.3054 62.1034C61.2323 61.9558 61.3054 61.7897 61.4335 61.7344C61.5798 61.6606 61.7444 61.7344 61.7993 61.8635C61.8725 61.9927 61.8176 62.1587 61.6713 62.2325Z" fill="#6D6E71"/>
<path d="M29.2746 50.388C28.799 50.1666 28.5063 50.0005 28.5063 50.0005L28.4514 50.1666L28.177 50.0005L28.1405 50.0928C27.9392 49.8898 26.3661 48.4323 25.6344 50.1112C25.5246 50.3326 25.488 50.554 25.4697 50.7385C25.7441 50.757 26.0185 50.7754 26.2929 50.7754C26.8417 50.7754 27.3905 50.7385 27.9209 50.6647C28.3783 50.5909 28.8356 50.4987 29.2746 50.388Z" fill="#F2F2F2"/>
<path d="M33.4636 47.9359C38.8161 43.8581 39.8777 36.1759 35.8346 30.7773C31.7915 25.3787 24.1749 24.308 18.8224 28.3859C13.4699 32.4638 12.4084 40.146 16.4515 45.5445C20.4945 50.9431 28.1111 52.0138 33.4636 47.9359Z" fill="#FFC64A"/>
<path d="M16.2686 38.1554C16.2686 32.6388 20.6954 28.1738 26.1649 28.1738C31.6344 28.1738 36.0612 32.6388 36.0612 38.1554C36.0612 43.672 31.6344 48.1369 26.1649 48.1369C20.6954 48.1369 16.2686 43.672 16.2686 38.1554Z" fill="#E39D03"/>
<path d="M26.1463 28.5428C31.5427 28.5428 35.9329 32.9155 36.0427 38.3399C36.0427 38.2845 36.0427 38.2292 36.0427 38.1554C36.0427 32.6388 31.6158 28.1738 26.1463 28.1738C20.6768 28.1738 16.25 32.6388 16.25 38.1554C16.25 38.2107 16.25 38.2661 16.25 38.3399C16.3598 32.9155 20.75 28.5428 26.1463 28.5428Z" fill="#E6E6E6"/>
<path d="M23.1641 42.9336C22.6702 42.4908 22.4141 41.7897 22.4141 40.8303V40.4244H25.1397V40.7196C25.1397 41.1808 25.2311 41.4945 25.3958 41.6605C25.5604 41.8266 25.7982 41.9188 26.0726 41.9188C26.3653 41.9188 26.5848 41.8266 26.7494 41.6236C26.9141 41.4391 26.9872 41.1993 26.9872 40.9225C26.9872 40.572 26.8775 40.2952 26.658 40.0923C26.4385 39.8893 26.1641 39.7048 25.8348 39.5572C25.5055 39.4096 25.158 39.262 24.7738 39.1144C24.3897 38.9668 24.0421 38.7823 23.7128 38.5425C23.3836 38.3026 23.1092 37.989 22.8897 37.6015C22.6702 37.214 22.5604 36.7159 22.5604 36.0886C22.5604 34.1882 23.475 33.0812 25.3226 32.786V31.9004H26.7128V32.786C27.7189 32.8967 28.4506 33.1919 28.908 33.7085C29.3653 34.2251 29.5848 35 29.5848 36.0517H26.9689V35.8303C26.9689 35.5166 26.8958 35.2583 26.7677 35.0369C26.6397 34.8155 26.4385 34.6864 26.1641 34.6864C25.8531 34.6864 25.6336 34.7786 25.5055 34.9816C25.3592 35.1845 25.286 35.3875 25.286 35.6273C25.286 35.9779 25.3958 36.2546 25.6336 36.4576C25.8531 36.6605 26.1458 36.845 26.4933 36.9926C26.8409 37.1402 27.2067 37.2878 27.5909 37.417C27.9933 37.5461 28.3592 37.7491 28.6885 37.989C29.036 38.2288 29.3104 38.5609 29.5482 38.9484C29.7677 39.3358 29.8958 39.8709 29.8958 40.5351C29.8958 41.5683 29.6214 42.3432 29.0909 42.8414C28.5604 43.3395 27.7738 43.6532 26.7311 43.7639V45.1292H25.3409V43.7639C24.3714 43.6532 23.658 43.3764 23.1641 42.9336Z" fill="#E6E6E6"/>
<path d="M23.1641 42.584C22.6702 42.1412 22.4141 41.4401 22.4141 40.4807V40.0748H25.1397V40.37C25.1397 40.8312 25.2311 41.1449 25.3958 41.3109C25.5604 41.477 25.7982 41.5692 26.0726 41.5692C26.3653 41.5692 26.5848 41.477 26.7494 41.274C26.9141 41.0895 26.9872 40.8497 26.9872 40.5729C26.9872 40.2224 26.8775 39.9456 26.658 39.7427C26.4385 39.5397 26.1641 39.3552 25.8348 39.2076C25.5055 39.06 25.158 38.9124 24.7738 38.7648C24.3897 38.6172 24.0421 38.4327 23.7128 38.1928C23.3836 37.953 23.1092 37.6393 22.8897 37.2519C22.6702 36.8644 22.5604 36.3663 22.5604 35.739C22.5604 33.8386 23.475 32.7316 25.3226 32.4364V31.5508H26.7128V32.4364C27.7189 32.5471 28.4506 32.8423 28.908 33.3589C29.3653 33.8755 29.5848 34.6504 29.5848 35.7021H26.9689V35.4807C26.9689 35.167 26.8958 34.9087 26.7677 34.6873C26.6397 34.4659 26.4385 34.3368 26.1641 34.3368C25.8531 34.3368 25.6336 34.429 25.5055 34.632C25.3592 34.8349 25.286 35.0379 25.286 35.2777C25.286 35.6283 25.3958 35.905 25.6336 36.108C25.8531 36.3109 26.1458 36.4954 26.4933 36.643C26.8409 36.7906 27.2067 36.9382 27.5909 37.0674C27.9933 37.1965 28.3592 37.3995 28.6885 37.6393C29.036 37.8792 29.3104 38.2113 29.5482 38.5988C29.7677 38.9862 29.8958 39.5213 29.8958 40.1855C29.8958 41.2187 29.6214 41.9936 29.0909 42.4917C28.5604 42.9899 27.7738 43.3035 26.7311 43.4143V44.7796H25.3409V43.4143C24.3714 43.3035 23.658 43.0268 23.1641 42.584Z" fill="#FFC64A"/>
<path d="M52.7443 39.0217C52.7443 39.0217 48.6284 37.97 45.9394 38.2283C45.9394 38.2283 44.9699 41.5863 48.9394 42.1582C52.854 42.7117 52.7443 39.0217 52.7443 39.0217Z" fill="#EB7D86"/>
<path d="M22.7802 24.059L20.6582 15.5904L23.4753 15L23.896 23.8745L22.7802 24.059Z" fill="#B9D3C5"/>
<path d="M26.9883 24.0041L28.5066 17.3066L30.3358 18.3214L27.7932 24.2255L26.9883 24.0041Z" fill="#B9D3C5"/>
<path d="M20.1099 25.1854L16.1953 18.9492L14.6953 21.0156L19.3599 25.7758L20.1099 25.1854Z" fill="#B9D3C5"/>
</g>
<defs>
<clipPath id="clip0">
<rect x="14" y="15" width="54" height="65" fill="white"/>
</clipPath>
</defs>
</svg>
