<svg width="250" height="248" viewBox="0 0 250 248" fill="none" xmlns="http://www.w3.org/2000/svg">
<g filter="url(#filter0_d)">
<g clip-path="url(#clip0)">
<path d="M21.2794 99.6797L22.085 147.297L55.5176 166.667L54.3092 119.05L21.2794 99.6797Z" fill="#292C36"/>
<path d="M54.3078 119.043L55.5162 166.661L148.563 112.586L147.758 64.9688L54.3078 119.043Z" fill="#676767"/>
<path opacity="0.56" d="M54.7106 119.043L55.5162 166.661L148.563 112.586L147.758 64.9688L54.7106 119.043Z" fill="url(#paint0_linear)"/>
<path d="M21.277 99.6767L54.3068 119.047L147.757 64.9722L114.324 46.0059L21.277 99.6767Z" fill="#373C48"/>
<path d="M21.6823 113.8L141.315 44.3911L142.12 43.584L22.4879 113.396L21.6823 113.8Z" fill="#454545"/>
<path d="M22.486 113.396L142.118 43.584L143.729 44.3911L24.0973 114.203L22.486 113.396Z" fill="#373C48"/>
<path d="M103.854 221.142L104.257 220.738C104.257 220.738 104.659 220.335 104.659 219.931L105.062 219.528C105.062 219.124 105.465 218.72 105.465 218.72V218.317C105.465 217.913 105.465 217.106 105.465 216.703V212.667V188.859L225.5 118.643V146.89C225.5 149.312 224.694 151.329 223.083 152.136L103.451 221.949C103.451 221.545 103.854 221.545 103.854 221.142Z" fill="#A0A0A0"/>
<path d="M105.867 177.959L104.256 181.994L105.867 188.451L103.45 186.837L102.242 186.433V175.941L105.867 177.959Z" fill="#292C36"/>
<path d="M103.449 186.837L102.241 186.434L103.449 186.837Z" fill="#B2B2B2"/>
<path d="M10.0002 132.766L13.6255 134.783V163.031C13.6255 165.856 15.6395 169.488 18.0563 171.102L97.4083 217.105C99.8251 218.72 101.839 217.509 101.839 214.281V186.033L103.048 186.84L105.062 188.051V211.859V215.895C105.062 216.702 105.062 217.105 105.062 217.509V217.913C105.062 218.316 105.062 218.72 104.659 218.72L104.256 219.123C104.256 219.527 103.853 219.527 103.853 219.93L103.45 220.334C101.839 221.544 99.8251 221.544 97.0055 220.334L17.6535 174.33C13.2226 171.909 9.59743 165.452 9.59743 160.206L10.0002 132.766Z" fill="#676767"/>
<path d="M105.868 188.453L104.257 181.997L223.889 112.588L225.5 118.641L105.868 188.453Z" fill="#373C48"/>
<path d="M91.3658 152.941L24.0979 114.201L143.73 44.3887L210.998 83.532L91.3658 152.941Z" fill="#4E5463"/>
<path d="M99.8244 215.487L20.0696 169.483C17.6528 167.869 15.6387 164.641 15.6387 161.412V133.165V122.673L24.0976 117.83L91.3655 156.973C97.4076 160.605 102.241 168.676 102.241 175.94V186.432V214.68C102.241 215.487 102.241 215.89 101.838 216.294C101.033 216.294 100.63 215.89 99.8244 215.487Z" fill="#A0A0A0"/>
<path d="M105.868 177.96C105.868 168.678 99.4229 157.783 91.3669 152.94L210.999 83.5312C219.055 87.9702 225.5 99.2693 225.5 108.551L105.868 177.96Z" fill="url(#paint1_linear)"/>
<path d="M21.6816 113.796L22.4872 113.393L24.0984 114.2L91.3663 153.343C99.4223 157.782 105.867 169.081 105.867 178.362L102.242 176.345C102.242 169.485 97.4083 161.01 91.3663 157.378L24.0984 118.235L13.6255 124.288V135.184L10.0003 133.166V122.27V120.656L11.2087 120.253L21.6816 113.796Z" fill="#373C48"/>
<path d="M192.471 127.518L199.318 123.482V165.854L192.471 161.819V127.518Z" fill="#1F2129"/>
<path d="M192.471 161.818L199.318 165.854L131.648 205.401V196.926L192.471 161.818Z" fill="#3B3B3B"/>
<path d="M192.47 161.82V129.133L131.647 163.837V196.927L192.47 161.82Z" fill="#292C36"/>
<path d="M192.47 169.49V148.506L131.647 184.421V205.001L192.47 169.49Z" fill="#1F2129"/>
<path opacity="0.23" d="M199.318 139.224V126.311L131.648 165.454V178.367L199.318 139.224Z" fill="url(#paint2_linear)"/>
<path d="M176.76 217.505L174.746 218.715L163.064 211.452L164.676 210.645L176.76 217.505Z" fill="#292C36"/>
<path d="M164.677 210.647L207.374 186.031L219.458 192.891L176.761 217.507L164.677 210.647Z" fill="#3B3B3B"/>
<path d="M155.008 214.278L155.411 216.296L131.646 202.576V200.154L155.008 214.278Z" fill="#1F2129"/>
<path d="M219.86 176.752V178.77L207.373 186.033L164.676 210.649L163.065 211.456L155.412 216.299L155.009 214.281L219.86 176.752Z" fill="#292C36"/>
<path d="M155.009 214.281L131.647 200.157V196.122L192.47 161.014L219.86 176.752L155.009 214.281Z" fill="#676767"/>
<path d="M175.552 228L168.704 223.965V221.947L175.552 225.983V228Z" fill="#1F2129"/>
<path d="M240 188.451V190.469L175.552 227.998V225.98L240 188.451Z" fill="#292C36"/>
<path d="M219.457 192.895L233.555 184.824L240 188.456L175.552 225.985L168.704 221.95L174.746 218.722L176.76 217.511L219.457 192.895Z" fill="#676767"/>
<path opacity="0.49" d="M164.677 210.647L207.374 186.031L219.458 192.891L176.761 217.507L164.677 210.647Z" fill="url(#paint3_linear)"/>
<path d="M215.832 181.19L204.554 187.647L202.137 186.436L213.415 179.576L215.832 181.19Z" fill="#EAEAEB"/>
<path d="M181.192 201.366L169.511 207.823L167.094 206.612L178.373 199.752L181.192 201.366Z" fill="#EAEAEB"/>
<path d="M131.646 191.277L178.774 218.718L233.958 186.838L181.191 155.766L131.646 184.013V191.277Z" fill="#F7F7F7"/>
<path d="M135.675 188.453L182.4 161.416L183.206 162.223L136.884 189.26L135.675 188.453Z" fill="#CCCCCC"/>
<path d="M137.689 189.666L184.414 162.629L185.22 163.436L138.897 190.473L137.689 189.666Z" fill="#CCCCCC"/>
<path d="M139.704 190.873L186.429 163.836L187.234 164.239L140.912 191.68L139.704 190.873Z" fill="#CCCCCC"/>
<path d="M141.717 192.086L188.442 165.049L189.248 165.452L142.926 192.49L141.717 192.086Z" fill="#CCCCCC"/>
<path d="M202.137 186.436L213.415 179.576L215.832 181.19L204.554 187.647L202.137 186.436Z" fill="#CCCCCC"/>
<path d="M167.094 206.612L178.373 199.752L181.192 201.366L169.511 207.823L167.094 206.612Z" fill="#CCCCCC"/>
<path d="M28.1248 100.08L36.5836 104.922L123.589 54.48L116.338 50.041L28.1248 100.08Z" fill="#1F2129"/>
<path d="M88.5474 23.8105L101.84 52.0583L88.5474 23.8105Z" fill="#454545"/>
<path d="M86.5334 25.0212L88.5474 23.8105L101.84 52.0583L99.8258 53.269L86.5334 25.0212Z" fill="#676767"/>
<path d="M82.9067 27.0352L96.1992 55.2829L82.9067 27.0352Z" fill="#454545"/>
<path d="M74.4492 67.7966L61.1567 39.5488L74.4492 67.7966L72.4352 69.0072L74.4492 67.7966Z" fill="#454545"/>
<path d="M55.5161 42.7734L68.8086 71.0212L55.5161 42.7734Z" fill="#454545"/>
<path d="M55.5161 42.7734L68.8086 71.0212L66.7946 72.2318L53.5021 43.9841L55.5161 42.7734Z" fill="#676767"/>
<path d="M42.6258 73.8496L47.0566 83.5346L42.6258 73.8496Z" fill="#454545"/>
<path d="M31.7502 56.4938L33.7642 55.2832L42.6258 73.846L47.0566 83.531L45.0426 84.7416L31.7502 56.4938Z" fill="#676767"/>
<path d="M41.4189 86.7615L40.6133 87.165L39.4049 87.9721L26.1125 59.7243L28.1265 58.5137L41.4189 86.7615Z" fill="#676767"/>
<path d="M20.4744 56.9009L31.3501 50.4442L78.478 23.407L89.3536 16.9504C90.1592 16.5469 90.9648 16.5469 91.7704 16.1433C96.2012 14.9327 101.438 17.7575 103.854 23.0035L116.744 50.0407L29.7389 100.08L16.8492 73.0424C14.0296 66.9893 15.6408 59.7256 20.4744 56.9009ZM101.84 52.0584L88.548 23.8106L86.534 25.0212L99.8265 53.269L101.84 52.0584ZM89.7564 46.8124L94.1872 56.4973L96.2012 55.2867L82.9088 27.0389L80.8948 28.2495L89.7564 46.8124ZM74.4499 67.7964L61.1574 39.5486L59.1434 40.7593L72.4359 69.007L74.4499 67.7964ZM53.5042 43.9876L66.7967 72.2354L68.8107 71.0247L55.5182 42.777L53.5042 43.9876ZM47.0594 83.5345L42.6286 73.8495L33.7669 55.2867L31.7529 56.4973L45.0454 84.7451L47.0594 83.5345ZM39.4061 87.9734L40.2118 87.5699L41.0173 87.1663L27.7249 58.9186L25.7109 60.1292L39.4061 87.9734Z" fill="#A0A0A0"/>
<path d="M96.1992 55.2829L94.1852 56.4936L89.7544 46.8086L80.8927 28.2458L82.9067 27.0352L96.1992 55.2829Z" fill="#676767"/>
<path d="M78.4771 23.4043L88.1443 17.3512C88.9499 16.9477 89.3527 16.5442 90.1583 16.5442L91.7695 16.1406C90.9639 16.1406 90.5611 16.5442 89.7555 16.9477L78.4771 23.4043Z" fill="#676767"/>
<path d="M61.1567 39.5488L74.4492 67.7966L72.4352 69.0072L59.1427 40.7594L61.1567 39.5488Z" fill="#676767"/>
<path d="M77.2691 23.8088L31.3497 50.0389L20.474 27.0372L67.6019 0L78.4775 23.0018V23.4053L77.2691 23.8088Z" fill="#858585"/>
<path d="M31.3494 50.0389L30.141 50.846L18.8625 27.4407L66.3932 0.40354L67.6016 0L20.4737 27.0372L31.3494 50.0389Z" fill="#676767"/>
<path d="M31.3497 50.4454L78.4775 23.4082L31.3497 50.4454Z" fill="#272727"/>
<path d="M18.8628 57.3055L29.7385 50.8489L30.9469 50.0418L77.2691 23.8117L78.4775 23.4082L31.3497 50.4454L20.474 56.902C15.6404 59.7268 14.0292 66.9905 16.8488 73.0436L29.7385 100.081L28.5301 100.484L15.6404 73.4471C12.418 67.394 14.0292 60.1303 18.8628 57.3055Z" fill="#676767"/>
<path d="M184.816 184.419L191.664 180.384C185.622 176.752 175.955 176.752 170.316 180.384L177.163 184.419C179.177 183.209 182.802 183.209 184.816 184.419Z" fill="#FFFF00"/>
<path d="M184.816 188.861L191.664 192.896C197.706 189.265 197.706 184.019 191.664 180.387L184.816 184.422C186.83 185.633 186.83 187.65 184.816 188.861Z" fill="#00FFFF"/>
<path d="M191.664 192.895L184.816 188.859C182.802 190.07 179.177 190.07 177.163 188.859L170.316 192.895C176.358 196.123 186.025 196.123 191.664 192.895Z" fill="black"/>
<path d="M177.164 184.422L170.316 180.387C164.274 184.019 164.274 189.265 170.316 192.896L177.164 188.861C175.15 187.65 175.15 185.633 177.164 184.422Z" fill="#FF00FE"/>
<path d="M131.646 184.013L181.191 155.766L217.04 176.75L161.856 209.033L131.646 190.874V184.013Z" fill="url(#paint4_linear)"/>
<path d="M13.6247 124.291L15.6387 123.08V133.572L13.6247 134.783V124.291Z" fill="#6A7489"/>
<path d="M13.6262 134.781L15.6402 133.57V161.415C15.6402 164.239 17.6542 167.871 20.071 169.485L99.8258 215.489C100.631 215.892 101.437 216.296 101.84 215.892C101.034 217.507 99.423 217.91 97.409 216.7L18.057 170.696C15.6402 169.082 13.6262 165.854 13.6262 162.625V134.781Z" fill="#CCCCCC"/>
<path d="M104.257 181.998L105.868 177.963L225.5 108.15L223.889 112.589L104.257 181.998Z" fill="#292C36"/>
</g>
</g>
<defs>
<filter id="filter0_d" x="0" y="0" width="250" height="248" filterUnits="userSpaceOnUse" color-interpolation-filters="sRGB">
<feFlood flood-opacity="0" result="BackgroundImageFix"/>
<feColorMatrix in="SourceAlpha" type="matrix" values="0 0 0 0 0 0 0 0 0 0 0 0 0 0 0 0 0 0 127 0"/>
<feOffset dy="10"/>
<feGaussianBlur stdDeviation="5"/>
<feColorMatrix type="matrix" values="0 0 0 0 0 0 0 0 0 0 0 0 0 0 0 0 0 0 0.25 0"/>
<feBlend mode="normal" in2="BackgroundImageFix" result="effect1_dropShadow"/>
<feBlend mode="normal" in="SourceGraphic" in2="effect1_dropShadow" result="shape"/>
</filter>
<linearGradient id="paint0_linear" x1="101.625" y1="166.467" x2="101.625" y2="65.0043" gradientUnits="userSpaceOnUse">
<stop stop-color="#4C4C4C"/>
<stop offset="0.1354" stop-color="#515151"/>
<stop offset="0.2851" stop-color="#5E5E5E"/>
<stop offset="0.4416" stop-color="#747474"/>
<stop offset="0.6029" stop-color="#939393"/>
<stop offset="0.7678" stop-color="#BBBBBB"/>
<stop offset="0.9334" stop-color="#EBEBEB"/>
<stop offset="0.9962" stop-color="white"/>
</linearGradient>
<linearGradient id="paint1_linear" x1="167.218" y1="142.438" x2="152.675" y2="117.295" gradientUnits="userSpaceOnUse">
<stop stop-color="#373C48"/>
<stop offset="0.1464" stop-color="#393E4A"/>
<stop offset="0.2269" stop-color="#404652"/>
<stop offset="0.2914" stop-color="#4D5360"/>
<stop offset="0.3473" stop-color="#5F6574"/>
<stop offset="0.3973" stop-color="#757D8D"/>
<stop offset="0.4293" stop-color="#8890A1"/>
<stop offset="0.5441" stop-color="#7A8396"/>
<stop offset="0.7095" stop-color="#6A7489"/>
<stop offset="0.8475" stop-color="#5B6274"/>
<stop offset="0.9436" stop-color="#4E5463"/>
</linearGradient>
<linearGradient id="paint2_linear" x1="164.451" y1="150.688" x2="166.665" y2="154.676" gradientUnits="userSpaceOnUse">
<stop stop-color="#4C4C4C"/>
<stop offset="0.1669" stop-color="#6E6E6E"/>
<stop offset="0.5702" stop-color="#BCBCBC"/>
<stop offset="0.8578" stop-color="#ECECEC"/>
<stop offset="1" stop-color="white"/>
</linearGradient>
<linearGradient id="paint3_linear" x1="219.275" y1="201.779" x2="164.779" y2="201.779" gradientUnits="userSpaceOnUse">
<stop stop-color="white"/>
<stop offset="0.1422" stop-color="#ECECEC"/>
<stop offset="0.4298" stop-color="#BCBCBC"/>
<stop offset="0.8331" stop-color="#6E6E6E"/>
<stop offset="1" stop-color="#4C4C4C"/>
</linearGradient>
<linearGradient id="paint4_linear" x1="181.914" y1="197.21" x2="163.623" y2="165.589" gradientUnits="userSpaceOnUse">
<stop stop-color="white"/>
<stop offset="0.7581" stop-color="white"/>
<stop offset="0.8006" stop-color="#FCFCFC"/>
<stop offset="0.837" stop-color="#F1F1F1"/>
<stop offset="0.8712" stop-color="#DFDFDF"/>
<stop offset="0.904" stop-color="#C7C7C7"/>
<stop offset="0.9358" stop-color="#A6A6A6"/>
<stop offset="0.9669" stop-color="#7F7F7F"/>
<stop offset="0.9968" stop-color="#515151"/>
<stop offset="1" stop-color="#4C4C4C"/>
</linearGradient>
<clipPath id="clip0">
<rect width="230" height="228" transform="matrix(-1 0 0 1 240 0)" fill="white"/>
</clipPath>
</defs>
</svg>
