<svg width="496" height="59" viewBox="0 0 496 59" fill="none" xmlns="http://www.w3.org/2000/svg">
<rect x="1.5" y="39.5" width="494" height="9" stroke="#40404C"/>
<rect x="1" y="39" width="247" height="10" fill="#40404C"/>
<path d="M0.096 3.6V4.644H1.992V12H3.18V3.6H0.096ZM13.9401 5.64H9.26006V12H10.4121V6.648H13.9401V5.64ZM17.8022 12.072C19.7102 12.072 21.1022 10.716 21.1022 8.82C21.1022 6.924 19.7102 5.58 17.8022 5.58C15.8942 5.58 14.4902 6.924 14.4902 8.82C14.4902 10.716 15.8942 12.072 17.8022 12.072ZM17.8022 11.064C16.5782 11.064 15.6542 10.176 15.6542 8.82C15.6542 7.464 16.5782 6.588 17.8022 6.588C19.0262 6.588 19.9382 7.464 19.9382 8.82C19.9382 10.176 19.0262 11.064 17.8022 11.064ZM28.4548 10.992V5.64H23.5228L23.4268 7.788C23.3428 9.396 23.1868 10.944 22.2748 10.992H21.9388V13.476H23.0308V12H28.3468V13.476H29.4268V10.992H28.4548ZM24.4828 7.872L24.5428 6.648H27.3028V10.992H23.7388C24.3148 10.488 24.4348 9.192 24.4828 7.872Z" fill="#40404C"/>
<path d="M457.357 3.6V4.644H459.253V12H460.441V3.6H457.357ZM465.95 12.096C467.906 12.096 469.37 10.536 469.37 7.8C469.37 5.064 467.906 3.504 465.95 3.504C463.982 3.504 462.518 5.064 462.518 7.8C462.518 10.536 463.982 12.096 465.95 12.096ZM465.95 11.028C464.63 11.028 463.718 9.948 463.718 7.8C463.718 5.652 464.63 4.572 465.95 4.572C467.258 4.572 468.17 5.652 468.17 7.8C468.17 9.948 467.258 11.028 465.95 11.028ZM475.341 5.64L475.233 7.992C475.149 9.492 475.101 11.052 474.069 11.052C473.985 11.052 473.889 11.04 473.781 11.016L473.709 11.988C473.973 12.06 474.201 12.096 474.417 12.096C475.857 12.096 476.157 10.308 476.265 8.064L476.337 6.648H479.073V12H480.225V5.64H475.341ZM488.44 8.856C488.44 6.9 487.132 5.58 485.296 5.58C483.46 5.58 482.104 6.936 482.104 8.82C482.104 10.716 483.472 12.072 485.524 12.072C486.58 12.072 487.456 11.712 488.032 11.04L487.396 10.296C486.928 10.812 486.304 11.064 485.56 11.064C484.3 11.064 483.4 10.32 483.256 9.204H488.416C488.428 9.096 488.44 8.952 488.44 8.856ZM485.296 6.552C486.412 6.552 487.216 7.308 487.336 8.376H483.256C483.376 7.296 484.192 6.552 485.296 6.552ZM494.938 5.64H489.13V6.648H491.458V12H492.61V6.648H494.938V5.64Z" fill="#40404C"/>
<path d="M233.004 5.948H232.068L232.296 3.644H236.028V2.6H231.288L230.844 6.992H232.752C234.696 6.992 235.296 7.58 235.296 8.528C235.296 9.44 234.576 10.028 233.304 10.028C232.284 10.028 231.348 9.656 230.784 9.128L230.232 10.076C230.952 10.712 232.128 11.096 233.316 11.096C235.464 11.096 236.496 9.932 236.496 8.48C236.496 6.992 235.512 5.948 233.004 5.948ZM242.313 4.64L242.205 6.992C242.121 8.492 242.073 10.052 241.041 10.052C240.957 10.052 240.861 10.04 240.753 10.016L240.681 10.988C240.945 11.06 241.173 11.096 241.389 11.096C242.829 11.096 243.129 9.308 243.237 7.064L243.309 5.648H246.045V11H247.197V4.64H242.313ZM255.413 7.856C255.413 5.9 254.105 4.58 252.269 4.58C250.433 4.58 249.077 5.936 249.077 7.82C249.077 9.716 250.445 11.072 252.497 11.072C253.553 11.072 254.429 10.712 255.005 10.04L254.369 9.296C253.901 9.812 253.277 10.064 252.533 10.064C251.273 10.064 250.373 9.32 250.229 8.204H255.389C255.401 8.096 255.413 7.952 255.413 7.856ZM252.269 5.552C253.385 5.552 254.189 6.308 254.309 7.376H250.229C250.349 6.296 251.165 5.552 252.269 5.552ZM261.91 4.64H256.102V5.648H258.43V11H259.582V5.648H261.91V4.64Z" fill="#40404C"/>
<line x1="1.5" y1="34" x2="1.5" y2="54" stroke="#40404C"/>
<line x1="495.5" y1="34" x2="495.5" y2="54" stroke="#40404C"/>
<line x1="245.5" y1="29" x2="245.5" y2="59" stroke="#40404C" stroke-width="5"/>
</svg>
