<svg width="20" height="20" viewBox="0 0 20 20" fill="none" xmlns="http://www.w3.org/2000/svg">
<g clip-path="url(#clip0)">
<path d="M5.98872 11.4018C5.60993 12.2679 5.06301 13.0059 4.5234 13.43C3.55278 14.1928 3.13688 13.2222 2.23563 13.2222C1.61114 13.2222 1.21969 13.6879 0.715239 13.7205C0.253989 12.5703 0.00012207 11.3145 0.00012207 9.99973C0.00012207 8.72789 0.237661 7.51157 0.670747 6.39239C1.37403 6.46016 1.58668 6.82016 2.23563 6.82016C2.95196 6.82016 3.13684 6.38098 4.03809 6.38098C4.62297 6.38098 5.34586 6.74059 5.85403 7.37161C5.09442 7.71078 4.56465 8.47324 4.56465 9.35938C4.56461 10.2969 5.15766 11.0961 5.98872 11.4018Z" fill="#353535"/>
<path d="M1.92761 6.29984C1.92761 6.35796 1.93062 6.41539 1.93527 6.47234C3.05164 6.43542 3.9455 5.51945 3.9455 4.39406C3.9455 4.33593 3.94249 4.27851 3.93785 4.22156C2.82148 4.25843 1.92761 5.17445 1.92761 6.29984Z" fill="#353535"/>
<path d="M7.19145 6.7421C7.19145 6.56182 7.35168 6.40155 7.60207 6.40155H9.5552C10.7872 6.40155 11.7487 6.99249 11.7487 8.60507V8.68518C11.7487 10.2878 10.7571 10.8987 9.49508 10.8987H8.25309V13.3726C8.25309 13.603 7.9927 13.7232 7.72223 13.7232C7.46184 13.7232 7.19141 13.603 7.19141 13.3726L7.19145 6.7421ZM8.25313 7.34303V10.0574H9.49512C10.2363 10.0574 10.687 9.63667 10.687 8.7553V8.6351C10.687 7.7537 10.2363 7.34307 9.49512 7.34307L8.25313 7.34303Z" fill="#353535"/>
<path d="M15.5238 10.859V13.373C15.5238 13.5633 15.3034 13.7236 15.0129 13.7236C14.7425 13.7236 14.5322 13.5633 14.5322 13.373V13.0224C14.1816 13.4331 13.7009 13.8036 13.0197 13.8036C12.2886 13.8036 11.6876 13.383 11.6876 12.4816C11.6876 11.3498 12.6392 11.0493 14.0314 11.0493H14.4721V10.869C14.4721 10.3582 14.2117 9.78726 13.4805 9.78726C12.7493 9.78726 12.569 10.0878 12.3687 10.0878C12.1183 10.0878 11.9881 9.79734 11.9881 9.55691C11.9881 9.19632 12.8195 8.91589 13.5006 8.91589C14.9729 8.91589 15.5238 9.85742 15.5238 10.859ZM14.4721 11.6302H14.2217C13.4605 11.6302 12.7493 11.7103 12.7493 12.3514C12.7493 12.8021 13.0298 13.0025 13.4004 13.0025C13.9011 13.0025 14.4721 12.4816 14.4721 12.0008V11.6302Z" fill="#353535"/>
<path d="M15.6832 9.54678C15.6532 9.50674 15.6432 9.46666 15.6432 9.40658C15.6432 9.13611 16.0538 8.90576 16.3342 8.90576C16.4745 8.90576 16.6047 8.96588 16.6548 9.09607L17.9168 12.3513L18.9985 9.09607C19.0587 8.96588 19.1788 8.90576 19.299 8.90576C19.5494 8.90576 20.0001 9.12611 20.0001 9.42662C20.0001 9.46666 20.0001 9.51674 19.9801 9.54678L18.4978 13.463C18.047 14.6449 17.5563 15.977 16.134 15.977C15.8636 15.977 15.6432 15.9069 15.6432 15.5263C15.6432 15.2859 15.7233 15.0756 15.9337 15.0756C16.4444 15.0756 17.2257 14.5648 17.366 13.433L15.6832 9.54678Z" fill="#353535"/>
</g>
<defs>
<clipPath id="clip0">
<rect width="20" height="20" fill="white"/>
</clipPath>
</defs>
</svg>
