<svg width="20" height="20" viewBox="0 0 20 20" fill="none" xmlns="http://www.w3.org/2000/svg">
<g clip-path="url(#clip0)">
<path d="M2.13961 7.41498C1.26082 7.41498 0.644102 7.62967 0.212266 7.94275C0.211875 7.94275 0.211875 7.94275 0.211875 7.94275C0.0730469 8.60642 0 9.29459 0 9.99947C0 10.797 0.0934765 11.5729 0.270195 12.3166C0.683242 12.5897 1.25957 12.7766 2.06406 12.7766C4.63184 12.7766 4.74488 11.1529 4.74488 11.1529H3.57469C3.57469 11.1529 3.34816 12.0215 2.06406 11.9836C0.440781 11.9836 0.365273 10.3603 0.365273 10.3603H4.8959C4.93387 10.3603 5.27348 7.41498 2.13961 7.41498ZM0.402852 9.60478C0.402852 9.60478 0.478359 8.1701 2.10203 8.1701C3.7257 8.1701 3.7257 9.60478 3.7257 9.60478H0.402852Z" fill="#E82F31"/>
<path d="M8.18066 7.45333C6.74594 7.45333 6.2173 8.28399 6.2173 8.28399V5.45227H4.93359L4.97137 11.4556C4.97137 11.4556 4.97137 12.2485 4.93359 12.626H6.02852L6.06629 11.9464C6.06629 11.9464 6.59484 12.777 8.10516 12.777C9.61547 12.777 10.8236 11.8331 10.8614 10.1341C10.8614 8.43501 9.57766 7.45333 8.18066 7.45333ZM7.84086 12.0218C6.06633 12.0596 6.06633 10.134 6.06633 10.134C6.06633 10.134 5.99082 8.28395 7.84086 8.24614C9.65316 8.20837 9.61539 10.1717 9.61539 10.1717C9.61539 10.1717 9.61539 11.9841 7.84086 12.0218Z" fill="#0061D5"/>
<path d="M16.034 11.4175C16.034 10.6246 16.0717 9.94498 16.034 9.45412C15.9962 8.88779 16.0717 7.45303 13.6175 7.33975C13.6175 7.33975 11.2766 7.30197 11.0123 8.81225H12.2206C12.2206 8.81225 12.2961 8.05709 13.542 8.09486C14.7125 8.13264 14.9013 8.69893 14.9013 9.41635C14.9013 9.41635 13.9196 9.45412 13.5798 9.45412C12.9757 9.45412 10.8991 9.52963 10.7103 10.8133C10.4838 12.3236 11.8052 12.7767 12.8624 12.7767C13.9196 12.7767 14.5237 12.4747 14.9768 11.9083L15.0146 12.6257H16.0718C16.0717 12.5879 16.034 12.2104 16.034 11.4175ZM13.0512 12.0594C13.0512 12.0594 11.9185 12.0594 11.843 11.1532C11.7675 10.1715 13.5798 10.247 13.5798 10.247H14.8635C14.9013 10.247 15.1278 12.0971 13.0512 12.0594Z" fill="#F7B000"/>
<path d="M20 9.99983C20 10.4802 19.9662 10.9529 19.9004 11.4149L18.2996 14.5137H17.0159L18.0351 12.626L15.4298 7.71741H16.7514L18.6772 11.5689L19.9523 9.01823C19.9841 9.34104 20 9.66838 20 9.99983Z" fill="#85BA00"/>
</g>
<defs>
<clipPath id="clip0">
<rect width="20" height="20" fill="white"/>
</clipPath>
</defs>
</svg>
