<svg width="20" height="20" viewBox="0 0 20 20" fill="none" xmlns="http://www.w3.org/2000/svg">
<path d="M10.1553 11.8358C10.1553 11.8358 10.0389 12.8717 9.52886 14.5728C9.33921 15.2064 9.09425 15.9328 8.78101 16.7316L6.13159 14.9356V10.8552C6.79179 7.63681 6.7171 5.52478 6.7171 5.52478L9.20776 6.96154L10.1553 11.8358Z" fill="#FCD645"/>
<path d="M9.5303 14.5656L9.52886 14.5728C9.33921 15.2064 9.09425 15.9327 8.78101 16.7315L6.13159 14.9355V10.8551L9.5303 14.5656Z" fill="#F7C840"/>
<path d="M8.78094 16.7315C8.30649 14.6913 6.3984 10.7005 4.66325 8.92665C4.63196 8.89466 4.58907 8.8772 4.5443 8.8772H0.446021C0.301607 8.8772 0.226216 9.04763 0.322584 9.15517C1.99778 11.0237 3.77157 14.7748 4.22661 16.7315H8.78094V16.7315Z" fill="#12B65F"/>
<path d="M17.812 13.6274C17.7487 14.5907 17.6438 15.5952 17.4851 16.6311C17.1732 16.9833 16.8369 17.3131 16.4785 17.618C15.643 18.3295 14.6892 18.9054 13.65 19.3127C13.2378 19.4747 12.8124 19.6098 12.3753 19.7156L12.939 13.8535L13.3822 9.2429C13.1961 5.96004 12.61 3.5784 12.3529 2.66618C12.2949 2.46004 12.4492 2.25598 12.6631 2.25598H16.441C16.5843 2.25598 16.71 2.34946 16.75 2.48661C16.7655 2.53926 16.7835 2.6009 16.8031 2.6711C17.1659 3.95883 18.1728 8.1327 17.812 13.6274Z" fill="#508BF4"/>
<path d="M17.812 13.6272C17.7487 14.5905 17.6438 15.595 17.485 16.6309C17.1732 16.9831 16.8368 17.3129 16.4785 17.6179C15.643 18.3293 14.6891 18.9052 13.6499 19.3125L12.9389 13.8534L12.5842 11.128L13.3822 9.24274L17.812 13.6272Z" fill="#497CE7"/>
<path d="M16.4784 17.6175C15.2955 18.6245 13.8751 19.3608 12.3127 19.7306C11.7368 12.7032 6.71716 5.52405 6.71716 5.52405H11.1812C11.1812 5.52405 15.2437 11.3347 16.4784 17.6175Z" fill="#D23737"/>
</svg>
