<svg width="20" height="20" viewBox="0 0 20 20" fill="none" xmlns="http://www.w3.org/2000/svg">
<path d="M6.79812 13.3989C9.64497 13.3989 11.9528 11.0911 11.9528 8.24423C11.9528 5.39737 9.64497 3.08954 6.79812 3.08954C3.95126 3.08954 1.64343 5.39737 1.64343 8.24423C1.64343 11.0911 3.95126 13.3989 6.79812 13.3989Z" fill="#EE0005"/>
<path d="M13.2021 13.3989C16.0489 13.3989 18.3567 11.0911 18.3567 8.24423C18.3567 5.39737 16.0489 3.08954 13.2021 3.08954C10.3552 3.08954 8.04736 5.39737 8.04736 8.24423C8.04736 11.0911 10.3552 13.3989 13.2021 13.3989Z" fill="#0098E2"/>
<path d="M8.04749 8.24429C8.04749 9.88101 8.81045 11.3394 9.99998 12.2836C11.1895 11.3394 11.9525 9.88101 11.9525 8.24429C11.9525 6.60757 11.1895 5.14921 9.99998 4.20496C8.81049 5.14925 8.04749 6.60761 8.04749 8.24429Z" fill="#6C69BF"/>
<path d="M4.67305 15.5779C4.67305 15.3523 4.51297 15.2031 4.33465 15.2031C4.16367 15.2031 3.99629 15.3341 3.99629 15.5815V16.4839C3.99629 16.5457 3.90531 16.6112 3.80344 16.6112C3.69066 16.6112 3.61426 16.5458 3.61426 16.4839V15.0103C3.61426 14.9375 3.69066 14.8866 3.80344 14.8866C3.89441 14.8866 3.97445 14.9375 3.97445 15.0103V15.1413C4.05449 14.9994 4.21457 14.8647 4.45832 14.8647C4.67664 14.8647 4.85125 15.0139 4.93496 15.2286C5.06231 14.9812 5.27332 14.8647 5.48434 14.8647C5.8118 14.8647 6.11743 15.1231 6.11743 15.5815V16.4838C6.11743 16.5457 6.03008 16.6112 5.92457 16.6112C5.82633 16.6112 5.73539 16.5457 5.73539 16.4838V15.5815C5.73539 15.3304 5.56438 15.1995 5.39703 15.1995C5.22602 15.1995 5.05504 15.3377 5.05504 15.5742V16.4875C5.05504 16.5748 4.96043 16.6112 4.86219 16.6112C4.77485 16.6112 4.67301 16.5748 4.67301 16.4875V15.5779H4.67305Z" fill="#171614"/>
<path d="M7.97331 15.5706V16.4838C7.97331 16.553 7.89327 16.6112 7.78776 16.6112C7.68952 16.6112 7.61311 16.553 7.61311 16.4838V16.3565C7.48577 16.5057 7.31112 16.6403 7.06374 16.6403C6.79815 16.6403 6.57983 16.4875 6.57983 16.16C6.57983 15.7489 6.9255 15.6397 7.43124 15.6397H7.59132V15.5742C7.59132 15.3887 7.49675 15.1813 7.23112 15.1813C6.9655 15.1813 6.90003 15.2904 6.82726 15.2904C6.73628 15.2904 6.68901 15.1849 6.68901 15.0976C6.68901 14.9666 6.99101 14.8647 7.23839 14.8647C7.77315 14.8647 7.97331 15.2067 7.97331 15.5706ZM7.5912 15.8507H7.50022C7.22374 15.8507 6.96538 15.8798 6.96538 16.1127C6.96538 16.2764 7.06726 16.3492 7.20186 16.3492C7.38378 16.3492 7.59116 16.16 7.59116 15.9853L7.5912 15.8507Z" fill="#171614"/>
<path d="M9.96373 15.5378C9.96373 15.8398 9.79634 15.8507 9.63263 15.8507H8.8649V15.9344C8.8649 16.1781 9.05775 16.331 9.33787 16.331C9.59619 16.331 9.68349 16.1927 9.78173 16.1927C9.87271 16.1927 9.93091 16.2982 9.93091 16.3637C9.93091 16.4729 9.69443 16.6403 9.32693 16.6403C8.83212 16.6403 8.48279 16.3492 8.48279 15.9162V15.5706C8.48279 15.1885 8.82115 14.8647 9.23958 14.8647C9.629 14.8647 9.96373 15.1412 9.96373 15.5378ZM9.46888 15.6142C9.57439 15.6142 9.60349 15.5924 9.60349 15.5051C9.60349 15.3122 9.44341 15.1558 9.23603 15.1558C9.03591 15.1558 8.86494 15.2977 8.86494 15.4978V15.6142H9.46888Z" fill="#171614"/>
<path d="M11.2808 16.1491C11.2808 15.7671 10.4039 15.9926 10.4039 15.3887C10.4039 15.1376 10.5677 14.8647 11.0261 14.8647C11.299 14.8647 11.5718 14.963 11.5718 15.0794C11.5718 15.134 11.5173 15.2649 11.4263 15.2649C11.3499 15.2649 11.2371 15.1594 11.0334 15.1594C10.8188 15.1594 10.7387 15.2795 10.7387 15.3704C10.7387 15.6906 11.6229 15.4796 11.6229 16.1345C11.6229 16.4438 11.3936 16.6403 10.9825 16.6403C10.6223 16.6403 10.3567 16.4874 10.3567 16.3492C10.3567 16.2837 10.4113 16.1782 10.4877 16.1782C10.5823 16.1782 10.6587 16.3456 10.9716 16.3456C11.2116 16.3456 11.2808 16.2473 11.2808 16.1491Z" fill="#171614"/>
<path d="M12.4925 16.0438C12.4925 16.2184 12.558 16.2839 12.7472 16.2839H12.8745C12.9837 16.2839 13.0382 16.364 13.0382 16.4477C13.0382 16.5313 12.9837 16.6114 12.8745 16.6114H12.7472C12.3324 16.6114 12.1105 16.4404 12.1105 16.0438V14.2209C12.1105 14.1482 12.2087 14.0972 12.2997 14.0972C12.3943 14.0972 12.4925 14.1482 12.4925 14.2209V14.8868H12.9364C13.0018 14.8868 13.0419 14.9559 13.0419 15.0287C13.0419 15.1014 13.0019 15.1705 12.9364 15.1705H12.4925V16.0438Z" fill="#171614"/>
<path d="M14.3189 15.2037C14.097 15.2037 13.8787 15.4074 13.8787 15.7385V16.4844C13.8787 16.5462 13.7914 16.6117 13.6823 16.6117C13.5731 16.6117 13.4967 16.5462 13.4967 16.4844V15.0108C13.4967 14.938 13.5731 14.8871 13.6823 14.8871C13.7768 14.8871 13.8569 14.938 13.8569 15.0108V15.1709C13.9333 15.018 14.1043 14.8652 14.319 14.8652H14.4354C14.5118 14.8652 14.581 14.9416 14.581 15.0326C14.581 15.1272 14.5118 15.2036 14.4354 15.2036H14.3189V15.2037Z" fill="#171614"/>
<path d="M16.3856 15.5815V15.9162C16.3856 16.2946 16.0327 16.6403 15.6324 16.6403C15.2286 16.6403 14.8793 16.2983 14.8793 15.9162V15.5815C14.8793 15.1995 15.2177 14.8647 15.6324 14.8647C16.0327 14.8647 16.3856 15.1885 16.3856 15.5815ZM16.0035 15.5815C16.0035 15.3923 15.8361 15.2031 15.6324 15.2031C15.4251 15.2031 15.2613 15.3923 15.2613 15.5815V15.9162C15.2613 16.1127 15.4251 16.3019 15.6324 16.3019C15.8362 16.3019 16.0035 16.1127 16.0035 15.9162V15.5815Z" fill="#171614"/>
</svg>
