<svg width="20" height="20" viewBox="0 0 20 20" fill="none" xmlns="http://www.w3.org/2000/svg">
<path d="M6.79763 13.3989C9.64449 13.3989 11.9523 11.0911 11.9523 8.24423C11.9523 5.39737 9.64449 3.08954 6.79763 3.08954C3.95078 3.08954 1.64294 5.39737 1.64294 8.24423C1.64294 11.0911 3.95078 13.3989 6.79763 13.3989Z" fill="#EE0005"/>
<path d="M13.2021 13.3989C16.0489 13.3989 18.3567 11.0911 18.3567 8.24423C18.3567 5.39737 16.0489 3.08954 13.2021 3.08954C10.3552 3.08954 8.04736 5.39737 8.04736 8.24423C8.04736 11.0911 10.3552 13.3989 13.2021 13.3989Z" fill="#F9A000"/>
<path d="M8.04724 8.24429C8.04724 9.88101 8.81021 11.3394 9.99974 12.2836C11.1892 11.3394 11.9522 9.88101 11.9522 8.24429C11.9522 6.60757 11.1893 5.14917 9.99974 4.20496C8.81025 5.14925 8.04724 6.60761 8.04724 8.24429Z" fill="#FF6300"/>
<path d="M3.67797 14.9456C3.46449 14.9456 3.25102 15.0631 3.12246 15.3133C3.03758 15.0962 2.86082 14.9456 2.64 14.9456C2.39348 14.9456 2.23145 15.0815 2.15063 15.2252V15.0925C2.15063 15.019 2.0698 14.9676 1.97758 14.9676C1.86371 14.9676 1.78613 15.0191 1.78613 15.0925V15.7056C1.90941 15.8827 2.03836 16.0558 2.17266 16.2243V15.6705C2.17266 15.4203 2.34203 15.2876 2.51512 15.2876C2.69551 15.2876 2.85715 15.4386 2.85715 15.6668V16.5872C2.85715 16.6754 2.96043 16.7121 3.04859 16.7121C3.1482 16.7121 3.24371 16.6754 3.24371 16.5872V15.6631C3.24371 15.424 3.41676 15.284 3.58984 15.284C3.75922 15.284 3.9323 15.4166 3.9323 15.6705V16.5835C3.9323 16.646 4.02414 16.7121 4.12375 16.7121C4.23027 16.7121 4.31844 16.6459 4.31844 16.5835V15.6705C4.31836 15.2068 4.00938 14.9456 3.67797 14.9456Z" fill="#171614"/>
<path d="M5.2644 14.9456C5.0142 14.9456 4.70846 15.0484 4.70846 15.1811C4.70846 15.2692 4.75663 15.3762 4.84846 15.3762C4.92194 15.3762 4.98846 15.2656 5.25702 15.2656C5.52557 15.2656 5.62151 15.4754 5.62151 15.6631V15.7292H5.45948C4.94803 15.7292 4.59827 15.8399 4.59827 16.2558C4.59827 16.5872 4.81909 16.7415 5.08764 16.7415C5.33784 16.7415 5.51459 16.6056 5.64358 16.4545V16.5835C5.64358 16.6533 5.72073 16.712 5.8203 16.712C5.92682 16.712 6.00807 16.6533 6.00807 16.5835V15.6594C6.00807 15.2913 5.80561 14.9456 5.2644 14.9456ZM5.62155 16.079C5.62155 16.2558 5.41174 16.4472 5.22768 16.4472C5.09135 16.4472 4.9885 16.3737 4.9885 16.208C4.9885 15.9725 5.24971 15.9427 5.52932 15.9427H5.62155V16.079Z" fill="#171614"/>
<path d="M6.68531 15.4563C6.68531 15.3645 6.76613 15.2429 6.98328 15.2429C7.1898 15.2429 7.30367 15.3498 7.38082 15.3498C7.47305 15.3498 7.52816 15.2172 7.52816 15.162C7.52816 15.0441 7.25223 14.9449 6.97594 14.9449C6.51227 14.9449 6.34656 15.2208 6.34656 15.4747C6.34656 16.0857 7.23391 15.8575 7.23391 16.2441C7.23391 16.3432 7.16371 16.4429 6.92086 16.4429C6.60453 16.4429 6.52699 16.2735 6.43148 16.2735C6.35395 16.2735 6.29883 16.3804 6.29883 16.4465C6.29883 16.5865 6.56781 16.7408 6.93187 16.7408C7.34781 16.7408 7.57965 16.542 7.57965 16.2294C7.57961 15.567 6.68531 15.7804 6.68531 15.4563Z" fill="#171614"/>
<path d="M8.65822 16.3815H8.52923C8.33779 16.3815 8.27169 16.315 8.27169 16.1383V15.255H8.72068C8.78681 15.255 8.82763 15.1852 8.82763 15.1113C8.82763 15.0379 8.78681 14.9681 8.72068 14.9681H8.27169V14.2942C8.27169 14.2207 8.17208 14.1693 8.07658 14.1693C7.98435 14.1693 7.88513 14.2208 7.88513 14.2942V16.1383C7.88513 16.5395 8.10962 16.7126 8.52919 16.7126H8.65818C8.76837 16.7126 8.82349 16.6317 8.82349 16.5468C8.82353 16.4624 8.76841 16.3815 8.65822 16.3815Z" fill="#171614"/>
<path d="M10.3476 16.2888C10.248 16.2888 10.1599 16.4288 9.89864 16.4288C9.61497 16.4288 9.41985 16.2741 9.41985 16.0276V15.9427H10.1966C10.3623 15.9427 10.5317 15.9317 10.5317 15.6264C10.5317 15.2252 10.1929 14.9456 9.79903 14.9456C9.37575 14.9456 9.03333 15.2729 9.03333 15.6594V16.0092C9.03333 16.4472 9.3868 16.7415 9.88763 16.7415C10.2591 16.7415 10.4986 16.5721 10.4986 16.4618C10.4986 16.3958 10.4395 16.2888 10.3476 16.2888ZM9.41985 15.5859C9.41985 15.3835 9.5929 15.2398 9.79536 15.2398C10.0052 15.2398 10.1672 15.3982 10.1672 15.5933C10.1672 15.6815 10.1378 15.7035 10.0309 15.7035H9.41985V15.5859Z" fill="#171614"/>
<path d="M11.7943 14.9456H11.6763C11.4592 14.9456 11.2865 15.0999 11.209 15.2545V15.0925C11.209 15.019 11.1282 14.9676 11.0323 14.9676C10.9221 14.9676 10.8445 15.0191 10.8445 15.0925V16.5835C10.8445 16.646 10.922 16.7121 11.0323 16.7121C11.1429 16.7121 11.231 16.6459 11.231 16.5835V15.8288C11.231 15.4937 11.4519 15.2876 11.6764 15.2876H11.7943C11.8715 15.2876 11.9417 15.2105 11.9417 15.1146C11.9416 15.0227 11.8714 14.9456 11.7943 14.9456Z" fill="#171614"/>
<path d="M13.2922 16.2778C13.2077 16.2778 13.1489 16.3994 12.9057 16.3994C12.6224 16.3994 12.4971 16.2521 12.4971 16.0092V15.6778C12.4971 15.4349 12.6261 15.2876 12.902 15.2876C13.138 15.2876 13.204 15.4019 13.2812 15.4019C13.3734 15.4019 13.4359 15.2876 13.4359 15.2141C13.4359 15.0851 13.2077 14.9456 12.8726 14.9456C12.3465 14.9456 12.111 15.2656 12.111 15.6778V16.0092C12.111 16.4288 12.3465 16.7415 12.8763 16.7415C13.2151 16.7415 13.4579 16.5908 13.4579 16.4618C13.458 16.3847 13.3955 16.2778 13.2922 16.2778Z" fill="#171614"/>
<path d="M14.2936 14.9456C14.0434 14.9456 13.7376 15.0484 13.7376 15.1811C13.7376 15.2692 13.7858 15.3762 13.8776 15.3762C13.9515 15.3762 14.0176 15.2656 14.2862 15.2656C14.5547 15.2656 14.6507 15.4754 14.6507 15.6631V15.7292H14.4887C13.9772 15.7292 13.6274 15.8399 13.6274 16.2558C13.6274 16.5872 13.8483 16.7415 14.1168 16.7415C14.3674 16.7415 14.5438 16.6056 14.6728 16.4545V16.5835C14.6728 16.6533 14.7499 16.712 14.8495 16.712C14.956 16.712 15.0372 16.6533 15.0372 16.5835V15.6594C15.0372 15.2913 14.8348 14.9456 14.2936 14.9456ZM14.6507 16.079C14.6507 16.2558 14.4409 16.4472 14.2569 16.4472C14.1205 16.4472 14.0177 16.3737 14.0177 16.208C14.0177 15.9725 14.2789 15.9427 14.5585 15.9427H14.6507V16.079Z" fill="#171614"/>
<path d="M16.3803 14.9456H16.2627C16.0456 14.9456 15.8725 15.0999 15.7954 15.2545V15.0925C15.7954 15.019 15.7142 14.9676 15.6187 14.9676C15.5081 14.9676 15.4309 15.0191 15.4309 15.0925V16.5835C15.4309 16.646 15.5081 16.7121 15.6187 16.7121C15.7289 16.7121 15.8175 16.6459 15.8175 16.5835V15.8288C15.8175 15.4937 16.0383 15.2876 16.2628 15.2876H16.3803C16.4579 15.2876 16.5277 15.2105 16.5277 15.1146C16.5277 15.0227 16.4579 14.9456 16.3803 14.9456Z" fill="#171614"/>
<path d="M18.022 13.9295C17.9118 13.9295 17.8268 13.9809 17.8268 14.0544V15.225C17.746 15.0813 17.5803 14.9454 17.3485 14.9454C16.9877 14.9454 16.6897 15.2727 16.6897 15.6703V16.0091C16.6897 16.3919 16.9913 16.7413 17.3375 16.7413C17.3546 16.7413 17.3713 16.7405 17.3881 16.7388C17.6852 16.4135 17.9611 16.0682 18.2134 15.7058V14.0544C18.2134 13.9809 18.1326 13.9295 18.022 13.9295ZM17.8269 16.0936C17.8269 16.1822 17.6616 16.3993 17.4477 16.3993C17.2452 16.3993 17.0763 16.2079 17.0763 16.0091V15.6703C17.0763 15.4789 17.2452 15.2875 17.4518 15.2875C17.6354 15.2875 17.8269 15.4311 17.8269 15.6703V16.0936Z" fill="#171614"/>
</svg>
