<svg width="20" height="20" viewBox="0 0 20 20" fill="none" xmlns="http://www.w3.org/2000/svg">
<g clip-path="url(#clip0)">
<path d="M16.7981 6.49515C16.3307 9.60863 15.6046 12.3588 11.4014 12.9813C10.5536 13.107 9.50421 13.1123 8.36914 13.0405C7.91199 13.0119 7.51035 13.3425 7.44628 13.796L6.64914 19.4241C5.18832 18.905 3.88343 18.0551 2.82507 16.965L4.85121 2.65679C4.91039 2.23925 5.26792 1.92902 5.68957 1.92902H12.543C14.5148 1.92902 17.265 3.3821 16.7981 6.49515Z" fill="#002C8D"/>
<path d="M17.4437 13.7865C16.1205 16.3033 13.2666 16.4277 12.5923 16.4277H11.8829C11.5046 16.4277 11.1841 16.7065 11.1315 17.0808L10.7237 19.9747C10.4846 19.9918 10.2433 20.0004 10.0001 20.0004C8.82456 20.0004 7.69678 19.7975 6.64905 19.4249L8.38291 7.18083C8.43436 6.81962 8.74331 6.55103 9.10823 6.55103H15.0392C16.1115 6.55103 17.4956 7.17103 17.9368 8.15673C18.3776 9.14243 18.767 11.2702 17.4437 13.7865Z" fill="#008EE7"/>
<path d="M16.7214 6.98166C16.245 9.89104 15.3842 12.3919 11.4014 12.9818C10.5531 13.1071 9.50385 13.1126 8.36901 13.041C7.91139 13.0121 7.50975 13.3422 7.44592 13.7959L8.38225 7.1801C8.43366 6.81897 8.74338 6.55042 9.10764 6.55042H15.0393C15.5741 6.55045 16.1866 6.70456 16.7214 6.98166Z" fill="#142171"/>
</g>
<defs>
<clipPath id="clip0">
<rect width="20" height="20" fill="white"/>
</clipPath>
</defs>
</svg>
