<svg width="20" height="20" viewBox="0 0 20 20" fill="none" xmlns="http://www.w3.org/2000/svg">
<path d="M6.81189 13.2783H8.49947L9.55466 6.70801H7.86767L6.81189 13.2783Z" fill="#191B73"/>
<path d="M7.18734 6.7096L4.53387 13.2729H2.74816L1.4457 8.41409C1.31141 7.91288 0.964063 7.49613 0.495508 7.27288C0.46082 7.25617 0.425703 7.23984 0.390625 7.22433C0.44043 7.05085 0.495117 6.87945 0.553906 6.71003H1.91391C2.47227 6.71738 2.88289 7.05535 3.01187 7.55617L3.58168 10.3423C3.57965 10.3366 3.5768 10.3305 3.57473 10.3248L3.7482 11.1729L5.40168 6.70886V6.70968L7.18734 6.7096Z" fill="#191B73"/>
<path d="M18.9454 6.72919H17.6397C17.2373 6.72919 16.9316 6.84509 16.7573 7.25774L14.2507 13.2794H16.0217L16.5095 11.9757H18.4912L18.7442 13.2843H19.4483C19.6622 12.6691 19.8177 12.0271 19.9075 11.3643L18.9454 6.72919ZM17.0005 10.6598C17.0356 10.6598 17.6805 8.53204 17.6805 8.53204L18.1944 10.6598C18.1944 10.6598 17.334 10.6598 17.0005 10.6598Z" fill="#191B73"/>
<path d="M12.9582 9.38518C12.3684 9.09397 12.0069 8.89737 12.0069 8.59956C12.0142 8.32874 12.3127 8.05127 12.9793 8.05127C13.5276 8.03752 13.9305 8.16635 14.2363 8.29456L14.3894 8.36292L14.6188 6.98823C14.2855 6.85936 13.757 6.71741 13.1041 6.71741C11.4376 6.71741 10.2641 7.58389 10.2568 8.82315C10.243 9.73764 11.0969 10.2451 11.736 10.5496C12.3888 10.8619 12.6111 11.0643 12.6111 11.3417C12.6039 11.7678 12.0832 11.9643 11.5974 11.9643C10.9242 11.9643 10.5626 11.8631 10.0137 11.6257L9.79144 11.5245L9.55542 12.9531C9.95187 13.1293 10.6809 13.2844 11.4376 13.2924C13.2087 13.2924 14.3612 12.439 14.3757 11.1183C14.3814 10.3937 13.9312 9.83881 12.9582 9.38518Z" fill="#191B73"/>
</svg>
