<svg width="20" height="20" viewBox="0 0 20 20" fill="none" xmlns="http://www.w3.org/2000/svg">
<path d="M16.7875 1.34668H3.19302C1.77166 1.34668 0.615234 2.50288 0.615234 3.92446V12.244C0.615234 13.6624 1.76662 14.8167 3.18386 14.8218V18.597L8.60939 14.8218H16.7875C18.2088 14.8218 19.3652 13.6653 19.3652 12.244V3.92446C19.3652 2.50288 18.2088 1.34668 16.7875 1.34668ZM18.2666 12.244C18.2666 13.0595 17.6031 13.7231 16.7875 13.7231H8.26469L4.28249 16.4942V13.7231H3.19302C2.3774 13.7231 1.71387 13.0595 1.71387 12.244V3.92446C1.71387 3.10873 2.3774 2.44531 3.19302 2.44531H16.7875C17.6031 2.44531 18.2666 3.10873 18.2666 3.92446V12.244Z" fill="#D4D4D5"/>
<path d="M5.63354 5.23047H14.3469V6.3291H5.63354V5.23047Z" fill="#D4D4D5"/>
<path d="M5.63354 7.57422H14.3469V8.67285H5.63354V7.57422Z" fill="#D4D4D5"/>
<path d="M5.63354 9.91797H14.3469V11.0166H5.63354V9.91797Z" fill="#D4D4D5"/>
</svg>
