<svg width="40" height="40" viewBox="0 0 40 40" fill="none" xmlns="http://www.w3.org/2000/svg">
<circle cx="20" cy="20" r="20" fill="white"/>
<path d="M29.009 17.4577C28.5038 17.0264 27.8713 16.7923 27.2305 16.7923H26.5816H24.2445H22.9137V13.6748C22.9137 12.3645 22.5317 11.4198 21.7759 10.8653C20.5807 9.98631 18.9336 10.4874 18.8638 10.5121C18.6584 10.5778 18.5187 10.7667 18.5187 10.9803V14.4675C18.5187 15.6052 17.9766 16.5705 16.9045 17.3386C16.1036 17.9136 15.2862 18.1641 15.2 18.1929L15.0809 18.2216C14.9042 17.9218 14.5798 17.7205 14.206 17.7205H11.0145C10.4559 17.7205 10 18.1765 10 18.7351V28.1164C10 28.675 10.4559 29.1309 11.0145 29.1309H14.2142C14.5264 29.1309 14.8098 28.9871 14.9946 28.7653C15.508 29.3116 16.235 29.6525 17.0237 29.6525H19.7304H20.0097H25.5588C27.4441 29.6525 28.6476 28.6668 28.8612 26.9417L29.9661 20.0864C30.118 19.1006 29.7525 18.0902 29.009 17.4577ZM14.2388 28.1164C14.2388 28.1328 14.2265 28.1451 14.2101 28.1451H11.0145C10.9981 28.1451 10.9858 28.1328 10.9858 28.1164V18.7351C10.9858 18.7186 10.9981 18.7063 11.0145 18.7063H14.2142C14.2306 18.7063 14.2429 18.7186 14.2429 18.7351V28.1164H14.2388ZM28.9844 19.9303L27.8836 26.7979C27.8836 26.802 27.8836 26.8102 27.8795 26.8184C27.7275 28.0465 26.9471 28.6709 25.5547 28.6709H20.0056H19.7263H17.0195C16.1447 28.6709 15.3848 28.0178 15.2493 27.1552C15.2452 27.1265 15.2369 27.0977 15.2287 27.069V19.1992L15.4423 19.1499C15.4505 19.1499 15.4546 19.1458 15.4628 19.1458C15.5039 19.1335 16.4774 18.8583 17.459 18.16C18.8022 17.2071 19.5086 15.9297 19.5086 14.4675V11.3746C19.9358 11.3048 20.6669 11.2678 21.1968 11.6621C21.6814 12.0195 21.9279 12.6972 21.9279 13.6748V17.281C21.9279 17.5521 22.1497 17.7739 22.4208 17.7739H24.2445H26.5816H27.2305C27.6372 17.7739 28.0438 17.9259 28.3683 18.2052C28.853 18.6201 29.0912 19.2814 28.9844 19.9303Z" fill="#40404C"/>
</svg>
