<svg width="20" height="20" viewBox="0 0 20 20" fill="none" xmlns="http://www.w3.org/2000/svg">
<path d="M19.009 7.11001C18.5038 6.67873 17.8713 6.44461 17.2305 6.44461H16.5816H14.2445H12.9137V3.3271C12.9137 2.01683 12.5317 1.07213 11.7759 0.517634C10.5807 -0.36135 8.9336 0.139753 8.86377 0.164397C8.6584 0.230116 8.51875 0.419056 8.51875 0.632641V4.11982C8.51875 5.25757 7.97657 6.22281 6.90454 6.9909C6.1036 7.56593 5.28622 7.81648 5.19997 7.84524L5.08085 7.87399C4.90424 7.57415 4.57975 7.37288 4.20598 7.37288H1.01453C0.455921 7.37288 0 7.82881 0 8.38741V17.7687C0 18.3273 0.455921 18.7832 1.01453 18.7832H4.21419C4.52636 18.7832 4.80977 18.6395 4.9946 18.4177C5.50802 18.964 6.23503 19.3049 7.02365 19.3049H9.73043H10.0097H15.5588C17.4441 19.3049 18.6476 18.3191 18.8612 16.594L19.9661 9.73875C20.118 8.75297 19.7525 7.74255 19.009 7.11001ZM4.23884 17.7687C4.23884 17.7851 4.22651 17.7975 4.21009 17.7975H1.01453C0.998098 17.7975 0.985776 17.7851 0.985776 17.7687V8.38741C0.985776 8.37098 0.998098 8.35866 1.01453 8.35866H4.21419C4.23062 8.35866 4.24294 8.37098 4.24294 8.38741V17.7687H4.23884ZM18.9844 9.58267L17.8836 16.4502C17.8836 16.4543 17.8836 16.4626 17.8795 16.4708C17.7275 17.6989 16.9471 18.3232 15.5547 18.3232H10.0056H9.72632H7.01955C6.14467 18.3232 5.3848 17.6701 5.24926 16.8076C5.24515 16.7788 5.23694 16.7501 5.22872 16.7213V8.85155L5.44231 8.80226C5.45052 8.80226 5.45463 8.79815 5.46284 8.79815C5.50392 8.78583 6.47737 8.51063 7.45904 7.81238C8.80216 6.85946 9.50863 5.58206 9.50863 4.11982V1.02695C9.9358 0.957126 10.6669 0.920159 11.1968 1.31447C11.6814 1.67181 11.9279 2.34953 11.9279 3.3271V6.93339C11.9279 7.20448 12.1497 7.42628 12.4208 7.42628H14.2445H16.5816H17.2305C17.6372 7.42628 18.0438 7.57825 18.3683 7.85756C18.853 8.27241 19.0912 8.9337 18.9844 9.58267Z" fill="#D4D4D5"/>
</svg>
