<svg width="40" height="40" viewBox="0 0 40 40" fill="none" xmlns="http://www.w3.org/2000/svg">
<circle cx="20" cy="20" r="20" fill="white"/>
<g clip-path="url(#clip0)">
<path d="M29.8512 10.8012C29.6781 10.6075 29.4051 10.5555 29.1789 10.6544L10.3509 18.8965C10.1423 18.9879 10.0052 19.1922 10.0001 19.4203C9.99507 19.6481 10.1228 19.8582 10.3275 19.959L14.8232 22.1699L15.9435 28.8909C15.9798 29.146 16.1802 29.3511 16.4411 29.3882C16.6286 29.4152 16.8149 29.3491 16.9438 29.2163L20.493 25.6671L25.5578 29.2851C25.7203 29.4007 25.9297 29.4261 26.1141 29.3531C26.2988 29.28 26.434 29.1179 26.4731 28.923L29.9887 11.3059C30.0234 11.1313 29.9785 10.9442 29.8512 10.8012ZM15.2872 21.0922L11.9767 19.4641L25.0555 13.7387L15.2872 21.0922ZM17.1208 22.834L16.5759 25.5585L15.988 22.0312L23.1743 16.6215L17.2806 22.5351C17.1977 22.6179 17.1427 22.7258 17.1208 22.834ZM17.4774 27.0253L18.0923 23.9523L19.5262 24.9765L17.4774 27.0253ZM25.5012 27.8042L18.5977 22.8734L28.4598 12.9786L25.5012 27.8042Z" fill="#40404C"/>
</g>
<defs>
<clipPath id="clip0">
<rect width="20" height="20" fill="white" transform="translate(10 10)"/>
</clipPath>
</defs>
</svg>
