<svg width="40" height="40" viewBox="0 0 40 40" fill="none" xmlns="http://www.w3.org/2000/svg">
<circle cx="20" cy="20" r="20" fill="white"/>
<g clip-path="url(#clip0)">
<path d="M26.0116 20.6993L29.988 14.6875H23.8897L23.7759 15.1286C23.4837 16.2611 22.9353 17.796 21.9824 18.677C21.8646 18.7858 21.753 18.8733 21.6503 18.9433V14.6875H16.3389V15.8633H16.8351V18.5283C16.2398 18.0046 15.4916 17.0053 15.2957 15.2116L15.2385 14.6875H10L10.1799 15.4163C10.8267 18.0371 11.797 20.1842 13.0641 21.7978C14.0985 23.1152 15.3305 24.0825 16.7257 24.6725C17.9718 25.1995 19.1191 25.3288 19.9446 25.3288C20.7038 25.3288 21.1908 25.2194 21.2316 25.2099L21.6795 25.1055L21.7027 23.4903L23.6972 25.2253H30.0001L26.0116 20.6993ZM20.563 20.9405L20.5175 24.1259C19.861 24.1844 18.5601 24.1867 17.1246 23.5643C15.9257 23.0444 14.8608 22.1931 13.9595 21.0339C12.9272 19.7064 12.106 17.9695 11.5137 15.8633H14.2003C14.7818 19.2358 17.1214 20.1085 17.2256 20.1455L18.011 20.4257V15.8633H20.4747V20.4315L21.0932 20.3991C21.1685 20.3952 21.8516 20.3407 22.6583 19.6493C23.5749 18.8637 24.2922 17.5914 24.7936 15.8633H27.8005L24.5342 20.8012L27.3966 24.0493H24.1369L20.563 20.9405Z" fill="#40404C"/>
</g>
<defs>
<clipPath id="clip0">
<rect width="20" height="20" fill="white" transform="translate(10 10)"/>
</clipPath>
</defs>
</svg>
